<?xml version="1.0" encoding="utf-8"?>
<!-- Generator: Adobe Illustrator 23.0.1, SVG Export Plug-In . SVG Version: 6.00 Build 0)  -->
<svg version="1.1" id="Layer_1" xmlns="http://www.w3.org/2000/svg" xmlns:xlink="http://www.w3.org/1999/xlink" x="0px" y="0px"
	 viewBox="0 0 1012 200" style="enable-background:new 0 0 1012 200;" xml:space="preserve">
<style type="text/css">
	.st0{fill:#00214E;}
	.st1{fill:#6795D3;}
</style>
<g id="layer101">
	<path class="st0" d="M209,198.8c0-0.7,1.5-2,3.3-2.8l3.2-1.5l0.3-59.4c0.1-43-0.1-59.8-0.9-60.7c-0.6-0.8-2.2-1.4-3.5-1.4
		c-1.7,0-2.4-0.6-2.4-2c0-1.9,0.7-2,17.5-2s17.5,0.1,17.5,2c0,1.4-0.7,2-2.4,2c-1.3,0-2.9,0.6-3.5,1.4c-0.8,0.9-1,17.7-0.9,60.7
		l0.3,59.4l3.2,1.5c1.8,0.8,3.3,2.1,3.3,2.8c0,0.9-4.2,1.2-17.5,1.2S209,199.7,209,198.8z"/>
	<path class="st0" d="M274,198.8c0-0.7,1.5-2,3.3-2.8l3.2-1.5l0.3-32.5c0.1-22-0.1-33.4-0.9-35.2c-0.6-1.4-2.4-3.2-4-3.9
		c-1.7-0.6-2.9-1.8-2.7-2.6c0.3-1.6,26.5-11.6,28-10.7c0.4,0.3,0.8,3.4,0.8,6.9v6.4l4.4-3c9-6,18.6-8.9,30.2-8.9
		c15,0,27.1,5.6,32.4,15c2.5,4.5,2.5,4.6,3,37l0.5,32.4l3.3,1c1.7,0.5,3.2,1.5,3.2,2.2c0,1.1-3.4,1.4-17.5,1.4
		c-14.3,0-17.5-0.3-17.5-1.4c0-0.8,1.1-1.7,2.5-2c4.4-1.1,4.7-3,4.3-31.9c-0.3-22.2-0.6-27.8-1.9-30.7c-3.6-7.7-10.6-11.3-22.4-11.4
		c-7-0.1-8.8,0.3-14.5,3.1c-11.1,5.4-10.1,1.6-9.8,37.4l0.3,31.4l3.2,1.5c1.8,0.8,3.3,2.1,3.3,2.8c0,0.9-4.2,1.2-17.5,1.2
		C278.2,200,274,199.7,274,198.8z"/>
	<path class="st0" d="M441.7,199.4c-0.3-0.4-10-17.7-21.4-38.6c-11.4-20.9-22-39.2-23.5-40.7c-1.6-1.6-4.1-3.1-5.8-3.4
		c-1.8-0.4-3-1.3-3-2.2c0-1.3,2.8-1.5,21-1.5c17.2,0,21,0.3,21,1.4c0,0.7-1.3,1.9-3,2.6c-1.6,0.7-3.2,2-3.5,3
		c-0.3,1,4.4,11.4,12.3,26.8l12.8,25.2l13.2-25.4c7.9-15.2,13-26,12.6-26.9c-0.3-0.9-2.1-2.1-4-2.7c-1.9-0.6-3.4-1.8-3.4-2.6
		c0-1.1,2.8-1.4,15.5-1.4c12.7,0,15.5,0.3,15.5,1.4c0,0.8-1.5,1.9-3.4,2.6c-1.8,0.6-4.2,2.1-5.4,3.3c-1.1,1.2-11.7,19.5-23.4,40.6
		c-11.8,21.2-21.9,38.6-22.4,38.8C442.8,199.9,442.1,199.7,441.7,199.4z"/>
	<path class="st0" d="M533.9,197.7c-12.3-4.5-21.7-12.9-27.2-24.5c-3-6.2-3.2-7.5-3.2-17.2c0-10,0.2-10.9,3.4-17.5
		c9.1-18.6,28.2-28.4,53-27.3c24.8,1.2,39.7,12.9,42.6,33.6l0.7,5.2h-38.6H526v5.3c0,10.9,5.8,22.1,14.7,28.4
		c6.4,4.6,13.1,6.4,23.3,6.4c12.4-0.1,21-2.7,32.2-9.7c2.1-1.3,4-2.4,4.3-2.4c0.4,0,0.5,1.9,0.3,4.3c-0.3,3.9-0.7,4.5-6.5,8.4
		c-11.6,7.7-15.4,8.7-35.8,9C541.7,200,540.1,199.9,533.9,197.7z M579.5,138.3c-1.2-6.9-4.5-12.3-9.3-15.4c-15-9.5-35-3.5-41.8,12.6
		c-2.8,6.9-4.2,6.5,25.2,6.5h26.6L579.5,138.3z"/>
	<path class="st0" d="M633.8,197.7c-3.7-1.3-6.9-2.5-7.2-2.8c-0.2-0.2-0.6-4.1-1-8.5c-0.5-6.8-0.4-8.3,0.9-8.8
		c1-0.4,2.1,0.7,3.5,3.3c4.4,8.7,13.6,13.1,27.4,13.1c12.6,0,19.6-4.6,19.6-12.7c0-6.9-6.2-12-21.1-17.4
		c-21.6-7.8-28.7-13.6-30.5-24.6c-2.8-17.5,19.1-30.8,45.1-27.4c8.6,1.2,18.1,3.6,18.9,4.9c0.2,0.4,0.7,3.7,1.1,7.5l0.7,6.7h-2.6
		c-1.7,0-2.6-0.5-2.6-1.6c0-2.7-6.4-8.1-11.1-9.5c-2.4-0.7-8.2-1.2-12.9-1.3c-6.9,0-9.3,0.4-12.7,2.2c-13.2,6.9-8.5,18.4,10.3,25.1
		c24.1,8.6,29.1,11.2,34,17.7c2.6,3.4,2.9,4.5,2.9,11.3c0,6.6-0.4,8.1-2.6,11.4c-3.5,5.1-9.5,9.3-16.5,11.7c-4.7,1.7-8.3,2-21.3,2
		C642.5,200,639.6,199.7,633.8,197.7z"/>
	<path class="st0" d="M746.5,198.4c-5.8-2.1-11-6.7-13.7-12.1c-2.2-4.7-2.3-5.7-2.6-34.5l-0.4-29.8h-6.4H717v-4v-4h6.5h6.5v-8.5V97
		h11h11v8.5v8.5h16.5H785v4v4h-17.1h-17l0.3,28.8c0.3,33.1,0.6,34.2,8.6,38.9c5.9,3.5,15.3,3.7,22.5,0.4c6-2.6,5.7-2.6,5.7,0.2
		c0,1.7-1.4,3.1-5.7,5.7c-5.7,3.5-5.8,3.5-18.8,3.7C754.1,199.9,749.4,199.5,746.5,198.4z"/>
	<path class="st0" d="M832.2,197.6c-12.7-4.8-21.6-12.7-26.7-23.8c-7.5-16.4-4.6-33.5,8-46.7c9.8-10.3,21.2-15,38-15.8
		c13.2-0.7,19.9,0.6,29.4,5.3c11.8,5.9,18.8,15.5,19.8,27.5l0.6,5.9h-38.8h-38.8l0.6,6.4c1.4,15.4,9.6,26.4,23.5,31.6
		c6.4,2.4,19.8,2.9,27.8,0.9c4.8-1.1,16.6-6.5,20.8-9.4c3.1-2.2,3.6-1.9,3.6,2.4c0,3.8-0.3,4.2-7.1,8.6c-3.8,2.6-10,5.8-13.7,7.1
		c-6.1,2.1-8.3,2.4-23.7,2.3C840.2,199.9,837.9,199.7,832.2,197.6z M878,138.8c-0.1-7.5-6.8-16.2-14.7-18.9c-6.1-2.1-17-1.6-22.5,1
		c-7.3,3.5-12.6,10-15.2,18.9l-0.7,2.2h26.5H878V138.8z"/>
	<path class="st0" d="M948.5,197.7c-22.7-8.5-35.2-31.5-28.6-52.6c2.6-8.4,6-13.7,12.5-19.9c16.4-15.6,45.9-19.5,72.5-9.6l7.1,2.6
		v8.9c0,8.3-0.1,8.9-2,8.9c-1.2,0-4.4-2.3-7.3-5.4c-6-6.1-11.1-9-19.9-11.2c-16.4-4.2-31.4,3-38.7,18.5c-2.3,4.9-2.6,6.9-2.6,15.6
		s0.3,10.7,2.6,15.6c7,14.8,21.9,22,41.2,19.7c7.1-0.9,16.8-4.6,22.7-8.8c3.8-2.7,4-2.6,4,1.8c0,2.7-0.7,4.5-2.2,5.9
		c-3.8,3.4-10.7,7.4-17.4,9.9c-5.8,2.2-7.9,2.4-22.2,2.3C956.5,199.9,953.7,199.6,948.5,197.7z"/>
	<path class="st0" d="M76,138.6v-7.5l-4.7-0.6c-16.9-2.3-30.3-8.5-40.8-18.9c-10.1-10-13.8-17.2-17-32.8c-0.5-2.7-0.8-2.8-7-2.8H0
		v-3.5V69h38h38V46.5C76,29,75.7,24,74.7,24c-3.2,0-14.9,3.9-19.3,6.5c-10,5.9-18.7,16-22,25.9L31.8,61h-8.5h-8.5l0.6-2.7
		c0.4-1.6,2.2-5.9,4.1-9.8c8.1-16.8,27.6-30,48.3-32.8l8.2-1.1V7.3V0h3.5H83v34.5V69h38h38v3.5V76h-6.8h-6.8l-1.1,6.7
		c-3.8,22.1-25.3,42.1-50,46.6L91,130v-4.8v-4.7l7.6-3.4c15.2-6.9,26.6-21.2,28.9-36.4l0.7-4.7h-22.6H83v35v35h-3.5H76V138.6z
		 M76,98.5V76H53.4H30.7l0.6,5.3c1.4,11.5,11.9,26.6,23.2,33.3c5.3,3,14.7,6.3,18.8,6.3L76,121V98.5z"/>
	<path class="st0" d="M126.4,59.3c-4.1-12.7-14.5-24.8-25.7-30.2c-3.6-1.7-7.2-3.1-8.1-3.1c-1.3,0-1.6-1.1-1.6-5
		c0-5.9,0.4-6,10.6-2.9c10.6,3.2,19.1,8.4,27.4,16.8c7.3,7.3,12.6,15.9,14.4,23.4L144,61h-8.5C128.2,61,126.9,60.7,126.4,59.3z"/>
</g>
<g id="layer102">
	<path class="st1" d="M76,138.6v-7.5l-4.7-0.6c-16.9-2.3-30.3-8.5-40.8-18.9c-10.1-10-13.8-17.2-17-32.8c-0.5-2.7-0.8-2.8-7-2.8H0
		v-3.5V69h38h38V46.5C76,29,75.7,24,74.7,24c-3.2,0-14.9,3.9-19.3,6.5c-10,5.9-18.7,16-22,25.9L31.8,61h-8.5h-8.5l0.6-2.7
		c0.4-1.6,2.2-5.9,4.1-9.8c8.1-16.8,27.6-30,48.3-32.8l8.2-1.1V7.3V0h3.5H83v34.5V69h38h38v3.5V76h-6.8h-6.8l-1.1,6.7
		c-3.8,22.1-25.3,42.1-50,46.6L91,130v-4.8v-4.7l7.6-3.4c15.2-6.9,26.6-21.2,28.9-36.4l0.7-4.7h-22.6H83v35v35h-3.5H76V138.6z
		 M76,98.5V76H53.4H30.7l0.6,5.3c1.4,11.5,11.9,26.6,23.2,33.3c5.3,3,14.7,6.3,18.8,6.3L76,121V98.5z"/>
	<path class="st1" d="M126.4,59.3c-4.1-12.7-14.5-24.8-25.7-30.2c-3.6-1.7-7.2-3.1-8.1-3.1c-1.3,0-1.6-1.1-1.6-5
		c0-5.9,0.4-6,10.6-2.9c10.6,3.2,19.1,8.4,27.4,16.8c7.3,7.3,12.6,15.9,14.4,23.4L144,61h-8.5C128.2,61,126.9,60.7,126.4,59.3z"/>
</g>
</svg>
