<?xml version="1.0" encoding="utf-8"?>
<!-- Generator: Adobe Illustrator 23.0.1, SVG Export Plug-In . SVG Version: 6.00 Build 0)  -->
<svg version="1.1" id="Layer_1" xmlns="http://www.w3.org/2000/svg" xmlns:xlink="http://www.w3.org/1999/xlink" x="0px" y="0px"
	 viewBox="0 0 500 183" style="enable-background:new 0 0 500 183;" xml:space="preserve">
<style type="text/css">
	.st0{fill:#040405;}
	.st1{fill:#484936;}
	.st2{fill:#AB1226;}
	.st3{fill:#4D3D8A;}
	.st4{fill:#986224;}
	.st5{fill:#A10C78;}
	.st6{fill:#914E6D;}
	.st7{fill:#6B5B9B;}
	.st8{fill:#1E88C7;}
	.st9{fill:#A1BD32;}
	.st10{fill:#F1CB0A;}
	.st11{fill:#A8A69E;}
</style>
<g id="layer101">
	<path class="st0" d="M27,145.5V131h223h223v14.5V160H250H27V145.5z"/>
	<path class="st0" d="M264.9,112.5c-6.2-2-8.6-4.7-7.1-8c1.6-3.6,3.6-4,9.4-2.1c2.8,0.9,6.1,1.6,7.5,1.6c3.5,0,8.3-5.1,8.3-8.8
		c0-3,0-3-4-2c-6.6,1.7-12.6,0.2-17.6-4.4c-5.3-4.9-6.4-8.4-6.4-20.3c0.1-12.6,3.5-19.5,11.3-22.4c3.7-1.4,14.6-1.4,20.3,0
		c7.3,1.9,7.4,2.3,7.4,27.9c0,12.4-0.5,24.2-1,26.2C289.9,111.2,277.9,116.5,264.9,112.5z M279.6,82.5l3.5-1.4l-0.3-12.8l-0.3-12.8
		l-6-0.3c-9.2-0.4-9.9,0.5-10.3,12.6c-0.4,10.7,0.4,13.7,4.1,15.2C273.5,84.3,275.6,84.2,279.6,82.5z"/>
	<path class="st0" d="M29.8,92.9C28.1,92,28,89.4,28,61.1V30.3l2.3-2.1c2.1-2,3.4-2.2,13.6-2.2c10,0,11.8,0.3,16.7,2.6
		c7.3,3.5,10.9,9.3,10.9,17.9c0,9.3-2.5,13.2-12.3,19.1c-0.2,0.1,2.6,5,6.2,10.9C69,82.4,72,88,72,89c0,2.3-3.1,5-5.8,5
		c-2.5,0-3.9-1.7-12.7-16.3c-6.9-11.5-7-11.6-10.7-11.7H39v12.4c0,11.8-0.1,12.6-2.2,14C34.2,94.2,32.2,94.4,29.8,92.9z M58.2,53.3
		c2.2-2.3,2.7-8.8,0.9-12.2c-1.7-3-5.1-4.1-13.2-4.1H39v9.6v9.7l8.6-0.6C54.3,55.3,56.7,54.8,58.2,53.3z"/>
	<path class="st0" d="M84.9,93c-4.4-1.3-8.8-5.1-10.9-9.5c-2.8-5.7-2.8-22.1-0.1-28C77.4,47.9,82.4,45,91.8,45
		c11.1,0,18,6.7,18.9,18.3c0.5,5.6,0.3,6.7-1.6,8.6c-1.9,1.9-3.2,2.1-14.2,2.1H82.8l0.6,3.2c0.3,1.7,1.1,3.7,1.7,4.4
		c1.9,2.3,7.6,2.7,13,1c5.6-1.9,8.4-1.4,10,1.5C111.4,90.3,95.7,96.3,84.9,93z M99.5,61.3c-1.1-4.5-3.4-6.3-8-6.3s-6.9,1.8-8,6.3
		L82.8,64h8.7h8.7L99.5,61.3z"/>
	<path class="st0" d="M122.8,93c-7-2.1-10.8-7.3-10.8-14.7c0-4.1,0.5-5.8,2.6-8.3c3.9-4.5,7.8-6.1,16.6-6.7c7.3-0.6,7.8-0.7,7.8-2.9
		c0-1.2-0.7-3-1.6-3.8c-2-2.1-9.3-2.1-14.1-0.1c-4.2,1.8-6.8,1.2-8.4-1.7c-0.9-1.6-0.7-2.6,0.8-4.6c2.6-3.5,7.5-5,16.4-5.1
		c6.3-0.1,8.2,0.3,10.9,2.1c6.1,4.2,7,7.4,7,24.8c0,11.2-0.4,16.1-1.3,17.4C146.2,92.8,129.8,95.1,122.8,93z M135.9,83.4
		c3-0.6,3.1-0.9,3.1-5.5V73h-4.9c-8.9,0-12.8,2.6-11.1,7.4C124.1,83.6,129.1,84.7,135.9,83.4z"/>
	<path class="st0" d="M163.4,92.1c-2.3-1-5.4-3.6-7-5.7c-2.8-3.6-2.9-4.3-3.2-16c-0.3-10.7-0.1-12.7,1.7-16.2
		c3.5-6.8,7.2-8.7,16.9-8.7h8.2V38c0-8.7,1.6-12,5.7-12c5,0,5.2,1.2,5.3,32.6c0,22.2-0.3,29.4-1.3,30.8c-1.5,2.1-11.2,4.6-17.7,4.6
		C169.5,94,165.6,93.1,163.4,92.1z M177.6,83.4l2.9-0.5l-0.3-12.7c-0.3-14.5-0.7-15.2-8.1-15.2c-7.3,0-8.1,1.4-8.1,13.9
		c0,5.8,0.4,11.1,0.8,11.7C166.8,83.6,171.6,84.6,177.6,83.4z"/>
	<path class="st0" d="M199,92c-1.9-1.9-2-3.3-2-22.9c0-22.9,0.3-24.1,5.9-24.1c4.9,0,5.1,0.8,5.1,24.1c0,18.4-0.2,22-1.6,23.3
		C204.3,94.6,201.4,94.4,199,92z"/>
	<path class="st0" d="M215,92c-1.9-1.9-2-3.3-2-21.3c0-22,0.2-22.8,7.4-24.6c6.3-1.6,18.1-1.4,21.4,0.3c3.6,1.9,7.8,6.5,9.1,9.9
		c0.6,1.6,1.1,9.9,1.1,18.7c0,17.2-0.5,19-5.5,19c-4.7,0-5.5-3-5.5-19.7c0-14.1-0.2-15.5-2-17.3c-1.7-1.7-3.1-2-8.3-1.8l-6.2,0.3
		L224,73.8c-0.4,14.8-0.8,18.5-2,19.2C219.6,94.5,217.2,94.2,215,92z"/>
	<path class="st0" d="M306,92.9c-1.9-0.6-4.1-1.5-4.7-2.1c-1-0.8-1.3-8.6-1.3-32.9V26h2.5h2.5v11.4v11.4l3.1-1.5
		c4.3-2.1,13.1-1.9,17.2,0.4c1.8,1,4.2,3.8,5.5,6.3c2.1,4.1,2.3,5.6,2,17.2c-0.3,13.7-1,15.6-7.1,20.2
		C322.5,93.8,311.7,94.6,306,92.9z M322.9,87.5c4-2,5.1-6.1,5.1-18.1s-0.8-14.7-5.2-17.4c-4.1-2.5-8.1-2.5-13.5,0l-4.3,1.9v17
		c0,19.3-0.8,17.8,9.3,18C317.7,89,321.3,88.4,322.9,87.5z"/>
	<path class="st0" d="M348.5,92.7c-4.5-2.1-8.3-7.1-9-12c-0.3-2.3-0.5-10.9-0.3-19.2c0.3-14.7,0.3-15,2.6-15.3l2.2-0.3v16.9
		c0,18.7,0.8,22.5,5.1,24.7c2.8,1.5,11.5,2,15.7,0.9c2.2-0.6,2.2-0.7,2.2-21.5V46h2.5h2.5l-0.2,22.2l-0.3,22.3l-2.8,1.3
		C364.5,93.8,352.1,94.3,348.5,92.7z"/>
	<path class="st0" d="M382.5,92.6c-3-0.9-4.1-1.7-4.3-3.5c-0.3-2.1-0.1-2.3,2.5-1.7c1.5,0.4,5.5,1,8.8,1.3
		c7.5,0.6,10.5-1.5,10.5-7.6c0-4.5-1.2-5.7-10-10.1c-9.7-4.8-12-7.3-12-13.3c0-4,0.5-5.3,2.8-7.7c1.6-1.5,4.4-3.2,6.4-3.8
		c3.8-1,12.3-0.1,15.8,1.8c3.1,1.7,1.9,3.5-2.1,3.3c-12.7-0.9-13.8-0.8-16,1.4c-2.4,2.4-2.8,6.5-0.8,8.9c0.8,0.9,4.7,3.3,8.7,5.2
		c9.3,4.5,12.2,7.8,12.2,13.9C405,91.2,395.2,96.4,382.5,92.6z"/>
	<path class="st0" d="M417.2,91.9c-6.8-3.4-8.2-7.2-8.2-22.1c0-9.7,0.4-13,1.8-15.7c3.2-6.5,10.3-9.6,18.3-8.1
		c3.2,0.6,5.3,1.9,8.1,4.9c3.7,3.9,3.8,4.2,3.8,11.5c0,5.8-0.3,7.5-1.6,8c-0.9,0.3-7,0.6-13.6,0.6h-12l0.4,6.6c0.4,5.8,0.8,7,3.2,9
		c3.2,2.8,10,3.2,16.4,1c3.5-1.3,4.2-1.3,5.2-0.1c1.7,2,0.6,3.1-4.7,4.9C427.9,94.6,422.3,94.4,417.2,91.9z M437,63.8
		c0-10.8-8.3-16.6-17.5-12.3c-3.8,1.9-5.5,5.1-5.5,10.5v4h11.5C436.8,66,437,66,437,63.8z"/>
	<path class="st0" d="M450.5,92.6c-3-0.9-4.1-1.7-4.3-3.5c-0.3-2.1-0.1-2.3,2.5-1.7c1.5,0.4,5.5,1,8.8,1.3
		c7.5,0.6,10.5-1.5,10.5-7.6c0-4.5-1.2-5.7-10-10.1c-9.7-4.8-12-7.3-12-13.3c0-4,0.5-5.3,2.8-7.7c1.6-1.5,4.4-3.2,6.4-3.8
		c3.8-1,12.3-0.1,15.8,1.8c3.1,1.7,1.9,3.5-2.1,3.3c-12.7-0.9-13.8-0.8-16,1.4c-2.4,2.4-2.8,6.5-0.8,8.9c0.8,0.9,4.7,3.3,8.7,5.2
		c9.3,4.5,12.2,7.8,12.2,13.9C473,91.2,463.2,96.4,450.5,92.6z"/>
	<path class="st0" d="M198.7,36.2c-3.7-4-0.9-10.2,4.6-10.2c2.9,0,5.7,3.2,5.7,6.6C209,37.3,201.9,39.8,198.7,36.2z"/>
</g>
<g id="layer102">
	<path class="st1" d="M27,145.5V131h223h223v14.5V160H250H27V145.5z"/>
	<path class="st1" d="M306,92.9c-1.9-0.6-4.1-1.5-4.7-2.1c-1-0.8-1.3-8.6-1.3-32.9V26h2.5h2.5v11.4v11.4l3.1-1.5
		c4.3-2.1,13.1-1.9,17.2,0.4c1.8,1,4.2,3.8,5.5,6.3c2.1,4.1,2.3,5.6,2,17.2c-0.3,13.7-1,15.6-7.1,20.2
		C322.5,93.8,311.7,94.6,306,92.9z M322.9,87.5c4-2,5.1-6.1,5.1-18.1s-0.8-14.7-5.2-17.4c-4.1-2.5-8.1-2.5-13.5,0l-4.3,1.9v17
		c0,19.3-0.8,17.8,9.3,18C317.7,89,321.3,88.4,322.9,87.5z"/>
	<path class="st1" d="M348.5,92.7c-4.5-2.1-8.3-7.1-9-12c-0.3-2.3-0.5-10.9-0.3-19.2c0.3-14.7,0.3-15,2.6-15.3l2.2-0.3v16.9
		c0,18.7,0.8,22.5,5.1,24.7c2.8,1.5,11.5,2,15.7,0.9c2.2-0.6,2.2-0.7,2.2-21.5V46h2.5h2.5l-0.2,22.2l-0.3,22.3l-2.8,1.3
		C364.5,93.8,352.1,94.3,348.5,92.7z"/>
	<path class="st1" d="M382.5,92.6c-3-0.9-4.1-1.7-4.3-3.5c-0.3-2.1-0.1-2.3,2.5-1.7c1.5,0.4,5.5,1,8.8,1.3
		c7.5,0.6,10.5-1.5,10.5-7.6c0-4.5-1.2-5.7-10-10.1c-9.7-4.8-12-7.3-12-13.3c0-4,0.5-5.3,2.8-7.7c1.6-1.5,4.4-3.2,6.4-3.8
		c3.8-1,12.3-0.1,15.8,1.8c3.1,1.7,1.9,3.5-2.1,3.3c-12.7-0.9-13.8-0.8-16,1.4c-2.4,2.4-2.8,6.5-0.8,8.9c0.8,0.9,4.7,3.3,8.7,5.2
		c9.3,4.5,12.2,7.8,12.2,13.9C405,91.2,395.2,96.4,382.5,92.6z"/>
	<path class="st1" d="M417.2,91.9c-6.8-3.4-8.2-7.2-8.2-22.1c0-9.7,0.4-13,1.8-15.7c3.2-6.5,10.3-9.6,18.3-8.1
		c3.2,0.6,5.3,1.9,8.1,4.9c3.7,3.9,3.8,4.2,3.8,11.5c0,5.8-0.3,7.5-1.6,8c-0.9,0.3-7,0.6-13.6,0.6h-12l0.4,6.6c0.4,5.8,0.8,7,3.2,9
		c3.2,2.8,10,3.2,16.4,1c3.5-1.3,4.2-1.3,5.2-0.1c1.7,2,0.6,3.1-4.7,4.9C427.9,94.6,422.3,94.4,417.2,91.9z M437,63.8
		c0-10.8-8.3-16.6-17.5-12.3c-3.8,1.9-5.5,5.1-5.5,10.5v4h11.5C436.8,66,437,66,437,63.8z"/>
	<path class="st1" d="M450.5,92.6c-3-0.9-4.1-1.7-4.3-3.5c-0.3-2.1-0.1-2.3,2.5-1.7c1.5,0.4,5.5,1,8.8,1.3
		c7.5,0.6,10.5-1.5,10.5-7.6c0-4.5-1.2-5.7-10-10.1c-9.7-4.8-12-7.3-12-13.3c0-4,0.5-5.3,2.8-7.7c1.6-1.5,4.4-3.2,6.4-3.8
		c3.8-1,12.3-0.1,15.8,1.8c3.1,1.7,1.9,3.5-2.1,3.3c-12.7-0.9-13.8-0.8-16,1.4c-2.4,2.4-2.8,6.5-0.8,8.9c0.8,0.9,4.7,3.3,8.7,5.2
		c9.3,4.5,12.2,7.8,12.2,13.9C473,91.2,463.2,96.4,450.5,92.6z"/>
</g>
<g id="layer103">
	<path class="st2" d="M27,145.5V131h223h223v14.5V160H339.5H206v-7v-7h-30.5H145v7v7H86H27V145.5z"/>
	<path class="st2" d="M306,92.9c-1.9-0.6-4.1-1.5-4.7-2.1c-1-0.8-1.3-8.6-1.3-32.9V26h2.5h2.5v11.4v11.4l3.1-1.5
		c4.3-2.1,13.1-1.9,17.2,0.4c1.8,1,4.2,3.8,5.5,6.3c2.1,4.1,2.3,5.6,2,17.2c-0.3,13.7-1,15.6-7.1,20.2
		C322.5,93.8,311.7,94.6,306,92.9z M322.9,87.5c4-2,5.1-6.1,5.1-18.1s-0.8-14.7-5.2-17.4c-4.1-2.5-8.1-2.5-13.5,0l-4.3,1.9v17
		c0,19.3-0.8,17.8,9.3,18C317.7,89,321.3,88.4,322.9,87.5z"/>
	<path class="st2" d="M348.5,92.7c-4.5-2.1-8.3-7.1-9-12c-0.3-2.3-0.5-10.9-0.3-19.2c0.3-14.7,0.3-15,2.6-15.3l2.2-0.3v16.9
		c0,18.7,0.8,22.5,5.1,24.7c2.8,1.5,11.5,2,15.7,0.9c2.2-0.6,2.2-0.7,2.2-21.5V46h2.5h2.5l-0.2,22.2l-0.3,22.3l-2.8,1.3
		C364.5,93.8,352.1,94.3,348.5,92.7z"/>
	<path class="st2" d="M382.5,92.6c-3-0.9-4.1-1.7-4.3-3.5c-0.3-2.1-0.1-2.3,2.5-1.7c1.5,0.4,5.5,1,8.8,1.3
		c7.5,0.6,10.5-1.5,10.5-7.6c0-4.5-1.2-5.7-10-10.1c-9.7-4.8-12-7.3-12-13.3c0-4,0.5-5.3,2.8-7.7c1.6-1.5,4.4-3.2,6.4-3.8
		c3.8-1,12.3-0.1,15.8,1.8c3.1,1.7,1.9,3.5-2.1,3.3c-12.7-0.9-13.8-0.8-16,1.4c-2.4,2.4-2.8,6.5-0.8,8.9c0.8,0.9,4.7,3.3,8.7,5.2
		c9.3,4.5,12.2,7.8,12.2,13.9C405,91.2,395.2,96.4,382.5,92.6z"/>
	<path class="st2" d="M417.2,91.9c-6.8-3.4-8.2-7.2-8.2-22.1c0-9.7,0.4-13,1.8-15.7c3.2-6.5,10.3-9.6,18.3-8.1
		c3.2,0.6,5.3,1.9,8.1,4.9c3.7,3.9,3.8,4.2,3.8,11.5c0,5.8-0.3,7.5-1.6,8c-0.9,0.3-7,0.6-13.6,0.6h-12l0.4,6.6c0.4,5.8,0.8,7,3.2,9
		c3.2,2.8,10,3.2,16.4,1c3.5-1.3,4.2-1.3,5.2-0.1c1.7,2,0.6,3.1-4.7,4.9C427.9,94.6,422.3,94.4,417.2,91.9z M437,63.8
		c0-10.8-8.3-16.6-17.5-12.3c-3.8,1.9-5.5,5.1-5.5,10.5v4h11.5C436.8,66,437,66,437,63.8z"/>
	<path class="st2" d="M450.5,92.6c-3-0.9-4.1-1.7-4.3-3.5c-0.3-2.1-0.1-2.3,2.5-1.7c1.5,0.4,5.5,1,8.8,1.3
		c7.5,0.6,10.5-1.5,10.5-7.6c0-4.5-1.2-5.7-10-10.1c-9.7-4.8-12-7.3-12-13.3c0-4,0.5-5.3,2.8-7.7c1.6-1.5,4.4-3.2,6.4-3.8
		c3.8-1,12.3-0.1,15.8,1.8c3.1,1.7,1.9,3.5-2.1,3.3c-12.7-0.9-13.8-0.8-16,1.4c-2.4,2.4-2.8,6.5-0.8,8.9c0.8,0.9,4.7,3.3,8.7,5.2
		c9.3,4.5,12.2,7.8,12.2,13.9C473,91.2,463.2,96.4,450.5,92.6z"/>
</g>
<g id="layer104">
	<path class="st3" d="M27,145.5V131h142.5H312v7.5v7.5h33.5H379v-7.5V131h47h47v7.5v7.5h-35.5H402v7v7h-98h-98v-7v-7h-30.5H145v7v7
		H86H27V145.5z"/>
	<path class="st3" d="M306,92.9c-1.9-0.6-4.1-1.5-4.7-2.1c-1-0.8-1.3-8.6-1.3-32.9V26h2.5h2.5v11.4v11.4l3.1-1.5
		c4.3-2.1,13.1-1.9,17.2,0.4c1.8,1,4.2,3.8,5.5,6.3c2.1,4.1,2.3,5.6,2,17.2c-0.3,13.7-1,15.6-7.1,20.2
		C322.5,93.8,311.7,94.6,306,92.9z M322.9,87.5c4-2,5.1-6.1,5.1-18.1s-0.8-14.7-5.2-17.4c-4.1-2.5-8.1-2.5-13.5,0l-4.3,1.9v17
		c0,19.3-0.8,17.8,9.3,18C317.7,89,321.3,88.4,322.9,87.5z"/>
	<path class="st3" d="M348.5,92.7c-4.5-2.1-8.3-7.1-9-12c-0.3-2.3-0.5-10.9-0.3-19.2c0.3-14.7,0.3-15,2.6-15.3l2.2-0.3v16.9
		c0,18.7,0.8,22.5,5.1,24.7c2.8,1.5,11.5,2,15.7,0.9c2.2-0.6,2.2-0.7,2.2-21.5V46h2.5h2.5l-0.2,22.2l-0.3,22.3l-2.8,1.3
		C364.5,93.8,352.1,94.3,348.5,92.7z"/>
	<path class="st3" d="M382.5,92.6c-3-0.9-4.1-1.7-4.3-3.5c-0.3-2.1-0.1-2.3,2.5-1.7c1.5,0.4,5.5,1,8.8,1.3
		c7.5,0.6,10.5-1.5,10.5-7.6c0-4.5-1.2-5.7-10-10.1c-9.7-4.8-12-7.3-12-13.3c0-4,0.5-5.3,2.8-7.7c1.6-1.5,4.4-3.2,6.4-3.8
		c3.8-1,12.3-0.1,15.8,1.8c3.1,1.7,1.9,3.5-2.1,3.3c-12.7-0.9-13.8-0.8-16,1.4c-2.4,2.4-2.8,6.5-0.8,8.9c0.8,0.9,4.7,3.3,8.7,5.2
		c9.3,4.5,12.2,7.8,12.2,13.9C405,91.2,395.2,96.4,382.5,92.6z"/>
	<path class="st3" d="M417.2,91.9c-6.8-3.4-8.2-7.2-8.2-22.1c0-9.7,0.4-13,1.8-15.7c3.2-6.5,10.3-9.6,18.3-8.1
		c3.2,0.6,5.3,1.9,8.1,4.9c3.7,3.9,3.8,4.2,3.8,11.5c0,5.8-0.3,7.5-1.6,8c-0.9,0.3-7,0.6-13.6,0.6h-12l0.4,6.6c0.4,5.8,0.8,7,3.2,9
		c3.2,2.8,10,3.2,16.4,1c3.5-1.3,4.2-1.3,5.2-0.1c1.7,2,0.6,3.1-4.7,4.9C427.9,94.6,422.3,94.4,417.2,91.9z M437,63.8
		c0-10.8-8.3-16.6-17.5-12.3c-3.8,1.9-5.5,5.1-5.5,10.5v4h11.5C436.8,66,437,66,437,63.8z"/>
	<path class="st3" d="M450.5,92.6c-3-0.9-4.1-1.7-4.3-3.5c-0.3-2.1-0.1-2.3,2.5-1.7c1.5,0.4,5.5,1,8.8,1.3
		c7.5,0.6,10.5-1.5,10.5-7.6c0-4.5-1.2-5.7-10-10.1c-9.7-4.8-12-7.3-12-13.3c0-4,0.5-5.3,2.8-7.7c1.6-1.5,4.4-3.2,6.4-3.8
		c3.8-1,12.3-0.1,15.8,1.8c3.1,1.7,1.9,3.5-2.1,3.3c-12.7-0.9-13.8-0.8-16,1.4c-2.4,2.4-2.8,6.5-0.8,8.9c0.8,0.9,4.7,3.3,8.7,5.2
		c9.3,4.5,12.2,7.8,12.2,13.9C473,91.2,463.2,96.4,450.5,92.6z"/>
</g>
<g id="layer105">
	<path class="st4" d="M27,153v-7h37h37v-7.5V131h105.6h105.5l-0.2,7.3l-0.2,7.2h33.8h33.8l-0.2-7.2l-0.2-7.3h47H473v7.5v7.5h-35.5
		H402v7v7h-98h-98v-7v-7h-30.5H145v7v7H86H27V153z"/>
	<path class="st4" d="M306,92.9c-1.9-0.6-4.1-1.5-4.7-2.1c-1-0.8-1.3-8.6-1.3-32.9V26h2.5h2.5v11.4v11.4l3.1-1.5
		c4.3-2.1,13.1-1.9,17.2,0.4c1.8,1,4.2,3.8,5.5,6.3c2.1,4.1,2.3,5.6,2,17.2c-0.3,13.7-1,15.6-7.1,20.2
		C322.5,93.8,311.7,94.6,306,92.9z M322.9,87.5c4-2,5.1-6.1,5.1-18.1s-0.8-14.7-5.2-17.4c-4.1-2.5-8.1-2.5-13.5,0l-4.3,1.9v17
		c0,19.3-0.8,17.8,9.3,18C317.7,89,321.3,88.4,322.9,87.5z"/>
	<path class="st4" d="M348.5,92.7c-4.5-2.1-8.3-7.1-9-12c-0.3-2.3-0.5-10.9-0.3-19.2c0.3-14.7,0.3-15,2.6-15.3l2.2-0.3v16.9
		c0,18.7,0.8,22.5,5.1,24.7c2.8,1.5,11.5,2,15.7,0.9c2.2-0.6,2.2-0.7,2.2-21.5V46h2.5h2.5l-0.2,22.2l-0.3,22.3l-2.8,1.3
		C364.5,93.8,352.1,94.3,348.5,92.7z"/>
	<path class="st4" d="M382.5,92.6c-3-0.9-4.1-1.7-4.3-3.5c-0.3-2.1-0.1-2.3,2.5-1.7c1.5,0.4,5.5,1,8.8,1.3
		c7.5,0.6,10.5-1.5,10.5-7.6c0-4.5-1.2-5.7-10-10.1c-9.7-4.8-12-7.3-12-13.3c0-4,0.5-5.3,2.8-7.7c1.6-1.5,4.4-3.2,6.4-3.8
		c3.8-1,12.3-0.1,15.8,1.8c3.1,1.7,1.9,3.5-2.1,3.3c-12.7-0.9-13.8-0.8-16,1.4c-2.4,2.4-2.8,6.5-0.8,8.9c0.8,0.9,4.7,3.3,8.7,5.2
		c9.3,4.5,12.2,7.8,12.2,13.9C405,91.2,395.2,96.4,382.5,92.6z"/>
	<path class="st4" d="M417.2,91.9c-6.8-3.4-8.2-7.2-8.2-22.1c0-9.7,0.4-13,1.8-15.7c3.2-6.5,10.3-9.6,18.3-8.1
		c3.2,0.6,5.3,1.9,8.1,4.9c3.7,3.9,3.8,4.2,3.8,11.5c0,5.8-0.3,7.5-1.6,8c-0.9,0.3-7,0.6-13.6,0.6h-12l0.4,6.6c0.4,5.8,0.8,7,3.2,9
		c3.2,2.8,10,3.2,16.4,1c3.5-1.3,4.2-1.3,5.2-0.1c1.7,2,0.6,3.1-4.7,4.9C427.9,94.6,422.3,94.4,417.2,91.9z M437,63.8
		c0-10.8-8.3-16.6-17.5-12.3c-3.8,1.9-5.5,5.1-5.5,10.5v4h11.5C436.8,66,437,66,437,63.8z"/>
	<path class="st4" d="M450.5,92.6c-3-0.9-4.1-1.7-4.3-3.5c-0.3-2.1-0.1-2.3,2.5-1.7c1.5,0.4,5.5,1,8.8,1.3
		c7.5,0.6,10.5-1.5,10.5-7.6c0-4.5-1.2-5.7-10-10.1c-9.7-4.8-12-7.3-12-13.3c0-4,0.5-5.3,2.8-7.7c1.6-1.5,4.4-3.2,6.4-3.8
		c3.8-1,12.3-0.1,15.8,1.8c3.1,1.7,1.9,3.5-2.1,3.3c-12.7-0.9-13.8-0.8-16,1.4c-2.4,2.4-2.8,6.5-0.8,8.9c0.8,0.9,4.7,3.3,8.7,5.2
		c9.3,4.5,12.2,7.8,12.2,13.9C473,91.2,463.2,96.4,450.5,92.6z"/>
</g>
<g id="layer106">
	<path class="st5" d="M27,153v-7h37h37v-7.5V131h105.6h105.5l-0.2,7.3l-0.2,7.2h33.8h33.8l-0.2-7.2l-0.2-7.3h47H473v7.5v7.5h-35.5
		H402v7v7h-52.5H297v-7v-7h-76h-76v7v7H86H27V153z"/>
	<path class="st5" d="M306,92.9c-1.9-0.6-4.1-1.5-4.7-2.1c-1-0.8-1.3-8.6-1.3-32.9V26h2.5h2.5v11.4v11.4l3.1-1.5
		c4.3-2.1,13.1-1.9,17.2,0.4c1.8,1,4.2,3.8,5.5,6.3c2.1,4.1,2.3,5.6,2,17.2c-0.3,13.7-1,15.6-7.1,20.2
		C322.5,93.8,311.7,94.6,306,92.9z M322.9,87.5c4-2,5.1-6.1,5.1-18.1s-0.8-14.7-5.2-17.4c-4.1-2.5-8.1-2.5-13.5,0l-4.3,1.9v17
		c0,19.3-0.8,17.8,9.3,18C317.7,89,321.3,88.4,322.9,87.5z"/>
	<path class="st5" d="M348.5,92.7c-4.5-2.1-8.3-7.1-9-12c-0.3-2.3-0.5-10.9-0.3-19.2c0.3-14.7,0.3-15,2.6-15.3l2.2-0.3v16.9
		c0,18.7,0.8,22.5,5.1,24.7c2.8,1.5,11.5,2,15.7,0.9c2.2-0.6,2.2-0.7,2.2-21.5V46h2.5h2.5l-0.2,22.2l-0.3,22.3l-2.8,1.3
		C364.5,93.8,352.1,94.3,348.5,92.7z"/>
	<path class="st5" d="M382.5,92.6c-3-0.9-4.1-1.7-4.3-3.5c-0.3-2.1-0.1-2.3,2.5-1.7c1.5,0.4,5.5,1,8.8,1.3
		c7.5,0.6,10.5-1.5,10.5-7.6c0-4.5-1.2-5.7-10-10.1c-9.7-4.8-12-7.3-12-13.3c0-4,0.5-5.3,2.8-7.7c1.6-1.5,4.4-3.2,6.4-3.8
		c3.8-1,12.3-0.1,15.8,1.8c3.1,1.7,1.9,3.5-2.1,3.3c-12.7-0.9-13.8-0.8-16,1.4c-2.4,2.4-2.8,6.5-0.8,8.9c0.8,0.9,4.7,3.3,8.7,5.2
		c9.3,4.5,12.2,7.8,12.2,13.9C405,91.2,395.2,96.4,382.5,92.6z"/>
	<path class="st5" d="M417.2,91.9c-6.8-3.4-8.2-7.2-8.2-22.1c0-9.7,0.4-13,1.8-15.7c3.2-6.5,10.3-9.6,18.3-8.1
		c3.2,0.6,5.3,1.9,8.1,4.9c3.7,3.9,3.8,4.2,3.8,11.5c0,5.8-0.3,7.5-1.6,8c-0.9,0.3-7,0.6-13.6,0.6h-12l0.4,6.6c0.4,5.8,0.8,7,3.2,9
		c3.2,2.8,10,3.2,16.4,1c3.5-1.3,4.2-1.3,5.2-0.1c1.7,2,0.6,3.1-4.7,4.9C427.9,94.6,422.3,94.4,417.2,91.9z M437,63.8
		c0-10.8-8.3-16.6-17.5-12.3c-3.8,1.9-5.5,5.1-5.5,10.5v4h11.5C436.8,66,437,66,437,63.8z"/>
	<path class="st5" d="M450.5,92.6c-3-0.9-4.1-1.7-4.3-3.5c-0.3-2.1-0.1-2.3,2.5-1.7c1.5,0.4,5.5,1,8.8,1.3
		c7.5,0.6,10.5-1.5,10.5-7.6c0-4.5-1.2-5.7-10-10.1c-9.7-4.8-12-7.3-12-13.3c0-4,0.5-5.3,2.8-7.7c1.6-1.5,4.4-3.2,6.4-3.8
		c3.8-1,12.3-0.1,15.8,1.8c3.1,1.7,1.9,3.5-2.1,3.3c-12.7-0.9-13.8-0.8-16,1.4c-2.4,2.4-2.8,6.5-0.8,8.9c0.8,0.9,4.7,3.3,8.7,5.2
		c9.3,4.5,12.2,7.8,12.2,13.9C473,91.2,463.2,96.4,450.5,92.6z"/>
</g>
<g id="layer107">
	<path class="st6" d="M297,153v-7h-98h-98v-7.5V131h105.6h105.5l-0.2,7.3l-0.2,7.2h33.8h33.8l-0.2-7.2l-0.2-7.3h47H473v7.5v7.5
		h-35.5H402v7v7h-52.5H297V153z"/>
	<path class="st6" d="M306,92.9c-1.9-0.6-4.1-1.5-4.7-2.1c-1-0.8-1.3-8.6-1.3-32.9V26h2.5h2.5v11.4v11.4l3.1-1.5
		c4.3-2.1,13.1-1.9,17.2,0.4c1.8,1,4.2,3.8,5.5,6.3c2.1,4.1,2.3,5.6,2,17.2c-0.3,13.7-1,15.6-7.1,20.2
		C322.5,93.8,311.7,94.6,306,92.9z M322.9,87.5c4-2,5.1-6.1,5.1-18.1s-0.8-14.7-5.2-17.4c-4.1-2.5-8.1-2.5-13.5,0l-4.3,1.9v17
		c0,19.3-0.8,17.8,9.3,18C317.7,89,321.3,88.4,322.9,87.5z"/>
	<path class="st6" d="M348.5,92.7c-4.5-2.1-8.3-7.1-9-12c-0.3-2.3-0.5-10.9-0.3-19.2c0.3-14.7,0.3-15,2.6-15.3l2.2-0.3v16.9
		c0,18.7,0.8,22.5,5.1,24.7c2.8,1.5,11.5,2,15.7,0.9c2.2-0.6,2.2-0.7,2.2-21.5V46h2.5h2.5l-0.2,22.2l-0.3,22.3l-2.8,1.3
		C364.5,93.8,352.1,94.3,348.5,92.7z"/>
	<path class="st6" d="M382.5,92.6c-3-0.9-4.1-1.7-4.3-3.5c-0.3-2.1-0.1-2.3,2.5-1.7c1.5,0.4,5.5,1,8.8,1.3
		c7.5,0.6,10.5-1.5,10.5-7.6c0-4.5-1.2-5.7-10-10.1c-9.7-4.8-12-7.3-12-13.3c0-4,0.5-5.3,2.8-7.7c1.6-1.5,4.4-3.2,6.4-3.8
		c3.8-1,12.3-0.1,15.8,1.8c3.1,1.7,1.9,3.5-2.1,3.3c-12.7-0.9-13.8-0.8-16,1.4c-2.4,2.4-2.8,6.5-0.8,8.9c0.8,0.9,4.7,3.3,8.7,5.2
		c9.3,4.5,12.2,7.8,12.2,13.9C405,91.2,395.2,96.4,382.5,92.6z"/>
	<path class="st6" d="M417.2,91.9c-6.8-3.4-8.2-7.2-8.2-22.1c0-9.7,0.4-13,1.8-15.7c3.2-6.5,10.3-9.6,18.3-8.1
		c3.2,0.6,5.3,1.9,8.1,4.9c3.7,3.9,3.8,4.2,3.8,11.5c0,5.8-0.3,7.5-1.6,8c-0.9,0.3-7,0.6-13.6,0.6h-12l0.4,6.6c0.4,5.8,0.8,7,3.2,9
		c3.2,2.8,10,3.2,16.4,1c3.5-1.3,4.2-1.3,5.2-0.1c1.7,2,0.6,3.1-4.7,4.9C427.9,94.6,422.3,94.4,417.2,91.9z M437,63.8
		c0-10.8-8.3-16.6-17.5-12.3c-3.8,1.9-5.5,5.1-5.5,10.5v4h11.5C436.8,66,437,66,437,63.8z"/>
	<path class="st6" d="M450.5,92.6c-3-0.9-4.1-1.7-4.3-3.5c-0.3-2.1-0.1-2.3,2.5-1.7c1.5,0.4,5.5,1,8.8,1.3
		c7.5,0.6,10.5-1.5,10.5-7.6c0-4.5-1.2-5.7-10-10.1c-9.7-4.8-12-7.3-12-13.3c0-4,0.5-5.3,2.8-7.7c1.6-1.5,4.4-3.2,6.4-3.8
		c3.8-1,12.3-0.1,15.8,1.8c3.1,1.7,1.9,3.5-2.1,3.3c-12.7-0.9-13.8-0.8-16,1.4c-2.4,2.4-2.8,6.5-0.8,8.9c0.8,0.9,4.7,3.3,8.7,5.2
		c9.3,4.5,12.2,7.8,12.2,13.9C473,91.2,463.2,96.4,450.5,92.6z"/>
</g>
<g id="layer108">
	<path class="st7" d="M297,153v-7h-97.5H102v-7.5V131h104.5H311v7.5v7.5l34.2-0.2l34.1-0.3l-0.2-7.2l-0.2-7.3h47H473v7.5v7.5h-35.5
		H402v7v7h-52.5H297V153z M192.7,134.8c-0.2-1.8-0.4-0.4-0.4,3.2c0,3.6,0.2,5,0.4,3.3C192.9,139.5,192.9,136.5,192.7,134.8z"/>
	<path class="st7" d="M306,92.9c-1.9-0.6-4.1-1.5-4.7-2.1c-1-0.8-1.3-8.6-1.3-32.9V26h2.5h2.5v11.4v11.4l3.1-1.5
		c4.3-2.1,13.1-1.9,17.2,0.4c1.8,1,4.2,3.8,5.5,6.3c2.1,4.1,2.3,5.6,2,17.2c-0.3,13.7-1,15.6-7.1,20.2
		C322.5,93.8,311.7,94.6,306,92.9z M322.9,87.5c4-2,5.1-6.1,5.1-18.1s-0.8-14.7-5.2-17.4c-4.1-2.5-8.1-2.5-13.5,0l-4.3,1.9v17
		c0,19.3-0.8,17.8,9.3,18C317.7,89,321.3,88.4,322.9,87.5z"/>
	<path class="st7" d="M348.5,92.7c-4.5-2.1-8.3-7.1-9-12c-0.3-2.3-0.5-10.9-0.3-19.2c0.3-14.7,0.3-15,2.6-15.3l2.2-0.3v16.9
		c0,18.7,0.8,22.5,5.1,24.7c2.8,1.5,11.5,2,15.7,0.9c2.2-0.6,2.2-0.7,2.2-21.5V46h2.5h2.5l-0.2,22.2l-0.3,22.3l-2.8,1.3
		C364.5,93.8,352.1,94.3,348.5,92.7z"/>
	<path class="st7" d="M382.5,92.6c-3-0.9-4.1-1.7-4.3-3.5c-0.3-2.1-0.1-2.3,2.5-1.7c1.5,0.4,5.5,1,8.8,1.3
		c7.5,0.6,10.5-1.5,10.5-7.6c0-4.5-1.2-5.7-10-10.1c-9.7-4.8-12-7.3-12-13.3c0-4,0.5-5.3,2.8-7.7c1.6-1.5,4.4-3.2,6.4-3.8
		c3.8-1,12.3-0.1,15.8,1.8c3.1,1.7,1.9,3.5-2.1,3.3c-12.7-0.9-13.8-0.8-16,1.4c-2.4,2.4-2.8,6.5-0.8,8.9c0.8,0.9,4.7,3.3,8.7,5.2
		c9.3,4.5,12.2,7.8,12.2,13.9C405,91.2,395.2,96.4,382.5,92.6z"/>
	<path class="st7" d="M417.2,91.9c-6.8-3.4-8.2-7.2-8.2-22.1c0-9.7,0.4-13,1.8-15.7c3.2-6.5,10.3-9.6,18.3-8.1
		c3.2,0.6,5.3,1.9,8.1,4.9c3.7,3.9,3.8,4.2,3.8,11.5c0,5.8-0.3,7.5-1.6,8c-0.9,0.3-7,0.6-13.6,0.6h-12l0.4,6.6c0.4,5.8,0.8,7,3.2,9
		c3.2,2.8,10,3.2,16.4,1c3.5-1.3,4.2-1.3,5.2-0.1c1.7,2,0.6,3.1-4.7,4.9C427.9,94.6,422.3,94.4,417.2,91.9z M437,63.8
		c0-10.8-8.3-16.6-17.5-12.3c-3.8,1.9-5.5,5.1-5.5,10.5v4h11.5C436.8,66,437,66,437,63.8z"/>
	<path class="st7" d="M450.5,92.6c-3-0.9-4.1-1.7-4.3-3.5c-0.3-2.1-0.1-2.3,2.5-1.7c1.5,0.4,5.5,1,8.8,1.3
		c7.5,0.6,10.5-1.5,10.5-7.6c0-4.5-1.2-5.7-10-10.1c-9.7-4.8-12-7.3-12-13.3c0-4,0.5-5.3,2.8-7.7c1.6-1.5,4.4-3.2,6.4-3.8
		c3.8-1,12.3-0.1,15.8,1.8c3.1,1.7,1.9,3.5-2.1,3.3c-12.7-0.9-13.8-0.8-16,1.4c-2.4,2.4-2.8,6.5-0.8,8.9c0.8,0.9,4.7,3.3,8.7,5.2
		c9.3,4.5,12.2,7.8,12.2,13.9C473,91.2,463.2,96.4,450.5,92.6z"/>
</g>
<g id="layer109">
	<path class="st8" d="M297,153v-7h41.5H380v-7.5V131h46.5H473v7.5v7.5h-35.5H402v7v7h-52.5H297V153z"/>
	<path class="st8" d="M102,138.5V131h44.9h44.9l0.4,7.1c0.2,3.9,0.1,7.3-0.1,7.5s-20.6,0.4-45.3,0.4H102V138.5z"/>
	<path class="st8" d="M306,92.9c-1.9-0.6-4.1-1.5-4.7-2.1c-1-0.8-1.3-8.6-1.3-32.9V26h2.5h2.5v11.4v11.4l3.1-1.5
		c4.3-2.1,13.1-1.9,17.2,0.4c1.8,1,4.2,3.8,5.5,6.3c2.1,4.1,2.3,5.6,2,17.2c-0.3,13.7-1,15.6-7.1,20.2
		C322.5,93.8,311.7,94.6,306,92.9z M322.9,87.5c4-2,5.1-6.1,5.1-18.1s-0.8-14.7-5.2-17.4c-4.1-2.5-8.1-2.5-13.5,0l-4.3,1.9v17
		c0,19.3-0.8,17.8,9.3,18C317.7,89,321.3,88.4,322.9,87.5z"/>
	<path class="st8" d="M348.5,92.7c-4.5-2.1-8.3-7.1-9-12c-0.3-2.3-0.5-10.9-0.3-19.2c0.3-14.7,0.3-15,2.6-15.3l2.2-0.3v16.9
		c0,18.7,0.8,22.5,5.1,24.7c2.8,1.5,11.5,2,15.7,0.9c2.2-0.6,2.2-0.7,2.2-21.5V46h2.5h2.5l-0.2,22.2l-0.3,22.3l-2.8,1.3
		C364.5,93.8,352.1,94.3,348.5,92.7z"/>
	<path class="st8" d="M382.5,92.6c-3-0.9-4.1-1.7-4.3-3.5c-0.3-2.1-0.1-2.3,2.5-1.7c5.3,1.3,12.2,1.8,14.7,1.2
		c3-0.7,4.9-3.9,4.8-7.9c-0.1-3.9-1.5-5.3-9.6-9.4c-10.4-5.1-12.6-7.6-12.6-13.6c0-4,0.5-5.3,2.8-7.7c1.6-1.5,4.4-3.2,6.4-3.8
		c5.6-1.5,17.8,1.1,17.8,3.8c0,1.9-2.3,2.2-8.4,1c-7.4-1.5-11.2-0.3-13.4,4.3c-2,4.2,0.4,7.1,9.4,11.4c9.3,4.5,12.4,7.9,12.4,13.6
		C405,91.1,395.2,96.5,382.5,92.6z"/>
	<path class="st8" d="M417.2,91.9c-6.8-3.4-8.2-7.2-8.2-22.1c0-9.7,0.4-13,1.8-15.7c3.2-6.5,10.3-9.6,18.3-8.1
		c3.2,0.6,5.3,1.9,8.1,4.9c3.7,3.9,3.8,4.2,3.8,11.5c0,5.8-0.3,7.5-1.6,8c-0.9,0.3-7,0.6-13.6,0.6h-12l0.4,6.6c0.4,5.8,0.8,7,3.2,9
		c3.2,2.8,10,3.2,16.4,1c3.5-1.3,4.2-1.3,5.2-0.1c1.7,2.1,0.5,3.3-5.2,5C426.8,94.6,422.3,94.4,417.2,91.9z M437,63.8
		c0-10.8-8.3-16.6-17.5-12.3c-3.8,1.9-5.5,5.1-5.5,10.5v4h11.5C436.8,66,437,66,437,63.8z"/>
	<path class="st8" d="M450.5,92.6c-3-0.9-4.1-1.7-4.3-3.5c-0.3-2.1-0.1-2.3,2.5-1.7c1.5,0.4,5.5,1,8.8,1.3
		c7.5,0.6,10.5-1.5,10.5-7.6c0-4.5-1.2-5.7-10-10.1c-9.7-4.8-12-7.3-12-13.3c0-4,0.5-5.3,2.8-7.7c1.6-1.5,4.4-3.2,6.4-3.8
		c5.6-1.5,17.8,1.1,17.8,3.8c0,1.9-2.3,2.2-8.4,1c-7.4-1.5-11.2-0.3-13.4,4.3c-2,4.2,0.4,7.1,9.4,11.4c9.3,4.5,12.4,7.9,12.4,13.6
		C473,91,463.1,96.4,450.5,92.6z"/>
</g>
<g id="layer110">
	<path class="st9" d="M297,153v-7h52.5H402v7v7h-52.5H297V153z"/>
	<path class="st9" d="M102,138.5V131h44.9h44.9l0.4,7.1c0.2,3.9,0.1,7.3-0.1,7.5s-20.6,0.4-45.3,0.4H102V138.5z"/>
	<path class="st9" d="M306,92.9c-1.9-0.6-4.1-1.5-4.7-2.1c-1-0.8-1.3-8.6-1.3-32.9V26h2.5h2.5v11.4v11.4l3.1-1.5
		c4.3-2.1,13.1-1.9,17.2,0.4c1.8,1,4.2,3.8,5.5,6.3c2.1,4.1,2.3,5.6,2,17.2c-0.3,13.7-1,15.6-7.1,20.2
		C322.5,93.8,311.7,94.6,306,92.9z M322.9,87.5c4-2,5.1-6.1,5.1-18.1s-0.8-14.7-5.2-17.4c-4.1-2.5-8.1-2.5-13.5,0l-4.3,1.9v17
		c0,19.3-0.8,17.8,9.3,18C317.7,89,321.3,88.4,322.9,87.5z"/>
	<path class="st9" d="M348.5,92.7c-4.5-2.1-8.3-7.1-9-12c-0.3-2.3-0.5-10.9-0.3-19.2c0.3-14.7,0.3-15,2.6-15.3l2.2-0.3v16.9
		c0,18.7,0.8,22.5,5.1,24.7c2.8,1.5,11.5,2,15.7,0.9c2.2-0.6,2.2-0.7,2.2-21.5V46h2.5h2.5l-0.2,22.2l-0.3,22.3l-2.8,1.3
		C364.5,93.8,352.1,94.3,348.5,92.7z"/>
	<path class="st9" d="M382.5,92.6c-3-0.9-4.1-1.7-4.3-3.5c-0.3-2.1-0.1-2.3,2.5-1.7c5.3,1.3,12.2,1.8,14.7,1.2
		c3-0.7,4.9-3.9,4.8-7.9c-0.1-3.9-1.5-5.3-9.6-9.4c-10.4-5.1-12.6-7.6-12.6-13.6c0-4,0.5-5.3,2.8-7.7c1.6-1.5,4.4-3.2,6.4-3.8
		c5.6-1.5,17.8,1.1,17.8,3.8c0,1.9-2.3,2.2-8.4,1c-7.4-1.5-11.2-0.3-13.4,4.3c-2,4.2,0.4,7.1,9.4,11.4c9.3,4.5,12.4,7.9,12.4,13.6
		C405,91.1,395.2,96.5,382.5,92.6z"/>
	<path class="st9" d="M417.2,91.9c-6.8-3.4-8.2-7.2-8.2-22.1c0-9.7,0.4-13,1.8-15.7c3.2-6.5,10.3-9.6,18.3-8.1
		c3.2,0.6,5.3,1.9,8.1,4.9c3.7,3.9,3.8,4.2,3.8,11.5c0,5.8-0.3,7.5-1.6,8c-0.9,0.3-7,0.6-13.6,0.6h-12l0.4,6.6c0.4,5.8,0.8,7,3.2,9
		c3.2,2.8,10,3.2,16.4,1c3.5-1.3,4.2-1.3,5.2-0.1c1.7,2.1,0.5,3.3-5.2,5C426.8,94.6,422.3,94.4,417.2,91.9z M437,63.8
		c0-10.8-8.3-16.6-17.5-12.3c-3.8,1.9-5.5,5.1-5.5,10.5v4h11.5C436.8,66,437,66,437,63.8z"/>
	<path class="st9" d="M450.5,92.6c-3-0.9-4.1-1.7-4.3-3.5c-0.3-2.1-0.1-2.3,2.5-1.7c1.5,0.4,5.5,1,8.8,1.3
		c7.5,0.6,10.5-1.5,10.5-7.6c0-4.5-1.2-5.7-10-10.1c-9.7-4.8-12-7.3-12-13.3c0-4,0.5-5.3,2.8-7.7c1.6-1.5,4.4-3.2,6.4-3.8
		c5.6-1.5,17.8,1.1,17.8,3.8c0,1.9-2.3,2.2-8.4,1c-7.4-1.5-11.2-0.3-13.4,4.3c-2,4.2,0.4,7.1,9.4,11.4c9.3,4.5,12.4,7.9,12.4,13.6
		C473,91,463.1,96.4,450.5,92.6z"/>
</g>
<g id="layer111">
	<path class="st10" d="M297,153v-7h52.5H402v7v7h-52.5H297V153z"/>
	<path class="st10" d="M306,92.9c-1.9-0.6-4.1-1.5-4.7-2.1c-1-0.8-1.3-8.6-1.3-32.9V26h2.5h2.5v11.4v11.4l3.1-1.5
		c4.3-2.1,13.1-1.9,17.2,0.4c1.8,1,4.2,3.8,5.5,6.3c2.1,4.1,2.3,5.6,2,17.2c-0.3,13.7-1,15.6-7.1,20.2
		C322.5,93.8,311.7,94.6,306,92.9z M322.9,87.5c4-2,5.1-6.1,5.1-18.1s-0.8-14.7-5.2-17.4c-4.1-2.5-8.1-2.5-13.5,0l-4.3,1.9v17
		c0,19.3-0.8,17.8,9.3,18C317.7,89,321.3,88.4,322.9,87.5z"/>
	<path class="st10" d="M348.5,92.7c-4.5-2.1-8.3-7.1-9-12c-0.3-2.3-0.5-10.9-0.3-19.2c0.3-14.7,0.3-15,2.6-15.3l2.2-0.3v16.9
		c0,18.7,0.8,22.5,5.1,24.7c2.8,1.5,11.5,2,15.7,0.9c2.2-0.6,2.2-0.7,2.2-21.5V46h2.5h2.5l-0.2,22.2l-0.3,22.3l-2.8,1.3
		C364.5,93.8,352.1,94.3,348.5,92.7z"/>
	<path class="st10" d="M382.5,92.6c-3-0.9-4.1-1.7-4.3-3.5c-0.3-2.1-0.1-2.3,2.5-1.7c5.3,1.3,12.2,1.8,14.7,1.2
		c3-0.7,4.9-3.9,4.8-7.9c-0.1-3.9-1.5-5.3-9.6-9.4c-10.4-5.1-12.6-7.6-12.6-13.6c0-4,0.5-5.3,2.8-7.7c1.6-1.5,4.4-3.2,6.4-3.8
		c5.6-1.5,17.8,1.1,17.8,3.8c0,1.9-2.3,2.2-8.4,1c-7.4-1.5-11.2-0.3-13.4,4.3c-2,4.2,0.4,7.1,9.4,11.4c9.3,4.5,12.4,7.9,12.4,13.6
		C405,91.1,395.2,96.5,382.5,92.6z"/>
	<path class="st10" d="M417.2,91.9c-6.8-3.4-8.2-7.2-8.2-22.1c0-9.7,0.4-13,1.8-15.7c3.2-6.5,10.3-9.6,18.3-8.1
		c3.2,0.6,5.3,1.9,8.1,4.9c3.7,3.9,3.8,4.2,3.8,11.5c0,5.8-0.3,7.5-1.6,8c-0.9,0.3-7,0.6-13.6,0.6h-12l0.4,6.6c0.4,5.8,0.8,7,3.2,9
		c3.2,2.8,10,3.2,16.4,1c3.5-1.3,4.2-1.3,5.2-0.1c1.7,2.1,0.5,3.3-5.2,5C426.8,94.6,422.3,94.4,417.2,91.9z M437,63.8
		c0-10.8-8.3-16.6-17.5-12.3c-3.8,1.9-5.5,5.1-5.5,10.5v4h11.5C436.8,66,437,66,437,63.8z"/>
	<path class="st10" d="M450.5,92.6c-3-0.9-4.1-1.7-4.3-3.5c-0.3-2.1-0.1-2.3,2.5-1.7c1.5,0.4,5.5,1,8.8,1.3
		c7.5,0.6,10.5-1.5,10.5-7.6c0-4.5-1.2-5.7-10-10.1c-9.7-4.8-12-7.3-12-13.3c0-4,0.5-5.3,2.8-7.7c1.6-1.5,4.4-3.2,6.4-3.8
		c5.6-1.5,17.8,1.1,17.8,3.8c0,1.9-2.3,2.2-8.4,1c-7.4-1.5-11.2-0.3-13.4,4.3c-2,4.2,0.4,7.1,9.4,11.4c9.3,4.5,12.4,7.9,12.4,13.6
		C473,91,463.1,96.4,450.5,92.6z"/>
</g>
<g id="layer112">
	<path class="st11" d="M306,92.9c-1.9-0.6-4.1-1.5-4.7-2.1c-1-0.8-1.3-8.6-1.3-32.9V26h2.5h2.5v11.4v11.4l3.1-1.5
		c4.3-2.1,13.1-1.9,17.2,0.4c1.8,1,4.2,3.8,5.5,6.3c2.1,4.1,2.3,5.6,2,17.2c-0.3,13.7-1,15.6-7.1,20.2
		C322.5,93.8,311.7,94.6,306,92.9z M322.9,87.5c4-2,5.1-6.1,5.1-18.1s-0.8-14.7-5.2-17.4c-4.1-2.5-8.1-2.5-13.5,0l-4.3,1.9v17
		c0,19.3-0.8,17.8,9.3,18C317.7,89,321.3,88.4,322.9,87.5z"/>
	<path class="st11" d="M348.5,92.7c-4.5-2.1-8.3-7.1-9-12c-0.3-2.3-0.5-10.9-0.3-19.2c0.3-14.7,0.3-15,2.6-15.3l2.2-0.3v16.9
		c0,18.7,0.8,22.5,5.1,24.7c2.8,1.5,11.5,2,15.7,0.9c2.2-0.6,2.2-0.7,2.2-21.5V46h2.5h2.5l-0.2,22.2l-0.3,22.3l-2.8,1.3
		C364.5,93.8,352.1,94.3,348.5,92.7z"/>
	<path class="st11" d="M382.5,92.6c-3-0.9-4.1-1.7-4.3-3.5c-0.3-2.1-0.1-2.3,2.5-1.7c5.3,1.3,12.2,1.8,14.7,1.2
		c3-0.7,4.9-3.9,4.8-7.9c-0.1-3.9-1.5-5.3-9.6-9.4c-10.4-5.1-12.6-7.6-12.6-13.6c0-4,0.5-5.3,2.8-7.7c1.6-1.5,4.4-3.2,6.4-3.8
		c5.6-1.5,17.8,1.1,17.8,3.8c0,1.9-2.3,2.2-8.4,1c-7.4-1.5-11.2-0.3-13.4,4.3c-2,4.2,0.4,7.1,9.4,11.4c9.3,4.5,12.4,7.9,12.4,13.6
		C405,91.1,395.2,96.5,382.5,92.6z"/>
	<path class="st11" d="M417.2,91.9c-6.8-3.4-8.2-7.2-8.2-22.1c0-9.7,0.4-13,1.8-15.7c3.2-6.5,10.3-9.6,18.3-8.1
		c3.2,0.6,5.3,1.9,8.1,4.9c3.7,3.9,3.8,4.2,3.8,11.5c0,5.8-0.3,7.5-1.6,8c-0.9,0.3-7,0.6-13.6,0.6h-12l0.4,6.6c0.4,5.8,0.8,7,3.2,9
		c3.2,2.8,10,3.2,16.4,1c3.5-1.3,4.2-1.3,5.2-0.1c1.7,2.1,0.5,3.3-5.2,5C426.8,94.6,422.3,94.4,417.2,91.9z M437,63.8
		c0-10.8-8.3-16.6-17.5-12.3c-3.8,1.9-5.5,5.1-5.5,10.5v4h11.5C436.8,66,437,66,437,63.8z"/>
	<path class="st11" d="M450.5,92.6c-3-0.9-4.1-1.7-4.3-3.5c-0.3-2.1-0.1-2.3,2.5-1.7c1.5,0.4,5.5,1,8.8,1.3
		c7.5,0.6,10.5-1.5,10.5-7.6c0-4.5-1.2-5.7-10-10.1c-9.7-4.8-12-7.3-12-13.3c0-4,0.5-5.3,2.8-7.7c1.6-1.5,4.4-3.2,6.4-3.8
		c5.6-1.5,17.8,1.1,17.8,3.8c0,1.9-2.3,2.2-8.4,1c-7.4-1.5-11.2-0.3-13.4,4.3c-2,4.2,0.4,7.1,9.4,11.4c9.3,4.5,12.4,7.9,12.4,13.6
		C473,91,463.1,96.4,450.5,92.6z"/>
</g>
</svg>
