<?xml version="1.0" encoding="utf-8"?>
<!-- Generator: Adobe Illustrator 23.0.1, SVG Export Plug-In . SVG Version: 6.00 Build 0)  -->
<svg version="1.1" id="Layer_1" xmlns="http://www.w3.org/2000/svg" xmlns:xlink="http://www.w3.org/1999/xlink" x="0px" y="0px"
	 viewBox="0 0 491 284" style="enable-background:new 0 0 491 284;" xml:space="preserve">
<style type="text/css">
	.st0{fill:#0A0A0A;}
</style>
<g>
	<path class="st0" d="M122.5,225.5h-4l-0.3,15c-0.1,8.2,0,15.5,0.2,16.2c0.3,0.8,2.2,1.3,4.6,1.3h4l-0.2-16.2l-0.3-16.3H122.5z"/>
	<path class="st0" d="M96,250.4c-3-1.8-5.7-1.4-6.6,1.1c-0.7,1.8,2.1,5.3,5.1,6.6c3.3,1.3,11.4,1,14.5-0.6c6-3.1,7.5-11.4,3-16.3
		c-1.1-1.2-3.9-2.6-6.3-3.2c-6.4-1.6-8.7-2.8-8.7-4.5c0-2.4,4.9-3,8.6-1c5.9,3.2,9.6-0.7,5-5.3c-2.3-2.3-3.5-2.7-8.5-2.7
		c-4.5,0-6.7,0.5-8.8,2.1c-3.1,2.3-4.9,7.7-3.9,11.8c0.8,3.1,5.9,6.6,9.7,6.6c1.5,0,3.7,0.8,5,1.9c2,1.6,2.1,2.1,1,3.5
		C103.4,252.5,99.6,252.4,96,250.4z"/>
	<path class="st0" d="M45.1,231.5c-3.4,3.6-7,6.5-7.8,6.5c-0.9,0-4.1-2.7-7-6c-3-3.3-6-6-6.8-6c-0.7,0-1.5,1.4-1.9,3.1
		c-0.8,4.3-0.8,27.4,0.1,28.3c0.4,0.4,2.1,0.6,3.8,0.4c2.9-0.3,3-0.5,3.3-5.3c0.4-6.4,1.5-7.5,4.5-4.7c2.9,2.7,5.7,2.8,8,0.2
		c2.7-3.1,3.7-2.4,3.7,2.8c0,6.2,0.9,7.4,5.1,7l3.4-0.3l-0.1-15.3c0-8.8-0.5-15.7-1-16.2C51.7,225.3,49.3,227.1,45.1,231.5z"/>
	<path class="st0" d="M66.1,226.2c-0.5-0.8-2.2-1.2-4.2-1l-3.4,0.3l-0.3,12c-0.3,10,0,12.6,1.5,15.4c2.4,4.5,6.4,6.2,13.6,5.8
		c4.6-0.3,6.3-0.8,8.4-2.9c2.4-2.4,2.7-3.7,3.5-14.4c1.1-14.3,0.4-16.7-4.5-16.2l-3.2,0.3l-0.3,11.6c-0.2,10.2-0.5,11.9-2.3,13.5
		c-1.5,1.4-2.5,1.6-4.6,0.8c-3.6-1.2-4.5-4.9-3.9-15.4C66.7,231.3,66.5,226.9,66.1,226.2z"/>
	<path class="st0" d="M226.1,256.7c5.4-3.6,7.9-8.2,7.9-14.4s-1.7-10-6-13.7c-6.7-5.6-16.2-5.5-22.3,0.2c-4.2,4-5.7,7.5-5.7,13.5
		c0,9.9,7,16.7,17,16.7C221.3,259,223.5,258.4,226.1,256.7z M211.6,248.7c-3.6-3.6-3.6-9.8-0.1-13.2c5.3-5.4,13.5-1.5,13.5,6.3
		c0,5.1-2.5,8.1-7.2,8.8C214.8,251.1,213.7,250.8,211.6,248.7z"/>
	<path class="st0" d="M153.4,235.1c2.4,1.9,3,2,5.7,0.9c3.9-1.7,3.5-4.4-1.2-8.2c-12.4-10-31.2,2.4-27.1,17.8
		c1.6,6.1,3.8,9.1,8.1,11.4c4,2.1,12.1,2.6,15.4,0.9c3.2-1.7,7.7-6.1,7.7-7.6c0-1.4-3.1-3.3-5.5-3.3c-0.9,0-2.9,0.9-4.4,2.1
		c-5.6,4.1-12.1,0.2-12.1-7.2C140,234.1,147.4,230.3,153.4,235.1z"/>
	<path class="st0" d="M189.5,233.2c5.9-0.4,7.7-1.6,7.3-5.1l-0.3-2.6H186h-10.5l-0.3,16.3l-0.3,16.3l4.3-0.3l4.3-0.3l0.5-5l0.5-5
		l5.3-0.3c5.7-0.3,6.9-1.4,5.8-5.7c-0.5-2.1-1.2-2.4-5.9-2.7c-4.8-0.3-5.2-0.5-5.2-2.8S184.9,233.5,189.5,233.2z"/>
	<path class="st0" d="M40.4,199c18.5,0,20.6-0.2,21.5-1.7c0.5-1,1.2-18.1,1.6-38c0.4-21.9,1.1-36.3,1.7-36.3
		c0.5,0,9.9,9.1,20.9,20.3l19.9,20.2l19.4-19.7c10.6-10.9,19.7-19.8,20.3-19.8c1.2,0,2.3,23.4,2.3,50.7c0,12.2,0.4,21.2,1,22.4
		c1,1.8,2.3,1.9,21.5,1.9c11.2,0,21-0.3,21.9-0.6c1.3-0.5,1.6-2.5,1.6-11.3c0-17-5.8-163.4-6.5-165.8c-1.1-3.3-5.2-0.2-21.1,15.9
		c-17.8,18.2-45.3,47.2-54.1,57.1c-2.8,3.3-5.7,5.7-6.5,5.5c-0.7-0.1-5.3-4.6-10.2-9.8c-4.9-5.2-22.5-23.1-38.9-39.7
		C35.2,28.6,26.3,20.3,25.5,21c-1.3,1.1-1.5,4.7-4,66.5c-1.8,43.5-3.1,107.6-2.2,109.9C19.9,198.8,22.4,199,40.4,199z"/>
	<path class="st0" d="M380.5,232.5l0.3,11.9c0.1,7,0.7,12.5,1.4,13.3c0.6,0.8,2.5,1.3,4.2,1.1l3.1-0.3l0.3-11.9
		c0.1-6.7,0.7-12.6,1.4-13.3c0.6-0.7,2.5-1.3,4.4-1.3c3.7,0,5.5-3,3.4-5.5c-1.8-2.1-24.2-2.1-26,0c-2.2,2.7-0.8,5,3.5,5.5
		L380.5,232.5z"/>
	<path class="st0" d="M315.5,258.2c5.2,1.7,10.2,1.4,14.5-0.7c3.4-1.7,5.6-4.4,7.5-8.8c3.2-7.7,0.5-16.7-6.4-21.3
		c-3.6-2.3-4.8-2.6-10.5-2.2c-5,0.3-7.1,1-9.9,3.1C300.2,236.3,303,254,315.5,258.2z M326.3,235c3.1,2.5,4.1,6.2,2.7,10.6
		c-1.9,5.8-7.8,7.2-12.7,3c-2.2-1.9-2.8-3.2-2.8-6.6C313.5,234.6,320.7,230.6,326.3,235z"/>
	<path class="st0" d="M356.7,259c5.5,0,6.7-0.4,9.5-2.9l3.3-2.9v-13.9v-13.8l-2.8-0.3c-5-0.6-5.7,0.9-5.7,13.2
		c0,11.7-0.6,13.6-4.4,13.6c-4.6,0-5.1-1.3-5.6-14.2l-0.5-12.3l-3.1-0.3c-5-0.5-5.6,1.3-5.2,14C342.7,256,344.9,259,356.7,259z"/>
	<path class="st0" d="M301.6,225c-3.9,0-4.2,0.4-7.1,7.4c-1.2,2.7-2.6,5.1-3.2,5.3c-0.6,0.2-2.1-1.7-3.3-4.4
		c-2.9-6.5-4.7-8.3-8.7-8.3c-4.6,0-4.4,2,1.7,13.4c2.8,5.3,5,10.7,5,12.4s0.4,4.3,1,5.7c0.8,2.2,1.5,2.6,4.2,2.3
		c3.1-0.3,3.2-0.5,4.3-6.8c0.7-3.9,2.8-9.8,5.3-14.7C306.1,226.9,306.2,225,301.6,225z"/>
	<path class="st0" d="M461.1,23c-12,0-18.4,0.4-20,1.3c-1.8,0.9-3.7,4.2-7.2,12.7c-2.6,6.3-8.1,19.4-12.4,29
		c-4.2,9.6-9.3,21.2-11.2,25.8c-1.9,4.5-4.1,8.2-4.8,8.2s-4.6-7.8-8.8-17.2c-4.2-9.5-10.6-23.8-14.3-31.8c-3.6-8-7.6-16.8-8.9-19.5
		c-1.3-2.8-3.1-5.7-4-6.5c-1.6-1.3-13.6-1.5-83.3-1.8c-60.8-0.2-81.8,0-82.8,0.9c-1.2,1-1.4,14.5-1.4,86.8c0,65.3,0.3,86,1.2,86.9
		c1.4,1.4,41.4,1.7,43.5,0.4c1-0.6,1.3-8.2,1.5-30.2l0.3-29.5L280,138l31.5-0.5l0.7-4c0.4-2.2,0.7-9.2,0.7-15.5s-0.3-13.3-0.7-15.5
		l-0.7-4L280,98l-31.5-0.5l-0.3-15.9c-0.2-10.7,0.1-16.3,0.9-17.2c0.9-1.1,6.9-1.3,34.9-0.7c28.4,0.5,33.8,0.4,34.6-0.8
		c0.5-0.8,0.8-9.2,0.8-18.7c-0.1-9.4,0-17.2,0.1-17.2c0.2,0,5.8,10.7,12.6,23.7c6.7,13.1,13.4,26.1,14.9,28.8c1.5,2.8,5.3,10,8.5,16
		c3.2,6.1,10.3,19.3,15.9,29.5l10.1,18.5L382,171l0.5,27.5l21.9,0.3c15.3,0.2,22.3-0.1,23.2-0.9c1.1-0.9,1.4-6.4,1.4-27.8v-26.6
		l19.4-39c24-48.2,36.6-75,36.6-78C485,23.4,482.3,23,461.1,23z"/>
	<path class="st0" d="M249.3,249.2c2.2-0.3,3,0.3,4.5,2.9c2.7,5,4.9,6.9,8.2,6.9c4.2,0,4.7-2.2,1.5-7.5l-2.6-4.6l2.1-4.5
		c2.9-5.9,2.1-10.2-2.6-14.3c-3.3-3-3.9-3.1-12.4-3.1c-6,0-9.1,0.4-9.7,1.3c-1.2,1.8-1.2,30,0,31.5c0.6,0.7,2.4,1.2,4.1,1
		c2.9-0.3,3.1-0.6,3.6-4.8C246.4,250,246.8,249.5,249.3,249.2z M248.2,232.6c1.2-0.7,2.4-0.6,4.2,0.4c3.2,1.7,3.6,6.4,0.7,8
		c-2.8,1.4-6.1,1.2-6.7-0.4C245.4,238.1,246.4,233.7,248.2,232.6z"/>
	<path class="st0" d="M416,237c-5.4,0-5.6-0.3-6.2-8c-0.3-3-0.7-3.5-3.1-3.8c-1.6-0.2-3.4,0.1-4.1,0.7c-1.6,1.4-2,29.9-0.4,31.9
		c0.6,0.7,2.5,1.2,4.2,1c3-0.3,3.1-0.5,3.7-6.2c0.7-6.1,1.8-7.6,5.9-7.6c4,0,5,1.3,5.8,7.6l0.7,5.9h3.5h3.5V242v-16.5l-2.8-0.3
		c-3.8-0.5-5.9,1.5-5.7,5.2C421.4,237,421.4,237,416,237z"/>
</g>
</svg>
