<svg id="Layer_1" data-name="Layer 1" xmlns="http://www.w3.org/2000/svg" viewBox="0 0 2269.44 1156.3"><defs><style>.cls-1{fill:none;}.cls-2{fill:#ccd6dc;}.cls-3,.cls-34,.cls-42{fill:#fff;}.cls-4{fill:#91a1ab;}.cls-40,.cls-41,.cls-5{fill:#005496;}.cls-35,.cls-6{fill:#6e818b;}.cls-12,.cls-14,.cls-32,.cls-7{font-size:10.61px;}.cls-12,.cls-14,.cls-17,.cls-18,.cls-22,.cls-27,.cls-32,.cls-43,.cls-7{fill:#3d505a;}.cls-12,.cls-14,.cls-18,.cls-32,.cls-34,.cls-42,.cls-43,.cls-7{font-family:RdgVesta-Bold, Rdg Vesta;}.cls-12,.cls-14,.cls-18,.cls-22,.cls-27,.cls-32,.cls-34,.cls-42,.cls-43,.cls-7{font-weight:700;}.cls-8{letter-spacing:0em;}.cls-9{letter-spacing:0.01em;}.cls-10{letter-spacing:0.01em;}.cls-11{letter-spacing:-0.01em;}.cls-12,.cls-29{letter-spacing:0.01em;}.cls-13{letter-spacing:0em;}.cls-14{letter-spacing:0.02em;}.cls-15{letter-spacing:0.01em;}.cls-16{letter-spacing:0.02em;}.cls-18{font-size:8.59px;}.cls-19{letter-spacing:0.01em;}.cls-20{letter-spacing:0.03em;}.cls-21{letter-spacing:0.02em;}.cls-22{font-size:14.61px;letter-spacing:-0.02em;}.cls-22,.cls-27{font-family:HelveticaNeue-CondensedBold, Helvetica Neue;}.cls-23{letter-spacing:0em;}.cls-24{letter-spacing:0.01em;}.cls-25{letter-spacing:0.01em;}.cls-26{fill:#43525a;}.cls-27{font-size:13.15px;}.cls-28{letter-spacing:-0.02em;}.cls-30{letter-spacing:0.01em;}.cls-31{letter-spacing:0em;}.cls-32{letter-spacing:0.05em;}.cls-33{letter-spacing:0em;}.cls-34{font-size:77px;}.cls-35{font-size:60px;}.cls-35,.cls-40,.cls-41{font-family:RdgVesta-Regular, Rdg Vesta;}.cls-36{letter-spacing:-0.02em;}.cls-37{letter-spacing:-0.01em;}.cls-38{letter-spacing:-0.03em;}.cls-39{letter-spacing:-0.02em;}.cls-40,.cls-41{font-size:45px;}.cls-41{letter-spacing:-0.01em;}.cls-42,.cls-43{font-size:24px;}</style></defs><title>Ground Floor</title><polyline class="cls-1" points="76.87 110.2 1446.62 110.2 1446.62 -942.72"/><polyline class="cls-1" points="76.87 110.2 1446.62 110.2 1446.62 -942.72"/><polyline class="cls-1" points="76.87 110.2 1446.62 110.2 1446.62 -942.72"/><polyline class="cls-1" points="76.81 132.89 1457.86 132.89 1457.86 -942.72"/><polyline class="cls-1" points="76.87 110.2 1446.62 110.2 1446.62 -942.72"/><path class="cls-2" d="M807.28,386.35l-27.26,28-28.32-5.93C737.47,457,716.2,500.5,678,535a254.69,254.69,0,0,1-44.16,31.75c-28.15,16-54.91,26.39-86.53,31.37-26.95,4.25-54.8,6.94-81.73,1.26-21.21-4.48-42-11.23-62.2-19-4.61-1.77-9.26-3.47-13.78-5.44l-12.68,22.22-27.76-15.2-4.5,8.46-12.93,23.4-4.16,7.62,28.87,16.11-4.67,10.72-213.15-82L80.21,719.84l201.36,78.94L249.94,967.27l165.7,33.11,1-4.16s39.75,5.52,43.71,5.86a385.09,385.09,0,0,0,49.69,1c15.51-.73,31.15-1.57,46.57-2.35,0,0,5.88,24,17,42.67,20.87,35.26,62.51,51.47,101.9,49,11.27-.72,22.32-2.93,33.37-5.11,17.61-3.47,32.26-9.3,48.68-16.66,31.6-14.18,62.76-41.32,69.57-77.25,3.58-18.85,2.73-44.63-6.11-68.92l46.25-30.58L893,928.13l134.49-98.27L900.57,658.37l93.88-97.43L973.4,541.11l44.67-78.74,53.06,29.41-6.62,11.94,6.22,21.67L1124,554.92,1115.66,570l69,38.23L1449.73,130,1311.09,53.12l-22.25,40.14-6.24,11.25-159,286.94-6-3.32-12.47-6.91L1019.84,334,950.05,459.87l-64.57-15.36-10.91,8.8-67.29-67"/><rect class="cls-3" x="1044.25" y="357.24" width="32.44" height="34.97" transform="translate(218.56 1120.52) rotate(-61)"/><rect class="cls-3" x="1009.21" y="428.59" width="18.58" height="21.74" transform="translate(140.36 1117.21) rotate(-61)"/><polygon class="cls-3" points="447.08 799.43 482.86 807.09 476.14 841.74 439.81 834.67 447.08 799.43"/><polygon class="cls-4" points="365.03 832.45 368.93 811.34 413.06 819.43 408.84 841.48 365.03 832.45"/><polygon class="cls-4" points="1346.15 71.98 1327.89 104.93 1348.93 116.59 1341.06 130.79 1386.42 155.94 1372.94 180.27 1338.47 161.16 1302.64 225.8 1374.63 265.7 1449.93 129.84 1346.15 71.98"/><polygon class="cls-4" points="1335.54 333.83 1264.56 294.49 1170.85 463.56 1192.39 475.5 1173.98 508.71 1224.18 536.53 1335.54 333.83"/><polygon class="cls-4" points="1224.63 314.35 1205.85 348.21 1161.48 323.62 1180.25 289.75 1224.63 314.35"/><rect class="cls-4" x="1199.92" y="210.6" width="78.3" height="50.74" transform="translate(431.94 1205.26) rotate(-61)"/><polygon class="cls-4" points="1223.63 535.92 1183.95 607.48 1116.68 570.19 1124.67 555.77 1121.67 554.11 1153.35 496.96 1223.63 535.92"/><polygon class="cls-4" points="1102.09 542.49 1132.95 486.81 1086.55 461.1 1069.58 491.72 1069.89 495.53 1065.26 503.88 1071.93 525.78 1102.09 542.49"/><polygon class="cls-4" points="1113.66 410.01 1098.48 437.38 1088.28 431.73 1100.28 410.07 1109.43 407.06 1113.66 410.01"/><rect class="cls-4" x="1129.4" y="438.88" width="32.54" height="11.32" transform="translate(201.39 1230.98) rotate(-61)"/><rect class="cls-4" x="1153.4" y="328.02" width="39.77" height="51.57" transform="translate(295.08 1208.51) rotate(-61)"/><rect class="cls-4" x="1193.06" y="260.76" width="36.4" height="50.74" transform="translate(373.79 1206.82) rotate(-61)"/><rect class="cls-4" x="1238.87" y="143.81" width="74.45" height="50.74" transform="translate(509.42 1203.23) rotate(-61)"/><polygon class="cls-4" points="726.77 648.64 776.31 595.29 787.38 605.19 735.91 661.62 726.77 648.64"/><polygon class="cls-4" points="749.44 680.13 768.23 665.48 785 680.77 762.65 697.74 749.44 680.13"/><path class="cls-4" d="M548.08,955.5,581.75,950,542.26,842.48s-2.36,35.5-1.7,41,2.82,36.67,3.23,40.6,4.29,31.38,4.29,31.38"/><path class="cls-4" d="M576.93,785.12c-10.82,7.39-19.45,18.47-19.45,18.47l153.29-47.35c-3-1-17.88-7.3-28.45-5.68-7,1.07-20.69.07-53.79,10.5-21.58,6.8-37.4,14.35-51.6,24.06"/><polygon class="cls-4" points="789.56 684.46 828.11 643.96 863.66 677.62 811.03 716.81 789.56 684.46"/><polygon class="cls-4" points="828.77 703.77 854.1 738.21 921.53 687.7 895.86 653.38 828.77 703.77"/><polygon class="cls-4" points="360.27 700.43 365.35 688.68 433.73 713.3 431.17 727.44 360.27 700.43"/><polygon class="cls-5" points="777.16 595.43 896.37 469.23 993.88 561.55 900.2 658.43 896.06 653.21 863.4 677.43 777.16 595.43"/><path class="cls-4" d="M491.59,602.56,488,667.1s41.63.65,45.87-.14,39-6.65,47.85-9.13,48.8-15.88,53.78-17.7,26.71-13.48,30.67-16,18.91-12.15,18.91-12.15l18.64,19.18L874.38,452.7,808,386.15l-27.22,27.6L751,408.41s-18.57,57.56-29.86,74.1-28.82,38.71-36.22,46.3S642.78,563,629.55,570,577.49,593.5,559,596.47s-67.41,6.09-67.41,6.09"/><polygon class="cls-4" points="814.41 767.71 921.74 687.25 1027.11 829.92 892.29 927.92 827.18 837.96 852.82 818.46 814.41 767.71"/><polygon class="cls-5" points="278.67 814.79 408.81 840.44 396.3 906.34 374.57 901.45 315.88 889.52 266.48 879.17 278.67 814.79"/><polygon class="cls-4" points="266.37 879.9 433.86 912.42 415.64 1000.38 356.77 987.73 299.63 977.67 250.24 967.32 266.37 879.9"/><polygon class="cls-5" points="80 719.37 139.27 566.32 304.87 629.82 244.5 784.38 80 719.37"/><path class="cls-5" d="M804.53,886.63c-5.72-13.39-12.66-29-20.08-44-7.77-15.81-21.56-39-26.56-46.16-13.37-19.09-28.8-32.66-51.59-42.43s-69.72,3.68-77.92,6.71-44,13.48-67.81,38.61c-22.94,24.23-19.81,66.81-20,85.53-.09,9.24,2.35,36.92,6.55,63.13.74,4.65,1.54,9.26,2.35,13.69l1.33,6.55,5.83,32.54s5.87,23.94,17,42.67c20.87,35.26,62.51,51.47,101.9,49,11.27-.72,22.32-2.94,33.37-5.11,17.61-3.47,32.26-9.3,48.68-16.66,31.6-14.18,62.76-41.32,69.57-77.25,3.57-18.85,2.73-44.62-6.11-68.91Z"/><polyline class="cls-6" points="322.68 803.21 318.64 822.61 321.3 823.16 325.35 803.76"/><polyline class="cls-6" points="326.95 804.1 322.9 823.5 325.57 824.05 329.61 804.65"/><polyline class="cls-6" points="331.22 804.99 327.17 824.39 329.83 824.94 333.88 805.54"/><polyline class="cls-6" points="334.1 825.83 338.14 806.43 335.48 805.88 331.44 825.28"/><polyline class="cls-6" points="338.36 826.72 342.41 807.32 339.75 806.77 335.7 826.16"/><polygon class="cls-6" points="315.06 802.83 365.97 813.01 362.5 829.35 310.9 818.87 310.27 821.99 311.83 822.31 364.96 833.11 369.76 810.51 315.69 799.7 315.06 802.83"/><rect class="cls-6" x="343.76" y="807.64" width="19.81" height="22.38" transform="translate(-520.1 997.95) rotate(-78.22)"/><path class="cls-6" d="M549.85,671.3s5.11-.94,10.85-2.06c2.87-.56,5.9-1.16,8.53-1.71s4.85-1,6.18-1.43c2.48-.7,9.27-2.54,16-4.41,3.37-.94,6.73-1.88,9.55-2.69s5.07-1.49,6.31-1.91c6.46-2.24,17.33-6.46,26.61-10.13s17-6.78,17-6.78l-1.2-3-1.34.55c-3,1.22-10.75,4.33-19.12,7.62s-17.39,6.76-23,8.69c-1.09.37-3.35,1-6.14,1.85-8.41,2.42-21.79,6-25.55,7.1-1.17.33-3.38.83-6,1.38-3.91.82-8.74,1.76-12.58,2.49l-4.8.91-1.91.36Z"/><path class="cls-6" d="M553.61,693.45s5.27-1.06,11.17-2.29c3-.62,6.05-1.28,8.74-1.87s5-1.13,6.27-1.5c2.5-.7,9.25-2.61,16-4.56,3.35-1,6.69-2,9.48-2.84s5-1.58,6.28-2.07c2.31-.91,14.12-5.68,25.37-10.23l21.92-8.87-1.2-3-1.84.74c-8.23,3.33-41.44,16.77-45.42,18.34-1,.42-3.28,1.15-6.05,2-8.31,2.56-21.62,6.32-25.36,7.37-1.18.34-3.44.86-6.1,1.45-4,.89-9,1.93-12.92,2.74l-4.95,1-2,.4.62,3.13Z"/><polygon class="cls-6" points="577.88 664.87 582.63 685.15 605.83 678.59 598.33 657.99 577.88 664.87"/><polyline class="cls-6" points="601.33 658.66 608.11 677.28 610.66 676.35 603.88 657.73"/><polyline class="cls-6" points="605.42 657.17 612.2 675.78 614.76 674.85 607.98 656.24"/><polyline class="cls-6" points="609.52 655.68 616.3 674.29 618.85 673.37 612.07 654.75"/><polyline class="cls-6" points="622.95 671.87 616.17 653.25 613.61 654.18 620.39 672.8"/><polyline class="cls-6" points="618.83 652.03 625.61 670.65 628.17 669.72 621.39 651.1"/><polyline class="cls-6" points="624.47 649.98 631.25 668.6 633.81 667.66 627.03 649.05"/><polyline class="cls-6" points="639.17 665.71 632.39 647.09 629.83 648.02 636.61 666.64"/><polyline class="cls-6" points="644.57 663.75 637.79 645.13 635.23 646.06 642.01 664.68"/><polyline class="cls-6" points="553.68 669.51 558.5 690.19 561.25 689.55 556.42 668.87"/><polyline class="cls-6" points="557.93 668.52 562.75 689.2 565.49 688.56 560.67 667.88"/><polyline class="cls-6" points="562.17 667.53 566.99 688.21 569.73 687.57 564.91 666.89"/><polyline class="cls-6" points="573.98 686.58 569.16 665.9 566.41 666.54 571.24 687.22"/><polyline class="cls-6" points="578.22 685.59 573.4 664.92 570.66 665.55 575.48 686.23"/><polyline class="cls-6" points="1298.55 83.01 1312.53 90.76 1313.86 88.36 1299.88 80.61"/><polyline class="cls-6" points="1300.54 79.43 1314.44 87.14 1315.78 84.74 1301.87 77.03"/><polyline class="cls-6" points="1302.52 75.85 1316.37 83.53 1317.7 81.12 1303.86 73.44"/><polyline class="cls-6" points="1319.81 77.6 1305.84 69.86 1304.5 72.26 1318.48 80.01"/><polyline class="cls-6" points="1321.76 74 1307.82 66.28 1306.49 68.69 1320.42 76.41"/><polyline class="cls-6" points="1307.64 103.2 1323.94 112.23 1325.27 109.83 1308.98 100.8"/><polyline class="cls-6" points="1309.63 99.62 1325.92 108.65 1327.25 106.25 1310.96 97.21"/><polyline class="cls-6" points="1311.61 96.04 1327.91 105.07 1329.25 102.66 1312.95 93.63"/><polyline class="cls-6" points="1331.23 99.08 1314.93 90.05 1313.61 92.45 1329.89 101.48"/><polyline class="cls-6" points="1333.21 95.5 1316.92 86.47 1315.59 88.87 1331.88 97.9"/><rect class="cls-6" x="1290.25" y="87.54" width="21.02" height="16.47" transform="translate(586.34 1187) rotate(-61)"/><polygon class="cls-6" points="1320.42 118.7 1345.6 73.27 1311.57 54.4 1286.38 99.83 1288.79 101.17 1312.64 58.14 1341.86 74.34 1318.01 117.36 1320.42 118.7"/><polyline class="cls-6" points="1304.44 109.84 1328.41 66.58 1326.01 65.25 1302.03 108.5"/><polygon class="cls-6" points="1333.38 93.36 1317.09 84.33 1327.29 65.93 1343.58 74.96 1333.38 93.36"/><polyline class="cls-6" points="1036.97 425.65 1045.18 410.84 1042.27 409.22 1034.05 424.03"/><polyline class="cls-6" points="1032 422.89 1040.17 408.15 1037.25 406.53 1029.08 421.27"/><polyline class="cls-6" points="1027.02 420.13 1035.16 405.45 1032.23 403.83 1024.1 418.51"/><polyline class="cls-6" points="1027.33 400.95 1019.12 415.75 1022.04 417.37 1030.25 402.57"/><polyline class="cls-6" points="1051.67 412.3 1061.24 395.03 1058.32 393.42 1048.75 410.68"/><polyline class="cls-6" points="1046.69 409.54 1056.27 392.27 1053.35 390.65 1043.77 407.92"/><polyline class="cls-6" points="1041.71 406.78 1051.29 389.51 1048.37 387.89 1038.79 405.16"/><rect class="cls-6" x="1039.81" y="416.62" width="17.46" height="11.2" transform="translate(170.89 1134.56) rotate(-61)"/><polyline class="cls-6" points="1010.94 414.47 1047.84 434.92 1049.45 432 1012.56 411.56"/><polyline class="cls-6" points="1067.77 398.34 1031.14 378.04 1029.52 380.96 1066.15 401.26"/><polyline class="cls-6" points="1058.64 415.42 1021.75 394.98 1020.13 397.9 1057.03 418.34"/><rect class="cls-6" x="1023.33" y="383.33" width="19.74" height="17.04" transform="translate(189.55 1105.51) rotate(-61)"/><polyline class="cls-6" points="1002.42 417.84 981.71 406.36 979.94 409.56 1000.65 421.04"/><polyline class="cls-6" points="977.17 414.54 997.89 426.02 999.66 422.82 978.95 411.34"/><polyline class="cls-6" points="974.42 419.52 995.13 431 996.9 427.8 976.19 416.32"/><polyline class="cls-6" points="984.8 400.47 967.94 430.89 971.14 432.66 988 402.24"/><polyline class="cls-6" points="1005.12 411.73 988.28 442.12 991.48 443.89 1008.32 413.5"/><rect class="cls-6" x="976.73" y="420.86" width="10.42" height="23.68" transform="translate(127.45 1081.76) rotate(-61)"/><polyline class="cls-3" points="296.13 649.38 243.7 783.31 245.67 784.09 298.11 650.15"/><polyline class="cls-3" points="304.06 629.11 300.95 637.07 302.93 637.84 306.04 629.88"/><path class="cls-3" d="M417.16,910.63l11.25,1.93,5.27.91.18-1.05-1-.2-16.21,82.36,2.08.42,16.42-83.44-1.07-.18-16.52-2.84Z"/><path class="cls-3" d="M404.87,858.85c-4.68,24.22-9.09,47-9.09,47l-.21,1.06,8.12,1.4.36-2.09L397,905l-.18,1,1,.2s.28-1.42.76-3.94c1.46-7.54,4.82-24.9,8.33-43.07Z"/><path class="cls-3" d="M413.41,814.7l-6.1,31.52,2.09.4c2.3-11.92,4.5-23.3,6.09-31.51Z"/><path class="cls-3" d="M360.51,687.17l73.09,27.77.38-1-1-.2-17.08,88.3,2.08.4,17.25-89.18-.83-.31-27.67-10.51-45.42-17.26Z"/><polyline class="cls-3" points="292.86 661.48 348.16 682.48 348.91 680.5 293.61 659.49"/><polyline class="cls-3" points="253.7 763.08 417.88 795.87 418.3 793.79 254.12 761"/><path class="cls-3" d="M331,708.65l-24.3,64.05,2,.75L333,709.4Z"/><polyline class="cls-3" points="342.24 679.03 335.74 696.18 337.72 696.93 344.22 679.78"/><polyline class="cls-3" points="359.62 705.15 365.93 688.65 363.94 687.89 357.64 704.39"/><polygon class="cls-3" points="306.6 705.38 352.5 723.84 354.3 719.02 352.31 718.27 351.27 721.05 307.39 703.41 306.6 705.38"/><polyline class="cls-3" points="431.97 726.14 360.96 699.3 360.21 701.28 431.22 728.12"/><polyline class="cls-3" points="376.4 706.1 358.23 752.06 360.2 752.84 378.37 706.88"/><polyline class="cls-3" points="399.08 700.76 394.14 713.51 396.12 714.27 401.06 701.53"/><polyline class="cls-3" points="280.32 816 408.78 841.93 409.2 839.85 280.74 813.92"/><polyline class="cls-3" points="267.12 881 395.85 906.99 396.27 904.91 267.54 878.92"/><polyline class="cls-3" points="369.41 812.61 412.4 820.82 412.79 818.73 369.81 810.53"/><polygon class="cls-3" points="426.23 910.05 440.57 835.71 477.44 842.88 484.18 806 447.62 799.1 462.94 719.84 460.86 719.44 445.13 800.79 481.71 807.69 475.75 840.38 438.89 833.21 424.14 909.65 426.23 910.05"/><polyline class="cls-3" points="505.74 950.13 547.91 948.91 547.85 946.79 505.68 948"/><polyline class="cls-3" points="428.05 945.63 478.39 949.6 478.56 947.48 428.22 943.51"/><polygon class="cls-3" points="588.32 1004.42 600.91 999.87 543.53 842.2 541.53 842.92 598.19 998.6 587.6 1002.43 588.32 1004.42 588.32 1004.42"/><polyline class="cls-3" points="561.62 1014.14 574.66 1009.45 573.94 1007.45 560.9 1012.15"/><polygon class="cls-3" points="548.75 956.18 555.35 955.13 568.44 953.02 581.46 950.82 581.11 948.72 568.11 950.92 555.02 953.03 548.42 954.08 548.75 956.18"/><polyline class="cls-3" points="557.84 804.44 711.52 757.54 710.9 755.51 557.22 802.41"/><polyline class="cls-3" points="627.49 762.08 633.94 779.8 635.94 779.07 629.49 761.35"/><polyline class="cls-3" points="829.06 853.24 835.99 848.31 834.76 846.58 827.83 851.51"/><polygon class="cls-3" points="792.52 876.38 798.87 874.21 806.32 868.9 805.09 867.17 797.88 872.3 791.84 874.37 792.52 876.38"/><polyline class="cls-3" points="814.25 935.51 822.88 932.37 822.15 930.38 813.53 933.52"/><polygon class="cls-3" points="778.78 878.85 770.5 881.65 789.65 944.46 800.31 940.59 799.58 938.59 791.03 941.7 773.13 883 779.46 880.86 778.78 878.85"/><polyline class="cls-3" points="847.37 823.96 962.29 739.9 961.04 738.19 846.12 822.25"/><polygon class="cls-3" points="868.27 892.03 828.48 837.78 836.33 832.04 835.08 830.33 825.51 837.33 866.56 893.29 868.27 892.03"/><polygon class="cls-3" points="852.44 516.75 896.18 470.55 975.25 544.92 976.7 543.38 896.1 467.56 850.9 515.29 852.44 516.75"/><polyline class="cls-3" points="792.31 580.26 842.83 526.9 841.28 525.45 790.77 578.8"/><polygon class="cls-3" points="739.19 664.52 727.48 648.73 782.77 590.34 781.23 588.88 724.71 648.57 737.49 665.78 739.19 664.52"/><polyline class="cls-3" points="766.86 701.81 747.19 675.29 745.48 676.56 765.16 703.07"/><polyline class="cls-3" points="791.92 735.59 775.18 713.02 773.47 714.28 790.22 736.85"/><polyline class="cls-3" points="819.72 772.92 804.42 752.32 802.72 753.59 818.01 774.18"/><polyline class="cls-3" points="853.7 818.67 827.79 783.78 826.09 785.05 852 819.93"/><polyline class="cls-3" points="933.61 624.28 837.36 532.01 835.89 533.54 932.14 625.81"/><polyline class="cls-3" points="775.93 596.01 862.93 678.39 864.39 676.85 777.39 594.47"/><polyline class="cls-3" points="751.14 623.34 761.07 633.56 762.59 632.08 752.66 621.87"/><polyline class="cls-3" points="736.34 661.45 788.04 606.51 786.5 605.05 734.8 660"/><polyline class="cls-3" points="750.16 680.49 768.61 666.43 767.32 664.75 748.87 678.8"/><polyline class="cls-3" points="762.57 699.12 785.27 682.39 784.01 680.68 761.31 697.41"/><polyline class="cls-3" points="784.92 727.96 807.62 711.23 806.36 709.53 783.66 726.26"/><polygon class="cls-3" points="759.99 658.84 789.22 686.18 828.12 645.27 826.58 643.81 789.13 683.19 761.44 657.29 759.99 658.84"/><polygon class="cls-3" points="788.3 685.28 810.78 718.33 814.37 715.63 825.19 707.51 895.48 654.75 900.17 661.51 901.92 660.3 895.96 651.74 823.92 705.81 813.09 713.94 811.28 715.3 790.05 684.09 788.3 685.28 788.3 685.28"/><path class="cls-3" d="M811.13,905.13c1.72,4.28,3.55,8.9,4.94,12.45l1.71,4.35.65,1.69,2-.77s-3.86-9.94-7.32-18.51Z"/><path class="cls-3" d="M807.08,890c-5.72-13.39-14.24-32.78-21.67-47.89-3.91-8-9.31-17.71-14.36-26.4s-9.75-16.27-12.29-19.91c-13.45-19.21-29.08-33-52-42.79-6.11-2.62-13.76-3.59-21.89-3.59-11.64,0-24.29,2-34.81,4.28a190.72,190.72,0,0,0-22,6c-2,.74-5.8,2-10.7,3.77-14.71,5.43-39.46,16-57.51,35.1-9.43,10-14.5,22.9-17.22,36s-3.11,26.33-3.11,37c0,4.3.06,8.18.06,11.44,0,.64,0,1.25,0,1.84v.52c0,4.93.61,14.16,1.73,25.4s2.77,24.49,4.83,37.39c.75,4.66,1.55,9.27,2.36,13.71h0l1.33,6.56,2.08-.43-1.33-6.54-1,.21,1-.19c-.8-4.43-1.6-9-2.34-13.67-2.06-12.84-3.7-26-4.81-37.26s-1.73-20.41-1.73-25.19c0-.18,0-.34,0-.5V883c0-3.29-.06-7.16-.06-11.44,0-10.61.39-23.71,3.07-36.56s7.63-25.39,16.68-35c11.76-12.43,26.56-21.27,39.44-27.36,6.44-3.05,12.4-5.42,17.26-7.21s8.62-3,10.71-3.77a188.83,188.83,0,0,1,21.72-5.91c10.43-2.27,23-4.24,34.36-4.24,8,0,15.36,1,21,3.42,22.62,9.7,37.85,23.09,51.14,42.06,2.46,3.52,7.16,11.11,12.2,19.76s10.41,18.39,14.28,26.26c7.4,15.06,15.92,34.42,21.63,47.8Z"/><path class="cls-3" d="M558.53,999.88s-.14-.58-.37-1.57c-.69-3-2.24-9.77-3.61-16.14l-2.07.45c1.83,8.51,4,17.74,4,17.74Z"/><polyline class="cls-3" points="838.8 718.96 853.43 738.74 855.14 737.47 840.51 717.7"/><polyline class="cls-3" points="832.08 706.08 829.64 702.82 827.94 704.09 830.38 707.35"/><polyline class="cls-3" points="921.65 686.29 813.84 766.68 815.11 768.38 922.92 687.99"/><polyline class="cls-3" points="887.88 468.18 892.62 472.82 894.11 471.3 889.37 466.67"/><polyline class="cls-3" points="873.82 454.41 878.24 458.74 879.73 457.23 875.3 452.89"/><path class="cls-3" d="M490.42,603.08l-3.88,65,1,.09s10.12.8,21.34.8H509c11.44,0,24-.82,28.72-1.34s15-2.5,25.41-4.68,20.72-4.56,25.56-5.88c5.79-1.6,17.18-5.33,28.56-9.34s22.71-8.27,28.43-11c3.43-1.61,8.23-4.31,13.55-7.48,15.95-9.51,36.43-23.15,36.43-23.16l-1.17-1.76-1.59,1.05c-3.57,2.36-12.69,8.35-22.38,14.44s-20,12.28-25.74,15c-5.56,2.61-16.9,6.88-28.24,10.87s-22.73,7.73-28.41,9.29c-4.74,1.3-15.12,3.68-25.44,5.85S542,665,537.48,665.54s-17.15,1.32-28.49,1.32h-.07c-5.56,0-10.86-.2-14.77-.39-1.95-.1-3.55-.2-4.67-.28l-1.73-.12-.09,1.06,1.06.06,3.82-64Z"/><polygon class="cls-3" points="699.02 628.1 703.68 632.61 874.5 453.75 872.97 452.29 703.63 629.6 700.5 626.58 699.02 628.1"/><polyline class="cls-3" points="683.98 612.79 688.71 617.63 690.22 616.15 685.49 611.31"/><polygon class="cls-3" points="373.28 637.7 370.07 643.2 328.12 619.84 327.09 621.69 370.85 646.07 375.11 638.77 373.28 637.7"/><polygon class="cls-3" points="348.33 583.55 390.26 606.91 385.9 614.73 387.76 615.76 393.15 606.09 349.37 581.7 348.33 583.55"/><polyline class="cls-3" points="1378.51 168.92 1372.79 179.24 1374.65 180.27 1380.37 169.95"/><polyline class="cls-3" points="1411.75 108.96 1383.47 159.97 1385.33 161 1413.61 109.99"/><polygon class="cls-3" points="1357.76 138.79 1342.59 130.39 1359.69 99.55 1370.02 105.28 1371.05 103.42 1358.86 96.66 1339.71 131.21 1356.73 140.65 1357.76 138.79"/><polyline class="cls-3" points="1386.86 154.92 1367.27 144.07 1366.24 145.92 1385.83 156.78"/><polyline class="cls-3" points="1366.3 112.57 1355.03 106.32 1354 108.18 1365.27 114.42"/><polyline class="cls-3" points="1361.31 122.13 1328.04 103.68 1327.01 105.54 1360.28 123.98"/><polyline class="cls-3" points="1377.84 88.8 1351.34 136.61 1353.19 137.63 1379.7 89.83"/><polygon class="cls-3" points="1160.64 499.71 1152.55 495.22 1120.9 552.32 1122.76 553.35 1153.38 498.11 1159.62 501.57 1160.64 499.71"/><polyline class="cls-3" points="1225.85 535.88 1170.55 505.2 1169.52 507.06 1224.82 537.74"/><polyline class="cls-3" points="1175.35 503.34 1172.39 508.68 1174.25 509.71 1177.21 504.37"/><polyline class="cls-3" points="1191.5 474.2 1180.6 493.86 1182.46 494.88 1193.36 475.23"/><polyline class="cls-3" points="1129.04 504.5 1123.43 501.39 1122.4 503.25 1128.01 506.35"/><polyline class="cls-3" points="1144.21 512.9 1138.19 509.57 1137.16 511.42 1143.18 514.76"/><polyline class="cls-3" points="1308.72 137.57 1305.98 142.52 1307.84 143.55 1310.57 138.6"/><polyline class="cls-3" points="1344.87 72.34 1313.77 128.47 1315.61 129.5 1346.73 73.36"/><polyline class="cls-3" points="1232.78 317.88 1180.04 288.64 1179.01 290.5 1231.75 319.74"/><polygon class="cls-3" points="1319.57 365.99 1245.66 325.01 1241.92 322.94 1240.89 324.8 1244.63 326.87 1318.54 367.85 1319.57 365.99"/><polyline class="cls-3" points="1299.71 178.54 1254.44 153.45 1253.41 155.31 1298.68 180.4"/><polyline class="cls-3" points="1394.38 231.03 1322.13 190.97 1321.1 192.83 1393.35 232.88"/><polyline class="cls-3" points="1280.75 212.74 1235.49 187.65 1234.46 189.5 1279.72 214.59"/><polyline class="cls-3" points="1242.84 281.13 1197.58 256.04 1196.55 257.89 1241.81 282.99"/><polyline class="cls-3" points="1205.95 347.68 1160.69 322.59 1159.66 324.45 1204.92 349.54"/><polyline class="cls-3" points="1300.63 400.17 1228.38 360.11 1227.35 361.97 1299.6 402.02"/><polyline class="cls-3" points="1187 381.88 1141.73 356.79 1140.7 358.64 1185.97 383.73"/><polyline class="cls-3" points="1281.68 434.36 1209.42 394.31 1208.39 396.16 1280.65 436.22"/><polyline class="cls-3" points="1166.58 418.72 1122.16 394.11 1121.15 395.93 1165.56 420.55"/><polyline class="cls-3" points="1262.72 468.56 1190.46 428.5 1189.44 430.36 1261.69 470.41"/><polygon class="cls-3" points="1180.96 443.98 1169.77 464.17 1172.06 465.43 1205.57 484.01 1224.9 449.14 1223.04 448.11 1204.74 481.12 1173.09 463.57 1172.65 463.34 1182.81 445.01 1180.96 443.98"/><polyline class="cls-3" points="1192.14 423.8 1185.98 434.91 1187.84 435.94 1194 424.82"/><polyline class="cls-3" points="1211.01 389.77 1197.06 414.93 1198.91 415.96 1212.87 390.8"/><polyline class="cls-3" points="1229.94 355.62 1216.33 380.18 1218.18 381.21 1231.79 356.65"/><polyline class="cls-3" points="1256.7 307.33 1235.02 346.45 1236.88 347.48 1258.55 308.36"/><polygon class="cls-3" points="1337.52 333.61 1267.9 295.02 1264.56 293.17 1261.93 297.9 1263.78 298.93 1265.38 296.05 1266.87 296.87 1336.49 335.47 1337.52 333.61"/><polygon class="cls-3" points="1305.12 219.98 1301.44 226.63 1304.77 228.48 1374.4 267.08 1375.43 265.22 1305.8 226.63 1304.32 225.8 1306.98 221.01 1305.12 219.98"/><polyline class="cls-3" points="1323.74 186.4 1310.29 210.66 1312.14 211.69 1325.6 187.42"/><polygon class="cls-3" points="1410.14 199.38 1339.62 160.29 1339.45 160.21 1338.53 159.7 1328.93 177.04 1330.79 178.07 1339.88 161.65 1338.95 161.14 1338.44 162.07 1338.6 162.15 1338.59 162.15 1409.11 201.24 1410.14 199.38"/><polygon class="cls-3" points="1123.2 478.99 1088.98 460.01 1086.3 458.53 1068.67 490.32 1070.52 491.35 1087.12 461.41 1087.95 461.87 1122.17 480.84 1123.2 478.99"/><polygon class="cls-3" points="1102.71 542.84 1134.6 485.3 1131.54 483.61 1130.51 485.46 1131.71 486.13 1100.85 541.81 1102.71 542.84"/><polygon class="cls-3" points="1308.55 165.29 1317.97 148.29 1313.85 146.01 1272.37 123.02 1271.34 124.87 1312.82 147.87 1315.08 149.12 1306.69 164.27 1308.55 165.29"/><polyline class="cls-3" points="1289.7 199.29 1303.17 174.99 1301.31 173.96 1287.85 198.26"/><polyline class="cls-3" points="1270.68 233.6 1284.72 208.28 1282.86 207.26 1268.82 232.57"/><polyline class="cls-3" points="1251.64 267.95 1265.54 242.86 1263.69 241.83 1249.79 266.92"/><polyline class="cls-3" points="1241.12 286.94 1246.65 276.95 1244.8 275.92 1239.26 285.91"/><polyline class="cls-3" points="1214.73 334.53 1236.26 295.7 1234.4 294.67 1212.88 333.5"/><polyline class="cls-3" points="1195.55 369.14 1209.45 344.06 1207.59 343.03 1193.69 368.11"/><polyline class="cls-3" points="1173.6 408.75 1190.42 378.4 1188.56 377.38 1171.74 407.72"/><polyline class="cls-3" points="1166.08 422.31 1168.47 417.98 1166.62 416.95 1164.22 421.28"/><polygon class="cls-3" points="1123.22 391.9 1097.67 438 1098.7 438.58 1142.19 462.69 1142.41 462.81 1143.34 463.33 1160.93 431.59 1159.07 430.56 1142 461.37 1142.93 461.88 1143.44 460.96 1143.22 460.84 1099.74 436.73 1099.63 436.67 1099.11 437.59 1100.04 438.11 1125.08 392.93 1123.22 391.91 1123.22 391.9"/><polygon class="cls-3" points="1066.88 445.78 1008.36 413.34 991.38 443.97 993.23 445 1009.18 416.22 1065.86 447.64 1066.88 445.78"/><polyline class="cls-3" points="1121.74 456.6 1124.55 451.53 1122.69 450.5 1119.88 455.57"/><polyline class="cls-3" points="1111.87 474.41 1116.4 466.23 1114.55 465.2 1110.01 473.38"/><polygon class="cls-3" points="1158.46 432.36 1147.51 426.29 1131.06 455.99 1132.91 457.01 1148.34 429.18 1157.43 434.22 1158.46 432.36"/><polyline class="cls-3" points="1151 446.43 1141.63 441.24 1140.6 443.1 1149.97 448.29"/><polyline class="cls-3" points="1262.29 246.46 1218.9 222.41 1217.87 224.26 1261.26 248.31"/><polygon class="cls-3" points="1114.72 409.18 1109.39 406.23 1099.65 409.02 1086.89 432.04 1098.71 438.58 1099.73 436.73 1089.78 431.21 1101.08 410.82 1109.13 408.51 1113.69 411.04 1114.72 409.18"/><polygon class="cls-6" points="1068.34 393.04 1066.83 395.76 1038.65 380.13 1052.67 354.83 1080.86 370.45 1078.87 374.04 1080.73 375.07 1083.74 369.63 1051.85 351.94 1035.76 380.96 1067.66 398.64 1070.2 394.07 1068.34 393.04"/><path class="cls-6" d="M1071.2,387.78l-1.65,3,2,1.1,1.65-3Zm3.3-5.95-1.65,3,2,1.1,1.65-3Zm3.3-5.95-1.65,3,2,1.1,1.65-3Z"/><polygon class="cls-6" points="1006.84 442.75 1005.69 442.12 1014.15 426.84 1032.21 436.85 1030.95 439.11 1032.1 439.75 1034 436.33 1013.64 425.05 1003.89 442.63 1006.2 443.91 1006.84 442.75"/><polygon class="cls-6" points="1024.7 450.39 1023.74 452.12 1020.5 450.33 1019.86 451.48 1024.26 453.92 1025.86 451.02 1024.7 450.39"/><path class="cls-6" d="M1026.2,447.62l-1,1.85,1.24.69,1-1.85Zm2-3.7-1,1.85,1.24.69,1-1.85Zm2-3.7-1,1.85,1.23.69,1-1.86Z"/><path class="cls-6" d="M1011.2,445.22l-1.85-1-.68,1.24,1.85,1Zm3.7,2-1.85-1-.68,1.23,1.85,1Zm3.71,2.05-1.85-1-.69,1.23,1.85,1Z"/><path class="cls-6" d="M446.1,808.46l.53-2.68-2.23-.43-.52,2.68Zm-1.3,6.68.65-3.34-2.22-.43-.65,3.34Zm-1.3,6.68.65-3.34-2.22-.43-.65,3.34Zm-1.3,6.68.65-3.34-2.23-.44-.65,3.34Z"/><polygon class="cls-6" points="446.73 803.39 447.38 799.85 448.14 800.02 448.15 800.02 482.85 807.31 476.37 841.61 440.83 834.42 441.5 830.78 439.42 830.39 438.37 836.08 478.05 844.11 485.32 805.66 448.6 797.94 445.7 797.3 444.64 803 446.73 803.39"/><polyline class="cls-3" points="305.72 637.96 298.81 635.22 298.23 636.7 305.13 639.43"/><polyline class="cls-3" points="300.55 650.99 293.64 648.25 293.06 649.74 299.96 652.47"/><polyline class="cls-3" points="348.41 677.5 345.79 684.45 347.28 685.01 349.9 678.05"/><polyline class="cls-3" points="361.54 682.43 358.92 689.38 360.41 689.94 363.02 682.99"/><polyline class="cls-3" points="340.85 697.24 333.94 694.51 333.36 695.99 340.26 698.72"/><polyline class="cls-3" points="335.68 710.28 328.77 707.54 328.19 709.02 335.09 711.76"/><polyline class="cls-3" points="362.25 706.17 355.35 703.43 354.76 704.91 361.67 707.65"/><polyline class="cls-3" points="357.08 719.21 350.18 716.47 349.59 717.95 356.5 720.69"/><polyline class="cls-3" points="410.65 815.41 417.93 816.88 418.25 815.32 410.97 813.85"/><polyline class="cls-3" points="413.43 801.66 420.7 803.13 421.02 801.57 413.74 800.1"/><polyline class="cls-3" points="402.15 859.52 409.43 860.99 409.74 859.43 402.46 857.96"/><polyline class="cls-3" points="404.92 845.77 412.2 847.24 412.52 845.68 405.24 844.21"/><polyline class="cls-3" points="403.47 903.11 401.94 910.38 403.5 910.71 405.03 903.44"/><polyline class="cls-3" points="417.2 905.99 415.67 913.25 417.23 913.58 418.75 906.31"/><polyline class="cls-3" points="776.67 876.76 779.21 883.74 780.71 883.19 778.17 876.21"/><polyline class="cls-3" points="789.86 871.96 792.4 878.94 793.89 878.39 791.35 871.41"/><polyline class="cls-3" points="798.19 936.14 800.73 943.13 802.22 942.58 799.68 935.6"/><polyline class="cls-3" points="811.36 931.35 813.9 938.33 815.4 937.78 812.86 930.81"/><polyline class="cls-3" points="572.45 1005.51 574.99 1012.49 576.48 1011.94 573.94 1004.96"/><polyline class="cls-3" points="585.62 1000.71 588.16 1007.69 589.66 1007.14 587.12 1000.17"/><polyline class="cls-3" points="692.23 613.5 686.71 618.47 687.77 619.65 693.29 614.69"/><polyline class="cls-3" points="701.61 623.93 696.09 628.9 697.15 630.08 702.67 625.12"/><polyline class="cls-3" points="838.99 523.29 844.16 528.62 845.31 527.51 840.14 522.18"/><polyline class="cls-3" points="849.07 513.52 854.23 518.86 855.38 517.75 850.21 512.42"/><polyline class="cls-3" points="778.63 587.2 783.79 592.54 784.94 591.43 779.77 586.1"/><polyline class="cls-3" points="788.7 577.44 793.86 582.77 795.01 581.66 789.84 576.33"/><polyline class="cls-3" points="880.92 454.64 875.69 459.92 876.82 461.04 882.05 455.76"/><polyline class="cls-3" points="890.88 464.51 885.65 469.79 886.78 470.91 892.01 465.63"/><polyline class="cls-3" points="740.72 662.29 734.77 666.73 735.72 668 741.67 663.57"/><polyline class="cls-3" points="749.1 673.54 743.14 677.98 744.09 679.25 750.05 674.82"/><polyline class="cls-3" points="768.57 699.48 762.61 703.91 763.56 705.19 769.52 700.76"/><polyline class="cls-3" points="776.95 710.73 770.99 715.16 771.94 716.44 777.9 712.01"/><polyline class="cls-3" points="821.3 770.43 815.35 774.86 816.3 776.13 822.25 771.7"/><polyline class="cls-3" points="829.68 781.67 823.72 786.11 824.67 787.38 830.63 782.95"/><polyline class="cls-3" points="833.74 703.95 827.83 708.45 828.79 709.72 834.7 705.22"/><polyline class="cls-3" points="842.23 715.11 836.33 719.61 837.29 720.88 843.2 716.38"/><polyline class="cls-3" points="832.62 829.06 836.91 835.12 838.21 834.2 833.92 828.14"/><polyline class="cls-3" points="844.06 820.95 848.36 827.01 849.65 826.09 845.36 820.03"/><polyline class="cls-3" points="549.74 983.27 557.03 981.84 556.72 980.28 549.43 981.7"/><polyline class="cls-3" points="547.04 969.51 554.33 968.08 554.03 966.52 546.74 967.94"/><polyline class="cls-3" points="1176.36 409.38 1169.94 405.82 1169.16 407.21 1175.58 410.77"/><polyline class="cls-3" points="1171.54 418.06 1165.12 414.5 1164.36 415.89 1170.77 419.45"/><polyline class="cls-3" points="1198.22 369.92 1191.81 366.37 1191.04 367.76 1197.46 371.31"/><polyline class="cls-3" points="1193.42 378.6 1187 375.05 1186.22 376.44 1192.64 379.99"/><polyline class="cls-3" points="1217.18 335.73 1210.77 332.17 1209.99 333.56 1216.41 337.12"/><polyline class="cls-3" points="1212.37 344.4 1205.95 340.85 1205.18 342.24 1211.59 345.8"/><polyline class="cls-3" points="1243.72 287.85 1237.3 284.29 1236.54 285.68 1242.94 289.24"/><polyline class="cls-3" points="1238.9 296.53 1232.49 292.97 1231.72 294.37 1238.14 297.92"/><polyline class="cls-3" points="1220.58 382.31 1214.17 378.76 1213.4 380.15 1219.82 383.71"/><polyline class="cls-3" points="1215.77 391 1209.35 387.44 1208.58 388.83 1215 392.39"/><polyline class="cls-3" points="1239.54 348.12 1233.12 344.56 1232.35 345.95 1238.77 349.51"/><polyline class="cls-3" points="1234.73 356.8 1228.31 353.24 1227.54 354.63 1233.96 358.19"/><polyline class="cls-3" points="1266.08 300.24 1259.66 296.69 1258.89 298.08 1265.31 301.63"/><polyline class="cls-3" points="1261.27 308.92 1254.85 305.37 1254.07 306.76 1260.49 310.31"/><polyline class="cls-3" points="1254.08 269.17 1247.66 265.62 1246.88 267.01 1253.3 270.56"/><polyline class="cls-3" points="1249.26 277.85 1242.84 274.3 1242.08 275.69 1248.48 279.25"/><polyline class="cls-3" points="1273.47 234.19 1267.05 230.63 1266.28 232.02 1272.7 235.58"/><polyline class="cls-3" points="1268.65 242.87 1262.23 239.31 1261.46 240.7 1267.88 244.26"/><polyline class="cls-3" points="1292.42 199.99 1286 196.44 1285.24 197.83 1291.64 201.38"/><polyline class="cls-3" points="1287.61 208.67 1281.19 205.12 1280.42 206.51 1286.84 210.06"/><polyline class="cls-3" points="1310.93 166.58 1304.53 163.03 1303.75 164.42 1310.17 167.97"/><polyline class="cls-3" points="1306.13 175.26 1299.71 171.71 1298.93 173.1 1305.35 176.66"/><polyline class="cls-3" points="1314.77 212.39 1308.37 208.83 1307.59 210.22 1314.01 213.78"/><polyline class="cls-3" points="1309.97 221.07 1303.55 217.51 1302.79 218.9 1309.19 222.46"/><polyline class="cls-3" points="1333.3 178.98 1326.88 175.42 1326.11 176.81 1332.53 180.37"/><polyline class="cls-3" points="1328.48 187.66 1322.07 184.1 1321.3 185.49 1327.72 189.05"/><polyline class="cls-3" points="1168.62 423.32 1162.2 419.76 1161.44 421.16 1167.86 424.71"/><polyline class="cls-3" points="1163.82 432 1157.4 428.44 1156.62 429.84 1163.04 433.39"/><polyline class="cls-3" points="1318.31 130.18 1311.89 126.63 1311.11 128.02 1317.53 131.57"/><polyline class="cls-3" points="1313.5 138.86 1307.08 135.31 1306.31 136.7 1312.73 140.25"/><polyline class="cls-3" points="1388.03 161.6 1381.61 158.04 1380.83 159.43 1387.25 162.99"/><polyline class="cls-3" points="1383.21 170.28 1376.8 166.72 1376.03 168.11 1382.44 171.67"/><polyline class="cls-3" points="1358.68 136.4 1355.12 142.82 1356.51 143.59 1360.08 137.17"/><polyline class="cls-3" points="1367.37 141.21 1363.8 147.63 1365.2 148.4 1368.76 141.99"/><polyline class="cls-3" points="1124.21 457.74 1117.79 454.19 1117.02 455.58 1123.44 459.13"/><polyline class="cls-3" points="1119.4 466.42 1112.98 462.87 1112.21 464.26 1118.63 467.81"/><polyline class="cls-3" points="1130.27 488.29 1133.82 481.88 1132.43 481.11 1128.87 487.52"/><polyline class="cls-3" points="1121.58 483.48 1125.14 477.06 1123.75 476.29 1120.19 482.71"/><polyline class="cls-3" points="1136.15 513.87 1139.7 507.45 1138.31 506.68 1134.76 513.1"/><polyline class="cls-3" points="1127.47 509.06 1131.02 502.64 1129.63 501.87 1126.08 508.29"/><polyline class="cls-3" points="1168.33 509.4 1171.88 502.98 1170.49 502.21 1166.92 508.63"/><polyline class="cls-3" points="1159.65 504.58 1163.2 498.17 1161.81 497.39 1158.26 503.81"/><polyline class="cls-3" points="1172.76 502.56 1179.18 506.12 1179.94 504.72 1173.53 501.17"/><polyline class="cls-3" points="1177.57 493.88 1183.99 497.43 1184.76 496.04 1178.34 492.49"/><polyline class="cls-3" points="1178.29 443.49 1184.71 447.04 1185.47 445.65 1179.06 442.1"/><polyline class="cls-3" points="1183.1 434.81 1189.51 438.36 1190.29 436.97 1183.87 433.42"/><polyline class="cls-3" points="1189.51 423.23 1195.93 426.79 1196.71 425.4 1190.29 421.84"/><polyline class="cls-3" points="1194.33 414.55 1200.74 418.11 1201.51 416.72 1195.09 413.16"/><polyline class="cls-3" points="1240.36 327.54 1243.91 321.12 1242.52 320.35 1238.97 326.77"/><polyline class="cls-3" points="1231.68 322.73 1235.23 316.31 1233.84 315.54 1230.29 321.95"/><polyline class="cls-3" points="506.13 953.87 505.36 939.88 503.24 939.99 504.01 953.99"/><polyline class="cls-3" points="478.81 955.37 478.04 941.38 475.92 941.49 476.69 955.49"/><polyline class="cls-3" points="393.82 617.06 381.66 610.09 380.61 611.93 392.76 618.9"/><polyline class="cls-3" points="380.2 640.8 368.05 633.82 366.99 635.66 379.15 642.64"/><polyline class="cls-3" points="833.08 857.89 825.25 846.27 823.49 847.45 831.32 859.08"/><polyline class="cls-3" points="810.38 873.18 802.55 861.55 800.79 862.74 808.62 874.36"/><polyline class="cls-3" points="809.56 888.86 802.75 891.82 803.39 893.28 810.2 890.32"/><polyline class="cls-3" points="815.16 901.73 808.35 904.69 808.98 906.15 815.79 903.18"/><polyline class="cls-6" points="807.93 395.55 797.94 385.73 796.45 387.24 806.44 397.07"/><polyline class="cls-6" points="788.74 415.07 778.75 405.24 777.26 406.75 787.25 416.58"/><polyline class="cls-6" points="273.39 802.36 278.07 789.15 276.07 788.44 271.39 801.64"/><polyline class="cls-6" points="247.6 793.21 252.28 780 250.28 779.29 245.6 792.5"/><polyline class="cls-6" points="240.31 789.75 245 776.54 243 775.83 238.31 789.04"/><polyline class="cls-6" points="228.06 785.27 232.74 772.06 230.74 771.35 226.06 784.56"/><polyline class="cls-6" points="506.79 1009.52 506.03 995.52 503.91 995.64 504.67 1009.63"/><polyline class="cls-6" points="479.47 1011.02 478.7 997.02 476.58 997.14 477.35 1011.13"/><polyline class="cls-6" points="351.35 592.49 339.19 585.52 338.13 587.36 350.29 594.33"/><polyline class="cls-6" points="337.73 616.23 325.57 609.25 324.52 611.1 336.68 618.07"/><polyline class="cls-6" points="854.45 910.2 846.62 898.58 844.86 899.76 852.69 911.39"/><polyline class="cls-6" points="831.75 925.49 823.92 913.87 822.16 915.05 829.99 926.68"/><path class="cls-6" d="M506,1004.87c15.46-.72,35.27-1.21,50.73-2l-.1-2.12-2.06.5s1.49,6.09,4.37,14.5a159.48,159.48,0,0,0,12.82,28.75c10,16.84,24.55,29.42,41.31,37.76a122.84,122.84,0,0,0,54.48,12.49q4,0,8.06-.25c11.46-.73,22.6-3,33.65-5.15,17.84-3.51,32.68-9.42,49.14-16.81a145.66,145.66,0,0,0,44.74-30.93c12.81-13.27,22.54-29.4,26-47.86a121.65,121.65,0,0,0,2-22.62A140.16,140.16,0,0,0,823,923.73l-2,.73,1.19,1.75,5.78-3.9-2.38-3.52-7.15,4.83.56,1.56a136,136,0,0,1,8,46A118,118,0,0,1,825,993c-3.31,17.47-12.56,32.88-24.93,45.71s-27.84,23-43.42,30c-16.37,7.35-30.84,13.09-48.22,16.52-11.06,2.18-22,4.37-33.09,5.07q-3.9.26-7.8.25a118.56,118.56,0,0,1-52.59-12c-16.12-8-30.05-20.06-39.55-36.12a155.94,155.94,0,0,1-12.46-28c-1.41-4.12-2.48-7.66-3.19-10.17-.36-1.25-.63-2.25-.81-2.93-.09-.34-.15-.6-.2-.77l0-.2v-.06l-.42-1.7-1.75.09c-15.38.78-35.18,1.27-50.72,2Z"/><path class="cls-6" d="M274.15,798c2.64,1,4.28,1.72,5.24,2.14l1,.45.18.09h0l.25-.49-.26.49h0l.25-.49-.26.49h0l1-1.88-1.9-.95-.09.21a2.64,2.64,0,0,0-.09.31,2.43,2.43,0,0,0,0,.46,2.09,2.09,0,0,0,.94,1.74,2.07,2.07,0,0,0,1.18.35v-2.12l-2.09-.39-32,170.55,169.76,33.92,1.49-6.14-2.06-.5-.29,2.1s9.94,1.38,20.37,2.8c5.22.72,10.56,1.44,14.85,2l5.5.71c1.48.18,2.53.31,3.1.36q9,.75,18.06,1.11l.17-4.24c-6-.23-11.92-.61-17.87-1.1-.42,0-1.48-.16-2.93-.34-5.11-.64-15.29-2-24.17-3.23l-11.59-1.59-4.91-.68-1.9-.27-1,4L252.41,965.6l31.72-168.94h-2.56v2.12l.9-1.92a2.17,2.17,0,0,0-.9-.2v2.12l.9-1.92a2.12,2.12,0,0,1,1.22,1.91,2.1,2.1,0,0,1-.12.71,2.06,2.06,0,0,1-.1.25,2.12,2.12,0,0,0-.91-2.82c-.12-.07-1.49-.79-6.86-2.89Z"/><polygon class="cls-6" points="329.85 612.79 324.69 622.24 353.72 638.44 350.63 645.54 137.38 563.52 77.48 721.05 229 780.45 230.54 776.5 82.94 718.63 139.84 569.01 352.89 650.96 359.14 636.61 330.43 620.59 333.58 614.82 329.85 612.79"/><path class="cls-6" d="M781.74,409.52,779.32,412l-29.11-6.1-.55,1.89c-7.08,24.17-15.9,47-27.68,68.13a222.15,222.15,0,0,1-45.41,57.46,252.58,252.58,0,0,1-43.79,31.49C604.78,580.79,578.32,591,547,596c-15.94,2.52-32.14,4.47-48.22,4.47A158.42,158.42,0,0,1,466,597.27c-21.07-4.44-41.73-11.15-61.88-18.89-4.63-1.78-9.25-3.46-13.7-5.4l-1.74-.76-12.58,22-27.83-15.22-5.5,10.36,3.75,2,3.48-6.56L377.73,600l13.7-24-1.84-1.05-.85,1.94c4.61,2,9.29,3.71,13.87,5.47,20.28,7.79,41.16,14.58,62.52,19.08a162.17,162.17,0,0,0,33.61,3.29c16.43,0,32.84-2,48.88-4.53,31.9-5,59-15.51,87.25-31.61a257.2,257.2,0,0,0,44.55-32A226.74,226.74,0,0,0,725.69,478c12-21.44,20.9-44.62,28-69l-2-.6-.44,2.08,29.47,6.17,4-4.15Z"/><polygon class="cls-6" points="851.58 906.77 866.75 896.74 892.55 931.08 1030.46 830.31 903.34 658.55 997.45 560.89 977.48 541.78 1018.91 465.26 1068.24 492.61 1062.23 503.45 1068.93 526.82 1121.12 555.75 1112.77 570.8 1185.47 611.1 1452.62 129.15 1310.27 50.24 1287 92.23 1280.76 103.48 1122.73 388.57 1118.6 386.27 1106.13 379.37 1019.02 331.08 948.97 457.44 884.96 442.2 874.71 450.46 807.26 383.34 800.97 389.8 804.01 392.76 807.31 389.37 874.41 456.16 886 446.81 951.12 462.31 1020.67 336.85 1104.07 383.08 1116.54 389.99 1124.39 394.33 1284.47 105.54 1290.7 94.29 1311.92 56.01 1446.85 130.8 1183.82 605.33 1118.54 569.15 1126.89 554.09 1072.53 523.96 1066.79 503.98 1074.01 490.95 1017.22 459.47 972.2 542.61 991.44 561.01 897.79 658.19 1024.5 829.4 893.43 925.18 867.74 891 849.24 903.23 851.58 906.77"/><text class="cls-7" transform="translate(261.37 597.69)"><tspan class="cls-8">m</tspan><tspan class="cls-9" x="9.55" y="0">ain e</tspan><tspan x="32.37" y="0">n</tspan></text><text class="cls-7" transform="translate(299.93 597.69)"><tspan class="cls-10">tra</tspan><tspan x="13.86" y="0">n</tspan></text><text class="cls-7" transform="translate(320.08 597.69)"><tspan class="cls-11">c</tspan><tspan x="4.88" y="0">e</tspan></text><text class="cls-12" transform="translate(159.94 815.37)">emergen<tspan class="cls-13" x="43.09" y="0">c</tspan></text><text class="cls-7" transform="translate(208.45 815.37)">y </text><text class="cls-14" transform="translate(215.95 815.37)">e<tspan class="cls-13" x="5.89" y="0">x</tspan></text><text class="cls-7" transform="translate(227.39 815.37)"><tspan class="cls-15">i</tspan><tspan x="3" y="0">t</tspan></text><text class="cls-7" transform="translate(234.71 815.37)"><tspan class="cls-8">s o</tspan><tspan x="12.96" y="0">n</tspan></text><text class="cls-7" transform="translate(253.91 815.37)"><tspan class="cls-16">l</tspan><tspan x="3.09" y="0">y</tspan></text><path class="cls-17" d="M297.62,797.29l-.47-1a4.88,4.88,0,0,1-1.72,1.66,4.74,4.74,0,0,1-2.39.63,4.83,4.83,0,0,1-4.82-4.83,4.73,4.73,0,0,1,1.11-3.09,4.79,4.79,0,0,1,2.81-1.65v-4.22a1.4,1.4,0,0,1,2.4-1,1.44,1.44,0,0,1,0,2,1.43,1.43,0,0,1-1,.43v2.27h3.08v1.19h-3.08v1.18h3.71l1.34,4.52,1.35-.62.55,1.21Zm-2.15-1.12a3.29,3.29,0,0,0,1-2.43l-.42-1.47h-3.93v-1.85a3.4,3.4,0,0,0-1.81,1.22,3.25,3.25,0,0,0-.73,2.09,3.45,3.45,0,0,0,3.45,3.45,3.29,3.29,0,0,0,2.42-1"/><text class="cls-18" transform="translate(302.85 788.82)"><tspan class="cls-19">r</tspan><tspan x="3.45" y="0">e</tspan></text><text class="cls-18" transform="translate(311.06 788.82)"><tspan class="cls-20">f</tspan><tspan x="2.9" y="0">u</tspan></text><text class="cls-18" transform="translate(319.13 788.82)"><tspan class="cls-21">g</tspan><tspan x="4.68" y="0">e</tspan></text><text class="cls-18" transform="translate(302.85 798.37)"><tspan class="cls-19">ar</tspan><tspan x="8.03" y="0">e</tspan></text><text class="cls-18" transform="translate(315.56 798.37)">a</text><polygon class="cls-17" points="456.88 806.39 461.49 811.01 461.49 814.47 458.11 811.08 458.11 817.87 455.66 817.87 455.66 811.08 452.28 814.47 452.28 811.01 456.88 806.39"/><polygon class="cls-17" points="468.02 818.96 463.41 814.35 463.41 810.88 466.79 814.27 466.79 807.48 469.24 807.48 469.24 814.27 472.62 810.88 472.62 814.35 468.02 818.96"/><text class="cls-22" transform="translate(454.97 833.39)">lif<tspan class="cls-23" x="10.28" y="0">t</tspan></text><text class="cls-12" transform="translate(687.75 392.73)">emergen<tspan class="cls-13" x="43.09" y="0">c</tspan></text><text class="cls-7" transform="translate(736.26 392.73)">y </text><text class="cls-14" transform="translate(743.76 392.73)">e<tspan class="cls-13" x="5.89" y="0">x</tspan></text><text class="cls-7" transform="translate(755.2 392.73)"><tspan class="cls-24">it </tspan><tspan class="cls-25" x="9.43" y="0">o</tspan><tspan class="cls-24" x="15.71" y="0">nl</tspan><tspan x="25.08" y="0">y</tspan></text><polygon class="cls-26" points="1016.14 434.17 1019.25 437.29 1019.25 439.63 1016.96 437.35 1016.96 441.93 1015.31 441.93 1015.3 437.34 1013.02 439.63 1013.02 437.29 1016.14 434.17"/><polygon class="cls-26" points="1023.66 442.67 1020.55 439.55 1020.55 437.21 1022.83 439.5 1022.83 434.91 1024.49 434.91 1024.49 439.5 1026.78 437.21 1026.77 439.55 1023.66 442.67"/><polygon class="cls-17" points="1054.56 362.75 1058.71 366.9 1058.71 370.02 1055.66 366.97 1055.66 373.08 1053.46 373.08 1053.46 366.97 1050.41 370.02 1050.41 366.9 1054.56 362.75"/><polygon class="cls-17" points="1064.58 374.06 1060.43 369.91 1060.43 366.79 1063.48 369.83 1063.48 363.73 1065.68 363.73 1065.68 369.84 1068.72 366.79 1068.73 369.91 1064.58 374.06"/><text class="cls-27" transform="translate(1052.83 387.04)"><tspan class="cls-28">lif</tspan><tspan x="9.26" y="0">t</tspan></text><text class="cls-7" transform="translate(997.01 526.91)"><tspan class="cls-29">pla</tspan><tspan x="14.97" y="0">t</tspan></text><text class="cls-7" transform="translate(1016.24 526.91)"><tspan class="cls-30">for</tspan><tspan x="14.03" y="0">m</tspan></text><text class="cls-7" transform="translate(1039.68 526.91)"><tspan class="cls-31" xml:space="preserve"> l</tspan><tspan x="5.22" y="0">i</tspan></text><text class="cls-32" transform="translate(1047.87 526.91)">f<tspan class="cls-33" x="3.77" y="0">t</tspan></text><path class="cls-17" d="M999.57,539.39c-.88,0-1.42-.2-1.66-.88a4.34,4.34,0,0,1-.1-1.1v-2.7h-.68V534l.15,0a1.62,1.62,0,0,0,1-1.25v-.1h1v1.28h1.6v.8h-1.6v2.79c0,.54.06,1,.76,1a1.49,1.49,0,0,0,.64-.15l.24.82A3.91,3.91,0,0,1,999.57,539.39Zm4.52.06a2.46,2.46,0,0,1-2.63-2.74,2.61,2.61,0,0,1,2.73-2.93,2.45,2.45,0,0,1,2.62,2.75A2.6,2.6,0,0,1,1004.09,539.45Zm0-4.8c-.84,0-1.14.65-1.14,2s.29,2,1.16,2,1.12-.65,1.12-2S1005,534.65,1004.13,534.65Zm10,.06a1.35,1.35,0,0,1,.38,1c0,1-.73,1.76-2.19,1.76a4,4,0,0,1-.49,0,.59.59,0,0,0-.18.41c0,.39.3.42.62.42s.48,0,1.13,0,1.74.06,1.74,1.34a2,2,0,0,1-1.47,1.88,4.67,4.67,0,0,1-1.69.27c-1.29,0-2.26-.38-2.26-1.34s1.11-1.18,1.17-1.19a.8.8,0,0,1-.44-.77,1.29,1.29,0,0,1,.81-1.13,1.57,1.57,0,0,1-1.25-1.66c0-1,.79-1.84,2.23-1.84a3.16,3.16,0,0,1,.88.12h2.1v.8Zm-1.52,4.67h-1.15a.81.81,0,0,0-.48.72c0,.68.63.82,1.33.82,1,0,1.57-.32,1.57-1S1013.27,539.38,1012.57,539.38Zm-.32-4.92a1,1,0,0,0-.47.12,1.18,1.18,0,0,0-.39,1c0,.58.19,1.16.86,1.16a.76.76,0,0,0,.44-.12,1.17,1.17,0,0,0,.41-1.06C1013.1,535,1012.91,534.46,1012.25,534.46Zm6.91.68a1.41,1.41,0,0,0-.88-.27,1.49,1.49,0,0,0-.79.19v4.27H1016V533.9h1.44v.72a1.52,1.52,0,0,1,1.31-.81,1.83,1.83,0,0,1,.71.14Zm3.37,4.31a2.46,2.46,0,0,1-2.63-2.74,2.61,2.61,0,0,1,2.73-2.93,2.45,2.45,0,0,1,2.62,2.75A2.6,2.6,0,0,1,1022.53,539.45Zm0-4.8c-.84,0-1.14.65-1.14,2s.29,2,1.16,2,1.12-.65,1.12-2S1023.44,534.65,1022.57,534.65Zm7.24,4.68v-.57a2,2,0,0,1-1.61.68,1.61,1.61,0,0,1-1.72-1.19,5.34,5.34,0,0,1-.08-1.11V533.9h1.5V537a4.49,4.49,0,0,0,0,.73c.09.49.41.74,1,.74a1.89,1.89,0,0,0,.81-.18V533.9h1.49v5.43Zm6.31,0v-3.11a3.64,3.64,0,0,0,0-.77.89.89,0,0,0-1-.72,1.91,1.91,0,0,0-.82.18v4.42h-1.48V533.9h1.44v.55a2,2,0,0,1,1.62-.67,1.58,1.58,0,0,1,1.71,1.21,5.35,5.35,0,0,1,.08,1.06v3.28Zm6.36,0v-.56a1.71,1.71,0,0,1-1.49.63c-1.35,0-2.23-.92-2.23-2.68a2.61,2.61,0,0,1,2.56-2.91,2,2,0,0,1,1.12.23v-2.92h1.49v8.21Zm0-4.65a2.06,2.06,0,0,0-.57-.07c-1.2,0-1.57.86-1.57,2s.45,1.85,1.38,1.85a1.69,1.69,0,0,0,.76-.16Zm8.55,4.65v-7.42a1.44,1.44,0,0,0-.45,0,1.07,1.07,0,0,0-1.15.72,2.63,2.63,0,0,0-.08.79v.52h1.11v.79h-1.11v4.63h-1.48V534.7h-.67v-.79h.67v-.28a2.93,2.93,0,0,1,.36-1.49,2.3,2.3,0,0,1,2.19-1,5.3,5.3,0,0,1,.91.08l1.19-.1v8.23Zm5.33.12a2.46,2.46,0,0,1-2.63-2.74,2.61,2.61,0,0,1,2.73-2.93,2.45,2.45,0,0,1,2.62,2.75A2.6,2.6,0,0,1,1056.32,539.45Zm0-4.8c-.84,0-1.13.65-1.13,2s.28,2,1.15,2,1.13-.65,1.13-2S1057.23,534.65,1056.36,534.65Zm6.22,4.8a2.46,2.46,0,0,1-2.63-2.74,2.61,2.61,0,0,1,2.73-2.93,2.45,2.45,0,0,1,2.62,2.75A2.6,2.6,0,0,1,1062.58,539.45Zm0-4.8c-.84,0-1.13.65-1.13,2s.28,2,1.15,2,1.13-.65,1.13-2S1063.49,534.65,1062.62,534.65Zm7.05.49a1.47,1.47,0,0,0-.88-.27,1.55,1.55,0,0,0-.8.19v4.27h-1.48V533.9H1068v.72a1.49,1.49,0,0,1,1.3-.81,1.83,1.83,0,0,1,.71.14Z"/><polyline class="cls-26" points="1025.3 511.9 1014.22 448.55 1013.17 448.73 1024.25 512.09"/><path class="cls-17" d="M389.75,739.52A2.29,2.29,0,1,1,392,741.8a2.29,2.29,0,0,1-2.29-2.28"/><path class="cls-17" d="M394.36,742.89a2.43,2.43,0,0,1,2.22,1.51l1.88,7.12a1.08,1.08,0,0,1-.77,1.31,1.06,1.06,0,0,1-1.31-.75l-1.47-5.45h-.55l2.4,9.23h-2.31v6a1.14,1.14,0,0,1-1.09,1.14,1.07,1.07,0,0,1-1.07-1.07v-6.09h-.61V762A1.08,1.08,0,0,1,390.6,763a1.14,1.14,0,0,1-1.08-1.14v-6h-2.38l2.41-9.23H389l-1.48,5.45a1.06,1.06,0,0,1-1.31.75,1.08,1.08,0,0,1-.77-1.31l1.88-7.12a2.44,2.44,0,0,1,2.23-1.51Z"/><path class="cls-17" d="M790.9,632.17a2.29,2.29,0,1,1,2.29,2.28,2.29,2.29,0,0,1-2.29-2.28"/><path class="cls-17" d="M795.5,635.54a2.43,2.43,0,0,1,2.23,1.52l1.88,7.11a1.07,1.07,0,0,1-.77,1.31,1.06,1.06,0,0,1-1.31-.75l-1.47-5.45h-.56l2.41,9.24H795.6v6a1.14,1.14,0,0,1-1.09,1.14,1.06,1.06,0,0,1-1.07-1.06v-6.09h-.61v6.09a1.07,1.07,0,0,1-1.08,1.06,1.13,1.13,0,0,1-1.08-1.14v-6h-2.38l2.41-9.24h-.56l-1.47,5.45a1.08,1.08,0,0,1-2.08-.56l1.88-7.11a2.44,2.44,0,0,1,2.23-1.52Z"/><path class="cls-17" d="M297.55,709.44a1.06,1.06,0,0,1,1.05,1v7.16a1.06,1.06,0,0,1-2.11,0v-5.5h-.44V728.5a1.12,1.12,0,0,1-1.06,1.12,1,1,0,0,1-1.05-1v-10h-.6v10a1,1,0,0,1-1,1,1.12,1.12,0,0,1-1.06-1.12V712.15h-.44v5.5a1.06,1.06,0,0,1-1.06,1.05,1,1,0,0,1-1-1.05v-7.16a1,1,0,0,1,1-1Z"/><path class="cls-17" d="M291.45,706a2.24,2.24,0,1,1,2.24,2.23,2.23,2.23,0,0,1-2.24-2.23"/><path class="cls-17" d="M791.46,708.76l-.68-1.47a6.9,6.9,0,0,1-2.47,2.39,6.79,6.79,0,0,1-3.41.9,6.91,6.91,0,0,1-5.32-11.35,6.84,6.84,0,0,1,4-2.37v-6.05a2,2,0,0,1,.57-1.43,1.94,1.94,0,0,1,1.42-.57,2.06,2.06,0,0,1,1.46,3.5,2.07,2.07,0,0,1-1.45.6v3.27H790v1.7H785.6v1.7h5.33l1.91,6.47,1.94-.89.78,1.73Zm-3.08-1.61a4.8,4.8,0,0,0,1.46-3.48l-.61-2.11H783.6v-2.64a4.87,4.87,0,0,0-2.6,1.74,4.89,4.89,0,0,0,.41,6.49,4.79,4.79,0,0,0,3.49,1.45,4.71,4.71,0,0,0,3.48-1.45"/><path class="cls-17" d="M1147.62,377.42a2.29,2.29,0,1,1,2.29,2.28,2.28,2.28,0,0,1-2.29-2.28"/><path class="cls-17" d="M1152.22,380.79a2.43,2.43,0,0,1,2.23,1.51l1.88,7.12a1.09,1.09,0,0,1-.77,1.31,1.06,1.06,0,0,1-1.31-.75l-1.48-5.45h-.55l2.41,9.23h-2.31v6a1.14,1.14,0,0,1-1.09,1.14,1.07,1.07,0,0,1-1.08-1.07v-6.09h-.6v6.09a1.08,1.08,0,0,1-1.08,1.07,1.14,1.14,0,0,1-1.09-1.14v-6H1145l2.41-9.23h-.55l-1.47,5.45a1.08,1.08,0,0,1-2.08-.56l1.87-7.12a2.46,2.46,0,0,1,2.23-1.51Z"/><path class="cls-17" d="M1132,420.08a1.05,1.05,0,0,1,1,1v7.16a1.06,1.06,0,0,1-2.11,0v-5.49h-.44v16.35a1.12,1.12,0,0,1-1.06,1.11,1,1,0,0,1-1-1v-9.95h-.6v9.95a1,1,0,0,1-1,1,1.13,1.13,0,0,1-1.06-1.11V422.79h-.44v5.5a1.05,1.05,0,0,1-2.1,0v-7.16a1,1,0,0,1,1-1Z"/><path class="cls-17" d="M1125.94,416.68a2.23,2.23,0,1,1,2.23,2.23,2.22,2.22,0,0,1-2.23-2.23"/><path class="cls-17" d="M1126.14,533.44l-.57-1.26a5.92,5.92,0,0,1-2.1,2,5.88,5.88,0,0,1-8.79-5.11,5.74,5.74,0,0,1,1.37-3.77,5.85,5.85,0,0,1,3.41-2v-5.14a1.67,1.67,0,0,1,1.7-1.7,1.65,1.65,0,0,1,1.23.5,1.76,1.76,0,0,1,0,2.47,1.75,1.75,0,0,1-1.24.52v2.77h3.76v1.44h-3.76v1.44h4.52l1.63,5.5,1.65-.75.66,1.47Zm-2.61-1.37a4.09,4.09,0,0,0,1.24-3l-.52-1.8h-4.79v-2.25a4.15,4.15,0,0,0-2.2,1.48,4,4,0,0,0-.89,2.54,4.19,4.19,0,0,0,7.16,3"/><polygon class="cls-3" points="461.91 725.15 459.76 725.15 460.86 719.44 462.94 719.84 461.91 725.15"/><path class="cls-5" d="M102.72,267.41c24.88,0,45.05,21.54,45.05,46.41a45.05,45.05,0,0,1-90.1,0c0-24.87,20.17-46.41,45.05-46.41"/><text class="cls-34" transform="translate(75.5 339.77)">G</text><text class="cls-35" transform="translate(1719.48 122.14)"><tspan class="cls-36">o</tspan><tspan x="33" y="0">n </tspan><tspan class="cls-37" x="79.14" y="0">t</tspan><tspan class="cls-38" x="99.84" y="0">h</tspan><tspan class="cls-39" x="132" y="0">e ground floor</tspan></text><text class="cls-40" transform="translate(1616.44 219.67)">G03</text><text class="cls-40" transform="translate(1696.81 219.67)"> </text><text class="cls-40" transform="translate(1719.49 219.67)">Hacking Room A</text><text class="cls-40" transform="translate(1616.45 300.94)">G04</text><text class="cls-40" transform="translate(1696.82 300.94)"> </text><text class="cls-40" transform="translate(1719.5 300.94)">Hacking Room B</text><text class="cls-40" transform="translate(1616.45 380.97)">G11</text><text class="cls-40" transform="translate(1696.82 301.14)"> </text><text class="cls-41" transform="translate(1719.5 380.97)">Main Theatre</text><text class="cls-40" transform="translate(1616.45 462.17)">G14</text><text class="cls-40" transform="translate(1696.82 381.66)"> </text><text class="cls-40" transform="translate(1719.5 462.17)">Hacking Room C</text><text class="cls-40" transform="translate(1616.45 542.68)">G15</text><text class="cls-40" transform="translate(1696.82 462.17)"> </text><text class="cls-40" transform="translate(1719.5 542.68)">Resting Space</text><path class="cls-17" d="M203,338.58l-10-15.27v15.27h-6.13V308.13H193v14.19l11-14.19h6.43L199,321.67l11.51,16.91Zm14.44-10.65v.43c0,4.31,2.81,6.94,7.08,6.94a9.9,9.9,0,0,0,4.7-1l1.16,3.32s-2.41,1.29-7.59,1.29c-6,0-11.47-2.5-11.47-11.34,0-4.14,1.55-11.51,10.52-11.51,4.36,0,6.64,1.59,8,4,1.21,2.16,1.34,5.09,1.34,7.5v.35Zm7.77-4c0-3.28-1.21-4.92-3.8-4.92-2.15,0-3.19,1.29-3.66,3.28a11.44,11.44,0,0,0-.26,2.59h7.72Zm19.88,18.58c-1.51,4.31-3.71,5.82-7.29,5.82a10.24,10.24,0,0,1-3.75-.56l.9-3.53a5.58,5.58,0,0,0,2.16.51c1.85,0,2.76-1,3.49-3.06l.73-2-8.84-23.16H239l4.35,14.32c.52,1.76.65,2.67.69,2.76,0-.09.39-1.47.74-2.68l4.05-14.4h5.35Zm32.12-3.92v-2s-1.64,2.29-5.65,2.29c-4.18,0-6.9-2.46-6.9-6.47a6.11,6.11,0,0,1,2.46-5.3c1.85-1.34,4.31-1.51,6.9-1.51,1.46,0,3.06.13,3.06.13v-1.42a9,9,0,0,0-.34-2.81c-.57-1.46-1.9-1.94-3.8-1.94a11,11,0,0,0-5,1.12l-1.21-3.4a20.64,20.64,0,0,1,7.76-1.25c5.74,0,7.33,2.41,7.94,4.09a19.33,19.33,0,0,1,.43,5.26v13.2ZM277,328.4s-.39,0-2,0a5,5,0,0,0-3.27.9,3.59,3.59,0,0,0-1.17,2.81c0,2.71,2,3.4,3.8,3.4A6.27,6.27,0,0,0,277,335Zm24.19-6.85a6,6,0,0,0-3.58-1.08,6.21,6.21,0,0,0-3.23.77v17.34h-6V316.5h5.87v2.93a6.08,6.08,0,0,1,5.3-3.27,7.2,7.2,0,0,1,2.89.56Zm8.8,6.38v.43c0,4.31,2.8,6.94,7.07,6.94a9.9,9.9,0,0,0,4.7-1l1.16,3.32s-2.41,1.29-7.59,1.29c-6,0-11.47-2.5-11.47-11.34,0-4.14,1.56-11.51,10.53-11.51,4.35,0,6.64,1.59,8,4,1.2,2.16,1.33,5.09,1.33,7.5v.35Zm7.76-4c0-3.28-1.21-4.92-3.8-4.92-2.15,0-3.19,1.29-3.66,3.28a11.44,11.44,0,0,0-.26,2.59h7.72Zm21.52,14.66v-2s-1.64,2.29-5.65,2.29c-4.19,0-6.9-2.46-6.9-6.47a6.11,6.11,0,0,1,2.46-5.3c1.85-1.34,4.31-1.51,6.89-1.51,1.47,0,3.07.13,3.07.13v-1.42a8.71,8.71,0,0,0-.35-2.81c-.56-1.46-1.9-1.94-3.79-1.94a11,11,0,0,0-5,1.12l-1.2-3.4a20.64,20.64,0,0,1,7.76-1.25c5.73,0,7.33,2.41,7.93,4.09a19,19,0,0,1,.43,5.26v13.2Zm-.13-10.18s-.39,0-2,0a5,5,0,0,0-3.28.9,3.61,3.61,0,0,0-1.16,2.81c0,2.71,2,3.4,3.79,3.4a6.3,6.3,0,0,0,2.68-.47ZM356,338.92c-5.08,0-7.46-1.29-7.46-1.29l1.21-3.45a11.48,11.48,0,0,0,5.61,1.21c2.37,0,3.66-.82,3.66-2.46,0-1.29-.6-1.68-2.07-2.5l-3.23-1.77c-2.89-1.6-4.4-3.19-4.4-6.3,0-4.18,3-6.29,7.93-6.29a16.87,16.87,0,0,1,6.77,1.16l-1.2,3.45a10.56,10.56,0,0,0-4.79-1.16c-1.81,0-3.41.47-3.41,2.15,0,1.38.82,1.82,2.59,2.72l3.15,1.6c2.67,1.38,4.14,3.06,4.14,6C364.49,337.07,360.56,338.92,356,338.92Zm14.49,9.4h-3.84l7-43.12h3.88Zm23.8-26.77a6,6,0,0,0-3.57-1.08,6.27,6.27,0,0,0-3.24.77v17.34h-6V316.5h5.87v2.93a6.08,6.08,0,0,1,5.3-3.27,7.16,7.16,0,0,1,2.89.56Zm13.37,17.55c-6.9,0-10.69-4.27-10.69-11.17,0-6.17,3.06-11.9,11.12-11.9,6.9,0,10.65,4.26,10.65,11.16C418.73,333.36,415.72,339.1,407.65,339.1Zm.17-19.54c-3.4,0-4.61,2.63-4.61,7.94,0,5.08,1.16,8.06,4.7,8.06s4.57-2.67,4.57-8C412.48,322.49,411.36,319.56,407.82,319.56Zm25,19.54c-6.9,0-10.69-4.27-10.69-11.17,0-6.17,3.06-11.9,11.12-11.9,6.9,0,10.65,4.26,10.65,11.16C443.87,333.36,440.85,339.1,432.79,339.1Zm.17-19.54c-3.4,0-4.61,2.63-4.61,7.94,0,5.08,1.16,8.06,4.7,8.06s4.57-2.67,4.57-8C437.62,322.49,436.5,319.56,433,319.56Zm42.48,19V325.86a15.39,15.39,0,0,0-.18-3c-.43-2.28-2.07-3-4.18-3a7.39,7.39,0,0,0-3.53.82,5.33,5.33,0,0,1,.3,1.25,25.68,25.68,0,0,1,.17,3.79v12.81h-6.08V325.86a16.28,16.28,0,0,0-.17-3c-.35-1.94-1.64-3-4.06-3a6.7,6.7,0,0,0-3.23.73v17.94h-6V316.5h5.87v2.24s1.85-2.71,6.42-2.71c4.75,0,6,2.84,6,2.84A9.93,9.93,0,0,1,474,316c1.43,0,6,.18,7.16,5a16.73,16.73,0,0,1,.35,4.14v13.5Zm17.11.34c-5.08,0-7.46-1.29-7.46-1.29l1.21-3.45a11.53,11.53,0,0,0,5.61,1.21c2.37,0,3.66-.82,3.66-2.46,0-1.29-.6-1.68-2.07-2.5l-3.23-1.77c-2.89-1.6-4.4-3.19-4.4-6.3,0-4.18,3-6.29,7.93-6.29a16.87,16.87,0,0,1,6.77,1.16l-1.2,3.45a10.56,10.56,0,0,0-4.79-1.16c-1.81,0-3.41.47-3.41,2.15,0,1.38.82,1.82,2.59,2.72l3.15,1.6c2.67,1.38,4.14,3.06,4.14,6C501.05,337.07,497.12,338.92,492.55,338.92Zm31.05.18c-6.9,0-10.69-4.27-10.69-11.17,0-6.17,3.06-11.9,11.12-11.9,6.9,0,10.65,4.26,10.65,11.16C534.68,333.36,531.66,339.1,523.6,339.1Zm.17-19.54c-3.4,0-4.61,2.63-4.61,7.94,0,5.08,1.16,8.06,4.7,8.06s4.57-2.67,4.57-8C528.43,322.49,527.31,319.56,523.77,319.56Zm29.15,19V325.94a17.21,17.21,0,0,0-.17-3.1c-.43-2.07-1.9-2.93-4.14-2.93a7.74,7.74,0,0,0-3.32.73v17.94h-6V316.5h5.87v2.24S547,316,551.72,316s6.42,2.67,6.94,4.91a21,21,0,0,1,.34,4.31v13.33Zm28.2.26c-3.58,0-5.77-.82-6.72-3.58a16.48,16.48,0,0,1-.43-4.49V319.82h-2.76v-2.76l.6-.21a6.58,6.58,0,0,0,4.23-5.09l0-.39H580v5.17h6.51v3.28H580v11.34c0,2.2.26,4,3.11,4a6,6,0,0,0,2.58-.6l1,3.32A16.07,16.07,0,0,1,581.12,338.84Zm22.3-.26V325.94a16.27,16.27,0,0,0-.18-3.1c-.43-2.07-1.89-2.93-4.14-2.93a7.74,7.74,0,0,0-3.32.73v17.94h-6V305.2h6v13.54s1.82-2.71,6.47-2.71,6.38,2.67,6.9,4.91a20.38,20.38,0,0,1,.35,4.31v13.33ZM620,327.93v.43c0,4.31,2.81,6.94,7.08,6.94a10,10,0,0,0,4.7-1l1.16,3.32s-2.41,1.29-7.59,1.29c-6,0-11.47-2.5-11.47-11.34,0-4.14,1.55-11.51,10.52-11.51,4.36,0,6.64,1.59,8,4,1.21,2.16,1.34,5.09,1.34,7.5v.35Zm7.77-4c0-3.28-1.21-4.92-3.8-4.92-2.15,0-3.19,1.29-3.66,3.28a11.44,11.44,0,0,0-.26,2.59h7.72Zm34.79-4.1a5.45,5.45,0,0,1,1.56,4c0,4.14-3,7.16-8.93,7.16a15.49,15.49,0,0,1-2-.13,2.38,2.38,0,0,0-.74,1.68c0,1.59,1.21,1.72,2.55,1.72,1.77,0,1.94-.08,4.57-.08s7.07.21,7.07,5.43c0,2.63-1.29,5.91-6,7.63a19.19,19.19,0,0,1-6.9,1.12c-5.22,0-9.18-1.55-9.18-5.47s4.52-4.79,4.74-4.83a3.33,3.33,0,0,1-1.77-3.11c0-3.14,3-4.48,3.28-4.61a6.44,6.44,0,0,1-5.09-6.73c0-4.09,3.23-7.5,9.1-7.5a15.06,15.06,0,0,1,3.58.47H667v3.28Zm-6.16,19h-4.7a3.33,3.33,0,0,0-1.94,2.94c0,2.76,2.54,3.32,5.39,3.32,3.88,0,6.38-1.3,6.38-4C661.5,338.66,659.21,338.79,656.37,338.79Zm-1.34-20a3.69,3.69,0,0,0-1.9.51c-1.38.91-1.59,2.68-1.59,4.23,0,2.33.77,4.7,3.49,4.7a3.25,3.25,0,0,0,1.81-.48c1.43-.9,1.68-2.71,1.68-4.31C658.52,321.11,657.75,318.79,655,318.79Zm27.81,2.76a6,6,0,0,0-3.57-1.08,6.27,6.27,0,0,0-3.24.77v17.34h-6V316.5h5.87v2.93a6.08,6.08,0,0,1,5.3-3.27,7.2,7.2,0,0,1,2.89.56Zm13.37,17.55c-6.9,0-10.69-4.27-10.69-11.17,0-6.17,3.06-11.9,11.12-11.9,6.9,0,10.65,4.26,10.65,11.16C707.29,333.36,704.28,339.1,696.21,339.1Zm.17-19.54c-3.4,0-4.61,2.63-4.61,7.94,0,5.08,1.16,8.06,4.7,8.06s4.57-2.67,4.57-8C701,322.49,699.92,319.56,696.38,319.56Zm29.15,19v-2.29s-1.94,2.76-6.55,2.76c-3.32,0-6.21-1.46-7-4.83a20.42,20.42,0,0,1-.34-4.52V316.5h6.08v12.72a16.44,16.44,0,0,0,.17,2.93c.39,2,1.68,3,4.14,3a7.74,7.74,0,0,0,3.32-.73V316.5h6v22.08Zm25.31,0V325.94a17.21,17.21,0,0,0-.17-3.1c-.43-2.07-1.9-2.93-4.14-2.93a7.74,7.74,0,0,0-3.32.73v17.94h-6V316.5H743v2.24s1.9-2.71,6.6-2.71,6.42,2.67,6.94,4.91a21,21,0,0,1,.34,4.31v13.33Zm25.57,0v-2.24s-1.59,2.54-6.08,2.54c-5.47,0-9.05-3.75-9.05-10.91,0-7.33,4.48-11.81,10.39-11.81,3.28,0,4.57.94,4.57.94V305.2h6v33.38Zm-.17-18.89a8.06,8.06,0,0,0-2.33-.3c-4.87,0-6.38,3.49-6.38,8.15s1.86,7.5,5.61,7.5a6.9,6.9,0,0,0,3.1-.64Zm34.15,18.89V308.44a5.66,5.66,0,0,0-1.85-.13c-2.76,0-4.1,1.25-4.66,2.93a10.1,10.1,0,0,0-.34,3.19v2.11h4.53v3.24h-4.53v18.8h-6v-18.8h-2.71v-3.24h2.71v-1.12a11.84,11.84,0,0,1,1.47-6.08c1.68-2.84,4.53-4.14,8.88-4.14a20.31,20.31,0,0,1,3.71.35l4.83-.43v33.46Zm21.35.52c-6.9,0-10.7-4.27-10.7-11.17,0-6.17,3.07-11.9,11.13-11.9,6.9,0,10.65,4.26,10.65,11.16C842.82,333.36,839.8,339.1,831.74,339.1Zm.17-19.54c-3.41,0-4.61,2.63-4.61,7.94,0,5.08,1.16,8.06,4.7,8.06s4.57-2.67,4.57-8C836.57,322.49,835.45,319.56,831.91,319.56Zm25,19.54c-6.9,0-10.7-4.27-10.7-11.17,0-6.17,3.06-11.9,11.13-11.9,6.9,0,10.65,4.26,10.65,11.16C868,333.36,864.94,339.1,856.88,339.1Zm.17-19.54c-3.41,0-4.61,2.63-4.61,7.94,0,5.08,1.16,8.06,4.7,8.06s4.57-2.67,4.57-8C861.71,322.49,860.58,319.56,857.05,319.56Zm28.33,2a6.06,6.06,0,0,0-3.58-1.08,6.21,6.21,0,0,0-3.23.77v17.34h-6V316.5h5.86v2.93a6.11,6.11,0,0,1,5.31-3.27,7.2,7.2,0,0,1,2.89.56Z"/><text class="cls-42" transform="translate(874.26 542.49)">Room A<tspan x="11.51" y="28.8">(G03)</tspan></text><text class="cls-42" transform="translate(813.14 607.48)">Room B<tspan x="10.88" y="28.8">(G04)</tspan></text><text class="cls-42" transform="translate(294.75 855.22)">Room C<tspan x="10.85" y="28.8">(G14)</tspan></text><text class="cls-42" transform="translate(143.14 657.65)">Resting<tspan x="8.23" y="28.8">Space</tspan><tspan x="9.19" y="57.6">(G15)</tspan></text><text class="cls-42" transform="translate(653.72 892.83)">Main<tspan x="-14.74" y="28.8">Theatre</tspan><tspan x="-3.78" y="57.6">(G11)</tspan></text><text class="cls-43" transform="translate(531.43 716.13)">Check-in/Food,<tspan x="-19.92" y="28.8">Sponsor Showcase</tspan></text></svg>