<?xml version="1.0" encoding="utf-8"?>
<!-- Generator: Adobe Illustrator 23.0.1, SVG Export Plug-In . SVG Version: 6.00 Build 0)  -->
<svg version="1.1" id="Layer_1" xmlns="http://www.w3.org/2000/svg" xmlns:xlink="http://www.w3.org/1999/xlink" x="0px" y="0px"
	 viewBox="0 0 100 100" style="enable-background:new 0 0 100 100;" xml:space="preserve">
<style type="text/css">
	.st0{fill:#0B0B0B;}
</style>
<g id="Logo_x5F_University_x5F_of_x5F_Reading_2_">
	<g>
		<g>
			<path class="st0" d="M25.9,52.5l-0.1-14.1c0-0.4-0.4-0.8-0.9-0.9c-0.1,0-2.2-0.2-9.4-0.2h-0.1c-6.5,0-8.9,0.2-9.3,0.3
				c-0.4,0.1-0.9,0.5-0.9,0.9c0,0,0,14.1,0,14.1c0,0.1,0,1,0.3,2.2c0.4,1.4,1.3,3.3,3.5,5c3.7,2.9,6.3,4,6.4,4.1c0.1,0,0.1,0,0.1,0
				c0,0,0.1,0,0.2,0c0.1,0,2.7-1.2,6.4-4.1c2.2-1.7,3.1-3.5,3.5-4.9C26,53.6,25.9,52.6,25.9,52.5 M5.9,38.6c0-0.2,0.2-0.4,0.4-0.4
				C6.7,38.1,9,38,15.5,38h0.1c7.1,0,9.2,0.2,9.2,0.2c0.4,0,0.4,0.3,0.4,0.4l0,10.4c-0.9,0-3.6-0.1-9.7-0.1c-6.2,0-8.9,0.1-9.8,0.1
				C5.8,44.7,5.9,38.6,5.9,38.6 M17.6,53.3c0.4,0.2,1.1,0.2,1.1,0.2c0,0-0.6,0.4-0.8,0.8c-0.1-0.1-0.2-0.2-0.3-0.3
				c0,0-0.1,0-0.2-0.1c0,0,0.1-0.1,0.1-0.2c0-0.1,0.1-0.2,0.1-0.3C17.6,53.5,17.6,53.4,17.6,53.3 M16,52.3c-0.2,0-0.3,0.1-0.4,0.2
				c0,0-0.1,0.1-0.1,0.2c0,0-0.1-0.1-0.1-0.2c-0.1-0.1-0.2-0.2-0.4-0.2c0.3-0.3,0.5-1,0.5-1C15.6,51.2,15.7,52,16,52.3 M13.5,53.8
				c0,0,0.1,0.1,0.1,0.2c-0.1,0-0.1,0-0.2,0.1c-0.2,0.1-0.2,0.2-0.3,0.3c-0.2-0.4-0.8-0.8-0.8-0.8s0.8,0,1.1-0.2c0,0,0,0.1,0,0.2
				C13.5,53.6,13.5,53.7,13.5,53.8 M6.9,53.2c-0.3,0-0.5-0.2-0.6-0.5c-0.1,0.2-0.2,0.4-0.5,0.5l0,0v-0.1l0-3.7c0,0,4.6-0.1,7.4-0.1
				c0,0,0.1,0,0.1,0l0,0c-0.1,0.2-0.2,0.2-0.4,0.3c0.3,0.1,0.5,0.3,0.5,0.6s-0.2,0.5-0.4,0.6c0.3,0.1,0.4,0.3,0.4,0.6
				s-0.2,0.5-0.4,0.6c0.3,0.1,0.4,0.3,0.4,0.6c0,0.4-0.3,0.6-0.6,0.6c-0.3,0-0.5-0.2-0.6-0.4c-0.1,0.3-0.3,0.4-0.6,0.4
				S11,53,11,52.7c-0.1,0.3-0.3,0.4-0.6,0.4c-0.3,0-0.5-0.2-0.6-0.4c-0.1,0.3-0.3,0.4-0.6,0.4c-0.3,0-0.5-0.2-0.6-0.4
				C8.5,53,8.2,53.2,8,53.2c-0.3,0-0.5-0.2-0.6-0.4C7.4,53,7.2,53.2,6.9,53.2 M13.4,58.8c0,0.3-0.2,0.5-0.4,0.6
				c0.3,0.1,0.4,0.3,0.4,0.6c0,0.3-0.2,0.5-0.4,0.6c0.3,0.1,0.4,0.3,0.4,0.6s-0.2,0.5-0.4,0.6c0,0-0.1,0-0.1-0.1
				c-0.7-0.5-2.1-1.4-2.8-1.9c-1.4-1.1-2.3-2.1-2.3-2.1c-0.1-0.1-0.1-0.2-0.2-0.2l0,0C7.6,57.2,7.8,57,8,57c0.3,0,0.5,0.2,0.6,0.4
				C8.7,57.2,8.9,57,9.2,57c0.3,0,0.5,0.2,0.6,0.4c0.1-0.3,0.3-0.4,0.6-0.4s0.5,0.2,0.6,0.4c0.1-0.3,0.3-0.4,0.6-0.4
				c0.3,0,0.5,0.2,0.6,0.4c0.1-0.3,0.3-0.4,0.6-0.4c0.4,0,0.6,0.3,0.6,0.6c0,0.3-0.2,0.5-0.4,0.6C13.2,58.3,13.4,58.5,13.4,58.8
				 M13.6,57.2c0,0,0.3-0.7,0.2-1.1c0.1,0.1,0.3,0.1,0.4,0.1c0,0,0.1,0,0.2,0c0,0,0,0,0,0.1c0,0,0,0.1,0,0.1c0,0.2,0.1,0.3,0.2,0.4
				C14.2,56.8,13.6,57.3,13.6,57.2 M15.5,56.8c-0.4,0-0.9-0.2-0.9-0.6c0-0.1,0-0.3,0-0.4l0.2-0.2l0.1-0.2l0-0.1
				c0.1-0.1,0.2-0.2,0.2-0.3c0,0,0,0,0-0.1s-0.1,0-0.1,0c-0.1,0-0.2,0.2-0.2,0.2v0.1l-0.1,0.2l-0.1,0.2c0,0.1-0.2,0.2-0.3,0.2
				c-0.4,0-0.7-0.3-0.8-0.7c-0.1-0.4-0.1-0.9,0.2-1.1c0.1,0,0.3-0.1,0.4-0.1l0.2,0.1l0.2,0.1l0.1,0c0.1,0,0.2,0.1,0.3,0.1
				c0,0,0,0,0.1-0.1c0-0.1,0-0.1,0-0.1c0-0.1-0.2-0.1-0.3-0.1h-0.1l-0.2,0L14,54c-0.1,0-0.2-0.2-0.3-0.3c-0.2-0.3,0.1-0.8,0.4-1
				c0.3-0.2,0.8-0.4,1.1-0.1c0.1,0.1,0.2,0.2,0.2,0.3l0,0.2v0.2v0.1c0,0.1,0,0.3,0,0.3c0,0,0,0,0.1,0c0.1,0,0.1,0,0.1,0
				c0.1-0.1,0-0.2,0-0.3v-0.1v-0.2l0-0.2c0-0.1,0.1-0.2,0.2-0.3c0.3-0.2,0.8-0.1,1.1,0.1l0,0c0.3,0.2,0.6,0.7,0.4,1
				c0,0.1-0.2,0.2-0.3,0.3l-0.2,0l-0.2,0h-0.1c-0.1,0-0.2,0-0.3,0.1c0,0,0,0,0,0.1s0.1,0.1,0.1,0.1c0.1,0,0.2,0,0.3-0.1l0.1,0
				l0.2-0.1l0.2-0.1c0.1,0,0.3,0,0.4,0.1c0.3,0.2,0.4,0.7,0.2,1.1c-0.1,0.4-0.4,0.8-0.8,0.7c-0.1,0-0.3-0.1-0.3-0.2l-0.1-0.2
				l-0.1-0.2l0-0.1c0-0.1-0.1-0.2-0.2-0.2c0,0,0,0-0.1,0c0,0,0,0,0,0c0,0.1,0.1,0.2,0.2,0.3l0,0.1l0.1,0.2l0.2,0.2
				c0,0.1,0.1,0.3,0,0.4C16.4,56.7,16,56.8,15.5,56.8 M16.5,56.7c0.1-0.1,0.2-0.2,0.2-0.4c0,0,0-0.1,0-0.1c0,0,0,0,0-0.1
				c0.1,0,0.1,0,0.2,0c0.2,0,0.3,0,0.4-0.1c-0.1,0.4,0.2,1.1,0.2,1.1C17.4,57.3,16.9,56.8,16.5,56.7 M23.5,57.4
				c-0.1,0.1-0.1,0.2-0.2,0.2c0,0-0.9,1-2.3,2.1c-1.1,0.8-2.2,1.6-2.8,1.9c0,0-0.1,0-0.1,0.1c-0.2-0.1-0.4-0.3-0.4-0.6
				c0-0.3,0.2-0.5,0.4-0.6c-0.3-0.1-0.4-0.3-0.4-0.6s0.2-0.5,0.4-0.6c-0.3-0.1-0.4-0.3-0.4-0.6s0.2-0.5,0.4-0.6
				c-0.3-0.1-0.4-0.3-0.4-0.6c0-0.4,0.3-0.6,0.6-0.6c0.3,0,0.5,0.2,0.6,0.4c0.1-0.3,0.3-0.4,0.6-0.4c0.3,0,0.5,0.2,0.6,0.4
				c0.1-0.3,0.3-0.4,0.6-0.4s0.5,0.2,0.6,0.4c0.1-0.3,0.3-0.4,0.6-0.4s0.5,0.2,0.6,0.4c0.1-0.3,0.3-0.4,0.6-0.4
				c0.2,0,0.4,0.1,0.5,0.3C23.5,57.3,23.5,57.3,23.5,57.4 M25.2,53.1L25.2,53.1L25.2,53.1L25.2,53.1c-0.2,0-0.4-0.2-0.4-0.4
				c-0.1,0.3-0.3,0.5-0.6,0.5s-0.5-0.2-0.6-0.4c-0.1,0.3-0.3,0.4-0.6,0.4c-0.3,0-0.5-0.2-0.6-0.4c-0.1,0.3-0.3,0.4-0.6,0.4
				s-0.5-0.2-0.6-0.4c-0.1,0.3-0.3,0.4-0.6,0.4s-0.5-0.2-0.6-0.4c-0.1,0.3-0.3,0.4-0.6,0.4s-0.5-0.2-0.6-0.4
				c-0.1,0.3-0.3,0.4-0.6,0.4c-0.4,0-0.6-0.3-0.6-0.6c0-0.3,0.2-0.5,0.5-0.6c-0.3-0.1-0.5-0.3-0.5-0.6s0.2-0.5,0.4-0.6
				c-0.3-0.1-0.4-0.3-0.4-0.6s0.2-0.5,0.5-0.6c-0.2,0-0.3-0.2-0.4-0.3l0,0c0,0,0.1,0,0.1,0c2.9,0,7.4,0.1,7.5,0.1L25.2,53.1z"/>
		</g>
		<path class="st0" d="M34.6,45c-0.9,0-1.4-0.4-1.7-1c-0.1-0.2-0.1-0.6-0.1-1v-5.2h-1.5v4.6c0,1.1,0.1,1.9,0.4,2.4
			c0.5,0.8,1.4,1.2,2.8,1.2c1.4,0,2.3-0.5,2.8-1.4c0.2-0.4,0.4-1,0.4-2.4v-4.5h-1.3v5.1c0,0.4,0,0.8-0.1,1
			C36.1,44.7,35.6,45,34.6,45"/>
		<rect x="45.8" y="40" class="st0" width="1.5" height="5.8"/>
		<path class="st0" d="M63.9,41.2c0-0.2,0.2-1,0.3-1.2c-0.2-0.1-0.4-0.1-0.7-0.1c-1,0-1.4,0.8-1.4,0.8l-0.1,0V40h-1.4v5.8h1.5v-4.6
			l0,0c0,0,0.4-0.2,0.9-0.2C63.4,41,63.8,41.1,63.9,41.2"/>
		<path class="st0" d="M56.9,39.9c-2.5,0-2.8,2.1-2.8,3c0,2,1,3,3,3c1.2,0,1.8-0.2,1.9-0.3c0-0.1-0.2-0.6-0.3-0.8
			c-0.2,0.1-0.6,0.2-1.2,0.2c-1.2,0-2-0.8-2-1.9v-0.2h3.7v0c0-0.7,0-1.4-0.4-2C58.7,40.2,58,39.9,56.9,39.9 M57.9,42.3h-2.2v-0.1
			c0-0.1,0-0.4,0.1-0.7c0.2-0.6,0.5-1,1.1-1c0.7,0,1.1,0.5,1.1,1.4L57.9,42.3L57.9,42.3z"/>
		<path class="st0" d="M51.1,44.5l-0.1,0.2l-0.2-1c0,0-1.1-3.7-1.1-3.8h-1.6c0,0.2,2,5.8,2,5.8h1.5c0-0.1,2.1-5.6,2.1-5.8h-1.3
			c-0.1,0.4-1.2,3.8-1.2,3.8L51.1,44.5"/>
		<path class="st0" d="M46.5,37.5c-0.6,0-0.9,0.3-0.9,0.8S46,39,46.5,39c0.6,0,0.9-0.3,0.9-0.8C47.4,37.8,47,37.5,46.5,37.5"/>
		<path class="st0" d="M42.4,39.9c-1.2,0-1.7,0.6-1.7,0.7l-0.1,0.2V40h-1.4v5.8h1.5V41v0c0,0,0.4-0.2,0.9-0.2c0.7,0,1.1,0.3,1.2,0.8
			c0,0.2,0,0.6,0,0.8v3.3h1.5v-3.5c0-0.2,0-0.8-0.1-1.2C44.1,40.8,43.7,39.9,42.4,39.9"/>
		<rect x="69.9" y="40" class="st0" width="1.5" height="5.8"/>
		<path class="st0" d="M70.6,37.5c-0.6,0-0.9,0.3-0.9,0.8s0.4,0.8,0.9,0.8c0.6,0,0.9-0.3,0.9-0.8C71.5,37.8,71.2,37.5,70.6,37.5"/>
		<path class="st0" d="M67.6,42.6l-0.8-0.4c-0.5-0.2-0.8-0.4-0.8-0.8c0-0.3,0.2-0.6,1-0.6c0.6,0,1.1,0.2,1.2,0.3
			c0-0.1,0.2-0.7,0.3-0.8c-0.2,0-0.7-0.3-1.8-0.3c-1.4,0-2.1,0.6-2.1,1.6c0,0.8,0.4,1.2,1.2,1.6l0.9,0.5c0.4,0.2,0.6,0.4,0.6,0.8
			c0,0.3-0.2,0.8-1.1,0.8c-0.8,0-1.3-0.2-1.5-0.3c0,0.1-0.2,0.7-0.3,0.8c0.1,0.1,0.8,0.3,1.9,0.3c0.8,0,2.2-0.2,2.2-1.8
			C68.6,43.4,68.3,42.9,67.6,42.6"/>
		<path class="st0" d="M75.6,45.1c-0.8,0-0.9-0.6-0.9-1.2v-3.1h1.8V40h-1.8v-1.4h-0.9c0,0,0,0,0,0c-0.1,0.7-0.6,1.2-1.2,1.4
			c0,0-0.1,0-0.1,0v0.6h0.8v3c0,0.6,0,1,0.1,1.2c0.2,0.7,0.7,0.9,1.8,0.9c0.7,0,1.2-0.2,1.4-0.2c0-0.1-0.2-0.6-0.2-0.8
			C76.1,45,75.9,45.1,75.6,45.1"/>
		<path class="st0" d="M80.1,44.6L80,44.9l-0.2-1c0,0-1.1-3.7-1.2-3.8H77c0.1,0.2,2.3,6.2,2.3,6.2l-0.2,0.6c-0.2,0.5-0.4,0.9-1,0.9
			c-0.2,0-0.5-0.1-0.6-0.1c0,0.1-0.1,0.7-0.1,0.8c0.1,0,0.4,0.1,0.9,0.1c1,0,1.5-0.4,1.9-1.5c0,0,2.4-6.7,2.4-6.9h-1.3
			c0,0.1-1.1,3.8-1.1,3.8L80.1,44.6"/>
		<path class="st0" d="M87.9,39.9c-1.8,0-2.9,1.2-2.9,3.1c0,1.9,1,2.9,2.8,2.9c1.8,0,2.9-1.2,2.9-3.1C90.6,41,89.7,39.9,87.9,39.9
			 M87.8,45.2c-1.2,0-1.4-1.2-1.4-2.3c0-1.6,0.4-2.2,1.3-2.2c1.2,0,1.3,1.2,1.3,2.2C89.1,44,89,45.2,87.8,45.2"/>
		<path class="st0" d="M92,45.9h1.5v-5.1h1.2V40h-1.2v-1c0-0.4,0-0.8,0.1-1c0.2-0.3,0.4-0.4,0.8-0.4c0.3,0,0.5,0.1,0.6,0.1
			c0-0.1,0.2-0.6,0.2-0.8c-0.1,0-0.5-0.2-1.1-0.2c-1,0-1.7,0.4-1.9,1.2C92,38.5,92,39.1,92,39.4V40h-0.1h-0.7v0.8H92V45.9"/>
		<path class="st0" d="M72.6,49c-0.9,0-1.5,0.5-1.5,1.3c0,0.8,0.6,1.2,1.4,1.2c1,0,1.5-0.5,1.5-1.3C74.1,49.5,73.5,49,72.6,49"/>
		<path class="st0" d="M45.8,52.9c-3.9,0-4.4,3.3-4.4,4.7c0,3.8,2.6,4.6,4.7,4.6c1.8,0,2.9-0.4,3.2-0.5c0-0.1-0.4-1.1-0.4-1.2
			c-0.3,0.1-1,0.4-1.9,0.4c-2.1,0-3-1.4-3-2.7v-0.3h5.7c0-1-0.1-2.3-0.5-3.1C48.5,53.5,47.4,52.9,45.8,52.9 M47.2,56.7H44v-0.2
			c0-0.2,0-0.7,0.1-1.1c0.2-1,0.7-1.5,1.6-1.5c1.1,0,1.6,0.6,1.6,2.1V56.7z"/>
		<path class="st0" d="M37.3,56.6L37.3,56.6c0.1,0,2.5-0.7,2.5-3.6c0-2.3-1.9-3-2.6-3.1c-0.7-0.2-1.8-0.2-3.3-0.2
			c-1.2,0-2.2,0-2.6,0.1V62h2.5V57h0.9c0,0,3.5,5,3.5,5.1h3c-0.2-0.2-4.1-5.4-4.1-5.4L37.3,56.6 M35.8,55.8
			c-0.3,0.1-0.5,0.1-1.1,0.1l-0.9,0v-5h0.1H34c0,0,0.2,0,0.8,0c1.7,0,2.5,0.8,2.5,2.5C37.3,54.9,36.5,55.7,35.8,55.8"/>
		<path class="st0" d="M55,52.9c-1.8,0-2.9,0.3-3.3,0.5c0,0.1,0.4,1.2,0.4,1.3c0.3-0.1,1.1-0.4,2.1-0.4c0.6,0,1.4,0.1,1.7,0.8
			c0.1,0.2,0.2,0.6,0.2,1v0.6v0.2l-1.4-0.1c-1,0-2.1,0-2.9,0.6c-0.7,0.5-1,1.2-1,2.1c0,1.6,1,2.6,2.7,2.6c1.6,0,2.2-0.9,2.3-0.9
			l0.3-0.4V62h2.3v-5.4c0-0.8,0-1.6-0.2-2.1C57.9,53.5,56.8,52.9,55,52.9 M56.1,60.7L56.1,60.7C56,60.7,56,60.7,56.1,60.7
			C56,60.7,55.7,61,55,61c-0.6,0-1.6-0.2-1.6-1.6c0-0.2,0-0.8,0.4-1.2c0.4-0.3,0.8-0.5,1.4-0.5h0.8H56L56.1,60.7L56.1,60.7z"/>
		<rect x="71.3" y="53.1" class="st0" width="2.5" height="8.9"/>
		<path class="st0" d="M66.2,53.3c0,0-0.5-0.4-1.8-0.4c-2.5,0-4.1,1.9-4.1,4.8c0,2.8,1.3,4.4,3.6,4.4c1.8,0,2.3-1,2.4-1l0.4-0.5V62
			H69V48.4h-2.6v4.8v0.4l-0.1-0.1C66.3,53.5,66.2,53.3,66.2,53.3 M66.5,54.3v6.1l-0.1,0c0,0-0.5,0.2-1.2,0.2c-1.5,0-2.3-1.2-2.3-3.1
			c0-2.3,0.9-3.4,2.6-3.4c0.5,0,0.8,0.1,0.9,0.1L66.5,54.3z"/>
		<path class="st0" d="M81.6,52.9C79.7,52.9,79,54,79,54l-0.2,0.3l-0.1,0.2v-1.4h-2.5V62h2.5v-7.3l0.1,0c0,0,0.5-0.3,1.3-0.3
			c1,0,1.5,0.4,1.7,1.2c0.1,0.4,0.1,0.9,0.1,1.2v5.3h2.6v-5.5c0-0.4,0-1.2-0.2-1.8C84.2,54.2,83.6,52.9,81.6,52.9"/>
		<path class="st0" d="M89.8,52.9c-2.6,0-3.8,1.5-3.8,3c0,2.3,1.9,2.6,2,2.6l0.7,0.1l-0.6,0.2c0,0-1.3,0.6-1.3,1.8
			c0,0.9,0.6,1.2,0.7,1.2l0.6,0.3l-0.7,0.1c-0.1,0-1.9,0.2-1.9,1.8c0,1.8,2.3,2.1,3.7,2.1c1.1,0,2-0.1,2.8-0.4
			c2.3-0.8,2.6-2.3,2.6-3.1c0-1.9-1.5-2.2-2.8-2.2l-1.3,0h-0.7c-0.4,0-1.2,0-1.2-0.9c0-0.4,0.3-0.7,0.4-0.8l0.1,0l0.9,0
			c2.3,0,3.7-1,3.7-2.8c0-0.9-0.5-1.4-0.5-1.4l-0.3-0.3h1.9v-1.2c-0.5,0-3.5,0-3.5,0C91,53.1,90.5,52.9,89.8,52.9 M90.6,62.3
			c0.9,0,1.5,0,1.8,0.4c0.2,0.2,0.2,0.4,0.2,0.7c0,0.8-0.5,1.6-2.7,1.6c-1.1,0-2.3-0.2-2.3-1.4c0-0.9,0.8-1.2,0.8-1.2h0H90.6z
			 M90.7,57.7L90.7,57.7c-0.2,0.2-0.5,0.2-0.8,0.2c-1,0-1.5-0.7-1.5-2c0-0.6,0.1-1.4,0.7-1.8c0.2-0.2,0.5-0.2,0.8-0.2
			c1,0,1.5,0.7,1.5,1.9C91.4,56.5,91.4,57.3,90.7,57.7"/>
		<path class="st0" d="M17.1,42.3c0-0.1,0.3-0.8,0.3-0.8s0,0,0-0.1v0c0,0,0,0-0.1,0l0,0h-1l0.6,0.7L17.1,42.3 M18,43.7
			c0-0.2-0.3-0.4-0.4-0.5s-0.2-0.2-0.3-0.2l-0.1,0c-0.2-0.2-1.3-1.7-1.5-2.1c-0.1-0.1-0.2-0.1-0.2-0.1c-0.1,0-0.2,0-0.2,0.1
			c-0.2,0.4-1.4,1.9-1.5,2.1l0,0c-0.1,0.1-0.2,0.2-0.3,0.2c-0.2,0.2-0.4,0.4-0.4,0.5c0,0,0,0,0,0.1c0,0.1,0,0.1,0,0.2
			c0,0,0,0.1,0.1,0.2l0,0.1c0.1-0.1,1-1,1-1l0,0l0,0c0,0.1-0.8,1.2-0.9,1.2c0,0,0.1,0.2,0.2,0.4s0.2,0.2,0.2,0.2c0,0,0.9-1.4,1-1.4
			l0,0l0,0c0,0.1-0.4,0.9-0.7,1.5l0,0c0,0,0.3,0.3,0.4,0.3c0.1,0,0.2,0.1,0.3,0.1c0-0.1,0.5-1.7,0.6-1.7l0,0l0,0c0,0,0,0,0,0.1
			c0,0.4-0.2,1.7-0.2,1.7h0.1l0.2,0l0.1,0c0.1,0,0.1,0,0.2,0s0.1,0,0.2,0l0.1,0l0.2,0h0.1c0,0-0.2-1.4-0.2-1.7c0,0,0-0.1,0-0.1l0,0
			l0,0c0.1,0,0.5,1.6,0.6,1.7c0.1,0,0.2,0,0.3-0.1c0.1,0,0.4-0.3,0.4-0.3v0c-0.3-0.6-0.7-1.4-0.7-1.5l0,0l0,0c0.1,0,0.9,1.3,1,1.4
			c0,0,0.2-0.1,0.2-0.2c0.1-0.1,0.2-0.4,0.2-0.4c-0.1-0.1-0.9-1.1-0.9-1.2l0,0l0,0c0.1,0,1,0.8,1,1l0-0.1c0,0,0.1-0.1,0.1-0.2
			c0,0,0-0.1,0-0.2C18,43.8,18,43.8,18,43.7 M14,42.3l0.2-0.3c0,0,0.5-0.7,0.6-0.7h-1l0,0c0,0-0.1,0-0.1,0v0c0,0,0,0.1,0,0.1
			C13.7,41.5,14,42.2,14,42.3"/>
		<path class="st0" d="M23.1,42.4c0-0.1,0.3-0.8,0.3-0.8s0,0,0-0.1v0c0,0,0,0-0.1,0l0,0h-1l0.6,0.7L23.1,42.4 M24,43.8
			c0-0.2-0.3-0.4-0.4-0.5c-0.1-0.1-0.2-0.2-0.3-0.2l0,0c-0.2-0.2-1.3-1.7-1.5-2.1c-0.1-0.1-0.2-0.1-0.2-0.1c-0.1,0-0.2,0-0.2,0.1
			c-0.2,0.4-1.4,1.9-1.5,2.1l0,0c-0.1,0.1-0.2,0.2-0.3,0.2c-0.2,0.2-0.4,0.4-0.4,0.5c0,0,0,0,0,0.1c0,0.1,0,0.1,0,0.2
			c0,0,0,0.1,0.1,0.2l0,0.1c0.1-0.1,1-1,1-1l0,0l0,0c0,0.1-0.8,1.2-0.9,1.2c0,0,0.1,0.2,0.2,0.4s0.2,0.2,0.2,0.2c0,0,0.9-1.4,1-1.4
			l0,0l0,0c0,0.1-0.4,0.9-0.7,1.5c0,0,0,0,0,0c0,0,0.3,0.3,0.4,0.3c0.1,0,0.2,0.1,0.3,0.1c-0.1-0.1,0.3-1.7,0.4-1.7l0,0l0,0
			c0,0,0,0,0,0.1c0,0.4-0.2,1.7-0.2,1.7h0.1l0.2,0l0.1,0c0.1,0,0.1,0,0.2,0s0.1,0,0.2,0l0.1,0l0.2,0h0.1c0,0-0.2-1.4-0.2-1.7
			c0,0,0-0.1,0-0.1l0,0l0,0c0.1,0,0.5,1.6,0.6,1.7c0.1,0,0.2,0,0.3-0.1c0.1,0,0.4-0.3,0.4-0.3v0c-0.3-0.6-0.7-1.4-0.7-1.5l0,0l0,0
			c0.1,0,0.9,1.3,1,1.4c0,0,0.2-0.1,0.2-0.2c0.1-0.1,0.2-0.4,0.2-0.4c-0.1-0.1-0.9-1.1-0.9-1.2l0,0l0,0c0.1,0,1,0.8,1,1l0-0.1
			c0,0,0.1-0.1,0.1-0.2c0,0,0-0.1,0-0.2C24,43.9,24,43.9,24,43.8 M20,42.4l0.2-0.3c0,0,0.5-0.7,0.6-0.7h-1l0,0c0,0-0.1,0-0.1,0v0
			c0,0,0,0.1,0,0.1C19.7,41.6,20,42.3,20,42.4"/>
		<path class="st0" d="M11,42.4c0-0.1,0.3-0.8,0.3-0.8s0,0,0-0.1v0c0,0,0,0-0.1,0l0,0h-1l0.6,0.7L11,42.4 M12,43.8
			c0-0.2-0.3-0.4-0.4-0.5c-0.1-0.1-0.2-0.2-0.3-0.2l0,0c-0.2-0.2-1.3-1.7-1.5-2.1c-0.1-0.1-0.2-0.1-0.2-0.1c-0.1,0-0.2,0-0.2,0.1
			c-0.2,0.4-1.4,1.9-1.5,2.1l0,0c-0.1,0.1-0.2,0.2-0.3,0.2c-0.2,0.2-0.4,0.4-0.4,0.5c0,0,0,0,0,0.1c0,0.1,0,0.1,0,0.2
			c0,0,0,0.1,0.1,0.2l0,0.1c0-0.1,0.8-1,1-1l0,0l0,0c0,0.1-0.8,1.2-0.9,1.2c0,0,0.1,0.2,0.2,0.4c0.1,0.1,0.2,0.2,0.2,0.2
			c0,0,0.9-1.4,1-1.4l0,0l0,0c0,0.1-0.4,0.9-0.7,1.5c0,0,0,0,0,0c0,0,0.3,0.3,0.4,0.3c0.1,0,0.2,0.1,0.3,0.1c0-0.1,0.4-1.7,0.5-1.7
			l0,0l0,0c0,0,0,0,0,0.1C9.2,44.6,9,45.9,9,46h0.1l0.2,0l0.1,0c0.1,0,0.1,0,0.2,0s0.1,0,0.2,0l0.1,0l0.2,0H10c0,0-0.2-1.4-0.2-1.7
			c0,0,0-0.1,0-0.1l0,0l0,0c0.1,0,0.5,1.6,0.6,1.7c0.1,0,0.2,0,0.3-0.1c0.1,0,0.4-0.3,0.4-0.3v0c-0.4-0.6-0.8-1.4-0.8-1.5l0,0l0,0
			c0.1,0,0.9,1.3,1,1.4c0,0,0.2-0.1,0.2-0.2c0.1-0.1,0.2-0.4,0.2-0.4c0-0.1-0.9-1.2-0.9-1.3l0,0l0,0c0.1,0,1,0.8,1,1l0-0.1
			c0,0,0-0.1,0.1-0.2S12,44,12,43.8C12,43.9,12,43.9,12,43.8 M8,42.4l0.2-0.3c0,0,0.5-0.7,0.6-0.7h-1l0,0c0,0-0.1,0-0.1,0v0
			c0,0,0,0.1,0,0.1C7.7,41.6,7.9,42.3,8,42.4"/>
		<polyline class="st0" points="17,52.5 17,52.5 17,52.5 17,52.5 		"/>
		<path class="st0" d="M15.5,55c-0.3,0-0.5-0.2-0.5-0.5s0.2-0.5,0.5-0.5c0.3,0,0.5,0.2,0.5,0.5C16,54.8,15.8,55,15.5,55"/>
	</g>
</g>
</svg>
