<?xml version="1.0" encoding="utf-8"?>
<!-- Generator: Adobe Illustrator 23.0.1, SVG Export Plug-In . SVG Version: 6.00 Build 0)  -->
<svg version="1.1" id="Layer_1" xmlns="http://www.w3.org/2000/svg" xmlns:xlink="http://www.w3.org/1999/xlink" x="0px" y="0px"
	 viewBox="0 0 100 100" style="enable-background:new 0 0 100 100;" xml:space="preserve">
<style type="text/css">
	.st0{fill-rule:evenodd;clip-rule:evenodd;}
</style>
<g id="Octicons-logo-github_2_">
	<path class="st0" d="M43.7,58.1L43.7,58.1C43.6,58.1,43.7,58.1,43.7,58.1C43.7,58.1,43.7,58.1,43.7,58.1L43.7,58.1z M43.7,58.1
		c-0.2,0-0.5,0.1-0.9,0.1c-1.3,0-1.7-0.6-1.7-1.4v-5.2h2.6c0.1,0,0.3-0.1,0.3-0.3v-2.8c0-0.1-0.1-0.3-0.3-0.3H41v-3.5
		c0-0.1-0.1-0.2-0.2-0.2h-3.6c-0.1,0-0.2,0.1-0.2,0.2v3.6c0,0-1.8,0.4-1.9,0.5c-0.1,0-0.2,0.1-0.2,0.3v2.2c0,0.2,0.1,0.3,0.3,0.3
		h1.8v5.4c0,4,2.8,4.4,4.7,4.4c0.9,0,1.9-0.3,2.1-0.4c0.1,0,0.1-0.1,0.1-0.3v-2.5C43.9,58.3,43.8,58.1,43.7,58.1z M82.8,54.5
		c0-3-1.2-3.4-2.5-3.3c-1,0.1-1.8,0.6-1.8,0.6v5.8c0,0,0.8,0.6,2,0.6C82.3,58.3,82.8,57.6,82.8,54.5z M86.8,54.2
		c0,5.7-1.8,7.3-5,7.3c-2.7,0-4.2-1.4-4.2-1.4s-0.1,0.8-0.1,0.9c0,0.1-0.1,0.1-0.2,0.1h-2.4c-0.2,0-0.3-0.1-0.3-0.3l0-18.3
		c0-0.1,0.1-0.3,0.3-0.3h3.5c0.1,0,0.3,0.1,0.3,0.3v6.2c0,0,1.4-0.9,3.3-0.9l0,0C83.9,47.8,86.8,48.6,86.8,54.2z M72.4,48.3
		L72.4,48.3h-3.5c-0.2,0-0.3,0.1-0.3,0.3v9c0,0-0.9,0.6-2.1,0.6c-1.2,0-1.6-0.6-1.6-1.8v-7.8c0-0.1-0.1-0.3-0.3-0.3h-3.5
		c-0.1,0-0.3,0.1-0.3,0.3V57c0,3.6,2,4.5,4.8,4.5c2.3,0,4.2-1.3,4.2-1.3s0.1,0.6,0.1,0.7c0,0.1,0.1,0.1,0.3,0.1h2.2
		c0.2,0,0.3-0.1,0.3-0.3l0-12.3C72.7,48.4,72.6,48.3,72.4,48.3z M33.3,48.2h-3.5c-0.1,0-0.3,0.1-0.3,0.3v12.1c0,0.3,0.2,0.4,0.5,0.4
		h3.2c0.3,0,0.4-0.1,0.4-0.4V48.5v0C33.6,48.4,33.4,48.2,33.3,48.2z M31.5,42.7c-1.3,0-2.3,1-2.3,2.3c0,1.3,1,2.3,2.3,2.3
		c1.2,0,2.2-1,2.2-2.3C33.8,43.7,32.8,42.7,31.5,42.7z M58.8,42.3h-3.5c-0.1,0-0.3,0.1-0.3,0.3v6.8h-5.5v-6.8c0-0.1-0.1-0.3-0.3-0.3
		h-3.5c-0.1,0-0.3,0.1-0.3,0.3v18.3c0,0.1,0.1,0.3,0.3,0.3h3.5c0.1,0,0.3-0.1,0.3-0.3V53H55l0,7.8c0,0.1,0.1,0.3,0.3,0.3h3.5
		c0.1,0,0.3-0.1,0.3-0.3V42.5C59.1,42.4,58.9,42.3,58.8,42.3z M27.6,50.4v9.5c0,0.1,0,0.2-0.1,0.2c0,0-2.1,1.5-5.5,1.5
		c-4.1,0-9-1.3-9-9.8c0-8.5,4.3-10.2,8.4-10.2c3.6,0,5.1,0.8,5.3,1c0.1,0.1,0.1,0.1,0.1,0.2l-0.7,2.9c0,0.1-0.1,0.3-0.3,0.3
		c-0.6-0.2-1.5-0.5-3.6-0.5c-2.4,0-5,0.7-5,6.2s2.5,6.1,4.3,6.1c1.5,0,2.1-0.2,2.1-0.2v-3.8h-2.4c-0.2,0-0.3-0.1-0.3-0.3v-3
		c0-0.1,0.1-0.3,0.3-0.3h6.2C27.5,50.1,27.6,50.2,27.6,50.4z"/>
</g>
</svg>
