<?xml version="1.0" encoding="utf-8"?>
<!-- Generator: Adobe Illustrator 23.0.1, SVG Export Plug-In . SVG Version: 6.00 Build 0)  -->
<svg version="1.1" id="Layer_1" xmlns="http://www.w3.org/2000/svg" xmlns:xlink="http://www.w3.org/1999/xlink" x="0px" y="0px"
	 viewBox="0 0 100 100" style="enable-background:new 0 0 100 100;" xml:space="preserve">
<style type="text/css">
	.st0{fill-rule:evenodd;clip-rule:evenodd;}
</style>
<g id="MLH_1_">
	<g id="mlh-logo-white_1_">
		<g id="Layer_1_2_">
			<g>
				<g id="Group_1_" transform="translate(1.000000, 125.000000)">
					<path id="Shape_3_" class="st0" d="M8.4-59.7c0.1,0.1,0.2,0.1,0.3,0.2c0.1,0.1,0.1,0.2,0.2,0.3c0,0.1,0.1,0.2,0.1,0.3v3.8
						c0,0,0,0.1,0,0.1c0,0-0.1,0-0.1,0H7.9c0,0-0.1,0-0.1,0s0-0.1,0-0.1v-3.5H7v3.5c0,0,0,0.1,0,0.1c0,0-0.1,0-0.1,0H6
						c0,0-0.1,0-0.1,0c0,0,0-0.1,0-0.1v-3.5H5.2v3.5C5.2-55.1,5.1-55,5-55H4.1c-0.1,0-0.1-0.1-0.1-0.1v-4.5c0-0.1,0.1-0.1,0.1-0.1
						h4.1C8.3-59.8,8.4-59.8,8.4-59.7L8.4-59.7z"/>
					<path class="st0" d="M13.2-59.8c0.1,0,0.2,0,0.3,0.1c0.1,0.1,0.2,0.1,0.3,0.2c0.1,0.1,0.1,0.2,0.2,0.3c0,0.1,0.1,0.2,0.1,0.3
						v3.8c0,0,0,0.1,0,0.1c0,0-0.1,0-0.1,0H13c0,0-0.1,0-0.1,0c0,0,0-0.1,0-0.1v-1.2c0,0,0-0.1,0-0.1c0,0-0.1,0-0.1,0h-1.3
						c0,0-0.1,0-0.1,0c0,0,0,0.1,0,0.1v1.2c0,0.1-0.1,0.1-0.1,0.1h-0.9c-0.1,0-0.1-0.1-0.1-0.1V-59c0-0.1,0-0.2,0.1-0.3
						c0.1-0.1,0.1-0.2,0.2-0.3c0.1-0.1,0.2-0.1,0.3-0.2c0.1-0.1,0.2-0.1,0.3-0.1H13.2L13.2-59.8z M12.8-57.5v-1.2h-1.6v1.2H12.8
						L12.8-57.5z"/>
					<path class="st0" d="M18.3-59.7C18.3-59.7,18.3-59.7,18.3-59.7l0,3.9c0,0.1,0,0.2-0.1,0.3c-0.1,0.1-0.1,0.2-0.2,0.3
						c-0.1,0.1-0.2,0.1-0.3,0.2C17.7-55,17.6-55,17.5-55h-2.1c-0.1,0-0.2,0-0.3-0.1c-0.1-0.1-0.2-0.1-0.3-0.2
						c-0.1-0.1-0.1-0.2-0.2-0.3c-0.1-0.1-0.1-0.2-0.1-0.3v-1.4c0-0.1,0.1-0.1,0.1-0.1h0.9c0.1,0,0.1,0.1,0.1,0.1v1c0,0,0,0.1,0,0.1
						c0,0,0.1,0,0.1,0h1c0,0,0.1,0,0.1,0c0,0,0-0.1,0-0.1v-3.3c0,0,0-0.1,0-0.1c0,0,0.1,0,0.1,0h0.9C18.2-59.8,18.3-59.8,18.3-59.7
						L18.3-59.7z"/>
					<path class="st0" d="M22.6-59.8c0.1,0,0.2,0,0.3,0.1c0.1,0.1,0.2,0.1,0.3,0.2c0.1,0.1,0.1,0.2,0.2,0.3c0,0.1,0.1,0.2,0.1,0.3
						v3.2c0,0.1,0,0.2-0.1,0.3c-0.1,0.1-0.1,0.2-0.2,0.3c-0.1,0.1-0.2,0.1-0.3,0.2c-0.1,0.1-0.2,0.1-0.3,0.1h-2.4
						c-0.1,0-0.2,0-0.3-0.1c-0.1-0.1-0.2-0.1-0.3-0.2c-0.1-0.1-0.1-0.2-0.2-0.3c-0.1-0.1-0.1-0.2-0.1-0.3V-59c0-0.1,0-0.2,0.1-0.3
						c0-0.1,0.1-0.2,0.2-0.3c0.1-0.1,0.2-0.1,0.3-0.2c0.1-0.1,0.2-0.1,0.3-0.1H22.6L22.6-59.8z M22.2-58.6h-1.6v2.4h1.6V-58.6
						L22.2-58.6z"/>
					<path class="st0" d="M28.6-55.1C28.6-55.1,28.6-55.1,28.6-55.1c0,0.1,0,0.1-0.1,0.1h-1.1c0,0-0.1,0-0.1,0l-0.1-0.1l-0.7-1.3
						c0,0,0,0-0.1,0h-0.8c0,0,0,0,0,0v1.3c0,0.1-0.1,0.1-0.1,0.1h-0.9c-0.1,0-0.1-0.1-0.1-0.1v-4.5c0-0.1,0.1-0.1,0.1-0.1h3.1
						c0.1,0,0.2,0,0.3,0.1c0.1,0.1,0.2,0.1,0.3,0.2c0.1,0.1,0.1,0.2,0.2,0.3c0.1,0.1,0.1,0.2,0.1,0.3v1.8c0,0.2-0.1,0.3-0.2,0.5
						c-0.1,0.1-0.2,0.2-0.4,0.3h0c0,0,0,0,0,0.1v0L28.6-55.1L28.6-55.1z M27.2-58.7h-1.6v1.2h1.6V-58.7L27.2-58.7z"/>
					<path class="st0" d="M35-56.2C35-56.2,35-56.2,35-56.2c0.1,0.1,0.1,0.1,0.1,0.1v0.9c0,0,0,0.1,0,0.1c0,0-0.1,0-0.1,0h-2.9
						c-0.1,0-0.1-0.1-0.1-0.1v-4.5c0-0.1,0.1-0.1,0.1-0.1H33c0.1,0,0.1,0.1,0.1,0.1v3.3c0,0,0,0.1,0,0.1c0,0,0.1,0,0.1,0L35-56.2
						L35-56.2L35-56.2z"/>
					<path class="st0" d="M39.4-59.7C39.4-59.7,39.4-59.7,39.4-59.7l0,0.5v0.2v0.3c0,0,0,0.1,0,0.1c0,0-0.1,0-0.1,0h-0.5h-1.4H37
						c0,0,0,0,0,0v0.7c0,0,0,0,0,0H39c0,0,0.1,0,0.1,0c0,0,0,0.1,0,0.1v0.7c0,0,0,0.1,0,0.1c0,0-0.1,0-0.1,0H37c0,0,0,0,0,0v0.3l0,0
						v0.4c0,0,0,0,0,0h0.3h1.5h0.4c0,0,0.1,0,0.1,0c0,0,0,0.1,0,0.1v0.3v0.3v0.2c0,0,0,0.1,0,0.1c0,0-0.1,0-0.1,0h-0.4h-2.6h-0.4
						c-0.1,0-0.1-0.1-0.1-0.1v-0.2v-3.9v-0.3c0,0,0-0.1,0-0.1c0,0,0.1,0,0.1,0h0.5h2.7h0.2C39.3-59.8,39.4-59.8,39.4-59.7L39.4-59.7
						z"/>
					<path class="st0" d="M43.7-59.8c0.1,0,0.2,0,0.3,0.1c0.1,0.1,0.2,0.1,0.3,0.2c0.1,0.1,0.1,0.2,0.2,0.3c0,0.1,0.1,0.2,0.1,0.3
						v3.8c0,0,0,0.1,0,0.1c0,0-0.1,0-0.1,0h-1c0,0-0.1,0-0.1,0c0,0,0-0.1,0-0.1v-1.2c0,0,0-0.1,0-0.1c0,0-0.1,0-0.1,0h-1.4
						c0,0-0.1,0-0.1,0c0,0,0,0.1,0,0.1v1.2c0,0.1-0.1,0.1-0.1,0.1h-0.9c-0.1,0-0.1-0.1-0.1-0.1V-59c0-0.1,0-0.2,0.1-0.3
						c0.1-0.1,0.1-0.2,0.2-0.3c0.1-0.1,0.2-0.1,0.3-0.2c0.1-0.1,0.2-0.1,0.3-0.1H43.7L43.7-59.8z M43.3-57.5v-1.2h-1.6v1.2H43.3
						L43.3-57.5z"/>
					<path class="st0" d="M49.5-57.6C49.5-57.6,49.5-57.5,49.5-57.6l0,1.8c0,0.1,0,0.2-0.1,0.3c-0.1,0.1-0.1,0.2-0.2,0.3
						c-0.1,0.1-0.2,0.1-0.3,0.2C49-55,48.9-55,48.8-55h-2.4c-0.1,0-0.2,0-0.3-0.1c-0.1-0.1-0.2-0.1-0.3-0.2
						c-0.1-0.1-0.1-0.2-0.2-0.3c-0.1-0.1-0.1-0.2-0.1-0.3V-59c0-0.1,0-0.2,0.1-0.3c0-0.1,0.1-0.2,0.2-0.3c0.1-0.1,0.2-0.1,0.3-0.2
						c0.1-0.1,0.2-0.1,0.3-0.1h2.8c0,0,0.1,0,0.1,0c0,0,0,0.1,0,0.1v0.9c0,0,0,0.1,0,0.1c0,0-0.1,0-0.1,0h-2.3c0,0-0.1,0-0.1,0
						c0,0,0,0.1,0,0.1v2.2c0,0,0,0.1,0,0.1c0,0,0.1,0,0.1,0h1.3c0,0,0.1,0,0.1,0c0,0,0-0.1,0-0.1v-1.2c0,0,0-0.1,0-0.1
						c0,0,0.1,0,0.1,0h0.9C49.4-57.6,49.5-57.6,49.5-57.6L49.5-57.6z"/>
					<path class="st0" d="M54.5-59.7C54.5-59.7,54.5-59.7,54.5-59.7l0,3.9c0,0.1,0,0.2-0.1,0.3c-0.1,0.1-0.1,0.2-0.2,0.3
						c-0.1,0.1-0.2,0.1-0.3,0.2C54-55,53.9-55,53.8-55h-2.4c-0.1,0-0.2,0-0.3-0.1c-0.1-0.1-0.2-0.1-0.3-0.2
						c-0.1-0.1-0.1-0.2-0.2-0.3c-0.1-0.1-0.1-0.2-0.1-0.3v-3.8c0-0.1,0.1-0.1,0.1-0.1h0.9c0.1,0,0.1,0.1,0.1,0.1v3.3
						c0,0,0,0.1,0,0.1c0,0,0.1,0,0.1,0h1.3c0,0,0.1,0,0.1,0c0,0,0-0.1,0-0.1v-3.3c0,0,0-0.1,0-0.1c0,0,0.1,0,0.1,0h0.9
						C54.5-59.8,54.5-59.8,54.5-59.7L54.5-59.7z"/>
					<path class="st0" d="M59.2-59.7C59.3-59.7,59.3-59.7,59.2-59.7l0,0.5v0.2v0.3c0,0,0,0.1,0,0.1c0,0-0.1,0-0.1,0h-0.5h-1.4h-0.4
						c0,0,0,0,0,0v0.7c0,0,0,0,0,0h1.9c0,0,0.1,0,0.1,0c0,0,0,0.1,0,0.1v0.7c0,0,0,0.1,0,0.1c0,0-0.1,0-0.1,0h-1.9c0,0,0,0,0,0v0.3
						l0,0v0.4c0,0,0,0,0,0h0.3h1.5h0.4c0,0,0.1,0,0.1,0c0,0,0,0.1,0,0.1v0.3v0.3v0.2c0,0,0,0.1,0,0.1c0,0-0.1,0-0.1,0h-0.4h-2.6
						h-0.4c-0.1,0-0.1-0.1-0.1-0.1v-0.2v-3.9v-0.3c0,0,0-0.1,0-0.1c0,0,0.1,0,0.1,0h0.5h2.7h0.2C59.2-59.8,59.2-59.8,59.2-59.7
						L59.2-59.7z"/>
					<path class="st0" d="M66.5-59.8C66.5-59.8,66.6-59.8,66.5-59.8c0.1,0.1,0.1,0.1,0.1,0.1v4.5c0,0,0,0.1,0,0.1c0,0-0.1,0-0.1,0
						h-0.9c0,0-0.1,0-0.1,0c0,0,0-0.1,0-0.1v-1.6c0,0,0-0.1,0-0.1s-0.1,0-0.1,0H64c0,0-0.1,0-0.1,0c0,0,0,0.1,0,0.1v1.6
						c0,0.1-0.1,0.1-0.1,0.1h-0.9c-0.1,0-0.1-0.1-0.1-0.1v-4.5c0-0.1,0.1-0.1,0.1-0.1h0.9c0.1,0,0.1,0.1,0.1,0.1v1.5
						c0,0.1,0.1,0.1,0.1,0.1h1.3c0,0,0.1,0,0.1,0c0,0,0-0.1,0-0.1v-1.5c0,0,0-0.1,0-0.1c0,0,0.1,0,0.1,0L66.5-59.8L66.5-59.8
						L66.5-59.8L66.5-59.8z"/>
					<path class="st0" d="M70.9-59.8c0.1,0,0.2,0,0.3,0.1c0.1,0.1,0.2,0.1,0.3,0.2c0.1,0.1,0.1,0.2,0.2,0.3c0,0.1,0.1,0.2,0.1,0.3
						v3.8c0,0,0,0.1,0,0.1c0,0-0.1,0-0.1,0h-0.9c0,0-0.1,0-0.1,0c0,0,0-0.1,0-0.1v-1.2c0,0,0-0.1,0-0.1c0,0-0.1,0-0.1,0h-1.3
						c0,0-0.1,0-0.1,0c0,0,0,0.1,0,0.1v1.2c0,0.1-0.1,0.1-0.1,0.1h-0.9c-0.1,0-0.1-0.1-0.1-0.1V-59c0-0.1,0-0.2,0.1-0.3
						c0.1-0.1,0.1-0.2,0.2-0.3c0.1-0.1,0.2-0.1,0.3-0.2c0.1-0.1,0.2-0.1,0.3-0.1H70.9L70.9-59.8z M70.5-57.5v-1.2h-1.6v1.2H70.5
						L70.5-57.5z"/>
					<path class="st0" d="M74-58.6C74-58.6,74-58.6,74-58.6l0,2.3c0,0,0,0.1,0,0.1c0,0,0.1,0,0.1,0h2.2c0,0,0.1,0,0.1,0
						c0,0,0,0.1,0,0.1v0.9c0,0,0,0.1,0,0.1c0,0-0.1,0-0.1,0h-1.4h-1.2h-0.1c-0.1,0-0.2,0-0.3-0.1c-0.1-0.1-0.2-0.1-0.3-0.2
						c-0.1-0.1-0.1-0.2-0.2-0.3c-0.1-0.1-0.1-0.2-0.1-0.3V-56v-0.5v-1.6v-0.4v-0.5c0-0.1,0-0.2,0.1-0.3c0.1-0.1,0.1-0.2,0.2-0.3
						c0.1-0.1,0.2-0.1,0.3-0.2c0.1-0.1,0.2-0.1,0.3-0.1h0.1h2.6c0,0,0.1,0,0.1,0c0,0,0,0.1,0,0.1v0.9c0,0,0,0.1,0,0.1
						c0,0-0.1,0-0.1,0h-2.2C74-58.6,74-58.6,74-58.6L74-58.6z"/>
					<path class="st0" d="M80.2-57.8C80.2-57.8,80.2-57.8,80.2-57.8l1.6,2.7c0,0,0,0.1,0,0.1c0,0,0,0-0.1,0h-1.1c0,0-0.1,0-0.1,0
						c0,0-0.1-0.1-0.1-0.1l-1-1.8c0,0,0,0,0,0l-0.6,0.6c0,0-0.1,0.1-0.1,0.1c0,0.1,0,0.1,0,0.1v1c0,0.1-0.1,0.1-0.1,0.1h-0.9
						c-0.1,0-0.1-0.1-0.1-0.1v-4.5c0-0.1,0.1-0.1,0.1-0.1h0.9c0.1,0,0.1,0.1,0.1,0.1v2l1.8-2.1c0,0,0.1-0.1,0.1-0.1
						c0.1,0,0.1,0,0.1,0h1.1c0,0,0.1,0,0.1,0c0,0,0,0.1,0,0.1L80.2-57.8L80.2-57.8z"/>
					<path class="st0" d="M83.8-55.2c0,0.1-0.1,0.1-0.1,0.1h-0.9c-0.1,0-0.1-0.1-0.1-0.1v-4.5c0-0.1,0.1-0.1,0.1-0.1h0.9
						c0.1,0,0.1,0.1,0.1,0.1V-55.2L83.8-55.2z"/>
					<path class="st0" d="M88.4-59.7c0.1,0.1,0.2,0.1,0.3,0.2c0.1,0.1,0.1,0.2,0.2,0.3c0.1,0.1,0.1,0.2,0.1,0.3v3.8c0,0,0,0.1,0,0.1
						c0,0-0.1,0-0.1,0h-0.9c0,0-0.1,0-0.1,0c0,0,0-0.1,0-0.1v-3.3c0,0,0-0.1,0-0.1c0,0-0.1,0-0.1,0h-1.3c0,0-0.1,0-0.1,0
						c0,0,0,0.1,0,0.1v3.3c0,0.1-0.1,0.1-0.1,0.1h-0.9C85-55,85-55.1,85-55.1v-4.5c0-0.1,0.1-0.1,0.1-0.1h3.1
						C88.2-59.8,88.3-59.8,88.4-59.7L88.4-59.7z"/>
					<path class="st0" d="M93.9-57.6C93.9-57.6,93.9-57.5,93.9-57.6l0,1.8c0,0.1,0,0.2-0.1,0.3c-0.1,0.1-0.1,0.2-0.2,0.3
						c-0.1,0.1-0.2,0.1-0.3,0.2C93.4-55,93.3-55,93.2-55h-2.4c-0.1,0-0.2,0-0.3-0.1c-0.1-0.1-0.2-0.1-0.3-0.2
						c-0.1-0.1-0.1-0.2-0.2-0.3C90-55.6,90-55.7,90-55.8V-59c0-0.1,0-0.2,0.1-0.3c0-0.1,0.1-0.2,0.2-0.3c0.1-0.1,0.2-0.1,0.3-0.2
						c0.1-0.1,0.2-0.1,0.3-0.1h2.8c0,0,0.1,0,0.1,0c0,0,0,0.1,0,0.1v0.9c0,0,0,0.1,0,0.1c0,0-0.1,0-0.1,0h-2.3c0,0-0.1,0-0.1,0
						c0,0,0,0.1,0,0.1v2.2c0,0,0,0.1,0,0.1c0,0,0.1,0,0.1,0h1.3c0,0,0.1,0,0.1,0s0-0.1,0-0.1v-1.2c0,0,0-0.1,0-0.1c0,0,0.1,0,0.1,0
						h0.9C93.9-57.6,93.9-57.6,93.9-57.6L93.9-57.6z"/>
				</g>
				<path class="st0" d="M33.6,32.5c0.6,0.3,1.1,0.6,1.6,1.1c0.4,0.4,0.8,1,1.1,1.6c0.3,0.6,0.4,1.3,0.4,1.9v25
					c0,0.2-0.1,0.4-0.2,0.6s-0.3,0.2-0.6,0.2h-6c-0.2,0-0.4-0.1-0.6-0.2s-0.2-0.3-0.2-0.6V39.3h-4.8V62c0,0.2-0.1,0.4-0.2,0.6
					c-0.1,0.2-0.3,0.2-0.6,0.2h-5.4c-0.2,0-0.4-0.1-0.6-0.2c-0.2-0.2-0.2-0.3-0.2-0.6V39.3h-4.8V62c0,0.6-0.3,0.8-0.8,0.8H5.7
					c-0.6,0-0.8-0.3-0.8-0.8V32.9c0-0.6,0.3-0.8,0.8-0.8h25.9C32.3,32.1,33,32.2,33.6,32.5L33.6,32.5z"/>
				<path class="st0" d="M62.7,55.4c0.2,0,0.4,0.1,0.6,0.2c0.2,0.2,0.2,0.4,0.2,0.6V62c0,0.2-0.1,0.4-0.2,0.6
					c-0.2,0.2-0.3,0.2-0.6,0.2H42.2c-0.6,0-0.9-0.3-0.9-0.8V32.9c0-0.6,0.3-0.8,0.9-0.8h6.3c0.6,0,0.9,0.3,0.9,0.8v21.7
					c0,0.2,0.1,0.4,0.3,0.6c0.2,0.2,0.4,0.2,0.6,0.2L62.7,55.4L62.7,55.4L62.7,55.4L62.7,55.4z"/>
				<path class="st0" d="M94.1,32.1c0.2,0,0.4,0.1,0.6,0.2s0.3,0.4,0.3,0.6v29.2c0,0.2-0.1,0.4-0.3,0.6c-0.2,0.2-0.4,0.2-0.6,0.2
					h-6.4c-0.2,0-0.4-0.1-0.6-0.2c-0.2-0.2-0.3-0.4-0.3-0.6V51.9c0-0.2-0.1-0.4-0.2-0.6c-0.2-0.2-0.3-0.2-0.6-0.2h-8.9
					c-0.2,0-0.4,0.1-0.6,0.2c-0.2,0.2-0.3,0.3-0.3,0.6v10.2c0,0.6-0.3,0.8-0.9,0.8H69c-0.6,0-0.9-0.3-0.9-0.8V32.9
					c0-0.6,0.3-0.8,0.9-0.8h6.3c0.6,0,0.9,0.3,0.9,0.8v9.9c0,0.6,0.3,0.8,0.9,0.8H86c0.2,0,0.4-0.1,0.6-0.2c0.2-0.2,0.2-0.4,0.2-0.6
					v-9.9c0-0.2,0.1-0.4,0.3-0.6c0.2-0.2,0.4-0.2,0.6-0.2H94.1L94.1,32.1z"/>
			</g>
		</g>
	</g>
</g>
</svg>
