<?xml version="1.0" encoding="utf-8"?>
<!-- Generator: Adobe Illustrator 23.0.1, SVG Export Plug-In . SVG Version: 6.00 Build 0)  -->
<svg version="1.1"
	 id="svg2" xmlns:cc="http://creativecommons.org/ns#" xmlns:dc="http://purl.org/dc/elements/1.1/" xmlns:rdf="http://www.w3.org/1999/02/22-rdf-syntax-ns#" xmlns:svg="http://www.w3.org/2000/svg"
	 xmlns="http://www.w3.org/2000/svg" xmlns:xlink="http://www.w3.org/1999/xlink" x="0px" y="0px" viewBox="0 0 189 240"
	 style="enable-background:new 0 0 189 240;" xml:space="preserve">
<style type="text/css">
	.st0{fill:#231F20;}
	.st1{fill:#FFFFFF;}
</style>
<g id="g10" transform="matrix(1.3333333,0,0,-1.3333333,0,240)">
	<g id="g12" transform="scale(0.1)">
		<path id="path14" class="st0" d="M0,1800V5.8C648.7-52.9,1417.3,337,1417.3,1063c0,249.8,0,737,0,737"/>
		<path id="path16" class="st1" d="M141,798.7h19.9v134.4h43v18.2H97.9v-18.2h43"/>
		<path id="path18" class="st1" d="M244.5,864.2c0.2,16.9,9.1,24.9,23.7,25.1c14.6-0.2,22.8-7.9,23-25.1v-65.5h2h17v68
			c0,12-3.6,22-10.3,29.1c-6.8,7-16.6,10.9-28.6,10.9c-10.3,0-19.4-3.1-26.8-9.7v54.3h-19V798.7h19"/>
		<path id="path20" class="st1" d="M377.6,889.9c10.1,0,18.5-5.6,22.2-14.2h0c2-5,2.5-7.6,2.9-14.4h-50c0.4,6.8,0.9,9.4,2.9,14.4
			C359.1,884.3,367.5,889.9,377.6,889.9z M380.3,797.4c0.1,0,0.2,0,0.3,0c17.8,0,28.2,5.9,38.7,16.5l1.5,1.5L407.5,827l-1.3-1.3
			c-8-7.9-14-11-25.5-11.1c-18,0.2-27.4,10.8-28.2,31.5h69.3v8.9c0,15.6-4,28.5-11.6,37.6c-7.6,9.1-18.8,14.1-32.6,14.1
			c-13.5,0-24.8-5.1-32.4-14.6c-7.7-9.5-11.8-23.1-11.8-40c0-18.5,4.5-32.2,12.8-41.3C354.5,801.7,366.3,797.4,380.3,797.4"/>
		<path id="path22" class="st1" d="M213,638.3l0.4,2.3h-19.8l-0.3-1.6c-3.9-17.4-16.1-28.4-33.7-28.5c-9.3,0-18.2,3.6-24.2,9.8
			c-8.8,8.9-9.9,18.3-9.9,49.5c0,31.3,1.1,40.6,9.9,49.5c6.1,6.3,14.9,9.8,24.3,9.8c17.6-0.1,29.4-11,33.3-28.5l0.3-1.6h20.3
			l-0.4,2.3c-5.1,28.8-26,46-53.5,45.9c-15.1,0-29-5.6-39.4-16c-14.6-14.6-14.6-30.2-14.6-61.5c0-31.3-0.1-46.9,14.6-61.5
			c10.4-10.4,24.3-16,39.4-16c0.1,0,0.1,0,0.2,0C186.9,592.3,208.1,609.5,213,638.3"/>
		<path id="path24" class="st1" d="M305.4,659.1v-65.5h19v68c0,12-3.6,22-10.3,29.1c-6.8,7.1-16.6,10.9-28.6,10.9
			c-10.2,0-19.4-3.1-26.8-9.7v54.3h-19V593.6h19v65.5c0.2,16.9,9.1,24.9,23.7,25.1C297,684,305.2,676.3,305.4,659.1"/>
		<path id="path26" class="st1" d="M388.2,609.3c-16,0.3-21.3,4.7-21.6,15.5c0.2,10.8,6,15.9,21,16.2h26.8v-9.1
			c0-8.3-1.7-13.6-4.6-16.3C403.9,609.9,397,609.3,388.2,609.3z M352.4,685.5l-1.1-1.5l13.2-12.2l1.3,1.9
			c5.8,8.1,11.3,10.7,24.3,10.9c18.3-0.4,24-6.3,24.3-20.5v-7.8h-28.9c-11.8,0-21.2-3-27.7-8.6c-6.5-5.6-9.9-13.6-9.8-23.1
			c0-8.6,2.8-16.8,8.3-22.3c6.9-7.1,16-10,30.4-10c0.2,0,0.4,0,0.5,0c11.8,0,19.7,2.3,27.1,8.5v-7.2h2h17v71.7
			c0,11.5-3.6,20.8-10.9,27c-7.4,6.2-18.1,9.2-32.2,9.2C373.4,701.6,361.9,698,352.4,685.5"/>
		<path id="path28" class="st1" d="M481,658.6c0.1,14.9,8.8,25.5,22.6,25.6c7.6-0.1,10.8-1.5,16.3-6.9l1.4-1.4l1.4,1.4l12.5,12.7
			l-1.4,1.4c-7.6,7.7-16,10.2-26.1,10.2c-10.3,0-20.2-3.7-26.8-10.2v9h-19V593.6h19"/>
		<path id="path30" class="st1" d="M557.6,623.1c0-8,2.3-15.4,7.1-20.8c4.8-5.4,12-8.8,21.2-8.7h12.6v16.9h-9.9
			c-8.7,0.3-11.7,4.2-12,13v60.6h21.9v15.5h-21.9v32.1h-19v-32.1l-12.9,0v-15.5h12.9"/>
		<path id="path32" class="st1" d="M658.1,684.8c10.1,0,18.5-5.6,22.1-14.2c2-5,2.5-7.6,2.9-14.4h-50c0.4,6.8,0.9,9.4,2.9,14.4
			C639.6,679.2,648,684.8,658.1,684.8z M701.3,610.3l-13.2,11.6l-1.3-1.3c-8-7.9-14-11-25.5-11.1c-18,0.2-27.4,10.8-28.2,31.5h69.3
			v8.9c0,15.6-4,28.5-11.6,37.6c-7.6,9.1-18.8,14.1-32.6,14.1c-13.5,0-24.8-5.1-32.4-14.6c-7.7-9.5-11.7-23.1-11.7-40
			c0-18.5,4.5-32.2,12.8-41.3c8.3-9.1,20.1-13.4,34.1-13.4c0.1,0,0.2,0,0.3,0c17.8,0,28.2,5.9,38.7,16.5"/>
		<path id="path34" class="st1" d="M746.1,658.6c0.1,14.9,8.8,25.5,22.6,25.6c7.6-0.1,10.8-1.5,16.3-6.9l1.4-1.4l1.4,1.4l12.5,12.7
			l-1.4,1.4c-7.6,7.7-16,10.2-26,10.2c-10.3,0-20.2-3.7-26.8-10.2v9h-19V593.6h19"/>
		<path id="path36" class="st1" d="M875,656.3h-50c0.4,6.8,0.9,9.4,2.9,14.4c3.7,8.6,12,14.2,22.1,14.2c10.1,0,18.5-5.6,22.2-14.2
			C874.1,665.6,874.6,663,875,656.3z M850,701.5c-13.5,0-24.8-5.1-32.4-14.6c-7.7-9.5-11.7-23.1-11.7-40c0-18.5,4.5-32.2,12.8-41.3
			c8.3-9.1,20.2-13.4,34.1-13.4c0.1,0,0.2,0,0.3,0c17.7,0,28.2,5.9,38.7,16.5l1.5,1.5l-13.2,11.6l-1.3-1.3c-8-7.9-14-11-25.5-11.1
			c-18,0.2-27.4,10.8-28.2,31.5h69.3v8.9c0,15.6-4,28.5-11.6,37.6C874.9,696.5,863.7,701.6,850,701.5"/>
		<path id="path38" class="st1" d="M982.4,646.9c0-9.9-0.9-19.5-4.3-26.3c-3.4-6.7-8.8-10.9-19.4-11c-20.6,0-23.7,17.1-23.9,37.3
			c0.2,20.1,3.3,37.2,23.9,37.2c10.6-0.1,16-4.3,19.4-11C981.5,666.4,982.4,656.9,982.4,646.9z M982.4,746.2v-54.5
			c-7.9,7.8-17,9.9-27,9.9c-10.9,0-20.5-3.7-26.5-9.6c-11.1-11.2-13.1-28.8-13.1-45c0-16.2,2-33.8,13.1-45
			c5.9-5.9,15.6-9.5,26.5-9.6c0.1,0,0.3,0,0.4,0c9.9,0,19,2.3,26.8,10.2v-8.9h2h16.8v152.6"/>
		<path id="path40" class="st1" d="M135.3,388.5v152.6h-19.9V388.5h2"/>
		<path id="path42" class="st1" d="M183.2,453.7c0.2,17.2,8.9,25.1,23.5,25.4c14.6-0.2,23-7.9,23.3-25.4v-65.2h2h17v67.7
			c0,12.3-3.5,22.5-11.3,30.1c-6.7,6.7-16.2,10.2-27.7,10.2c-10.2,0-19.5-3.2-26.8-9.7v8.4h-19V388.5h19"/>
		<path id="path44" class="st1" d="M325.2,450.3l-16.5,1.5c-12.6,1.3-15.9,5.2-16.1,13c0.1,9.2,6.4,14.7,21,14.9
			c10.3,0,19.3-2.4,26.1-7.7l1.4-1.1l12.6,12.6l-1.7,1.4c-9.7,7.9-23.3,11.5-38.2,11.5c-22.5,0-39.7-11.9-39.8-32.1
			c-0.2-17.9,12-28.1,32.5-29.6l16.9-1.4c11.5-1.3,15.1-5,15.3-13c0-10.6-8.7-16-25.3-16.2c-12.4,0-22.8,3.2-30.5,11.3l-1.4,1.5
			L268.5,404l1.5-1.4c11.6-11.3,25.8-15.4,43.4-15.4c0.1,0,0.1,0,0.2,0c25.3,0,43.7,12.1,43.7,33.3
			C357.4,440.9,343.4,448.9,325.2,450.3"/>
		<path id="path46" class="st1" d="M423.4,405.4h-9.9c-8.7,0.2-11.7,4.2-12,13v60.6l21.9,0v15.5h-21.9v32.1h-19v-32.1h-13v-15.5
			h12.9l0-61c0-8,2.3-15.4,7.1-20.8c4.7-5.4,12-8.7,21.1-8.7c0,0,0.1,0,0.1,0h12.6"/>
		<path id="path48" class="st1" d="M458.1,519.4c6.3,0,11.5,5.2,11.5,11.5c0,6.3-5.2,11.5-11.5,11.5c-6.3,0-11.5-5.2-11.5-11.5
			C446.6,524.5,451.7,519.4,458.1,519.4"/>
		<path id="path50" class="st1" d="M467.5,495.2h-19V388.5h19"/>
		<path id="path52" class="st1" d="M543.6,479.1v15.5h-21.9l0,32.1h-19v-32.1h-12.9v-15.5h12.9v-61c0-8,2.3-15.4,7.1-20.8
			c4.8-5.4,12-8.7,21.1-8.7c0,0,0.1,0,0.1,0h12.6v16.9h-9.9c-8.7,0.2-11.7,4.2-12,13v60.6"/>
		<path id="path54" class="st1" d="M633.6,429.9c-0.2-17.1-9.1-25.1-23.7-25.3c-14.6,0.2-22.8,7.9-23,25.3v65.3h-19v-67.5
			c0-12.2,3.3-22.7,11.1-30.3c6.7-6.7,16.4-10.2,27.9-10.2c0,0,0.1,0,0.1,0c10.2,0,19.6,3.4,26.9,9.9v-8.6h2h16.8v106.7h-19"/>
		<path id="path56" class="st1" d="M706.7,526.7h-19v-32.1h-12.9v-15.5h12.9v-61c0-8,2.3-15.4,7.1-20.8c4.8-5.4,12-8.7,21.1-8.7
			c0,0,0.1,0,0.1,0h12.6v16.9h-9.9c-8.7,0.2-11.7,4.2-12,13v60.6l21.9,0v15.5h-21.9"/>
		<path id="path58" class="st1" d="M813.6,451.1h-50c0.4,6.8,0.9,9.4,2.9,14.4c3.7,8.6,12.1,14.2,22.2,14.2
			c10.1,0,18.5-5.6,22.2-14.2C812.8,460.5,813.2,457.9,813.6,451.1z M788.6,496.4c-13.5,0-24.8-5.1-32.4-14.6
			c-7.7-9.5-11.7-23.1-11.7-40c0-18.5,4.5-32.2,12.8-41.3c8.3-9.1,20.1-13.4,34.1-13.4c0.1,0,0.2,0,0.3,0c17.8,0,28.2,5.9,38.7,16.5
			l1.5,1.5l-13.2,11.6l-1.3-1.3c-8-7.9-14-11-25.5-11.1c-18,0.2-27.4,10.8-28.2,31.5h69.3v8.9c0,15.6-4,28.5-11.6,37.6
			C813.5,491.4,802.3,496.5,788.6,496.4"/>
		<path id="path60" class="st1" d="M123.3,327.7c-4.7-5.4-7-12.8-7-20.8v-17.4h-13.1V274h13.1v-90.6h19V274h21.9v15.5h-21.9v17
			c0.3,8.9,3.1,12.8,11.8,13h10.1v16.9h-12.9C135.2,336.4,128,333.1,123.3,327.7"/>
		<path id="path62" class="st1" d="M238.4,236.7c0.1-11.4-0.8-23.7-7.6-30.3c-4.4-4.4-10.6-6.9-17.4-6.9c-6.8,0-12.7,2.5-17.2,6.9
			c-6.8,6.7-7.8,18.9-7.8,30.3c-0.1,11.4,1,23.7,7.8,30.3c4.4,4.4,10.4,6.9,17.2,6.9c6.8,0,13-2.5,17.4-6.9
			C237.6,260.4,238.5,248.2,238.4,236.7z M213.5,291.3c-13,0-23.4-4.8-30.8-12.3c-11-11.3-13.1-26.3-13.1-42.3
			c0-16,2.1-31.1,13.1-42.3c7.4-7.5,17.8-12.3,30.9-12.3c0,0,0,0,0,0c13,0,23.4,4.8,30.8,12.3l-1.4,1.4l1.4-1.4
			c11,11.3,13.1,26.3,13.1,42.3c0,16-2.1,31.1-13.1,42.3C236.9,286.5,226.5,291.4,213.5,291.3"/>
		<path id="path64" class="st1" d="M326.4,291.3c-10.3,0-20.2-3.7-26.8-10.2v9h-19V183.4h19v65c0.1,14.9,8.8,25.5,22.6,25.6
			c7.6-0.1,10.8-1.5,16.3-6.9l1.4-1.4l1.4,1.4l12.4,12.7l-1.4,1.4C344.9,288.9,336.5,291.4,326.4,291.3"/>
		<path id="path66" class="st1" d="M418.8,183.4h19.9V336h-19.9"/>
		<path id="path68" class="st1" d="M462.4,317.8h43V183.4h19.9v134.4h43V336H462.4"/>
		<path id="path70" class="st1" d="M868.3,1631.7H654.6c-34,0-66.4-12.4-91.4-35c-26.1-23.4-40.4-54.9-40.3-88.7v-122.6
			c0-34.9,13.6-64.8,40.3-88.7c24.8-22.5,57.3-34.9,91.4-34.9h213.8c14.7,0,25.3,10.5,25.3,24.9v22.4c0,14.4-10.6,24.9-25.3,24.9
			h-213c-34.3,0.5-60.2,22.6-60.2,51.4V1508c0,30.7,30.9,51.4,59.8,51.4h0.5h213c14.4,0,25.3,10.7,25.3,24.9v22.4
			C893.6,1621.2,883,1631.7,868.3,1631.7"/>
		<path id="path72" class="st1" d="M1282.4,1631.7h-253.1c-64.9,0-95.1-30.2-95.1-95.1v-27.7c0-63.9,30.2-93.7,95.1-93.7h195.1
			c13,0,22.1-9.1,22.1-22.1v-36.9c0-12.8-9.3-22.1-22.1-22.1H966.3c-14.5,0-24.9-10.5-24.9-24.9v-22.4c0-14.5,10.5-24.9,24.9-24.9
			h257.5c64.9,0,95.1,30.2,95.1,95.1v35.5c0,64.9-30.2,95.1-95.1,95.1h-195.1c-12.8,0-22.1,9.3-22.1,22.1v27.7
			c0,12.8,9.3,22.1,22.1,22.1h253.8c14.2,0,24.9,10.7,24.9,24.9v22.4C1307.4,1621.2,1296.9,1631.7,1282.4,1631.7"/>
		<path id="path74" class="st1" d="M181.4,1559.4h166.3c29,0,60.2-19.7,60.2-51.4v-122.6c0-31.7-31.3-51.4-60.2-51.4H181.4V1559.4z
			 M181.4,1800h-72.3v-514.4c0-13.4,11.1-23.9,25.3-23.9h213.8c33.9,0,65.6,12.1,91.6,34.9c25.6,22.5,40.3,54.9,40.3,88.8V1508
			c0,33.9-14.3,65.4-40.3,88.7c-25,22.5-57.6,34.9-91.6,34.9H181.4"/>
	</g>
</g>
</svg>
