<?xml version="1.0" encoding="utf-8"?>
<!-- Generator: Adobe Illustrator 23.0.1, SVG Export Plug-In . SVG Version: 6.00 Build 0)  -->
<svg version="1.1" id="Layer_1" xmlns="http://www.w3.org/2000/svg" xmlns:xlink="http://www.w3.org/1999/xlink" x="0px" y="0px"
	 viewBox="0 0 1600 504" style="enable-background:new 0 0 1600 504;" xml:space="preserve">
<g>
	<path d="M484,94.3c-4.4,3.8-8,7.6-8,8.5c0,2.9,12.1,20.2,14.1,20.2c1,0,5.9-2.1,10.9-4.6l9-4.5l5.8,4.4c8.8,6.7,12.2,8.7,12.2,7.2
		c0-2.1-9.3-19.8-14.6-27.8c-6.5-9.6-23.6-28.8-24.8-27.6c-0.3,0.3,0.3,4.1,1.4,8.4c1.1,4.3,2,8.1,2,8.4
		C492,87.2,488.4,90.6,484,94.3z"/>
	<path d="M374.7,70.7c7.2,4.2,12,5.3,21.3,4.9c7.1-0.3,9.5-0.8,14.5-3.4c10.7-5.4,19.3-16.7,20.8-27.4c0.6-4.3,1-4.1-11.4-6.3
		c-16.2-2.9-43.1-1.6-57.9,2.8c-4.1,1.2-4.5,1.6-4.4,4.4C358,53.6,366.3,65.8,374.7,70.7z"/>
	<path d="M321,86.5c0,1.9,11.4,16,13.6,16.9c0.8,0.3,5.1-1.8,9.8-5l8.3-5.5l5.4,3.6c3,1.9,8,4.5,11.2,5.7l5.7,2.1v9.1
		c0,5,0.5,9.8,1,10.6c0.6,1,3.3,1.7,7.7,2.1c11.6,1,14,0.9,15.1-0.4c0.6-0.7,1.8-5.3,2.8-10.3l1.7-9.1l6-1.2
		c3.2-0.7,8.4-2.3,11.4-3.7l5.5-2.4l3.7,2.9c2,1.6,5.2,4.5,7,6.5c1.9,2,4.2,3.6,5,3.6c2.3,0,17.1-12.8,17.1-14.7
		c0-0.9-2.3-5.2-5.1-9.5l-5.1-7.8l3.1-4.8c1.7-2.7,4.2-7.6,5.5-10.8l2.4-5.9l5.4-0.5l5.3-0.5l-6.6-3.7c-3.7-2.1-10.2-5.2-14.5-6.9
		c-4.4-1.7-8.2-3.3-8.6-3.5c-0.3-0.2-1.1,1.9-1.7,4.7C435.2,66,419.3,81,401,83.9c-7.5,1.2-16.1,0.2-24.3-2.9
		c-11.4-4.3-22.6-16.7-26.3-29.1c-1-3.3-2.2-5.9-2.7-5.9s-5.2,2.1-10.4,4.6c-10.5,5.2-10,4-5.8,14.7l2.3,5.7l-6.4,6.9
		C323.9,81.7,321,85.6,321,86.5z"/>
	<path d="M1015.3,115.4c5.6-2.5,7.2-2.8,16.2-2.7c11.9,0.1,17.2,1.7,29.2,9.1c4.5,2.7,9.9,5.3,11.8,5.6c7.4,1.4,13.4-2.7,15.5-10.5
		c4.3-16-20.6-31.9-52.5-33.6c-14.8-0.8-24.9,1.2-37.4,7.4c-7.8,3.7-10.9,6-17.5,12.7c-9.7,9.7-13.8,16.3-18.5,29.9
		c-3.4,10-3.5,10.5-3.5,26.7c-0.1,14.4,0.2,17.5,2.2,24.5c11,38.1,44.1,59.6,82.2,53.4c26.3-4.2,45-20.7,53.2-46.9
		c1.9-6.2,2.3-9.7,2.3-20.5c0-11.9-0.2-13.3-2.2-16.1c-4.1-5.7-7.7-6.4-32.9-6.4c-17.3,0-23.3,0.3-25.9,1.4c-7.1,3-9.7,13-5.2,19.7
		c3.5,5.3,6.6,6.2,21.1,6.7l12.8,0.4l-0.6,5.2c-0.8,7.6-5.2,15.4-11.1,19.8c-7.3,5.5-13.2,7.3-24.5,7.3c-8.7,0-10.1-0.3-16.2-3.3
		c-10.7-5.2-17.3-14.1-20.8-27.7c-3.6-14.3-2-32.8,4-44.6C1000.6,126,1008.3,118.6,1015.3,115.4z"/>
	<path d="M1279.7,83.3c-4-4.6-7.7-6.3-13.2-6.3c-5.3,0-7.7,1-12.3,5.3c-13.4,12.7,3.2,35.2,19.7,26.7
		C1284,103.9,1286.8,91.4,1279.7,83.3z"/>
	<path d="M432.4,322.6l3.1,11.6c3,11.1,4.7,14.8,6.6,14.8c0.4,0,4.2-0.5,8.2-1.1l7.4-1.1l6.2-7.3l6.1-7.3v-7.3v-7.4l9.3-4.7l9.2-4.7
		l7.2-11.3c17.2-27.2,29.8-56.8,34.6-81.3c2.7-13.8,2.9-13-2.3-12.7l-4.5,0.3l-3.9-8.1c-2.1-4.5-5.8-10.8-8.2-14.1
		c-2.4-3.2-4.4-6.1-4.4-6.4s2.7-5.2,6-10.8c3.3-5.7,6-11.3,6-12.4c0-3-21.1-18.7-24-17.8c-1.1,0.3-5.6,4.6-10.1,9.4l-8.1,8.8
		l-8.3-2.9c-4.6-1.5-11.7-3.4-15.8-4l-7.5-1.2l-3.3-12.4c-2-7.8-3.8-12.6-4.8-13.2c-2.7-1.4-27.1,2.3-28.6,4.3
		c-0.9,1.2-1.1,5.3-0.8,14.1l0.5,12.4l-4.8,1.8c-2.6,1-8.9,4.6-14,8l-9.3,6.2l-11.1-6.5c-6.9-4-11.7-6.2-12.8-5.8
		c-2,0.7-16.1,19.5-16.9,22.5c-0.4,1.7,1.4,4,8.8,11l9.4,8.8l-1.9,4.9c-2.5,6.5-5.6,19.1-5.6,23c0,3.4-0.5,3.6-15,7.3
		c-8.5,2.1-10.9,3.1-11.4,4.8c-1,2.9,3,27.3,4.5,28.3c0.8,0.5,7.1,0.9,14.1,0.9h12.6l1.8,4.7c1,2.5,4.6,8.8,8,13.9l6.1,9.2
		l-6.4,11.1c-5.2,9-6.2,11.5-5.3,13c1.3,2.6,20.8,17.1,22.8,17.1c1,0,5.6-4.1,10.3-9.2l8.7-9.1l8.3,2.7c4.6,1.6,11.7,3.4,15.8,4
		L432.4,322.6z M382.3,263.4c-5.1-10-7.3-18.7-7.3-29.5c0-17.9,5.8-31.8,18.4-44.5c8.9-8.8,14.4-12.3,25.4-16
		c26.5-9,56.2,1.4,72.1,25.2c12.8,19,14.3,42.5,4.1,63.2c-7.2,14.4-19.3,25.4-34.9,31.5c-6.6,2.6-9.2,3-19.6,3.3
		c-9.4,0.3-13.4,0-18.5-1.4C405,290.4,390.1,278.5,382.3,263.4z"/>
	<path d="M82.4,166.9c0.8,0.6,7.2,3.1,14.2,5.4l12.9,4.2l0.7,8.5c0.4,4.7,1.9,12.5,3.3,17.5c2.6,8.7,2.6,9,0.8,10.5
		c-11.7,9.4-20.3,17.6-20.3,19.1c0,3.1,16.2,26.4,18.7,26.7c1.1,0.2,7.5-2.4,14-5.7c6.6-3.4,12.4-6.1,12.9-6.1
		c0.6,0,2.1,1.2,3.5,2.6c3,3.2,18.2,13.5,22.8,15.4l3.4,1.4l-0.7,10.5c-0.4,5.8-0.9,12.2-1.2,14.1c-0.9,5.9,0.6,6.8,16.1,10
		c7.7,1.6,14.3,2.9,14.6,2.9c0.3,0.1,1.3-0.5,2.2-1.1c0.9-0.7,3.6-7.1,6-14.3l4.4-12.9l11.5-1.8c6.3-0.9,14.2-2.6,17.4-3.7
		c3.2-1.2,5.9-2.1,6-2.1c0,0,4.3,5,9.4,11c5.8,7,9.9,11,11.1,11c1.1,0,7.4-3.5,14-7.7c8.4-5.5,12.1-8.5,12.6-10.2
		c0.4-1.8-1-5.7-5.5-14.8L281,245l6.3-7.9c3.4-4.4,7.8-11.1,9.7-15l3.5-7.1l6,0.5c24,1.9,23.2,1.9,24.8-0.6c2.2-3.6,7-28.5,5.8-30.7
		c-0.6-1.1-6-3.4-14.5-6.2l-13.6-4.4v-3.7c0-5.4-2.7-19.6-4.9-26.1l-2-5.7l11-9.2c7.3-6.2,10.9-9.9,10.9-11.3
		c0-2.5-15.6-26.2-17.7-27c-0.9-0.4-7.2,2.2-14.5,5.9l-12.9,6.6l-5.2-4.4c-6.6-5.6-12.8-9.7-19.5-13.1c-4.5-2.3-5.3-3.1-4.9-4.9
		c0.3-1.2,0.9-7.9,1.3-14.9l0.7-12.7l-2.4-1c-4.1-1.7-28.5-6.2-30.2-5.5c-1,0.3-3.3,5.8-6.2,14.5L207.8,75h-4
		c-5.1,0-22.4,3.5-27.3,5.6c-2.1,0.8-4.1,1.2-4.4,0.7C161,67.9,153.5,60,151.7,60c-3.4,0-25.6,15.1-26.4,17.9
		c-0.4,1.7,1,5.5,5.6,14.1c3.3,6.5,6.1,12.4,6.1,13s-2,3.4-4.4,6.2c-3.6,4.2-13.8,19.8-14.8,22.9c-0.2,0.5-6.3,0.4-14.6-0.2
		c-12-1-14.6-0.9-15.8,0.2c-1.4,1.5-6.4,24-6.4,28.9C81,164.5,81.6,166.3,82.4,166.9z M191.6,137.9c5.6-2.8,8-3.4,15.3-3.7
		c10.1-0.5,16.9,1.2,24.2,5.8c27.2,17.5,25.1,57.4-3.8,71.7c-6.6,3.3-8.5,3.7-16.1,4c-6.4,0.2-10.2-0.2-14.2-1.5
		c-11.1-3.7-20-11.7-25.1-22.6C162.6,171.7,171.3,147.9,191.6,137.9z"/>
	<path d="M826.8,430.1c8.1,2.7,22.8,2.2,29.4-0.9c2.5-1.3,6.7-4.1,9.2-6.3l4.5-4l1.4,3.3c0.8,1.8,2.7,4.4,4.2,5.8
		c2.3,2.2,3.6,2.5,9.5,2.5c5.8,0,7.2-0.4,9.4-2.4c5-4.7,5.1-6.3,5.1-55.1c0-43.5-0.1-45.7-2-49.5c-2.6-5.3-7.4-7.7-13.8-7.2
		c-5.6,0.5-9.4,2.9-12.3,8l-2,3.7l-3.9-4c-5.3-5.5-12.3-8.2-22.1-8.8c-14.3-0.8-25.4,3.8-35.9,14.9
		C778.3,361.1,789.2,417.8,826.8,430.1z M822,366.9c2.7-14.8,11.4-23.9,22.9-23.9c6.7,0,9.8,1.3,14.9,6.3
		c13.1,12.8,11.4,41.7-3.2,51.5c-4.2,2.8-5.7,3.2-11,3.2c-3.3-0.1-7.5-0.7-9.1-1.4c-1.7-0.7-5-3.5-7.2-6
		C822.8,389.2,820,377.9,822,366.9z"/>
	<path d="M420,368.9c0-1.1-3-8-6.7-15.4c-5-9.9-7.4-13.7-8.9-14.1c-1.3-0.3-7.7,1.4-15.1,4c-7.1,2.5-13.3,4.6-13.9,4.6
		c-0.5,0-4.1-3.2-7.9-7.1c-3.9-3.8-9.9-9.1-13.5-11.6c-3.6-2.6-6.7-4.8-7-5c-0.2-0.2,0.9-6.9,2.5-14.9c2.2-10.7,2.7-14.9,1.9-16.2
		c-1.2-1.9-26.3-11-30.7-11.1c-2.7-0.1-3.2,0.7-9.5,13.8l-6.5,13.8l-11.6,0.1c-6.4,0-14.9,0.7-18.9,1.5l-7.4,1.4l-8.1-12.3
		c-5.1-7.6-9-12.6-10.3-13c-2.8-0.7-30,12.8-30.8,15.4c-0.3,1,1.7,8,4.4,15.6l5.1,13.9l-7.5,7.6c-6.6,6.7-12.9,14.4-16.1,19.6
		c-0.9,1.5-2.3,1.3-16-1.6l-14.9-3.1l-2.3,2.6c-1.3,1.5-2.3,3.5-2.3,4.5c0,0.9,4.8,6.4,10.8,12.2c11.2,11,33.8,30.9,35.2,30.9
		c0.4,0,1.3-2.7,1.8-5.9c4.3-24.5,23.9-48,48.2-57.8c10.4-4.1,19.2-5.5,32-5c13.9,0.6,20.7,2.3,32.6,8.2
		c19.4,9.7,34.9,28.9,40.6,50.4c1.3,5,2,11.2,2.1,18.3c0.2,7.7,0.5,10.4,1.4,10c0.6-0.4,6.4-4.7,12.8-9.7l11.7-9l-0.6-4.5
		c-0.3-2.5-0.8-6.2-1.2-8.2l-0.6-3.7l10.8-7.1C418.6,372.5,420,371.3,420,368.9z"/>
	<path d="M790.4,233.9c3.7,3.5,12.7,4.1,17.3,1.2c6.6-4.2,6.8-5,7.1-41c0.2-19.8-0.1-35.2-0.8-39.5c-3.3-21.7-20.9-34.9-44.4-33.3
		c-10,0.7-16.1,2.8-21.5,7.3l-4.1,3.6v-22.5c0-14.1-0.4-23.7-1.1-25.8c-3.3-9.8-14.6-13.8-22.8-8c-6.3,4.5-6.1,1.8-6.1,79.6
		c0,76-0.2,73.3,5.2,78.1c3,2.8,4.4,3.2,9.8,3.3c2.8,0.1,5.7-0.6,7.7-1.9c6.6-4,6.7-4.9,7.3-42.1l0.5-33.6l2.8-4.1
		c6.3-9.7,21.6-11.6,30.3-4c6.9,6.1,6.8,5.7,7.4,42.8C785.5,229.2,785.5,229.4,790.4,233.9z"/>
	<path d="M617.3,429.1c2.6,1.6,4.5,1.9,9.9,1.7c5.8-0.3,7.1-0.8,9.8-3.3c1.7-1.6,3.4-4.5,4-6.5c0.5-1.9,3.6-22.6,7-46
		c3.4-23.4,6.3-42.6,6.5-42.8s0.8,1.3,1.4,3.4c6.7,24.8,25.2,86.9,26.5,88.9c3,4.5,7.4,6.5,14.7,6.5c7.8,0,12.4-2.4,15.1-8
		c0.9-1.9,7.1-22.6,13.8-46c13.1-46,13.1-46,13.6-44.5c0.2,0.6,3.1,20.1,6.4,43.5c3.4,23.4,6.5,43.9,7.1,45.6c0.5,1.7,2.3,4.4,4,6
		c2.8,2.7,3.6,2.9,10.4,2.9c8.9,0,12-1.9,14.9-8.8l1.9-4.6l-10.2-61.8c-5.7-34-10.9-63.1-11.6-64.8c-1.7-4.3-8.7-10.2-13.7-11.6
		c-8.3-2.3-18.3,1.6-24,9.2c-1,1.3-3.6,8.3-5.7,15.4c-4.7,15.8-16.1,54.2-19.1,64.5c-1.2,4.1-2.5,7.9-2.8,8.4
		c-0.5,0.9-1.6-2.6-13.7-43.4c-13.6-46.1-12.5-43-17.6-48.2c-7.2-7.2-15.4-8.7-24.5-4.4c-5.3,2.4-8.3,5.5-10.2,10.3
		c-2,4.9-21.4,123.5-20.9,127.6C610.9,423,613.2,426.5,617.3,429.1z"/>
	<path d="M641.9,229c4,7.7,14.4,10.4,22.9,6.1c2-1.1,4.6-3.4,5.7-5.3c1.9-3.2,2-5.4,2.3-59l0.3-55.8h13.2c15.8,0,18.4-1.1,21.2-8.4
		c3.2-8.3,0.6-16.2-6.6-19.8c-3.1-1.6-7.4-1.8-45.2-1.8c-46.5,0-46.7,0-50.7,6.5c-2.7,4.3-2.7,12.8,0,17.2c3.3,5.4,6.3,6.3,21.5,6.3
		H640v55.3C640,222.1,640.1,225.7,641.9,229z"/>
	<path d="M144,277.7c-0.1-1.6-2.5-4-8.7-8.6c-4.7-3.5-9.3-6.6-10.2-6.8c-1-0.2-4.6,2.6-9.5,7.6l-7.9,8l-3.5-1.5
		c-1.9-0.8-3.7-1.4-3.9-1.4c-1,0,7.2,14,15.3,26c14.6,22,39.3,51.5,42.3,50.6c0.9-0.3,4.7-1.3,8.4-2.2c3.8-0.9,7.1-2.3,7.4-3.2
		c0.7-1.8-1.6-21.1-2.9-23.4c-0.7-1.6-2.4-1.8-12.2-1.8h-11.3l-1.8-4.6c-0.9-2.5-4-7.9-6.7-12l-4.9-7.3l5-8.6
		C141.7,283.8,144,278.9,144,277.7z"/>
	<path d="M1266.4,122.6c-6.3,0-10,2.2-12.6,7.5c-1.6,3.1-1.8,7.6-1.8,49.8c0,45.1,0.1,46.4,2.1,50c1.1,2.1,3.3,4.5,4.7,5.4
		c3.8,2.3,11.9,2.2,15.9-0.3c6.9-4.2,6.8-3.2,6.8-55.7c0-46.1,0-47.2-2.1-49.9C1275.6,124.2,1272.3,122.5,1266.4,122.6z"/>
	<path d="M440,277.7c8.6-0.2,10.3-0.6,17.1-3.8c13.5-6.4,22.2-18,25-33.2c2.5-13.7-2.1-27.7-12.6-38.2c-7.1-7.1-14.6-11-24.4-12.7
		c-17.6-3-36.7,6.2-45.5,21.9c-6.8,12.1-7.5,28.5-1.6,40.9c5.5,11.5,17.5,21.5,29.3,24.5C429.1,277.5,434.8,277.8,440,277.7z"/>
	<path d="M311.9,357.5c-9.7-3-24.5-3.4-34.3-0.9c-24.7,6.4-43.4,29.1-45.3,54.9l-0.6,8l14.9,10.7c22.5,16.1,55.3,36.8,58.2,36.8
		c0.7,0,7-3.4,14-7.7c14.7-8.8,30.4-19.1,31.4-20.7c1.4-2,2.9-8,4-16.1C358,394.6,339.5,366.2,311.9,357.5z"/>
	<path d="M866.5,122.5c-9.7,2.5-16.5,6.4-24.1,14c-9.5,9.3-14.9,20.1-17.2,33.9c-1.4,8.9-1.4,10.4,0.1,19.9
		c2.1,12.7,6.4,22,13.8,30.1c14.9,16.3,36.2,21.7,60.9,15.5c18.1-4.6,31-14.4,31-23.6c0-6.1-6.5-12.7-12.4-12.7c-1.7,0-8,2.5-14,5.5
		l-10.9,5.4H883c-10.1,0-10.9-0.2-15.5-3c-5.8-3.6-10.3-9.6-11.2-14.8l-0.6-3.7h34.7c37.3,0,39-0.2,41.8-5.3
		c1.8-3.3,1.2-15.3-1.1-22.7C922.2,132.8,893.3,115.6,866.5,122.5z M878.9,170h-24.1l0.6-3.7c1-5.5,5.5-12.3,10.4-15.7
		c3.5-2.5,5.5-3.1,11.2-3.4c3.8-0.2,8.4,0.1,10.6,0.8c5.6,1.9,12,8.8,13.8,15.1c0.9,2.9,1.6,5.6,1.6,6.1
		C903,169.6,892.1,170,878.9,170z"/>
	<path d="M1302.9,416c7.1,7.2,17.6,13.2,26.1,15c7.9,1.6,28.6,0.5,36.5-2c10.1-3.2,17.8-7.6,23-13.1c3.9-4.2,4.5-5.4,4.5-9.1
		c0-7.3-5.9-13.8-12.7-13.8c-0.9,0-6.8,2.6-13.1,5.7c-10.3,5.1-12.2,5.7-19.3,6.1c-13.6,0.8-22.6-3.5-27.3-13
		c-4.8-9.5-7.5-8.8,32.8-8.8c33.9,0,35.4-0.1,37.9-2c10.6-8.4,1.3-39.4-16.1-53.6c-10.5-8.6-20.9-12.4-33.7-12.4
		c-15.4,0-26.2,4.4-37.1,15.4c-12.1,12.1-17.4,25.4-17.4,43.6C1287,392,1291.9,404.8,1302.9,416z M1319,356.7
		c3.5-9.4,12.2-15.7,21.6-15.7c7.2,0,12.5,2,17,6.5c3.7,3.7,7.4,11.3,7.4,15.2c0,1-4.8,1.3-24,1.3c-14.7,0-24-0.4-24-1
		C1317,362.5,1317.9,359.7,1319,356.7z"/>
	<path d="M913.7,355.5c-2.8,9.2-3,27-0.3,36c5.8,19.5,20.1,34.2,37.7,38.9c7.1,1.9,20.8,1.9,28.7,0.1c13.8-3.3,23.2-11,23.2-19.1
		c0-6.1-6.9-13.4-12.7-13.4c-1.1,0-5.6,1.4-10.1,3c-13.8,5-22.8,3.6-30.3-4.7c-5.1-5.7-7.9-13.7-7.9-22.7c0-13.7,4.9-23.4,14.2-28
		c7-3.5,13.1-3.4,24.4,0.4c5.8,2,9.9,2.9,12,2.5c4.2-0.7,8-5.1,9.6-10.8c1.1-4.4,1.1-5.1-1-9c-1.3-2.5-4-5.3-6.6-7
		c-9.6-6.1-30.8-8.6-42.7-5.1C934,321.9,919.7,336.4,913.7,355.5z"/>
	<path d="M1074.2,315.3c-10.4-0.7-19.5,1.5-25.8,6.3l-4.4,3.4v-23.3c0-20.7-0.2-23.6-1.9-26.7c-5.6-10.7-20.2-10.7-25.8,0l-2.3,4.3
		v69.6c0,66.5,0.1,69.8,2,73.8c3.6,8,13.8,10.9,21.1,6c6.7-4.4,6.9-5.6,6.9-39.8c0-34.8,0.6-38.5,6.5-43.8
		c8.9-7.8,23.2-5.9,28.9,3.9c2,3.3,2.1,5.5,2.6,37.5c0.5,33.2,0.6,34.1,2.8,37.6c5.7,9.3,19.5,9.1,25.2-0.3c1.9-3.1,2-5.1,2-40.4
		c0-34.1-0.2-37.5-1.9-42.7C1104.7,325.1,1092.5,316.4,1074.2,315.3z"/>
	<path d="M1322.1,234.3c5.7-4.8,5.9-6.3,5.9-39.1c0-34.5,0.5-37.7,6.9-43.5c9.1-8.2,26.5-5.5,31.7,5c1.7,3.4,1.9,7,2.4,36.8
		c0.4,29.3,0.7,33.4,2.3,36.3c4,7.4,15.5,9.8,21.7,4.6c6-5.1,6-4.9,6-44.2c0-33.1-0.2-36.5-2-42.3c-5.1-16.5-20.6-26.9-39.9-26.9
		c-12.1,0-20.9,3-26.5,8.9l-2.9,3l-1.6-3.1c-2.6-5.1-6.5-7.3-12.6-7.3c-5.8,0-9.1,1.8-12.9,6.9c-2.1,2.7-2.1,3.8-2.1,49.9
		c0,40,0.2,47.7,1.5,50.2C1303.9,237.1,1315.7,239.7,1322.1,234.3z"/>
	<path d="M1410.7,339.3c1,1.1,2.8,0.8,4.1-0.5c0.8-0.8,1.2-4.5,1.2-9.9c0-8.3,0.1-8.8,2.3-9.1c1.4-0.2,2.2-1,2.2-2.3
		c0-1.8-0.8-2-8.7-2.3l-8.8-0.3v2.6c0,2.2,0.4,2.5,3.5,2.5h3.5v9.3C1410,334.5,1410.3,339,1410.7,339.3z"/>
	<path d="M1503.4,122c-5.3,0.1-11.1,3.5-13.4,8l-2.1,4.1l-3.3-3.6c-10.1-10.7-31.7-12.5-46.6-3.8c-26.6,15.5-36,56.3-20.3,87.7
		c3.9,7.8,11.8,16.3,18.1,19.5c16.4,8.4,37.5,5.9,48.6-5.8c1.7-1.7,3.3-3.1,3.8-3.1c1.6,0,0.8,12.4-1.1,16.5
		c-2.3,5.1-7.5,9.7-13.5,12c-6.7,2.6-20.7,1.7-30.1-2c-17.1-6.6-20.8-6.9-25.9-2.5c-9.9,8.7-5.6,20.2,10,26.4
		c15.1,6.1,35.3,8.2,49.9,5.1c21.1-4.5,36.4-19,40.4-38.3c0.7-3.5,1.1-23.1,1.1-56.8c0-49.2-0.1-51.6-2-55.3
		C1514.8,125.8,1508.4,122,1503.4,122z M1473.3,208.6c-5.4,2.3-15.1,1.8-19.9-1.1c-7.9-4.7-12.4-14.9-12.4-27.9
		c0.1-12.6,5.8-24.4,13.8-28.2c14.6-6.9,28.8,2.4,32.3,21.2C1490,188,1483.8,204.1,1473.3,208.6z"/>
	<path d="M1426.4,332.7c0.5-3.7,1.2-6.7,1.6-6.7c0.4,0,1.5,3,2.5,6.6c2.8,10.3,5.8,9.8,9.4-1.6c1.1-3.6,2.1-6,2.2-5.5
		c2,12.8,2.4,14,4.4,14c2.7,0,3-3.2,1.1-14.1c-2.5-14.1-6.4-15.3-10.1-3.1c-1.1,3.7-2.3,6.7-2.6,6.7c-0.4,0-1.4-2.8-2.4-6.2
		c-2.3-8.5-3.8-10.1-7.3-7.9c-1.9,1.2-5.4,22.1-4,23.8C1423.7,341.7,1425.5,339.7,1426.4,332.7z"/>
	<path d="M1125.7,77c-6.9,0-12.8,3.5-15.6,9.3c-2.6,5.3-2.6,9-0.2,14.2c4.2,9.3,14.3,13,23.1,8.5c5.7-2.9,8.4-7.3,8.8-14.5
		c0.3-5,0-6.6-2-9.5C1136.1,79.6,1131.5,77,1125.7,77z"/>
	<path d="M1231.7,315.2c-11.2,0.5-16.5,2.3-22.7,7.5l-3.4,3l-2.1-3.1c-3-4.5-8-6.8-13.8-6.3c-6,0.5-9.5,3-12.4,8.7
		c-2.3,4.4-2.3,4.8-2.3,48.2c0,46.4,0.1,47.9,4.8,53.2c4.4,4.9,14.7,6.1,20.2,2.4c1.8-1.3,4.3-3.6,5.4-5.1c2-2.7,2.1-4.3,2.6-36.5
		c0.5-37.1,0.6-37.1,7-42.6c8.4-7,21.9-5.2,27.8,3.7l2.7,4l0.5,34.1c0.5,33.6,0.5,34.2,2.8,37.9c2.9,4.6,6.8,6.7,12.5,6.7
		c5.4,0,10.5-3.1,13-8c1.6-3.2,1.7-6.8,1.5-41.5l-0.3-38l-3.2-6.5c-3.7-7.6-5.2-9.4-11.6-14.3C1253.2,317,1244.1,314.6,1231.7,315.2
		z"/>
	<path d="M1142.7,316.3c-5.6,0.5-9.2,2.9-11.8,7.7c-1.8,3.2-1.9,6.6-1.9,49.5c0,41.8,0.2,46.3,1.8,49.5c3.7,7.5,13.8,10.4,21,6
		c1.9-1.2,4.1-3.8,5.2-6.3c1.8-3.9,2-7,2-49.3c0-45,0-45.1-2.3-49.4C1153.7,318.3,1149,315.7,1142.7,316.3z"/>
	<path d="M1138,228.7c1.8-3.9,2-7,2-48.3c0-30.3-0.4-45.2-1.1-47.5c-4.3-12.8-21.6-14.4-27.3-2.5c-1.4,3-1.6,9-1.6,49.6
		c0,50.5-0.1,49.2,6,54.4c4,3.4,11.8,3.6,16.8,0.6C1134.7,233.8,1136.9,231.2,1138,228.7z"/>
	<path d="M1231.5,123.2c-6.8-0.6-10.9,1-13.4,5.2c-1.1,1.8-4.3,10.4-7.1,19.1c-2.8,8.8-7.2,22.3-9.6,30c-2.5,7.7-4.7,14.7-5,15.5
		c-0.4,0.9-1.1,0-1.9-2.5c-2.7-8.1-16.4-51.1-17.6-55.3c-0.7-2.4-2.9-6.1-4.8-8.3c-4.6-5.2-9.6-6.1-16.4-3.1
		c-10.5,4.6-11.1,12.5-2.7,33.7c2.9,7.2,10.3,26.1,16.5,42.2c6.3,16,12.1,30.3,13.1,31.8c2.6,4,6.2,5.4,13.6,5.5
		c6.1,0,7.1-0.3,10.2-3c2.8-2.5,4.8-6.4,10.5-20.8c29.5-75,29.8-76,26.7-82C1240.9,126,1237.4,123.7,1231.5,123.2z"/>
	<path d="M1135.2,273.7c-4.9,3.7-7.2,8-7.2,13.6c0,5.5,1.6,9.1,5.7,12.8c5.5,5.2,11.6,6,18.3,2.7c2.5-1.3,5.5-3.8,6.7-5.7
		C1169.1,281.4,1150.2,262.6,1135.2,273.7z"/>
</g>
</svg>
