<?xml version="1.0" encoding="utf-8"?>
<!-- Generator: Adobe Illustrator 23.0.1, SVG Export Plug-In . SVG Version: 6.00 Build 0)  -->
<svg version="1.1" id="Layer_1" xmlns="http://www.w3.org/2000/svg" xmlns:xlink="http://www.w3.org/1999/xlink" x="0px" y="0px"
	 viewBox="0 0 1181 1181" style="enable-background:new 0 0 1181 1181;" xml:space="preserve">
<style type="text/css">
	.st0{fill:#FFFFFF;}
</style>
<g id="layer101">
	<path d="M0,590.5V0h590.5H1181v590.5V1181H590.5H0V590.5z"/>
</g>
<g id="layer102">
	<path class="st0" d="M85,590.5V386.9l124.3,0.4c135.1,0.4,130,0.2,152.2,6.1c31.8,8.5,55.9,27.4,67.6,53.1
		c8.8,19.4,11.2,46.4,5.9,67.1c-5.4,21.1-19,38.3-40.9,51.5l-6,3.6l7.7,3.3c32.5,13.6,53,38.1,60.1,72.2l2,9.3V520.2L458,387
		l89.2,0.2l89.2,0.3l28.9,119c15.9,65.5,29.1,119.2,29.3,119.4c0.2,0.2,0.6,0.2,0.8,0s13.3-53.9,29.2-119.4l28.9-119l89.3-0.3
		L932,387v203.5V794h-59.5H813l-0.2-130.7l-0.3-130.7L777.7,661c-19.1,70.7-35,129.5-35.3,130.8l-0.6,2.2H695h-46.7l-3-10.7
		c-1.6-6-17.5-64.7-35.4-130.5C592.1,586.9,577.2,533,576.8,533c-0.5,0-0.8,58.7-0.8,130.5V794h-59h-59l-0.1-54.2l-0.1-54.3l-1.8,9
		c-10.9,54.1-56.8,91.4-121.2,98.4c-6.3,0.7-51.5,1.1-129.8,1.1H85V590.5z M305.8,694.8c12.3-3.7,19.4-9.5,23.8-19.2
		c2.6-5.5,2.8-7.2,2.9-17.1c0-10.5-0.2-11.4-3.3-17.7c-3.8-7.7-7.3-11-15.7-14.9c-9.1-4.2-17.7-4.9-62.1-4.9H211v38.1v38l44.8-0.4
		C293,696.4,301.4,696.1,305.8,694.8z M300.5,542.1c8-3.2,14.8-10.1,16.9-17.2c4.2-13.9,0.7-27.3-8.7-33.6
		c-9.6-6.5-16.7-7.3-60.9-7.3H211v30.6v30.5l41.8-0.3C294,544.5,294.6,544.5,300.5,542.1z"/>
	<path class="st0" d="M970,590.5V387h63h63v203.5V794h-63h-63V590.5z"/>
</g>
</svg>
