<?xml version="1.0" encoding="utf-8"?>
<!-- Generator: Adobe Illustrator 23.0.1, SVG Export Plug-In . SVG Version: 6.00 Build 0)  -->
<svg version="1.1" id="Layer_1" xmlns="http://www.w3.org/2000/svg" xmlns:xlink="http://www.w3.org/1999/xlink" x="0px" y="0px"
	 viewBox="0 0 841.9 595.3" style="enable-background:new 0 0 841.9 595.3;" xml:space="preserve">
<style type="text/css">
	.st0{fill:none;}
	.st1{stroke:#000000;stroke-miterlimit:10;}
	.st2{font-family:'AvenirNext-UltraLight';}
	.st3{font-size:37.2992px;}
	.st4{letter-spacing:35;}
	.st5{letter-spacing:37;}
	.st6{stroke:#000000;stroke-width:3;stroke-miterlimit:10;}
</style>
<rect x="437.9" y="321" class="st0" width="392.8" height="96.3"/>
<text transform="matrix(1 0 0 1 437.9053 349.2452)"><tspan x="0" y="0" class="st1 st2 st3 st4">D</tspan><tspan x="64.7" y="0" class="st1 st2 st3 st5">IGITAL</tspan></text>
<g>
	<path class="st6" d="M119.2,258.5c-1.8-4.7-4.2-8.8-7.5-12.3c-3.2-3.5-7.1-6.2-11.6-8.2c-4.5-2-9.4-2.9-14.9-2.9
		c-6.1,0-11.4,1.3-16,3.8c-4.6,2.5-8.1,5.8-10.4,9.7h-0.5v-11.5H44.1v110.5h14.6v-48.1h0.5c2.7,4.1,6.3,7.3,11,9.6
		c4.6,2.3,9.6,3.4,14.8,3.4c5.7,0,10.8-1,15.3-3c4.5-2,8.4-4.8,11.6-8.3c3.2-3.5,5.7-7.6,7.4-12.4c1.8-4.7,2.6-9.8,2.6-15.2
		C121.8,268.3,120.9,263.2,119.2,258.5z M105.4,283.5c-1,3.2-2.6,6-4.6,8.5c-2.1,2.5-4.6,4.5-7.7,6c-3,1.5-6.6,2.2-10.6,2.2
		c-3.7,0-7.1-0.7-10.1-2.2c-3-1.4-5.7-3.4-7.8-5.8c-2.2-2.4-3.8-5.2-5-8.4c-1.2-3.2-1.8-6.6-1.8-10.1c0-3.5,0.6-6.9,1.8-10.1
		c1.2-3.2,2.9-6,5-8.5c2.2-2.5,4.8-4.4,7.8-5.9c3-1.4,6.4-2.2,10.1-2.2c4,0,7.6,0.7,10.6,2.2c3,1.4,5.6,3.4,7.7,5.9
		c2.1,2.5,3.6,5.3,4.6,8.5c1,3.2,1.5,6.5,1.5,9.9C107,277,106.4,280.4,105.4,283.5z"/>
	<path class="st6" d="M143.5,252.9v57.6h14.6v-38.6c0-3.1,0.4-6.1,1.2-8.9c0.8-2.8,2.1-5.3,3.8-7.5c1.7-2.2,3.8-3.9,6.4-5.2
		c2.6-1.3,5.6-1.9,9.1-1.9c2.4,0,4.6,0.3,6.7,0.8l0.6-13.5c-1.5-0.4-3.5-0.6-5.7-0.6c-5,0-9.4,1.3-13.4,3.9c-4,2.6-7,6.1-9.1,10.5
		h-0.5c0-1.5-0.1-3.5-0.2-6c-0.1-2.4-0.3-4.6-0.5-6.4h-13.8c0.2,2.4,0.4,5.1,0.5,8.2C143.4,248.4,143.5,250.9,143.5,252.9z"/>
	<path class="st6" d="M274.3,258.1c-2-4.7-4.8-8.7-8.4-12.2c-3.6-3.4-7.8-6.1-12.6-8c-4.9-1.9-10.1-2.9-15.6-2.9
		c-5.6,0-10.8,1-15.6,2.9c-4.9,1.9-9,4.6-12.5,8c-3.5,3.4-6.3,7.5-8.3,12.2c-2,4.7-3,9.9-3,15.6c0,5.7,1,10.9,3,15.6
		c2,4.7,4.8,8.9,8.3,12.3c3.5,3.5,7.7,6.1,12.5,8.1c4.9,1.9,10.1,2.9,15.6,2.9c5.6,0,10.8-1,15.6-2.9c4.9-1.9,9.1-4.6,12.6-8.1
		c3.6-3.5,6.3-7.6,8.4-12.3c2-4.7,3-10,3-15.6C277.4,268,276.3,262.8,274.3,258.1z M260.5,283.8c-1.1,3.2-2.7,6-4.7,8.5
		c-2.1,2.5-4.6,4.4-7.7,5.9c-3.1,1.4-6.6,2.2-10.5,2.2c-3.9,0-7.4-0.7-10.5-2.2c-3.1-1.4-5.6-3.4-7.7-5.9c-2.1-2.5-3.7-5.3-4.7-8.5
		c-1.1-3.2-1.6-6.5-1.6-10c0-3.5,0.5-6.8,1.6-10c1.1-3.2,2.7-6,4.7-8.4c2.1-2.4,4.6-4.3,7.7-5.8c3.1-1.4,6.5-2.2,10.5-2.2
		c3.9,0,7.4,0.7,10.5,2.2c3.1,1.4,5.6,3.4,7.7,5.8c2.1,2.4,3.6,5.2,4.7,8.4c1.1,3.2,1.6,6.5,1.6,10
		C262.2,277.2,261.6,280.6,260.5,283.8z"/>
	<path class="st6" d="M298.3,252.9v57.6h14.6v-39c0-7.3,1.8-13.2,5.3-17.6c3.6-4.4,8-6.6,13.4-6.6c2.9,0,5.3,0.5,7.3,1.5
		c2,1,3.6,2.3,4.8,4c1.2,1.7,2.1,3.7,2.6,6.1c0.5,2.4,0.8,5,0.8,7.9v43.7h14.6v-39.6c0-2.9,0.3-5.7,1-8.5c0.7-2.8,1.8-5.3,3.3-7.5
		c1.5-2.2,3.4-4,5.8-5.4c2.4-1.4,5.2-2.1,8.5-2.1c3.2,0,5.8,0.6,7.9,1.9c2.1,1.2,3.7,2.9,5,5c1.2,2.1,2.1,4.4,2.6,7.1
		c0.5,2.7,0.8,5.5,0.8,8.5v40.7H411V265c0-4.1-0.5-8-1.6-11.6c-1.1-3.6-2.8-6.8-5-9.4c-2.3-2.7-5.1-4.8-8.5-6.4
		c-3.4-1.6-7.5-2.4-12.2-2.4c-5.3,0-10.1,1.3-14.6,3.8c-4.4,2.5-7.9,6.2-10.4,10.9c-2.3-5.3-5.4-9-9.4-11.3c-4-2.3-8.4-3.4-13.4-3.4
		c-5.6,0-10.4,1.4-14.5,4.1c-4.1,2.7-7,6.1-8.9,10h-0.5c0-1.5-0.1-3.5-0.2-5.8c-0.1-2.3-0.3-4.4-0.5-6.3h-13.8
		c0.2,2.4,0.4,5.1,0.5,8.2C298.3,248.4,298.3,250.9,298.3,252.9z"/>
	<rect x="438.7" y="237.1" class="st6" width="14.6" height="73.4"/>
	<path class="st6" d="M481.7,252.9v57.6h14.6v-39c0-7.3,1.8-13.2,5.5-17.6c3.7-4.4,8.4-6.6,14.2-6.6c3.4,0,6.2,0.6,8.4,1.9
		c2.2,1.2,3.9,2.9,5.1,5c1.2,2.1,2.1,4.4,2.6,7.1c0.5,2.7,0.7,5.5,0.7,8.5v40.7h14.6V265c0-4.1-0.5-8-1.6-11.6
		c-1.1-3.6-2.8-6.8-5-9.4c-2.3-2.7-5.1-4.8-8.5-6.4c-3.4-1.6-7.5-2.4-12.2-2.4c-2.7,0-5.3,0.4-7.7,1.1c-2.5,0.7-4.7,1.7-6.8,3
		c-2.1,1.3-3.9,2.8-5.5,4.5c-1.6,1.7-2.9,3.5-3.8,5.5h-0.5c0-1.5-0.1-3.5-0.2-5.8c-0.1-2.3-0.3-4.4-0.5-6.3H481
		c0.2,2.4,0.4,5.1,0.5,8.2C481.6,248.4,481.7,250.9,481.7,252.9z"/>
	<path class="st6" d="M637.6,257.3c-1.7-4.7-4-8.7-7.1-12c-3.1-3.3-6.8-5.8-11.2-7.6c-4.4-1.8-9.3-2.6-14.7-2.6
		c-5.4,0-10.4,1-15,2.9c-4.7,1.9-8.7,4.6-12.1,8c-3.4,3.4-6.1,7.5-8,12.3c-1.9,4.8-2.9,10-2.9,15.7c0,5.8,1,11,2.9,15.8
		c2,4.7,4.6,8.8,8.1,12.2c3.4,3.4,7.5,6,12.2,7.8c4.7,1.9,9.9,2.8,15.5,2.8c6.5,0,12.4-1.2,17.7-3.7c5.3-2.5,9.9-6.3,13.9-11.5
		l-10.2-8.2c-2.1,3.1-4.9,5.7-8.5,7.9c-3.6,2.2-7.9,3.3-12.8,3.3c-3.2,0-6.2-0.6-9.1-1.7c-2.8-1.1-5.3-2.7-7.5-4.7
		c-2.2-2-3.9-4.4-5.2-7.1c-1.3-2.7-2-5.6-2.1-8.7h58.4c0.1-0.8,0.2-1.7,0.2-2.5c0-0.8,0-1.6,0-2.5
		C640.1,267.3,639.2,262,637.6,257.3z M581.5,267.3c0.2-2.9,1-5.6,2.2-8.1c1.3-2.5,2.9-4.7,5-6.6c2-1.9,4.4-3.3,7.1-4.4
		c2.7-1.1,5.7-1.6,8.7-1.6c3.4,0,6.4,0.5,8.9,1.6c2.5,1.1,4.6,2.6,6.4,4.4c1.7,1.9,3,4,3.9,6.6c0.9,2.5,1.4,5.2,1.5,8.1H581.5z"/>
	<path class="st6" d="M729.7,265c0-4.1-0.5-8-1.6-11.6c-1.1-3.6-2.8-6.8-5-9.4c-0.5-0.6-1.1-1.2-1.7-1.8v68.3h8.3V265z"/>
	<path class="st6" d="M714.5,237.5c-3.4-1.6-7.5-2.4-12.2-2.4c-2.7,0-5.3,0.4-7.7,1.1c-2.5,0.7-4.8,1.7-6.8,3
		c-2.1,1.3-3.9,2.8-5.5,4.5c-1.6,1.7-2.9,3.5-3.8,5.5H678c0-1.5-0.1-3.5-0.2-5.8c-0.1-2.3-0.3-4.4-0.5-6.3h-13.8
		c0.2,2.4,0.4,5.1,0.5,8.2c0.1,3.1,0.2,5.6,0.2,7.6v57.6h14.6v-39c0-7.3,1.8-13.2,5.5-17.6c3.7-4.4,8.4-6.6,14.2-6.6
		c3.4,0,6.2,0.6,8.4,1.9c2.2,1.2,3.9,2.9,5.1,5c1.2,2.1,2.1,4.4,2.6,7.1c0.5,2.7,0.7,5.5,0.7,8.5v40.7h6.2v-68.3
		C719.4,240.3,717.1,238.7,714.5,237.5z"/>
	<path class="st6" d="M761.9,288.8c0,7.6,1.8,13.4,5.5,17.2c3.7,3.8,9,5.7,15.9,5.7c2.3,0,4.5-0.2,6.6-0.5c2.1-0.4,4-0.9,5.8-1.5
		l-0.5-11.9c-1.2,0.6-2.6,1-4.2,1.3c-1.5,0.3-3,0.4-4.3,0.4c-3.6,0-6.2-1-7.9-2.9c-1.7-1.9-2.5-5.1-2.5-9.5V249h19.5v-11.9h-19.5
		V216h-14.4v21.1h-14.1V249h14.1V288.8z"/>
</g>
</svg>
