<?xml version="1.0" encoding="utf-8"?>
<!-- Generator: Adobe Illustrator 23.0.1, SVG Export Plug-In . SVG Version: 6.00 Build 0)  -->
<svg version="1.1" xmlns="http://www.w3.org/2000/svg" xmlns:xlink="http://www.w3.org/1999/xlink" x="0px" y="0px"
	 viewBox="0 0 7756 6423.6" style="enable-background:new 0 0 7756 6423.6;" xml:space="preserve">
<style type="text/css">
	.st0{display:none;}
	.st1{display:inline;fill:#010101;}
	.st2{display:inline;fill:#FDEB03;}
	.st3{display:inline;}
	.st4{fill:#010101;}
	.st5{fill:#FFFFFF;}
	.st6{fill:url(#SVGID_1_);stroke:#FFFFFF;stroke-width:10;stroke-miterlimit:10;}
	.st7{fill:url(#SVGID_2_);stroke:#FFFFFF;stroke-width:10;stroke-miterlimit:10;}
	.st8{fill:url(#SVGID_3_);stroke:#FFFFFF;stroke-width:10;stroke-miterlimit:10;}
	.st9{fill:url(#SVGID_4_);stroke:#FFFFFF;stroke-width:10;stroke-miterlimit:10;}
	.st10{fill:url(#SVGID_5_);stroke:#FFFFFF;stroke-width:10;stroke-miterlimit:10;}
	.st11{fill:url(#SVGID_6_);stroke:#FFFFFF;stroke-width:10;stroke-miterlimit:10;}
	.st12{fill:url(#SVGID_7_);stroke:#FFFFFF;stroke-width:10;stroke-miterlimit:10;}
	.st13{fill:url(#SVGID_8_);stroke:#FFFFFF;stroke-width:10;stroke-miterlimit:10;}
	.st14{fill:url(#SVGID_9_);stroke:#FFFFFF;stroke-width:10;stroke-miterlimit:10;}
	.st15{fill:url(#SVGID_10_);stroke:#FFFFFF;stroke-width:10;stroke-miterlimit:10;}
	.st16{fill:url(#SVGID_11_);stroke:#FFFFFF;stroke-width:10;stroke-miterlimit:10;}
	.st17{fill:url(#SVGID_12_);stroke:#FFFFFF;stroke-width:10;stroke-miterlimit:10;}
	.st18{fill:url(#SVGID_13_);stroke:#FFFFFF;stroke-width:10;stroke-miterlimit:10;}
	.st19{display:inline;fill:#6D87B3;}
	.st20{display:inline;fill:#CFCEDB;}
	.st21{display:inline;fill:#201011;}
	.st22{display:inline;fill:#875139;}
	.st23{display:inline;fill:#D4DFCD;}
</style>
<g id="Layer_1" class="st0">
	<path class="st1" d="M1420.9,1177.4l-70.9,70.9l0,0l0,0l70.9,70.9l0,0l412.9,412.9l0,0l0,0l412.9-412.9l0,0l70.9-70.9l0,0l0,0
		l-70.9-70.9l0,0l-412.9-412.9l0,0l0,0L1420.9,1177.4L1420.9,1177.4z M1833.8,906.4l341.9,341.9l-341.9,341.9l-341.9-341.9
		L1833.8,906.4z M1473.4,1466.9l70.9,70.9L1350,1732.2l0,0l0,0l-412.9-412.9l0,0l-70.9-70.9l0,0l0,0l70.9-70.9l0,0l412.9-412.9l0,0
		l0,0l194.6,194.6l-70.9,70.9l-123.6-123.6L1008,1248.4l341.9,341.9L1473.4,1466.9z M2518.4,1553.9L2518.4,1553.9L2340.3,1732
		h-141.1v-258.1l100.3-100.3v257.4l382.6-382.6L2559.7,1126l-260.2-260.2v257.1l-100.3-100.3V765h141.3l290.1,290.1l122.4,122.4l0,0
		l70.9,70.9l0,0l0,0l-70.9,70.9l0,0L2518.4,1553.9z M3470.5,1198.5l48.5,48.5l-51.8,51.8h-455.8l-20.5,20.5l0,0l-113.4,113.4
		l157.6,157.6l136.5-136.5l70.9,70.9l-136.5,136.5l0,0l-70.9,70.9l-228.6-228.6l0,0l-70.9-70.9l34.2-34.2l150.1-150.1L2735.7,1064
		l21.3-21.2l207.3-207.3l0,0l70.9-70.9l206.6,206.6l-70.9,70.9l-135.6-135.6l-157.6,157.6l113.4,113.4l0,0l21.1,21.1H3470.5z
		 M3611,1297v1.9h-1.9L3611,1297z"/>
	<polygon class="st1" points="3970.9,1690.4 3970.9,764.5 3870.6,764.5 3870.6,1590.1 3737.3,1456.7 3737.3,765.3 3637,765.3 
		3637,1356.4 3503.6,1223.1 3503.6,763.9 3403.3,763.9 3403.3,1216.6 3403.3,1216.7 3403.3,1264.6 3870.6,1731.9 3870.6,1731.9 
		3970.9,1731.9 3970.9,1690.4 3970.9,1690.4 	"/>
	
		<rect x="5188.5" y="-342.1" transform="matrix(0.7071 -0.7071 0.7071 0.7071 1529.4445 3692.4041)" class="st2" width="66.7" height="684.2"/>
	<rect x="4037.6" y="764.3" class="st1" width="100.3" height="967.2"/>
	<g class="st3">
		<polygon class="st4" points="4399.8,1537.2 4206.5,1730.5 4348.2,1730.5 4399.8,1679 		"/>
		<polygon class="st4" points="4466.4,1612.3 4566.3,1512.4 4566.3,1370.7 4466.4,1470.6 		"/>
		<path class="st4" d="M5175.3,761.5L4632.9,1304v141.7l130.7-130.7l412,0l0,414.8l100.3,0l0-968L5175.3,761.5z M5175.6,1214.7
			l-311.6,0L5175.6,903V1214.7z"/>
	</g>
	<g class="st3">
		<polygon class="st4" points="4084.2,1249.5 4084.2,1246 4082.4,1247.7 		"/>
		<polygon class="st4" points="4771.3,1384.6 4566.6,1589.3 4566.6,905.5 4567.6,904.5 4566.6,798.5 4566.6,763.9 4566.2,764.3 
			4566.2,763.9 4205.4,1124.8 4205.4,1266.6 4466.3,1005.8 4466.3,1631.5 4566.6,1733 4566.6,1731.2 4913.1,1384.6 		"/>
	</g>
	<g class="st3">
		<polygon class="st4" points="5867,1347.5 5965.8,1248.7 5945,1227.9 5867,1305.9 		"/>
		<polygon class="st4" points="5867,1632.5 5867,1733 5967.5,1733 		"/>
		<polygon class="st4" points="6491.8,1249.4 6420.8,1178.4 6420.8,1178.5 6298.4,1056.1 6008.3,766 5867,766 5867,1053.6 
			5967.3,1153.9 5967.3,866.8 6227.5,1127 6349.9,1249.4 5967.3,1631.9 5967.3,1341.5 5867,1441.8 5867,1538.2 6035,1706.2 
			6186.3,1555 6186.2,1554.9 6420.8,1320.3 6420.8,1320.3 6491.8,1249.4 6491.7,1249.4 		"/>
	</g>
	<g class="st3">
		<path class="st4" d="M5340.1,765.5v967v1l100.2,0v-384l0.1,0.1v-0.1l384.1,384h141.2l0.3-0.3l-242.8-242.8l241.7-241.6l0,0l0,0
			l-483.4-483.4L5340.1,765.5L5340.1,765.5z M5440.4,866.3l382.6,382.6l-170.7,170.7l-211.8-211.8V866.3z"/>
	</g>
	<g class="st3">
		<polygon class="st4" points="7071.6,1320.2 7142.6,1249.3 6729.6,836.3 6729.7,836.3 6658.7,765.4 6380.9,1043.2 6451.8,1114.2 
			6452.4,1113.5 6794.7,1455.8 6659.1,1591.4 6452.2,1384.5 6381.3,1455.4 6588.2,1662.3 6587.8,1662.7 6658.7,1733.6 
			6865.6,1526.7 6866.2,1527.3 6937.2,1456.4 6523.4,1042.6 6658.7,907.3 		"/>
	</g>
	<path class="st1" d="M1454.1,3442.1l-70.9,70.9l0,0l0,0l70.9,70.9l0,0l412.9,412.9l0,0l0,0l412.9-412.9l0,0l70.9-70.9l0,0l0,0
		l-70.9-70.9l0,0L1867,3029.3l0,0l0,0L1454.1,3442.1L1454.1,3442.1z M1867,3171.1l341.9,341.9L1867,3855l-341.9-341.9L1867,3171.1z
		 M1506.7,3731.6l70.9,70.9l-194.3,194.3l0,0l0,0L970.4,3584l0,0l-70.9-70.9l0,0l0,0l70.9-70.9l0,0l412.9-412.9l0,0l0,0l194.6,194.6
		l-70.9,70.9l-123.6-123.6l-341.9,341.9l341.9,341.9L1506.7,3731.6z M2551.7,3818.6L2551.7,3818.6l-178.1,178.1h-141.1v-258.1
		l100.3-100.3v257.4l382.6-382.6L2593,3390.7l-260.2-260.2v257.1l-100.3-100.3v-257.6h141.3l290.1,290.1l122.4,122.4l0,0l70.9,70.9
		l0,0l0,0l-70.9,70.9l0,0L2551.7,3818.6z M3503.7,3463.2l48.5,48.5l-51.8,51.8h-455.8l-20.5,20.5l0,0l-113.4,113.4l157.6,157.6
		l136.5-136.5l70.9,70.9l-136.5,136.5l0,0l-70.9,70.9l-228.6-228.6l0,0l-70.9-70.9l34.2-34.2l150.1-150.1L2769,3328.7l21.3-21.2
		l207.3-207.3l0,0l70.9-70.9l206.6,206.6l-70.9,70.9l-135.6-135.6l-157.6,157.6l113.4,113.4l0,0l21.1,21.1H3503.7z M3644.3,3561.7
		v1.9h-1.9L3644.3,3561.7z"/>
	<polygon class="st1" points="4004.2,3955.1 4004.2,3029.2 3903.9,3029.2 3903.9,3854.8 3770.6,3721.4 3770.6,3030 3670.3,3030 
		3670.3,3621.1 3536.9,3487.8 3536.9,3028.6 3436.6,3028.6 3436.6,3481.4 3436.6,3481.4 3436.6,3529.3 3903.9,3996.6 3903.9,3996.6 
		4004.2,3996.6 4004.2,3955.1 4004.2,3955.1 	"/>
	<rect x="4070.9" y="3029" class="st1" width="100.3" height="967.2"/>
	<g class="st3">
		<polygon class="st4" points="4433,3801.9 4239.8,3995.2 4381.5,3995.2 4433,3943.7 		"/>
		<polygon class="st4" points="4499.7,3877 4599.5,3777.1 4599.5,3635.4 4499.7,3735.3 		"/>
		<path class="st4" d="M5208.6,3026.2l-542.4,542.5v141.7l130.7-130.7l412,0l0,414.8l100.3,0l0-968L5208.6,3026.2z M5208.9,3479.4
			l-311.6,0l311.6-311.6V3479.4z"/>
	</g>
	<g class="st3">
		<polygon class="st4" points="4117.4,3514.2 4117.4,3510.7 4115.7,3512.4 		"/>
		<polygon class="st4" points="4804.6,3649.3 4599.8,3854 4599.8,3170.2 4600.8,3169.2 4599.8,3063.2 4599.8,3028.6 4599.5,3029 
			4599.5,3028.6 4238.7,3389.5 4238.7,3531.3 4499.5,3270.5 4499.5,3896.2 4599.8,3997.7 4599.8,3995.9 4946.4,3649.3 		"/>
	</g>
	<g class="st3">
		<polygon class="st4" points="5900.3,3612.2 5999.1,3513.4 5978.3,3492.6 5900.3,3570.6 		"/>
		<polygon class="st4" points="5900.3,3897.2 5900.3,3997.7 6000.8,3997.7 		"/>
		<polygon class="st4" points="6525,3514.1 6454.1,3443.1 6454.1,3443.2 6331.7,3320.8 6041.6,3030.7 5900.3,3030.7 5900.3,3318.3 
			6000.6,3418.6 6000.6,3131.5 6260.8,3391.7 6383.2,3514.1 6000.6,3896.7 6000.6,3606.2 5900.3,3706.5 5900.3,3802.9 
			6068.2,3970.9 6219.5,3819.7 6219.5,3819.6 6454.1,3585 6454.1,3585 6525,3514.1 6525,3514.1 		"/>
	</g>
	<g class="st3">
		<path class="st4" d="M5373.4,3030.2v967v1l100.2,0v-384l0.1,0.1v-0.1l384.1,384H5999l0.3-0.3l-242.8-242.8l241.7-241.6l0,0l0,0
			l-483.4-483.4L5373.4,3030.2L5373.4,3030.2z M5473.7,3131l382.6,382.6l-170.7,170.7l-211.8-211.8V3131z"/>
	</g>
	<g class="st3">
		<polygon class="st4" points="6692,3172 6971.1,3451.1 6971.1,3309.2 6762.9,3101 6762.9,3101 6692,3030.1 6414.1,3307.9 
			6485.1,3378.9 6485.7,3378.2 6828,3720.5 6692.4,3856.1 6485.5,3649.2 6414.6,3720.1 6621.4,3927 6621.1,3927.4 6692,3998.3 
			6898.9,3791.4 6899.5,3792 6970.4,3721.1 6556.6,3307.3 		"/>
	</g>
	<path class="st1" d="M1489.8,5360.1l-70.9,70.9l0,0l0,0l70.9,70.9l0,0l412.9,412.9l0,0l0,0l412.9-412.9l0,0l70.9-70.9l0,0l0,0
		l-70.9-70.9l0,0l-412.9-412.9l0,0l0,0L1489.8,5360.1L1489.8,5360.1z M1902.7,5089.1l341.9,341.9L1902.7,5773l-341.9-341.9
		L1902.7,5089.1z M1542.4,5649.6l70.9,70.9l-194.3,194.3l0,0l0,0L1006,5502l0,0l-70.9-70.9l0,0l0,0l70.9-70.9l0,0l412.9-412.9l0,0
		l0,0l194.6,194.6l-70.9,70.9l-123.6-123.6L1077,5431.1l341.9,341.9L1542.4,5649.6z M2587.4,5736.6L2587.4,5736.6l-178.1,178.1
		h-141.1v-258.1l100.3-100.3v257.4l382.6-382.6l-122.4-122.4l-260.2-260.2v257.1l-100.3-100.3v-257.6h141.3l290.1,290.1l122.4,122.4
		l0,0l70.9,70.9l0,0l0,0L2822,5502l0,0L2587.4,5736.6z M3539.4,5381.2l48.5,48.5l-51.8,51.8h-455.8L3060,5502l0,0l-113.4,113.4
		l157.6,157.6l136.5-136.5l70.9,70.9l-136.5,136.5l0,0l-70.9,70.9l-228.6-228.6l0,0l-70.9-70.9l34.2-34.2l150.1-150.1l-184.4-184.4
		l21.3-21.2l207.3-207.3l0,0l70.9-70.9l206.6,206.6l-70.9,70.9l-135.6-135.6l-157.6,157.6l113.4,113.4l0,0l21.1,21.1H3539.4z
		 M3680,5479.7v1.9h-1.9L3680,5479.7z"/>
	<polygon class="st1" points="4039.9,5873.1 4039.9,4947.2 3939.6,4947.2 3939.6,5772.8 3806.2,5639.4 3806.3,4948 3705.9,4948 
		3705.9,5539.1 3572.6,5405.8 3572.6,4946.6 3472.3,4946.6 3472.3,5399.4 3472.3,5399.4 3472.3,5447.3 3939.6,5914.6 3939.6,5914.6 
		4039.9,5914.6 4039.9,5873.1 4039.9,5873.1 	"/>
	<rect x="4106.6" y="4947" class="st1" width="100.3" height="967.2"/>
	<g class="st3">
		<polygon class="st4" points="4535.4,5795 4635.2,5695.1 4635.2,5553.4 4535.4,5653.3 		"/>
		<path class="st4" d="M5244.3,4944.2l-542.4,542.5v141.7l130.7-130.7l412,0l0,414.8l100.3,0l0-968L5244.3,4944.2z M5244.6,5397.4
			l-311.6,0l311.6-311.6V5397.4z"/>
	</g>
	<g class="st3">
		<polygon class="st4" points="4153.1,5432.2 4153.1,5428.7 4151.4,5430.4 		"/>
		<polygon class="st4" points="4840.3,5567.3 4635.5,5772 4635.5,5088.2 4636.5,5087.2 4635.5,4981.2 4635.5,4946.6 4635.2,4947 
			4635.2,4946.6 4274.4,5307.5 4274.4,5449.3 4535.2,5188.5 4535.2,5814.2 4635.5,5915.7 4635.5,5913.9 4982.1,5567.3 		"/>
	</g>
	<g class="st3">
		<polygon class="st4" points="5936,5530.2 6034.8,5431.4 6014,5410.6 5936,5488.6 		"/>
		<polygon class="st4" points="5936,5815.2 5936,5915.7 6036.5,5915.7 		"/>
		<polygon class="st4" points="6560.7,5432.1 6489.8,5361.1 6489.8,5361.2 6367.4,5238.8 6077.3,4948.7 5936,4948.7 5936,5236.3 
			6036.3,5336.6 6036.3,5049.5 6296.5,5309.7 6418.9,5432.1 6036.3,5814.7 6036.3,5524.2 5936,5624.5 5936,5720.9 6103.9,5888.9 
			6255.2,5737.7 6255.2,5737.6 6489.8,5503 6489.8,5503 6560.7,5432.1 6560.7,5432.1 		"/>
	</g>
	<g class="st3">
		<path class="st4" d="M5409.1,4948.2v967v1l100.2,0v-384l0.1,0.1v-0.1l384.1,384h141.2l0.3-0.3l-242.8-242.8l241.7-241.6l0,0l0,0
			l-483.4-483.4L5409.1,4948.2L5409.1,4948.2z M5509.4,5049l382.6,382.6l-170.7,170.7l-211.8-211.8V5049z"/>
	</g>
	<g class="st3">
		<polygon class="st4" points="6727.7,5090 7006.8,5369.1 7006.8,5227.2 6798.6,5019 6798.6,5019 6727.7,4948.1 6449.8,5225.9 
			6520.8,5296.9 6521.4,5296.2 6863.7,5638.5 6728.1,5774.1 6521.2,5567.2 6450.3,5638.1 6657.1,5845 6656.8,5845.4 6727.7,5916.3 
			6934.6,5709.4 6935.2,5710 7006.1,5639.1 6592.3,5225.3 		"/>
	</g>
</g>
<g id="Layer_2" class="st0">
	<path class="st1" d="M2311.8,3209.8L2311.8,3209.8L1828,2726l0,0l0,0l-483.8,483.8l0,0l0,0l483.8,483.8l0,0l0,0L2311.8,3209.8
		L2311.8,3209.8z M1828,3551.7l-341.9-341.9l341.9-341.9l341.9,341.9L1828,3551.7z M2818.2,3209.8l-483.6,483.6h-141.1v-258.1
		l100.3-100.3v257.4l382.6-382.6l-382.6-382.6v257.1L2193.5,2984v-257.6h141.3L2818.2,3209.8L2818.2,3209.8L2818.2,3209.8z
		 M3605.3,3260.3h-1.9l1.9-1.9V3260.3z M3864.9,2726l100.3,0l0,967.4l-100.3,0l0,0l-433.1-433.1h-426.1l-133.9,133.8l157.6,157.6
		l136.5-136.5l70.9,70.9l-207.4,207.4L2730,3394.1l184.3-184.3L2730,3025.4l299.5-299.4l206.6,206.6l-70.9,70.9l-135.6-135.6
		l-157.6,157.6l134.5,134.5h391.2v-434.6l100.3,0l0,459.2l133.3,133.3v-591.1h100.3l0,691.4l133.4,133.4V2726z M1467.7,3428.3
		l70.9,70.9l-194.3,194.3l0,0l0,0l-483.8-483.8l0,0l0,0l483.8-483.8l0,0l0,0l194.6,194.6l-70.9,70.9l-123.6-123.6l-341.9,341.9
		l341.9,341.9L1467.7,3428.3z M4627.2,3265.4v141.7l130.7-130.7l412,0l0,414.8l100.3,0l0-968l-100.6-0.3L4627.2,3265.4z
		 M5169.9,3176.1l-311.6,0l311.6-311.6V3176.1z M6486,3210.8l-456.8,456.8l-167.9-167.9v-96.5l100.3-100.3v290.5l382.6-382.6
		l-382.6-382.6v287.1L5861.3,3015v-287.6h141.3L6486,3210.8L6486,3210.8L6486,3210.8z M6653,2868.7L6517.6,3004l413.8,413.8
		L6653,3695l-277.4-278.2l70.9-70.9l206.9,206.9l135.6-135.6l-413.8-412.5l277.9-277.9l279.1,279.2v141.8L6653,2868.7z
		 M5717.5,3451.9l242.6-241.8l-484.3-483.3h-141.3v0v967v1l100.2,0v-384l0.1,0.1v-0.1l384.1,384H5960l0.3-0.3l-0.2-0.2h1.8
		L5717.5,3451.9z M5434.7,3169.1v-341.4l382.6,382.6L5646.6,3381L5434.7,3169.1z M4765.6,3346h141.8l-346.6,346.6v1.8l-100.3-101.5
		l0-625.8L4199.7,3228v-141.8l360.8-360.8l0,0.3l0.3-0.3v825.4L4765.6,3346z M4031.9,2725.7l100.3,0l0,967.2h-100.3V2725.7z
		 M4200.8,3691.9l193.2-193.3v141.7l-51.5,51.5H4200.8z"/>
</g>
<g id="Layer_2_copy" class="st0">
	<g class="st3">
		<path class="st4" d="M2311.8,3209.8L2311.8,3209.8L1828,2726l0,0l0,0l-483.8,483.8l0,0l0,0l483.8,483.8l0,0l0,0L2311.8,3209.8
			L2311.8,3209.8z M1828,3551.7l-341.9-341.9l341.9-341.9l341.9,341.9L1828,3551.7z"/>
		<polygon class="st4" points="3864.9,3551.5 3731.6,3418.1 3731.6,2726.7 3631.3,2726.7 3631.3,3317.8 3497.9,3184.5 
			3497.9,2725.3 3397.6,2725.3 3397.6,3160 3006.4,3160 2871.9,3025.5 3029.5,2867.8 3165.1,3003.5 3236,2932.5 3029.5,2726 
			2730,3025.4 2914.3,3209.8 2730,3394.1 3029.5,3693.6 3236.9,3486.1 3166,3415.2 3029.5,3551.7 2871.9,3394.1 3005.7,3260.3 
			3431.8,3260.3 3864.9,3693.3 3864.9,3693.3 3965.2,3693.3 3965.2,2726 3864.9,2726 		"/>
		<polygon class="st4" points="2818.2,3209.8 2818.2,3209.8 2334.8,2726.4 2193.5,2726.4 2193.5,2984 2293.8,3084.3 2293.8,2827.2 
			2676.4,3209.8 2293.8,3592.3 2293.8,3335 2193.5,3435.3 2193.5,3693.4 2334.6,3693.4 2818.2,3209.8 		"/>
		<polygon class="st4" points="4132.2,2840 4132.2,2725.7 4031.9,2725.7 4031.9,2940.3 		"/>
		<polygon class="st4" points="3605.3,3258.4 3603.4,3260.3 3605.3,3260.3 		"/>
		<polygon class="st4" points="1344.2,3551.7 1002.3,3209.8 1344.2,2867.8 1467.9,2991.5 1538.8,2920.5 1344.2,2726 1344.2,2726 
			1344.2,2726 860.4,3209.8 860.4,3209.8 860.4,3209.8 1344.2,3693.6 1344.2,3693.6 1344.2,3693.6 1538.6,3499.2 1467.7,3428.3 		
			"/>
		<path class="st4" d="M5717.5,3451.9l242.6-241.8l-484.3-483.3h-141.3v0v967v1l100.2,0v-384l0.1,0.1v-0.1l384.1,384H5960l0.3-0.3
			l-0.2-0.2h1.8L5717.5,3451.9z M5434.7,3169.1v-341.4l382.6,382.6L5646.6,3381L5434.7,3169.1z"/>
		<path class="st4" d="M4627.2,3265.4v141.7l130.7-130.7l412,0l0,414.8l100.3,0l0-968l-100.6-0.3L4627.2,3265.4z M5169.9,3176.1
			l-311.6,0l311.6-311.6V3176.1z"/>
		<polygon class="st4" points="6932.1,3147.8 6932.1,3006 6653,2726.8 6375.1,3004.6 6789,3417.2 6653.4,3552.8 6446.5,3345.9 
			6375.6,3416.8 6653,3695 6931.4,3417.8 6517.6,3004 6653,2868.7 		"/>
		<polygon class="st4" points="4031.9,3034.6 4031.9,3692.9 4132.2,3692.9 4132.2,2934.3 		"/>
		<polygon class="st4" points="6486,3210.8 6486,3210.8 6002.6,2727.4 5861.3,2727.4 5861.3,3015 5961.6,3115.3 5961.6,2828.2 
			6344.2,3210.8 5961.6,3593.4 5961.6,3302.9 5861.3,3403.2 5861.3,3499.6 6029.2,3667.6 6486,3210.8 		"/>
		<polygon class="st4" points="4342.5,3691.9 4394,3640.4 4394,3498.6 4200.8,3691.9 		"/>
		<polygon class="st4" points="4560.8,3550.8 4560.8,2725.3 4560.5,2725.7 4560.5,2725.3 4199.7,3086.2 4199.7,3228 4460.5,2967.2 
			4460.5,3592.9 4560.8,3694.4 4560.8,3692.6 4907.4,3346 4765.6,3346 		"/>
	</g>
</g>
<g id="Layer_2_copy_2">
	<rect width="7756" height="6423.6"/>
	<g>
		<path class="st5" d="M2311.8,3209.8L2311.8,3209.8L1828,2726l0,0l0,0l-483.8,483.8l0,0l0,0l483.8,483.8l0,0l0,0L2311.8,3209.8
			L2311.8,3209.8z M1828,3551.7l-341.9-341.9l341.9-341.9l341.9,341.9L1828,3551.7z"/>
		<polygon class="st5" points="3864.9,3551.5 3731.6,3418.1 3731.6,2726.7 3631.3,2726.7 3631.3,3317.8 3497.9,3184.5 
			3497.9,2725.3 3397.6,2725.3 3397.6,3160 3006.4,3160 2871.9,3025.5 3029.5,2867.8 3165.1,3003.5 3236,2932.5 3029.5,2726 
			2730,3025.4 2914.3,3209.8 2730,3394.1 3029.5,3693.6 3236.9,3486.1 3166,3415.2 3029.5,3551.7 2871.9,3394.1 3005.7,3260.3 
			3431.8,3260.3 3864.9,3693.3 3864.9,3693.3 3965.2,3693.3 3965.2,2726 3864.9,2726 		"/>
		<polygon class="st5" points="2818.2,3209.8 2818.2,3209.8 2334.8,2726.4 2193.5,2726.4 2193.5,2984 2293.8,3084.3 2293.8,2827.2 
			2676.4,3209.8 2293.8,3592.3 2293.8,3335 2193.5,3435.3 2193.5,3693.4 2334.6,3693.4 2818.2,3209.8 		"/>
		<polygon class="st5" points="4132.2,2840 4132.2,2725.7 4031.9,2725.7 4031.9,2940.3 		"/>
		<polygon class="st5" points="3605.3,3258.4 3603.4,3260.3 3605.3,3260.3 		"/>
		<polygon class="st5" points="1344.2,3551.7 1002.3,3209.8 1344.2,2867.8 1467.9,2991.5 1538.8,2920.5 1344.2,2726 1344.2,2726 
			1344.2,2726 860.4,3209.8 860.4,3209.8 860.4,3209.8 1344.2,3693.6 1344.2,3693.6 1344.2,3693.6 1538.6,3499.2 1467.7,3428.3 		
			"/>
		<path class="st5" d="M5717.5,3451.9l242.6-241.8l-484.3-483.3h-141.3v0v967v1l100.2,0v-384l0.1,0.1v-0.1l384.1,384H5960l0.3-0.3
			l-0.2-0.2h1.8L5717.5,3451.9z M5434.7,3169.1v-341.4l382.6,382.6L5646.6,3381L5434.7,3169.1z"/>
		<path class="st5" d="M4627.2,3265.4v141.7l130.7-130.7l412,0l0,414.8l100.3,0l0-968l-100.6-0.3L4627.2,3265.4z M5169.9,3176.1
			l-311.6,0l311.6-311.6V3176.1z"/>
		<polygon class="st5" points="6932.1,3147.8 6932.1,3006 6653,2726.8 6375.1,3004.6 6789,3417.2 6653.4,3552.8 6446.5,3345.9 
			6375.6,3416.8 6653,3695 6931.4,3417.8 6517.6,3004 6653,2868.7 		"/>
		<polygon class="st5" points="4031.9,3034.6 4031.9,3692.9 4132.2,3692.9 4132.2,2934.3 		"/>
		<polygon class="st5" points="6486,3210.8 6486,3210.8 6002.6,2727.4 5861.3,2727.4 5861.3,3015 5961.6,3115.3 5961.6,2828.2 
			6344.2,3210.8 5961.6,3593.4 5961.6,3302.9 5861.3,3403.2 5861.3,3499.6 6029.2,3667.6 6486,3210.8 		"/>
		<polygon class="st5" points="4342.5,3691.9 4394,3640.4 4394,3498.6 4200.8,3691.9 		"/>
		<polygon class="st5" points="4560.8,3550.8 4560.8,2725.3 4560.5,2725.7 4560.5,2725.3 4199.7,3086.2 4199.7,3228 4460.5,2967.2 
			4460.5,3592.9 4560.8,3694.4 4560.8,3692.6 4907.4,3346 4765.6,3346 		"/>
	</g>
</g>
<g id="Layer_2_copy_3" class="st0">
	<rect class="st3" width="7756" height="6423.6"/>
	<g class="st3">
		<linearGradient id="SVGID_1_" gradientUnits="userSpaceOnUse" x1="1828.0376" y1="3693.5498" x2="1828.0376" y2="2725.9736">
			<stop  offset="0" style="stop-color:#FFFFFF"/>
			<stop  offset="0.3436" style="stop-color:#D4DFCD"/>
			<stop  offset="0.4908" style="stop-color:#875139"/>
			<stop  offset="0.5583" style="stop-color:#201011"/>
			<stop  offset="0.7055" style="stop-color:#CFCEDB"/>
			<stop  offset="0.908" style="stop-color:#6D87B3"/>
		</linearGradient>
		<path class="st6" d="M2311.8,3209.8L2311.8,3209.8L1828,2726l0,0l0,0l-483.8,483.8l0,0l0,0l483.8,483.8l0,0l0,0L2311.8,3209.8
			L2311.8,3209.8z M1828,3551.7l-341.9-341.9l341.9-341.9l341.9,341.9L1828,3551.7z"/>
		<linearGradient id="SVGID_2_" gradientUnits="userSpaceOnUse" x1="3347.5911" y1="3693.5615" x2="3347.5911" y2="2725.3418">
			<stop  offset="0" style="stop-color:#FFFFFF"/>
			<stop  offset="0.3436" style="stop-color:#D4DFCD"/>
			<stop  offset="0.4908" style="stop-color:#875139"/>
			<stop  offset="0.5583" style="stop-color:#201011"/>
			<stop  offset="0.7055" style="stop-color:#CFCEDB"/>
			<stop  offset="0.908" style="stop-color:#6D87B3"/>
		</linearGradient>
		<polygon class="st7" points="3864.9,3551.5 3731.6,3418.1 3731.6,2726.7 3631.3,2726.7 3631.3,3317.8 3497.9,3184.5 
			3497.9,2725.3 3397.6,2725.3 3397.6,3160 3006.4,3160 2871.9,3025.5 3029.5,2867.8 3165.1,3003.5 3236,2932.5 3029.5,2726 
			2730,3025.4 2914.3,3209.8 2730,3394.1 3029.5,3693.6 3236.9,3486.1 3166,3415.2 3029.5,3551.7 2871.9,3394.1 3005.7,3260.3 
			3431.8,3260.3 3864.9,3693.3 3864.9,3693.3 3965.2,3693.3 3965.2,2726 3864.9,2726 		"/>
		<linearGradient id="SVGID_3_" gradientUnits="userSpaceOnUse" x1="2505.855" y1="3693.4102" x2="2505.855" y2="2726.3877">
			<stop  offset="0" style="stop-color:#FFFFFF"/>
			<stop  offset="0.3436" style="stop-color:#D4DFCD"/>
			<stop  offset="0.4908" style="stop-color:#875139"/>
			<stop  offset="0.5583" style="stop-color:#201011"/>
			<stop  offset="0.7055" style="stop-color:#CFCEDB"/>
			<stop  offset="0.908" style="stop-color:#6D87B3"/>
		</linearGradient>
		<polygon class="st8" points="2818.2,3209.8 2818.2,3209.8 2334.8,2726.4 2193.5,2726.4 2193.5,2984 2293.8,3084.3 2293.8,2827.2 
			2676.4,3209.8 2293.8,3592.3 2293.8,3335 2193.5,3435.3 2193.5,3693.4 2334.6,3693.4 2818.2,3209.8 		"/>
		<linearGradient id="SVGID_4_" gradientUnits="userSpaceOnUse" x1="4082.0356" y1="2940.2979" x2="4082.0356" y2="2725.7373">
			<stop  offset="0" style="stop-color:#FFFFFF"/>
			<stop  offset="0.3436" style="stop-color:#D4DFCD"/>
			<stop  offset="0.4908" style="stop-color:#875139"/>
			<stop  offset="0.5583" style="stop-color:#201011"/>
			<stop  offset="0.7055" style="stop-color:#CFCEDB"/>
			<stop  offset="0.908" style="stop-color:#6D87B3"/>
		</linearGradient>
		<polygon class="st9" points="4031.9,2940.3 4132.2,2840 4132.2,2725.7 4031.9,2725.7 		"/>
		<linearGradient id="SVGID_5_" gradientUnits="userSpaceOnUse" x1="3604.3628" y1="3260.2549" x2="3604.3628" y2="3258.377">
			<stop  offset="0" style="stop-color:#FFFFFF"/>
			<stop  offset="0.3436" style="stop-color:#D4DFCD"/>
			<stop  offset="0.4908" style="stop-color:#875139"/>
			<stop  offset="0.5583" style="stop-color:#201011"/>
			<stop  offset="0.7055" style="stop-color:#CFCEDB"/>
			<stop  offset="0.908" style="stop-color:#6D87B3"/>
		</linearGradient>
		<polygon class="st10" points="3605.3,3258.4 3603.4,3260.3 3605.3,3260.3 		"/>
		<linearGradient id="SVGID_6_" gradientUnits="userSpaceOnUse" x1="1199.5989" y1="3693.5615" x2="1199.5989" y2="2725.9854">
			<stop  offset="0" style="stop-color:#FFFFFF"/>
			<stop  offset="0.3436" style="stop-color:#D4DFCD"/>
			<stop  offset="0.4908" style="stop-color:#875139"/>
			<stop  offset="0.5583" style="stop-color:#201011"/>
			<stop  offset="0.7055" style="stop-color:#CFCEDB"/>
			<stop  offset="0.908" style="stop-color:#6D87B3"/>
		</linearGradient>
		<polygon class="st11" points="1344.2,3551.7 1002.3,3209.8 1344.2,2867.8 1467.9,2991.5 1538.8,2920.5 1344.2,2726 1344.2,2726 
			1344.2,2726 860.4,3209.8 860.4,3209.8 860.4,3209.8 1344.2,3693.6 1344.2,3693.6 1344.2,3693.6 1538.6,3499.2 1467.7,3428.3 		
			"/>
		<linearGradient id="SVGID_7_" gradientUnits="userSpaceOnUse" x1="5648.1084" y1="3694.9189" x2="5648.1084" y2="2726.8604">
			<stop  offset="0" style="stop-color:#FFFFFF"/>
			<stop  offset="0.3436" style="stop-color:#D4DFCD"/>
			<stop  offset="0.4908" style="stop-color:#875139"/>
			<stop  offset="0.5583" style="stop-color:#201011"/>
			<stop  offset="0.7055" style="stop-color:#CFCEDB"/>
			<stop  offset="0.908" style="stop-color:#6D87B3"/>
		</linearGradient>
		<path class="st12" d="M5717.5,3451.9l242.6-241.8l-484.3-483.3h-141.3v0v967v1l100.2,0v-384l0.1,0.1v-0.1l384.1,384H5960l0.3-0.3
			l-0.2-0.2h1.8L5717.5,3451.9z M5434.7,3169.1v-341.4l382.6,382.6L5646.6,3381L5434.7,3169.1z"/>
		<linearGradient id="SVGID_8_" gradientUnits="userSpaceOnUse" x1="4948.6963" y1="3691.1826" x2="4948.6963" y2="2722.8867">
			<stop  offset="0" style="stop-color:#FFFFFF"/>
			<stop  offset="0.3436" style="stop-color:#D4DFCD"/>
			<stop  offset="0.4908" style="stop-color:#875139"/>
			<stop  offset="0.5583" style="stop-color:#201011"/>
			<stop  offset="0.7055" style="stop-color:#CFCEDB"/>
			<stop  offset="0.908" style="stop-color:#6D87B3"/>
		</linearGradient>
		<path class="st13" d="M4627.2,3265.4v141.7l130.7-130.7l412,0l0,414.8l100.3,0l0-968l-100.6-0.3L4627.2,3265.4z M5169.9,3176.1
			l-311.6,0l311.6-311.6V3176.1z"/>
		<linearGradient id="SVGID_9_" gradientUnits="userSpaceOnUse" x1="6653.6177" y1="3695" x2="6653.6177" y2="2726.7793">
			<stop  offset="0" style="stop-color:#FFFFFF"/>
			<stop  offset="0.3436" style="stop-color:#D4DFCD"/>
			<stop  offset="0.4908" style="stop-color:#875139"/>
			<stop  offset="0.5583" style="stop-color:#201011"/>
			<stop  offset="0.7055" style="stop-color:#CFCEDB"/>
			<stop  offset="0.908" style="stop-color:#6D87B3"/>
		</linearGradient>
		<polygon class="st14" points="6932.1,3147.8 6932.1,3006 6653,2726.8 6375.1,3004.6 6789,3417.2 6653.4,3552.8 6446.5,3345.9 
			6375.6,3416.8 6653,3695 6931.4,3417.8 6517.6,3004 6653,2868.7 		"/>
		<linearGradient id="SVGID_10_" gradientUnits="userSpaceOnUse" x1="4082.0356" y1="3692.9482" x2="4082.0356" y2="2934.2773">
			<stop  offset="0" style="stop-color:#FFFFFF"/>
			<stop  offset="0.3436" style="stop-color:#D4DFCD"/>
			<stop  offset="0.4908" style="stop-color:#875139"/>
			<stop  offset="0.5583" style="stop-color:#201011"/>
			<stop  offset="0.7055" style="stop-color:#CFCEDB"/>
			<stop  offset="0.908" style="stop-color:#6D87B3"/>
		</linearGradient>
		<polygon class="st15" points="4031.9,3692.9 4132.2,3692.9 4132.2,2934.3 4031.9,3034.6 		"/>
		<linearGradient id="SVGID_11_" gradientUnits="userSpaceOnUse" x1="6173.6572" y1="3667.5908" x2="6173.6572" y2="2727.4072">
			<stop  offset="0" style="stop-color:#FFFFFF"/>
			<stop  offset="0.3436" style="stop-color:#D4DFCD"/>
			<stop  offset="0.4908" style="stop-color:#875139"/>
			<stop  offset="0.5583" style="stop-color:#201011"/>
			<stop  offset="0.7055" style="stop-color:#CFCEDB"/>
			<stop  offset="0.908" style="stop-color:#6D87B3"/>
		</linearGradient>
		<polygon class="st16" points="6486,3210.8 6486,3210.8 6002.6,2727.4 5861.3,2727.4 5861.3,3015 5961.6,3115.3 5961.6,2828.2 
			6344.2,3210.8 5961.6,3593.4 5961.6,3302.9 5861.3,3403.2 5861.3,3499.6 6029.2,3667.6 6486,3210.8 		"/>
		<linearGradient id="SVGID_12_" gradientUnits="userSpaceOnUse" x1="4297.4209" y1="3691.9248" x2="4297.4209" y2="3498.6494">
			<stop  offset="0" style="stop-color:#FFFFFF"/>
			<stop  offset="0.3436" style="stop-color:#D4DFCD"/>
			<stop  offset="0.4908" style="stop-color:#875139"/>
			<stop  offset="0.5583" style="stop-color:#201011"/>
			<stop  offset="0.7055" style="stop-color:#CFCEDB"/>
			<stop  offset="0.908" style="stop-color:#6D87B3"/>
		</linearGradient>
		<polygon class="st17" points="4342.5,3691.9 4394,3640.4 4394,3498.6 4200.8,3691.9 		"/>
		<linearGradient id="SVGID_13_" gradientUnits="userSpaceOnUse" x1="4553.5439" y1="3694.4482" x2="4553.5439" y2="2725.3389">
			<stop  offset="0" style="stop-color:#FFFFFF"/>
			<stop  offset="0.3436" style="stop-color:#D4DFCD"/>
			<stop  offset="0.4908" style="stop-color:#875139"/>
			<stop  offset="0.5583" style="stop-color:#201011"/>
			<stop  offset="0.7055" style="stop-color:#CFCEDB"/>
			<stop  offset="0.908" style="stop-color:#6D87B3"/>
		</linearGradient>
		<polygon class="st18" points="4560.8,3550.8 4560.8,2725.3 4560.5,2725.7 4560.5,2725.3 4199.7,3086.2 4199.7,3228 4460.5,2967.2 
			4460.5,3592.9 4560.8,3694.4 4560.8,3692.6 4907.4,3346 4765.6,3346 		"/>
	</g>
	<g class="st3">
		<g>
			<defs>
				<rect id="SVGID_14_" x="-687" y="701.3" width="600" height="337"/>
			</defs>
			<clipPath id="SVGID_15_">
				<use xlink:href="#SVGID_14_"  style="overflow:visible;"/>
			</clipPath>
			<g style="clip-path:url(#SVGID_15_);">
				
					<image style="overflow:visible;" width="600" height="337" xlink:href="E9707241.jpg"  transform="matrix(1 0 0 1 -686.9932 701.291)">
				</image>
			</g>
		</g>
	</g>
	<rect x="-687" y="1082.6" class="st19" width="600" height="600"/>
	<rect x="-686.5" y="1184.1" class="st20" width="600" height="600"/>
	<rect x="-687" y="1307.1" class="st21" width="600" height="600"/>
	<rect x="-686.5" y="1423.1" class="st22" width="600" height="600"/>
	<rect x="-686.5" y="1548.1" class="st23" width="600" height="600"/>
</g>
</svg>
