<?xml version="1.0" encoding="utf-8"?>
<!-- Generator: Adobe Illustrator 23.0.1, SVG Export Plug-In . SVG Version: 6.00 Build 0)  -->
<svg version="1.1" id="Layer_1" xmlns="http://www.w3.org/2000/svg" xmlns:xlink="http://www.w3.org/1999/xlink" x="0px" y="0px"
	 viewBox="0 0 100 100" style="enable-background:new 0 0 100 100;" xml:space="preserve">
<style type="text/css">
	.st0{display:none;}
</style>
<g id="henley-e4ab9f40bb_1_">
	<g>
		<g id="Henley_1_">
			<g id="henley_1_" transform="translate(0.000000, 25.000000)">
				<g id="Page-1_1_">
					<g id="Artboard_1_">
						<path id="Shape_1_" class="st0" d="M16.1,19H14c-2.8,0-7.1,0.1-7.1,0.1l-0.1,3.5v0.1c0.1,0.8,0.5,2.4,1.7,4L8.7,27
							c0,0,0.9,1,2.2,2c0.7,0.5,2,1.5,2.7,1.9l0.4,0.3c1.2,0.7,2,1.1,2.2,1.2c0.2-0.1,1-0.4,2.2-1.2c0,0,0.1-0.1,0.3-0.2
							c0.5-0.4,1.7-1.2,2.7-1.9c1.5-1,2.3-2,2.3-2c0.1-0.1,0.1-0.1,0.2-0.3c1.3-1.7,1.6-3.2,1.7-4v-0.1l0.1-3.5c0,0-4.4-0.1-7.1-0.1
							L16.1,19L16.1,19z M25.5,18.7V8.8c0-0.1-0.1-0.3-0.4-0.4c0,0-2-0.2-8.9-0.2h-0.1c-6.2,0-8.3,0.2-8.8,0.3
							C7.1,8.5,7,8.7,6.9,8.8c0,0,0,5.9-0.1,9.9c0.9-0.1,3.5-0.1,9.4-0.1C22,18.6,24.6,18.7,25.5,18.7L25.5,18.7z"/>
						<path class="st0" d="M25,22.4c-0.1,0.3-0.3,0.4-0.6,0.4c-0.3,0-0.5-0.2-0.6-0.4c-0.1,0.3-0.3,0.4-0.6,0.4
							c-0.3,0-0.5-0.2-0.6-0.4c-0.1,0.3-0.3,0.4-0.6,0.4s-0.5-0.2-0.6-0.4c-0.1,0.3-0.3,0.4-0.6,0.4c-0.3,0-0.5-0.2-0.6-0.4
							c-0.1,0.3-0.3,0.4-0.6,0.4c-0.3,0-0.5-0.2-0.6-0.4c-0.1,0.3-0.3,0.4-0.6,0.4c-0.3,0-0.6-0.3-0.6-0.6c0-0.3,0.2-0.5,0.4-0.6
							c-0.3-0.1-0.4-0.3-0.4-0.6c0-0.3,0.2-0.5,0.4-0.6c-0.3-0.1-0.4-0.3-0.4-0.6c0-0.3,0.2-0.5,0.4-0.6c-0.1-0.1-0.3-0.1-0.4-0.3
							V19h-4.2c-2.6,0.1-7,0.2-7,0.2l-0.1,3.5v0.1c0.1,0.8,0.5,2.4,1.7,4L8.7,27c0,0,0.9,1,2.2,2c0.7,0.5,2,1.5,2.7,1.9l0.4,0.3
							c1.2,0.7,2,1.1,2.2,1.2c0.2-0.1,1-0.4,2.2-1.2c0,0,0.1-0.1,0.3-0.2c0.5-0.4,1.7-1.2,2.7-1.9c1.5-1,2.3-2,2.3-2
							c0.1-0.1,0.1-0.1,0.2-0.3c1.3-1.7,1.6-3.2,1.7-4C25.3,22.8,25.1,22.6,25,22.4L25,22.4z M25.5,18.7V8.8c0-0.1-0.1-0.3-0.4-0.4
							c0,0-2-0.2-8.9-0.2h-0.1c-6.2,0-8.3,0.2-8.8,0.3C7.1,8.5,7,8.7,6.9,8.8c0,0,0,5.9-0.1,9.9c0.9-0.1,3.5-0.1,9.4-0.1
							C22,18.6,24.6,18.7,25.5,18.7L25.5,18.7z"/>
						<path class="st0" d="M18.3,19.1h-4.2v0.1c-0.1,0.1-0.2,0.3-0.4,0.3c0.3,0.1,0.4,0.3,0.4,0.6c0,0.3-0.2,0.5-0.4,0.6
							c0.3,0.1,0.4,0.3,0.4,0.6c0,0.3-0.2,0.5-0.4,0.6c0.3,0.1,0.4,0.3,0.4,0.6c0,0.3-0.3,0.6-0.6,0.6c-0.3,0-0.5-0.2-0.6-0.4
							c-0.1,0.3-0.3,0.4-0.6,0.4c-0.3,0-0.5-0.2-0.6-0.4c-0.1,0.3-0.3,0.4-0.6,0.4s-0.5-0.2-0.6-0.4c-0.1,0.3-0.3,0.4-0.6,0.4
							c-0.3,0-0.4-0.3-0.5-0.5c-0.1,0.3-0.3,0.4-0.6,0.4c-0.3,0-0.5-0.2-0.6-0.4c-0.1,0.3-0.3,0.4-0.6,0.4s-0.5-0.2-0.6-0.4
							c-0.1,0.2-0.3,0.4-0.4,0.4c0.1,0.8,0.4,2.4,1.7,4c0.1-0.2,0.3-0.3,0.5-0.3c0.3,0,0.5,0.2,0.6,0.4c0.1-0.3,0.3-0.4,0.6-0.4
							s0.5,0.2,0.6,0.4c0.1-0.3,0.3-0.4,0.6-0.4c0.3,0,0.5,0.2,0.6,0.4c0.1-0.3,0.3-0.4,0.6-0.4c0.3,0,0.5,0.2,0.6,0.4
							c0.1-0.3,0.3-0.4,0.6-0.4c0.3,0,0.6,0.3,0.6,0.6c0,0.3-0.2,0.5-0.4,0.6c0.3,0.1,0.4,0.3,0.4,0.6c0,0.3-0.2,0.5-0.4,0.6
							c0.3,0.1,0.4,0.3,0.4,0.6s-0.2,0.5-0.4,0.6c0.3,0.1,0.4,0.3,0.4,0.6c0,0.3-0.2,0.5-0.4,0.6c0.2,0.1,0.3,0.2,0.3,0.2
							c1.2,0.7,2,1.1,2.2,1.2c0.2-0.1,1-0.4,2.2-1.2c0,0,0.1-0.1,0.3-0.1c-0.3-0.1-0.4-0.3-0.4-0.6c0-0.3,0.2-0.5,0.4-0.6
							c-0.3-0.1-0.4-0.3-0.4-0.6s0.2-0.5,0.4-0.6c-0.3-0.1-0.4-0.3-0.4-0.6c0-0.3,0.2-0.5,0.4-0.6c-0.3-0.1-0.4-0.3-0.4-0.6
							c0-0.3,0.3-0.6,0.6-0.6c0.3,0,0.5,0.2,0.6,0.4c0.1-0.3,0.3-0.4,0.6-0.4s0.5,0.2,0.6,0.4c0.1-0.3,0.3-0.4,0.6-0.4
							c0.3,0,0.5,0.2,0.6,0.4c0.1-0.3,0.3-0.4,0.6-0.4c0.3,0,0.5,0.2,0.6,0.4c0.1-0.3,0.3-0.4,0.6-0.4c0.2,0,0.4,0.1,0.5,0.3
							c1.3-1.7,1.6-3.2,1.7-4v-0.1l0.1-3.5c0,0-4.4-0.1-7.1-0.1C18.3,19.1,18.3,19.1,18.3,19.1L18.3,19.1z M25.5,8.8
							c0-0.1-0.1-0.3-0.4-0.4c0,0-2-0.2-8.9-0.2h-0.1c-6.2,0-8.3,0.2-8.8,0.3C7.1,8.5,7,8.7,6.9,8.8c0,0,0,5.9-0.1,9.9
							c0.9-0.1,3.5-0.1,9.4-0.1c5.7,0,8.3,0.1,9.2,0.1L25.5,8.8L25.5,8.8z"/>
						<path class="st0" d="M9,22.8c0.3,0,0.5-0.2,0.6-0.4c0.1,0.3,0.3,0.4,0.6,0.4s0.5-0.2,0.6-0.4c0.1,0.3,0.3,0.4,0.6,0.4
							c0.3,0,0.5-0.2,0.6-0.4c0.1,0.3,0.3,0.4,0.6,0.4c0.3,0,0.5-0.2,0.6-0.4c0.1,0.3,0.3,0.4,0.6,0.4c0.3,0,0.6-0.3,0.6-0.6
							c0-0.3-0.2-0.5-0.4-0.6c0.3-0.1,0.4-0.3,0.4-0.6c0-0.3-0.2-0.5-0.4-0.6c0.3-0.1,0.4-0.3,0.4-0.6c0-0.3-0.2-0.5-0.4-0.6
							c0.2-0.1,0.3-0.1,0.4-0.3V19h-0.1c-2.9,0.1-7.2,0.2-7.2,0.2l-0.1,3.5v0.1c0.3-0.1,0.4-0.3,0.4-0.4c0.1,0.3,0.3,0.4,0.6,0.4
							c0.3,0,0.5-0.2,0.6-0.4C8.5,22.6,8.7,22.8,9,22.8L9,22.8z M23.3,26.5c-0.3,0-0.5,0.2-0.6,0.4c-0.1-0.3-0.3-0.4-0.6-0.4
							c-0.3,0-0.5,0.2-0.6,0.4c-0.1-0.3-0.3-0.4-0.6-0.4s-0.5,0.2-0.6,0.4c-0.1-0.3-0.3-0.4-0.6-0.4c-0.3,0-0.5,0.2-0.6,0.4
							c-0.1-0.3-0.3-0.4-0.6-0.4c-0.3,0-0.6,0.3-0.6,0.6c0,0.3,0.2,0.5,0.4,0.6c-0.3,0.1-0.4,0.3-0.4,0.6c0,0.3,0.2,0.5,0.4,0.6
							c-0.3,0.1-0.4,0.3-0.4,0.6s0.2,0.5,0.4,0.6c-0.3,0.1-0.4,0.3-0.4,0.6c0,0.3,0.1,0.4,0.4,0.6l0.1-0.1c0.5-0.4,1.7-1.2,2.7-1.9
							c1.5-1,2.3-2,2.3-2c0.1-0.1,0.1-0.1,0.2-0.3c0,0,0-0.1,0.1-0.1C23.7,26.6,23.6,26.5,23.3,26.5L23.3,26.5z M14.1,27
							c0-0.3-0.3-0.6-0.6-0.6c-0.3,0-0.5,0.2-0.6,0.4c-0.1-0.3-0.3-0.4-0.6-0.4s-0.5,0.2-0.6,0.4c-0.1-0.3-0.3-0.4-0.6-0.4
							c-0.3,0-0.5,0.2-0.6,0.4c-0.1-0.3-0.3-0.4-0.6-0.4c-0.3,0-0.4,0.2-0.5,0.5c-0.1-0.3-0.3-0.4-0.6-0.4c-0.2,0-0.4,0.1-0.5,0.3
							c0,0,0,0.1,0.1,0.1l0.2,0.2c0,0,0.9,1,2.2,2c0.7,0.5,2,1.5,2.7,1.9c0.1,0,0.1,0.1,0.1,0.1c0.3-0.1,0.4-0.3,0.4-0.6
							c0-0.3-0.2-0.5-0.4-0.6c0.3-0.1,0.4-0.3,0.4-0.6s-0.2-0.5-0.4-0.6c0.3-0.1,0.4-0.3,0.4-0.6c0-0.3-0.2-0.5-0.4-0.6
							C14,27.5,14.1,27.3,14.1,27L14.1,27z M25.5,18.7V8.8c0-0.1-0.1-0.3-0.4-0.4c0,0-2-0.2-8.9-0.2h-0.1c-6.2,0-8.3,0.2-8.8,0.3
							C7.1,8.5,7,8.7,6.9,8.8c0,0,0,5.9-0.1,9.9c0.9-0.1,3.5-0.1,9.4-0.1C22,18.6,24.6,18.7,25.5,18.7L25.5,18.7z M18.3,19.1
							c0.1,0.2,0.3,0.3,0.4,0.3c-0.3,0.1-0.4,0.3-0.4,0.6s0.2,0.5,0.4,0.6c-0.3,0.1-0.4,0.3-0.4,0.6s0.2,0.5,0.4,0.6
							c-0.3,0.1-0.4,0.3-0.4,0.6c0,0.3,0.3,0.6,0.6,0.6c0.3,0,0.5-0.2,0.6-0.4c0.1,0.3,0.3,0.4,0.6,0.4s0.5-0.2,0.6-0.4
							c0.1,0.3,0.3,0.4,0.6,0.4c0.3,0,0.5-0.2,0.6-0.4c0.1,0.3,0.3,0.4,0.6,0.4c0.3,0,0.5-0.2,0.6-0.4c0.1,0.3,0.3,0.4,0.6,0.4
							c0.3,0,0.5-0.2,0.6-0.4c0.1,0.3,0.3,0.4,0.6,0.4s0.5-0.2,0.6-0.4c0.1,0.3,0.2,0.4,0.4,0.4v-0.1l0.1-3.5c0,0-4.4-0.1-7.1-0.1
							L18.3,19.1L18.3,19.1z"/>
						<path class="st0" d="M9,22.8c0.3,0,0.5-0.2,0.6-0.4c0.1,0.3,0.3,0.4,0.6,0.4s0.5-0.2,0.6-0.4c0.1,0.3,0.3,0.4,0.6,0.4
							c0.3,0,0.5-0.2,0.6-0.4c0.1,0.3,0.3,0.4,0.6,0.4c0.3,0,0.5-0.2,0.6-0.4c0.1,0.3,0.3,0.4,0.6,0.4c0.3,0,0.6-0.3,0.6-0.6
							c0-0.3-0.2-0.5-0.4-0.6c0.3-0.1,0.4-0.3,0.4-0.6c0-0.3-0.2-0.5-0.4-0.6c0.3-0.1,0.4-0.3,0.4-0.6c0-0.3-0.2-0.5-0.4-0.6
							c0.2-0.1,0.3-0.1,0.4-0.3V19h-0.1c-2.9,0.1-7.2,0.2-7.2,0.2l-0.1,3.5v0.1c0.3-0.1,0.4-0.3,0.4-0.4c0.1,0.3,0.3,0.4,0.6,0.4
							c0.3,0,0.5-0.2,0.6-0.4C8.5,22.6,8.7,22.8,9,22.8L9,22.8z M13.1,23.1c0,0.1,0.6,0.4,0.8,0.8c0.1-0.1,0.2-0.3,0.3-0.3
							c0.1,0,0.1-0.1,0.2-0.1c-0.1-0.1-0.1-0.1-0.1-0.1c-0.1-0.1-0.1-0.2-0.1-0.3V23C13.9,23.2,13.1,23.1,13.1,23.1L13.1,23.1z
							 M18,23.6c0.1,0,0.1,0.1,0.2,0.1c0.1,0.1,0.3,0.2,0.3,0.3c0.1-0.4,0.8-0.8,0.8-0.8c0-0.1-0.7,0.1-1.1-0.2v0.1
							c0,0.1,0,0.2-0.1,0.3L18,23.6z M25.5,18.7V8.8c0-0.1-0.1-0.3-0.4-0.4c0,0-2-0.2-8.9-0.2h-0.1c-6.2,0-8.3,0.2-8.8,0.3
							C7.1,8.5,7,8.7,6.9,8.8c0,0,0,5.9-0.1,9.9c0.9-0.1,3.5-0.1,9.4-0.1C22,18.6,24.6,18.7,25.5,18.7L25.5,18.7z M14.1,27
							c0-0.3-0.3-0.6-0.6-0.6c-0.3,0-0.5,0.2-0.6,0.4c-0.1-0.3-0.3-0.4-0.6-0.4s-0.5,0.2-0.6,0.4c-0.1-0.3-0.3-0.4-0.6-0.4
							c-0.3,0-0.5,0.2-0.6,0.4c-0.1-0.3-0.3-0.4-0.6-0.4c-0.3,0-0.4,0.2-0.5,0.5c-0.1-0.3-0.3-0.4-0.6-0.4c-0.2,0-0.4,0.1-0.5,0.3
							c0,0,0,0.1,0.1,0.1l0.2,0.2c0,0,0.9,1,2.2,2c0.7,0.5,2,1.5,2.7,1.9c0.1,0,0.1,0.1,0.1,0.1c0.3-0.1,0.4-0.3,0.4-0.6
							c0-0.3-0.2-0.5-0.4-0.6c0.3-0.1,0.4-0.3,0.4-0.6s-0.2-0.5-0.4-0.6c0.3-0.1,0.4-0.3,0.4-0.6c0-0.3-0.2-0.5-0.4-0.6
							C14,27.5,14.1,27.3,14.1,27L14.1,27z M16.2,21c-0.1,0-0.2,0.7-0.5,1c0.1,0,0.3,0.1,0.4,0.2l0.1,0.1c0.1-0.1,0.1-0.1,0.1-0.1
							c0.1-0.1,0.3-0.2,0.4-0.2C16.4,21.7,16.2,21,16.2,21L16.2,21z M23.3,26.5c-0.3,0-0.5,0.2-0.6,0.4c-0.1-0.3-0.3-0.4-0.6-0.4
							c-0.3,0-0.5,0.2-0.6,0.4c-0.1-0.3-0.3-0.4-0.6-0.4s-0.5,0.2-0.6,0.4c-0.1-0.3-0.3-0.4-0.6-0.4c-0.3,0-0.5,0.2-0.6,0.4
							c-0.1-0.3-0.3-0.4-0.6-0.4c-0.3,0-0.6,0.3-0.6,0.6c0,0.3,0.2,0.5,0.4,0.6c-0.3,0.1-0.4,0.3-0.4,0.6c0,0.3,0.2,0.5,0.4,0.6
							c-0.3,0.1-0.4,0.3-0.4,0.6s0.2,0.5,0.4,0.6c-0.3,0.1-0.4,0.3-0.4,0.6c0,0.3,0.1,0.4,0.4,0.6l0.1-0.1c0.5-0.4,1.7-1.2,2.7-1.9
							c1.5-1,2.3-2,2.3-2c0.1-0.1,0.1-0.1,0.2-0.3c0,0,0-0.1,0.1-0.1C23.7,26.6,23.6,26.5,23.3,26.5L23.3,26.5z M17.9,25.7
							c-0.1,0.1-0.3,0.1-0.4,0.1c-0.1,0-0.1,0-0.2-0.1v0.2c0,0.1-0.1,0.3-0.2,0.4c0.4,0,1,0.5,1,0.5C18.1,26.7,17.8,26,17.9,25.7
							L17.9,25.7z M18.3,19.1c0.1,0.2,0.3,0.3,0.4,0.3c-0.3,0.1-0.4,0.3-0.4,0.6s0.2,0.5,0.4,0.6c-0.3,0.1-0.4,0.3-0.4,0.6
							s0.2,0.5,0.4,0.6c-0.3,0.1-0.4,0.3-0.4,0.6c0,0.3,0.3,0.6,0.6,0.6c0.3,0,0.5-0.2,0.6-0.4c0.1,0.3,0.3,0.4,0.6,0.4
							s0.5-0.2,0.6-0.4c0.1,0.3,0.3,0.4,0.6,0.4c0.3,0,0.5-0.2,0.6-0.4c0.1,0.3,0.3,0.4,0.6,0.4c0.3,0,0.5-0.2,0.6-0.4
							c0.1,0.3,0.3,0.4,0.6,0.4c0.3,0,0.5-0.2,0.6-0.4c0.1,0.3,0.3,0.4,0.6,0.4s0.5-0.2,0.6-0.4c0.1,0.3,0.2,0.4,0.4,0.4v-0.1
							l0.1-3.5c0,0-4.4-0.1-7.1-0.1L18.3,19.1L18.3,19.1z M15,25.7L15,25.7c-0.1-0.1-0.1,0-0.2,0c-0.1,0-0.3,0-0.4-0.1
							c0.1,0.4-0.2,1.1-0.1,1.1s0.6-0.4,1-0.5c-0.1-0.1-0.2-0.3-0.2-0.4L15,25.7L15,25.7z"/>
						<path d="M26.1,22.2L26,8.7c0-0.4-0.4-0.8-0.8-0.9c-0.1,0-2.1-0.2-9-0.2h-0.1c-6.2,0-8.5,0.1-9,0.2S6.3,8.3,6.2,8.7v13.5
							c0,0.1-0.1,1,0.3,2.1c0.4,1.3,1.3,3.1,3.4,4.7c3.5,2.8,6,3.9,6.1,3.9c0.1,0,0.1,0.1,0.1,0.1s0.1,0,0.1-0.1
							c0.1-0.1,2.6-1.2,6.1-3.9c2.2-1.7,3-3.4,3.4-4.7C26.2,23.2,26.1,22.3,26.1,22.2L26.1,22.2z M6.9,8.8c0-0.2,0.2-0.4,0.4-0.4
							c0.5-0.1,2.6-0.2,8.8-0.2h0.1c6.8,0,8.8,0.2,8.9,0.2c0.3,0.1,0.4,0.3,0.4,0.4l0.1,9.9c-0.9-0.1-3.5-0.1-9.2-0.1
							c-5.9,0-8.6,0-9.4,0.1V8.8L6.9,8.8z M18.1,23c0.3,0.2,1.1,0.1,1.1,0.2s-0.6,0.4-0.8,0.8c-0.1-0.1-0.2-0.3-0.3-0.3
							c-0.1,0-0.1-0.1-0.2-0.1c0.1-0.1,0.1-0.1,0.1-0.1c0.1-0.1,0.1-0.2,0.1-0.3L18.1,23z M16.7,21.9c-0.1,0-0.3,0.1-0.4,0.2
							l-0.1,0.1c-0.1-0.1-0.1-0.1-0.1-0.1c-0.1-0.1-0.3-0.2-0.4-0.2c0.3-0.3,0.4-1,0.5-1C16.2,21,16.4,21.7,16.7,21.9z M14.3,23.5
							c0,0.1,0.1,0.1,0.1,0.1c-0.1,0-0.1,0.1-0.2,0.1c-0.1,0.1-0.3,0.2-0.3,0.3c-0.1-0.4-0.8-0.8-0.8-0.8c0-0.1,0.8,0.1,1.1-0.2v0.1
							C14.2,23.3,14.2,23.3,14.3,23.5L14.3,23.5z M7.9,22.8c-0.3,0-0.5-0.2-0.6-0.4c-0.1,0.2-0.3,0.4-0.4,0.4v-0.1L7,19.2
							c0,0,4.4-0.1,7.1-0.1h0.1v0.1c-0.1,0.1-0.2,0.3-0.4,0.3c0.3,0.1,0.4,0.3,0.4,0.6s-0.2,0.5-0.4,0.6c0.3,0.1,0.4,0.3,0.4,0.6
							c0,0.3-0.2,0.5-0.4,0.6c0.3,0.1,0.4,0.3,0.4,0.6c0,0.3-0.3,0.6-0.6,0.6c-0.3,0-0.5-0.2-0.6-0.4c-0.1,0.3-0.3,0.4-0.6,0.4
							c-0.3,0-0.5-0.2-0.6-0.4c-0.1,0.3-0.3,0.4-0.6,0.4c-0.3,0-0.5-0.2-0.6-0.4c-0.1,0.3-0.3,0.4-0.6,0.4s-0.5-0.2-0.6-0.4
							c-0.1,0.3-0.3,0.4-0.6,0.4c-0.3,0-0.5-0.2-0.6-0.4C8.4,22.6,8.1,22.8,7.9,22.8L7.9,22.8z M14.1,28.2c0,0.3-0.2,0.5-0.4,0.6
							c0.3,0.1,0.4,0.3,0.4,0.6s-0.2,0.5-0.4,0.6c0.3,0.1,0.4,0.3,0.4,0.6c0,0.3-0.2,0.5-0.4,0.6c0,0-0.1-0.1-0.1-0.1
							c-0.6-0.4-2-1.4-2.7-1.9c-1.3-1-2.2-2-2.2-2l-0.2-0.2c0,0,0-0.1-0.1-0.1c0.1-0.2,0.3-0.3,0.5-0.3c0.3,0,0.5,0.2,0.6,0.4
							c0.1-0.3,0.3-0.4,0.6-0.4c0.3,0,0.5,0.2,0.6,0.4c0.1-0.3,0.3-0.4,0.6-0.4s0.5,0.2,0.6,0.4c0.1-0.3,0.3-0.4,0.6-0.4
							c0.3,0,0.5,0.2,0.6,0.4c0.1-0.3,0.3-0.4,0.6-0.4c0.3,0,0.6,0.3,0.6,0.6c0,0.3-0.2,0.5-0.4,0.6C14,27.7,14.1,27.9,14.1,28.2
							L14.1,28.2z M14.3,26.7c-0.1,0,0.3-0.7,0.1-1.1c0.1,0.1,0.3,0.1,0.4,0.1c0.1,0,0.1,0,0.2-0.1v0.2c0,0.1,0.1,0.3,0.2,0.4
							C14.8,26.2,14.3,26.7,14.3,26.7L14.3,26.7z M16.2,26.3c-0.4,0-0.8-0.2-0.9-0.5c0-0.1,0-0.3,0.1-0.4l0.1-0.2l0.1-0.1l0.1-0.1
							c0.1-0.1,0.2-0.2,0.1-0.3c0,0,0-0.1-0.1-0.1c-0.1-0.1-0.1,0-0.1,0c-0.1,0-0.2,0.1-0.2,0.3l-0.1,0.1l-0.1,0.2l-0.1,0.2
							c-0.1,0.1-0.2,0.1-0.3,0.2c-0.3,0.1-0.6-0.3-0.8-0.7c-0.1-0.4-0.1-0.8,0.3-1c0.1-0.1,0.3-0.1,0.4-0.1l0.2,0.1l0.2,0.1h0.1
							c0.1,0.1,0.3,0.1,0.3,0.1c0,0,0.1,0,0.1-0.1v-0.1c-0.1-0.1-0.2-0.1-0.3-0.1h-0.1L15,23.7l-0.2-0.1c-0.1,0-0.2-0.2-0.3-0.3
							c-0.1-0.3,0.1-0.7,0.4-1c0.3-0.3,0.8-0.3,1-0.1c0.1,0.1,0.2,0.3,0.2,0.3V23c0,0.1,0,0.3,0.1,0.3c0,0,0,0.1,0.1,0.1
							c0.1,0,0.1-0.1,0.1-0.1c0.1-0.1,0.1-0.2,0.1-0.3v-0.5c0-0.1,0.1-0.3,0.2-0.3c0.3-0.3,0.7-0.1,1,0.1c0.3,0.2,0.6,0.6,0.4,1
							c-0.1,0.1-0.2,0.3-0.3,0.3l-0.2,0.1l-0.2,0.1h-0.1c-0.1,0-0.3,0.1-0.3,0.1V24c0,0.1,0.1,0.1,0.1,0.1c0.1,0.1,0.2,0,0.3-0.1
							h0.1l0.2-0.1l0.2-0.1c0.1,0,0.3,0,0.4,0.1c0.3,0.2,0.3,0.6,0.3,1c-0.1,0.4-0.4,0.8-0.8,0.7c-0.1,0-0.3-0.1-0.3-0.2l-0.2-0.2
							L17.3,25l-0.1-0.1c-0.1-0.1-0.1-0.2-0.2-0.3h-0.1l-0.1,0.1c0,0.1,0.1,0.2,0.1,0.3l0.1,0.1l0.1,0.1l0.1,0.2
							c0.1,0.1,0.1,0.3,0.1,0.4C17,26.2,16.5,26.3,16.2,26.3L16.2,26.3z M17.1,26.2c0.1-0.1,0.2-0.3,0.2-0.4v-0.2
							c0.1,0,0.1,0.1,0.2,0.1c0.1,0,0.3,0,0.4-0.1c-0.1,0.4,0.2,1.1,0.1,1.1C18,26.7,17.4,26.2,17.1,26.2z M23.8,26.8
							c-0.1,0.1-0.1,0.1-0.2,0.3c0,0-0.8,1-2.3,2c-1,0.8-2.2,1.5-2.7,1.9c-0.1,0-0.1,0.1-0.1,0.1c-0.3-0.1-0.4-0.3-0.4-0.6
							c0-0.3,0.2-0.5,0.4-0.6c-0.3-0.1-0.4-0.3-0.4-0.6c0-0.3,0.2-0.5,0.4-0.6c-0.3-0.1-0.4-0.3-0.4-0.6c0-0.3,0.2-0.5,0.4-0.6
							c-0.3-0.1-0.4-0.3-0.4-0.6c0-0.3,0.3-0.6,0.6-0.6c0.3,0,0.5,0.2,0.6,0.4c0.1-0.3,0.3-0.4,0.6-0.4c0.3,0,0.5,0.2,0.6,0.4
							c0.1-0.3,0.3-0.4,0.6-0.4s0.5,0.2,0.6,0.4c0.1-0.3,0.3-0.4,0.6-0.4s0.5,0.2,0.6,0.4c0.1-0.3,0.3-0.4,0.6-0.4
							C23.6,26.5,23.7,26.6,23.8,26.8L23.8,26.8z M25.5,22.7L25.5,22.7c-0.2,0-0.4-0.1-0.4-0.3c-0.1,0.3-0.3,0.4-0.6,0.4
							s-0.5-0.2-0.6-0.4c-0.1,0.3-0.3,0.4-0.6,0.4c-0.3,0-0.5-0.2-0.6-0.4c-0.1,0.3-0.3,0.4-0.6,0.4c-0.3,0-0.5-0.2-0.6-0.4
							c-0.1,0.3-0.3,0.4-0.6,0.4c-0.3,0-0.5-0.2-0.6-0.4c-0.1,0.3-0.3,0.4-0.6,0.4s-0.5-0.2-0.6-0.4c-0.1,0.3-0.3,0.4-0.6,0.4
							c-0.3,0-0.6-0.3-0.6-0.6c0-0.3,0.2-0.5,0.4-0.6c-0.3-0.1-0.4-0.3-0.4-0.6c0-0.3,0.2-0.5,0.4-0.6c-0.3-0.1-0.4-0.3-0.4-0.6
							s0.2-0.5,0.4-0.6c-0.1-0.1-0.3-0.1-0.4-0.3l0,0h0.1c2.9,0.1,7.1,0.1,7.1,0.1v3.5H25.5z"/>
						<path d="M17.6,12.4c0-0.1,0.3-0.8,0.3-0.8v-0.1v-0.1h-1.1l0.5,0.7C17.4,12.2,17.6,12.4,17.6,12.4z M18.6,13.8
							c0-0.2-0.3-0.4-0.4-0.5c-0.1-0.1-0.2-0.2-0.3-0.3L17.8,13c-0.2-0.1-1.3-1.6-1.5-2c0-0.1-0.1-0.1-0.2-0.1s-0.1,0-0.2,0.1
							c-0.2,0.4-1.3,1.9-1.5,2l-0.1,0.1l-0.3,0.3c-0.3,0.2-0.4,0.3-0.4,0.5v0.1c0,0.1,0,0.1,0.1,0.2c0,0.1,0.1,0.1,0.1,0.1l0.1,0.1
							c0.1-0.1,0.9-0.9,1-0.9c0,0.1-0.8,1.2-0.9,1.2c0,0,0.1,0.3,0.1,0.4c0.1,0.1,0.2,0.2,0.2,0.3c0.1-0.1,0.8-1.3,0.9-1.3
							c0,0.1-0.4,0.8-0.6,1.5v0.1c0,0,0.3,0.3,0.4,0.3c0.1,0.1,0.2,0.1,0.3,0.1c0-0.1,0.4-1.7,0.5-1.7v0.1c0,0.3-0.1,1.6-0.2,1.7
							h0.1l0.1,0.1H16c0.1,0,0.1,0.1,0.2,0.1s0.1,0,0.2-0.1h0.1l0.1-0.1h0.1c0-0.1-0.2-1.3-0.2-1.7v-0.1c0.1,0,0.5,1.5,0.5,1.7
							c0.1,0,0.2-0.1,0.3-0.1c0.1-0.1,0.4-0.3,0.4-0.3v-0.1c-0.3-0.6-0.6-1.3-0.6-1.5c0.1-0.1,0.9,1.3,0.9,1.3s0.1-0.1,0.2-0.3
							c0.1-0.1,0.1-0.3,0.1-0.4c-0.1-0.1-0.9-1.1-0.9-1.2c0.1,0,0.9,0.8,1,0.9l0.1-0.1c0-0.1,0.1-0.1,0.1-0.1
							C18.6,14,18.6,14,18.6,13.8L18.6,13.8z M14.7,12.4l0.2-0.3l0.5-0.7h-1.1v0.1C14.4,11.6,14.6,12.4,14.7,12.4L14.7,12.4z
							 M23.4,12.5c0-0.1,0.3-0.8,0.3-0.8v-0.1v-0.1h-1.1l0.5,0.7L23.4,12.5L23.4,12.5z M24.3,13.9c0-0.2-0.3-0.4-0.4-0.5
							c-0.1-0.1-0.2-0.2-0.3-0.3L23.6,13c-0.2-0.1-1.3-1.6-1.5-2C22,11,22,11,21.9,11s-0.1,0-0.2,0.1c-0.2,0.4-1.3,1.9-1.5,2
							l-0.1,0.1c-0.1,0.1-0.3,0.2-0.3,0.3c-0.3,0.2-0.4,0.3-0.4,0.5V14c0,0.1,0,0.1,0.1,0.2c0,0.1,0.1,0.1,0.1,0.1l0.1,0.1
							c0.1-0.1,0.9-0.9,1-0.9c0,0.1-0.8,1.2-0.9,1.2c0,0,0.1,0.3,0.1,0.4c0.1,0.1,0.2,0.2,0.2,0.3c0.1-0.1,0.8-1.3,0.9-1.3
							c0,0.1-0.4,0.8-0.6,1.5v0c0,0,0.3,0.3,0.4,0.3c0.1,0.1,0.2,0.1,0.3,0.1c0-0.1,0.4-1.7,0.5-1.7v0.1c0,0.3-0.1,1.6-0.2,1.7h0.1
							l0.1,0.1h0.1c0.1,0,0.1,0.1,0.2,0.1s0.1,0,0.2-0.1h0.1l0.1-0.1h0.1c0-0.1-0.2-1.3-0.2-1.7v-0.1c0.1,0,0.5,1.5,0.5,1.7
							c0.1,0,0.2-0.1,0.3-0.1c0.1-0.1,0.4-0.3,0.4-0.3v-0.1c-0.3-0.6-0.6-1.3-0.6-1.5c0.1-0.1,0.9,1.3,0.9,1.3s0.1-0.1,0.2-0.3
							c0.1-0.1,0.1-0.3,0.1-0.4c-0.1-0.1-0.9-1.1-0.9-1.2c0.1,0,0.9,0.8,1,0.9l0.1-0.1c0-0.1,0.1-0.1,0.1-0.1
							C24.3,14.1,24.3,14,24.3,13.9L24.3,13.9z M20.5,12.5l0.2-0.3l0.5-0.7h-1.1v0.2C20.2,11.7,20.4,12.4,20.5,12.5L20.5,12.5z
							 M11.9,12.5c0-0.1,0.3-0.8,0.3-0.8v-0.1v-0.1h-1l0.5,0.7L11.9,12.5L11.9,12.5z M12.8,13.9c0-0.2-0.3-0.4-0.4-0.5l-0.3-0.3H12
							c-0.2-0.2-1.3-1.7-1.5-2C10.5,11,10.4,11,10.4,11s-0.1,0-0.2,0.1c-0.3,0.3-1.3,1.8-1.5,2c-0.1,0.1-0.2,0.2-0.3,0.3
							C8.1,13.6,8,13.7,8,13.9v0.3c0,0.1,0.1,0.1,0.1,0.1l0.1,0.1c0.1-0.1,0.9-0.9,1-0.9c0,0.1-0.8,1.2-0.9,1.2c0,0,0.1,0.3,0.1,0.4
							c0.1,0.1,0.3,0.2,0.3,0.2c0.1-0.1,0.8-1.3,0.9-1.3c0,0.1-0.4,0.8-0.6,1.5v0.1c0,0,0.3,0.3,0.4,0.3c0.1,0,0.2,0,0.3,0.1
							c0-0.1,0.4-1.7,0.5-1.7v0.1c0,0.3-0.2,1.5-0.2,1.6H10l0.1,0.1h0.1c0.1,0,0.1,0.1,0.2,0.1s0.1,0,0.2-0.1h0.1l0.2-0.1h0.1
							c0-0.1-0.2-1.3-0.2-1.7v-0.1c0.1,0,0.5,1.5,0.5,1.7c0.1,0,0.2-0.1,0.3-0.1c0.1-0.1,0.4-0.3,0.4-0.3v-0.1
							c-0.3-0.6-0.6-1.3-0.6-1.5c0.1-0.1,0.9,1.3,0.9,1.3s0.1-0.1,0.2-0.3c0.1-0.1,0.1-0.3,0.1-0.4c-0.1-0.1-0.9-1.1-0.9-1.2
							c0.1,0,0.9,0.8,1,0.9l0.1-0.1c0-0.1,0.1-0.1,0.1-0.1C12.8,14.1,12.8,14,12.8,13.9L12.8,13.9z M8.9,12.5l0.2-0.3l0.5-0.7H8.5
							v0.2C8.6,11.7,8.9,12.4,8.9,12.5L8.9,12.5z"/>
						<path d="M15.7,24.2c0,0.3,0.2,0.5,0.5,0.5s0.5-0.2,0.5-0.5c0-0.3-0.2-0.5-0.5-0.5C15.9,23.7,15.7,23.8,15.7,24.2"/>
						<path d="M34.6,32.8C34.1,33,33.5,33,32.7,33c-0.3,0-1.1,0-1.4-0.1V27c0.1,0,0.7-0.1,1.4-0.1c0.5,0,1.1,0,1.5,0.1
							c0.6,0.1,1.2,0.5,1.2,1.3c0,1.2-1.2,1.4-1.4,1.5c0.1,0,1.6,0.1,1.6,1.5C35.6,32.2,35,32.6,34.6,32.8L34.6,32.8z M32.8,27.5
							h-0.4v2H33c0.1,0,0.3,0,0.4-0.1c0.4-0.1,0.7-0.4,0.7-1C34.1,27.7,33.5,27.5,32.8,27.5L32.8,27.5z M33,30.2h-0.5v2.1H33
							c0.3,0,0.6-0.1,0.7-0.1c0.3-0.1,0.6-0.4,0.6-1C34.3,30.4,33.7,30.2,33,30.2L33,30.2z M39.2,32.9v-0.4c0,0-0.4,0.6-1.4,0.6
							c-0.7,0-1.3-0.3-1.5-1c-0.1-0.3-0.1-0.7-0.1-0.9v-2.6h1.3v2.5c0,0.3,0,0.4,0.1,0.6c0.1,0.4,0.4,0.6,0.9,0.6
							c0.4,0,0.7-0.1,0.7-0.1v-3.5h1.3V33h-1.3V32.9z M42.6,33c-1.1,0-1.6-0.3-1.6-0.3l0.3-0.7c0,0,0.4,0.3,1.2,0.3
							c0.5,0,0.8-0.2,0.8-0.5c0-0.3-0.1-0.3-0.4-0.5l-0.7-0.4c-0.6-0.3-1-0.6-1-1.3c0-0.8,0.6-1.3,1.7-1.3c1,0,1.5,0.3,1.5,0.3
							l-0.3,0.7c0,0-0.4-0.3-1-0.3c-0.4,0-0.7,0.1-0.7,0.4c0,0.3,0.2,0.4,0.6,0.5l0.7,0.3c0.6,0.3,0.9,0.6,0.9,1.2
							C44.4,32.7,43.5,33,42.6,33L42.6,33z M45.7,28c-0.4,0-0.8-0.3-0.8-0.6c0-0.4,0.3-0.6,0.8-0.6c0.4,0,0.8,0.3,0.8,0.6
							S46.2,28,45.7,28z M45.1,32.9v-4.3h1.3V33L45.1,32.9L45.1,32.9z M50.2,32.9v-2.5c0-0.2,0-0.4-0.1-0.6
							c-0.1-0.4-0.4-0.6-0.9-0.6c-0.4,0-0.7,0.1-0.7,0.1v3.5h-1.3v-4.4h1.3V29c0,0,0.4-0.5,1.4-0.5c1,0,1.4,0.5,1.5,1
							c0.1,0.3,0.1,0.6,0.1,0.8v2.6L50.2,32.9L50.2,32.9L50.2,32.9z M53.4,30.8L53.4,30.8c0,0.9,0.6,1.5,1.5,1.5c0.6,0,1-0.2,1-0.2
							l0.3,0.6c0,0-0.5,0.3-1.6,0.3c-1.3,0-2.4-0.5-2.4-2.2c0-0.8,0.3-2.3,2.2-2.3c1,0,1.4,0.3,1.7,0.8c0.3,0.4,0.3,1,0.3,1.5v0.1
							L53.4,30.8L53.4,30.8L53.4,30.8z M55,30.1c0-0.6-0.3-1-0.8-1c-0.4,0-0.7,0.3-0.8,0.6c-0.1,0.2-0.1,0.4-0.1,0.5H55L55,30.1z
							 M58.3,33c-1.1,0-1.6-0.3-1.6-0.3L57,32c0,0,0.4,0.3,1.2,0.3c0.5,0,0.8-0.2,0.8-0.5c0-0.3-0.1-0.3-0.4-0.5l-0.7-0.4
							c-0.6-0.3-1-0.6-1-1.3c0-0.8,0.6-1.3,1.7-1.3c1,0,1.5,0.3,1.5,0.3l-0.3,0.7c0,0-0.4-0.3-1-0.3c-0.4,0-0.7,0.1-0.7,0.4
							c0,0.3,0.2,0.4,0.6,0.5l0.6,0.4c0.6,0.3,0.9,0.6,0.9,1.2C60.1,32.7,59.3,33,58.3,33L58.3,33z M62,33c-1.1,0-1.6-0.3-1.6-0.3
							l0.3-0.7c0,0,0.4,0.3,1.2,0.3c0.5,0,0.8-0.2,0.8-0.5c0-0.3-0.1-0.3-0.4-0.5l-0.7-0.4c-0.6-0.3-1-0.6-1-1.3
							c0-0.8,0.6-1.3,1.7-1.3c1,0,1.5,0.3,1.5,0.3l-0.3,0.7c0,0-0.4-0.3-1-0.3c-0.4,0-0.7,0.1-0.7,0.4c0,0.3,0.2,0.4,0.6,0.5
							l0.7,0.3c0.6,0.3,0.9,0.6,0.9,1.2C63.8,32.7,63,33,62,33L62,33z M68.2,33c-1.2,0-1.9-0.3-1.9-0.3l0.3-0.8c0,0,0.5,0.3,1.3,0.3
							c0.8,0,1.3-0.2,1.3-0.8c0-0.4-0.2-0.6-0.6-0.8l-1-0.5c-0.6-0.3-1.2-0.7-1.2-1.5c0-1.1,0.8-1.7,2.1-1.7c1.2,0,1.7,0.3,1.7,0.3
							L70,27.9c0,0-0.4-0.3-1.2-0.3c-0.4,0-1.1,0.1-1.1,0.7c0,0.4,0.3,0.6,0.8,0.8l0.8,0.4c0.8,0.4,1.2,0.8,1.2,1.6
							C70.5,32.4,69.7,33,68.2,33L68.2,33z M74.3,29.4c0,0-0.3-0.2-0.8-0.2c-1,0-1.3,0.5-1.3,1.5c0,0.7,0.3,1.5,1.3,1.5
							c0.4,0,0.7-0.1,0.9-0.2l0.3,0.6c0,0-0.4,0.3-1.5,0.3c-1.5,0-2.3-0.9-2.3-2.2c0-0.5,0.1-1,0.4-1.4c0.4-0.6,1-1,2.1-1
							c0.8,0,1.3,0.3,1.3,0.3L74.3,29.4L74.3,29.4z M78.1,32.9v-2.5c0-0.2,0-0.4-0.1-0.6c-0.1-0.4-0.4-0.6-0.9-0.6
							c-0.4,0-0.7,0.1-0.7,0.1v3.5h-1.3v-6.6h1.3V29c0,0,0.4-0.5,1.4-0.5c1,0,1.3,0.5,1.5,1c0.1,0.3,0.1,0.6,0.1,0.8v2.6L78.1,32.9
							L78.1,32.9L78.1,32.9z M90.2,32.9v-6.6h1.3v6.6H90.2z M39.5,22.6v-6.1H34v6.1h-2.8V8.9H34v5.7h5.5V8.9h2.7v13.6H39.5z
							 M47.3,17.8v0.2c0,2,1.3,3.1,3.2,3.1c1.3,0,2.1-0.4,2.1-0.4l0.5,1.5c0,0-1.1,0.6-3.4,0.6c-2.7,0-5.1-1.2-5.1-5
							c0-1.9,0.7-5.2,4.7-5.2c2,0,3,0.7,3.6,1.8c0.6,1,0.6,2.3,0.6,3.4v0.1L47.3,17.8L47.3,17.8L47.3,17.8z M50.8,16
							c0-1.5-0.6-2.2-1.7-2.2c-1,0-1.5,0.6-1.7,1.5c-0.1,0.5-0.1,1-0.1,1.2h3.5L50.8,16L50.8,16z M61.9,22.6v-5.7c0-0.5,0-1-0.1-1.4
							c-0.2-1-0.8-1.3-1.9-1.3c-0.9,0-1.5,0.3-1.5,0.3v8h-2.7v-9.9h2.7v1c0,0,0.8-1.2,3-1.2c2.1,0,2.9,1.2,3.1,2.2
							c0.1,0.7,0.1,1.5,0.1,2v6L61.9,22.6L61.9,22.6L61.9,22.6z M67.7,22.6v-15h2.7v15H67.7z M75.2,17.8v0.2c0,2,1.3,3.1,3.2,3.1
							c1.3,0,2.1-0.4,2.1-0.4l0.5,1.5c0,0-1.1,0.6-3.4,0.6c-2.7,0-5.1-1.2-5.1-5c0-1.9,0.7-5.2,4.7-5.2c2,0,3,0.7,3.6,1.8
							c0.6,1,0.6,2.3,0.6,3.4v0.1L75.2,17.8L75.2,17.8L75.2,17.8z M78.8,16c0-1.5-0.6-2.2-1.7-2.2c-1,0-1.5,0.6-1.7,1.5
							c-0.1,0.5-0.1,1-0.1,1.2h3.5V16L78.8,16z M88.4,24.3c-0.7,2-1.7,2.6-3.3,2.6c-1.1,0-1.7-0.3-1.7-0.3l0.4-1.6
							c0,0,0.4,0.3,1,0.3c0.8,0,1.3-0.4,1.6-1.4l0.3-0.9l-4-10.4h3l2.1,6.4c0.3,0.8,0.3,1.2,0.3,1.3c0-0.1,0.2-0.6,0.3-1.2l1.9-6.4
							h2.4L88.4,24.3L88.4,24.3z M92.5,37.3H6.2v-0.5h86.3V37.3z M9.6,41.1v2.4c0,0.7-0.1,1-0.1,1.1c-0.1,0.4-0.4,1-1.6,1
							c-1,0-1.3-0.4-1.5-0.8c-0.1-0.3-0.1-0.8-0.1-1.3v-2.4h0.6v2.8c0,0.2,0,0.4,0.1,0.6c0.1,0.4,0.4,0.6,1,0.6c0.6,0,0.9-0.2,1-0.7
							C8.9,44.3,9,44,9,43.8V41L9.6,41.1L9.6,41.1z M14.2,45.4l-2.2-3c-0.2-0.3-0.2-0.4-0.2-0.4v3.4h-0.4v-4.4h0.5L14,44
							c0.2,0.3,0.2,0.4,0.3,0.4V41h0.5v4.4L14.2,45.4L14.2,45.4L14.2,45.4z M16.7,45.4v-4.4h0.6v4.4H16.7z M21,45.4h-0.6l-1.5-4.4
							h0.7l1.1,3.2c0.1,0.3,0.1,0.5,0.1,0.5s0.1-0.2,0.1-0.5l1.1-3.2h0.6L21,45.4z M23.9,45.4v-4.4h2.2v0.4h-1.5V43h1.3v0.4h-1.3V45
							h1.6v0.4L23.9,45.4L23.9,45.4z M30.2,45.4l-1.4-1.9h-0.4v1.9h-0.6v-4.3c0,0,0.3-0.1,0.8-0.1c0.3,0,0.6,0,0.9,0.1
							c0.7,0.2,0.9,0.7,0.9,1.1c0,1-0.9,1.3-0.9,1.3l1.6,2L30.2,45.4L30.2,45.4z M28.4,43.2h0.7c0.2,0,0.6-0.1,0.6-1
							c0-0.8-0.5-0.9-1-0.9h-0.3L28.4,43.2L28.4,43.2z M34.5,41.7c0,0-0.3-0.2-0.8-0.2c-0.1,0-0.8,0-0.8,0.6c0,0.3,0.2,0.4,0.6,0.7
							l0.6,0.4c0.4,0.3,0.7,0.6,0.7,1.1c0,0.7-0.5,1.3-1.5,1.3c-0.8,0-1.2-0.2-1.2-0.2l0.2-0.5c0,0,0.3,0.3,0.9,0.3
							c0.5,0,1-0.2,1-0.7c0-0.3-0.1-0.4-0.4-0.6L33,43.3c-0.3-0.1-0.7-0.4-0.7-1.1c0-0.8,0.5-1.2,1.3-1.2c0.7,0,1,0.2,1,0.2
							L34.5,41.7L34.5,41.7z M36.5,45.4v-4.4h0.6v4.4H36.5z M40.6,41.5v3.9h-0.6v-3.9h-1.3v-0.4h3.2v0.4H40.6z M44.9,43.7v1.8h-0.7
							v-1.7l-1.5-2.7h0.8l1.2,2.2l1.1-2.2h0.6L44.9,43.7z M52.4,45.5c-1.3,0-2-0.8-2-2.2c0-1.5,0.8-2.4,2-2.4c1.3,0,2,0.8,2,2.2
							C54.4,44.7,53.7,45.5,52.4,45.5z M52.4,41.5c-0.8,0-1.3,0.6-1.3,1.9s0.4,1.8,1.3,1.8c0.8,0,1.3-0.6,1.3-1.9
							C53.7,42.1,53.3,41.5,52.4,41.5z M56.3,41.5V43h1.3v0.4h-1.3v2h-0.6v-4.3h2.2v0.4H56.3L56.3,41.5z M65.2,45.4l-1.4-1.9h-0.4
							v1.9h-0.7v-4.3c0,0,0.3-0.1,0.8-0.1c0.3,0,0.6,0,0.8,0.1c0.7,0.2,0.9,0.7,0.9,1.1c0,1-0.9,1.3-0.9,1.3l1.6,2L65.2,45.4
							L65.2,45.4z M63.5,43.2h0.7c0.2,0,0.6-0.1,0.6-1c0-0.8-0.5-0.9-1-0.9h-0.3L63.5,43.2L63.5,43.2z M67.4,45.4v-4.4h2.2v0.4h-1.5
							V43h1.3v0.4h-1.3V45h1.6v0.4L67.4,45.4L67.4,45.4z M73.9,45.4L73.4,44h-1.5l-0.5,1.5h-0.6l1.7-4.4h0.6l1.6,4.4H73.9z
							 M72.8,42.2c-0.1-0.3-0.1-0.5-0.1-0.5s-0.1,0.1-0.1,0.5l-0.4,1.3h1.2L72.8,42.2z M76.1,41.2c0.1,0,0.5-0.1,1-0.1
							c0.8,0,1.3,0.1,1.7,0.3c0.8,0.5,0.9,1.3,0.9,1.9c0,1-0.4,1.7-1.1,2c-0.4,0.2-0.9,0.3-1.5,0.3c-0.4,0-1-0.1-1-0.1L76.1,41.2
							L76.1,41.2z M76.7,45h0.5c0.4,0,0.7-0.1,1-0.2c0.3-0.2,0.8-0.6,0.8-1.7c0-0.8-0.3-1.4-0.7-1.7c-0.3-0.1-0.5-0.2-1-0.2h-0.4V45
							L76.7,45L76.7,45z M81.4,45.4v-4.4H82v4.4H81.4z M86.9,45.4l-2.2-3c-0.2-0.3-0.2-0.4-0.2-0.4v3.4H84v-4.4h0.5l2.1,2.9
							c0.2,0.3,0.2,0.4,0.3,0.4V41h0.5v4.4L86.9,45.4L86.9,45.4L86.9,45.4z M92.5,43.5v1.8c0,0-0.5,0.2-1.3,0.2
							c-1.2,0-2.1-0.6-2.1-2.1c0-0.6,0.1-1.1,0.4-1.5C90.1,41,91,41,91.5,41c0.6,0,1.1,0.1,1.1,0.2l-0.2,0.4c0,0-0.3-0.2-0.9-0.2
							c-1.2,0-1.7,0.8-1.7,1.9c0,1.2,0.5,1.9,1.6,1.9c0.3,0,0.5-0.1,0.5-0.1v-1.5h0.6L92.5,43.5L92.5,43.5z M82.2,33.1
							c-1.5,0-2.3-0.8-2.3-2.2c0-1.2,0.6-2.4,2.4-2.4c1.5,0,2.3,0.8,2.3,2.2C84.5,31.9,83.9,33.1,82.2,33.1z M82.3,29.2
							c-0.7,0-1,0.5-1,1.6c0,1,0.3,1.6,1,1.6c0.7,0,1-0.5,1-1.6C83.2,29.8,83,29.2,82.3,29.2z M87.4,33.1c-1.5,0-2.3-0.8-2.3-2.2
							c0-1.2,0.6-2.4,2.4-2.4c1.5,0,2.3,0.8,2.3,2.2C89.7,31.9,89,33.1,87.4,33.1z M87.4,29.2c-0.7,0-1,0.5-1,1.6c0,1,0.3,1.6,1,1.6
							c0.7,0,1-0.5,1-1.6C88.4,29.8,88.1,29.2,87.4,29.2z"/>
					</g>
				</g>
			</g>
		</g>
	</g>
</g>
</svg>
