<?xml version="1.0" encoding="utf-8"?>
<!-- Generator: Adobe Illustrator 23.0.1, SVG Export Plug-In . SVG Version: 6.00 Build 0)  -->
<svg version="1.1" id="Layer_1" xmlns="http://www.w3.org/2000/svg" xmlns:xlink="http://www.w3.org/1999/xlink" x="0px" y="0px"
	 viewBox="0 0 100 100" style="enable-background:new 0 0 100 100;" xml:space="preserve">
<g id="rusu-logo-1_2_">
	<path d="M23.6,55h-2.1v6.2h-5.9V41.8h10.3c4.5,0,7,3,7,6.6c0,3.3-1.9,5.1-3.5,5.9l3.5,6.8h-6.7L23.6,55z M25,46.7h-3.6v3.4H25
		c1,0,1.9-0.6,1.9-1.7C26.9,47.3,26,46.7,25,46.7z"/>
	<path d="M32.4,41.8h6V53c0,1.9,1,3.3,3.4,3.3c2.4,0,3.3-1.5,3.3-3.3V41.8h6v11.4c0,4.8-2.8,8.3-9.3,8.3s-9.3-3.5-9.3-8.3V41.8z"/>
	<path d="M52.8,54.1c1.7,1.6,3.9,2.5,6.2,2.5c1.1,0,2.1-0.4,2.1-1.1s-0.8-1.1-2.7-1.5c-3.2-0.6-8.1-1.3-8.1-6.2c0-3.3,2.7-6.3,8-6.3
		c3.2,0,6,0.9,8.2,2.7l-3.1,4.2c-1.7-1.3-3.9-1.9-5.4-1.9c-1.5,0-1.8,0.5-1.8,1c0,0.8,0.8,1,2.8,1.4c3.2,0.6,7.9,1.5,7.9,6
		c0,4.3-3.2,6.7-8.4,6.7c-4.1,0-6.9-1.2-9-3.1L52.8,54.1z"/>
	<path d="M66.1,41.8h6V53c0,1.9,1,3.3,3.4,3.3c2.4,0,3.3-1.5,3.3-3.3V41.8h6v11.4c0,4.8-2.8,8.3-9.3,8.3s-9.3-3.5-9.3-8.3V41.8z"/>
</g>
</svg>
