<svg id="logo" xmlns="http://www.w3.org/2000/svg" viewBox="0 0 565.93 527.32"><defs><style>.cls-1,.cls-2{fill:#ea5837;}.cls-1,.cls-5{stroke:#ea5837;}.cls-1,.cls-6{stroke-miterlimit:10;}.cls-1{stroke-width:3px;}.cls-2,.cls-3{fill-rule:evenodd;}.cls-3,.cls-4,.cls-5{fill:none;stroke-linecap:round;stroke-linejoin:round;}.cls-3,.cls-4{stroke:#11b8d8;stroke-width:8px;}.cls-5{stroke-width:10px;}.cls-6{font-size:75px;fill:#15b8d8;stroke:#15b8d8;stroke-width:2px;font-family:CloneRounded-Rg, Clone Rounded Latin;}.cls-7{letter-spacing:-0.02em;}.cls-8{letter-spacing:0em;}</style></defs><title>RUHLogoFinal02</title><path class="cls-1" d="M593.54,675.84l-32.06,21.75v-4.42a5.39,5.39,0,0,1,2.38-4.47l25.41-17.14v-.37l-25.41-17.13a5.42,5.42,0,0,1-2.38-4.48v-4.42l32.06,21.75a5.4,5.4,0,0,1,2.37,4.47h0A5.38,5.38,0,0,1,593.54,675.84Z" transform="translate(-31.48 -182.43)"/><path class="cls-2" d="M241.31,295.48c6.69,9.78,17.87,11.71,32.13,8.27l15.82-9C265.51,301.89,253.63,271.8,241.31,295.48Z" transform="translate(-31.48 -182.43)"/><path class="cls-2" d="M267.77,407.11c0-7.51,14.12-13.59,31.53-13.59V345.3A82.88,82.88,0,0,1,272,340.6c-5.37,10.18,3.39,19.67,23.86,28.59.81,15.08-10.73,21.93-30.71,23.15-13-10.31-16.69-24.57-17.72-39.92-46.74-26.12-36.87-57-19.83-85l17.31-26-9.39-14.41,1.26,14.7-17.13,22.05h0l-.08.1c-11.32-32.65,4.87-55.25,29.66-52,13.28,7.47,32.89,26.53,45.57,30.21.17.24.34.44.51.69-.17-.24-.34-.45-.51-.69a14.46,14.46,0,0,0,3.89.69c.19,0,.43-.06.62-.08V203.4c-11.87-2.35-16.63-23.35-50.76-20.75-36,2.76-62.72,48.38-62.72,48.38s15.14-12,31.75-18.57c-7.26,4.92-14.22,12.1-20.83,21.43h0c-48.42,30.6-64,51.35-69.53,85.29,18.31-19.5,36.62-36.23,54.93-43.09-60.15,49.4-63,105.75-39.78,165.25l6.22-12.15c5.64,47.86,37.63,89.08,90.38,122C218.1,509.87,211,469.11,220.47,429c-4.14,53.63,17.87,106.74,78.13,159.1l.7-.66V420.69C281.89,420.69,267.77,414.61,267.77,407.11Z" transform="translate(-31.48 -182.43)"/><path class="cls-3" d="M308.14,207.12c4.92-4.37,14.57-15.43,32.49-15.65s29,3.63,43.91,15.61a125.51,125.51,0,0,1,24.58,27.21" transform="translate(-31.48 -182.43)"/><path class="cls-3" d="M308.83,580.75c15.75-15,58.54-59.09,64.33-101.58" transform="translate(-31.48 -182.43)"/><path class="cls-3" d="M358.7,557.49s76.05-46.12,85.69-99.6" transform="translate(-31.48 -182.43)"/><path class="cls-3" d="M462.06,424a115.9,115.9,0,0,0,3.31-37.31c-3.46-47.61-30.23-73.61-30.23-73.61" transform="translate(-31.48 -182.43)"/><path class="cls-3" d="M428,263.83s31.78,7.11,40.92,50.16" transform="translate(-31.48 -182.43)"/><circle class="cls-4" cx="381.06" cy="61.26" r="7.55"/><circle class="cls-4" cx="438.37" cy="139.99" r="7.55"/><circle class="cls-4" cx="412.91" cy="266.96" r="7.55"/><circle class="cls-4" cx="342.74" cy="287.33" r="7.55"/><circle class="cls-4" cx="399.48" cy="124.01" r="7.55"/><line class="cls-4" x1="318.28" y1="36.72" x2="333.04" y2="36.72"/><line class="cls-4" x1="297.14" y1="50.51" x2="346.25" y2="50.51"/><line class="cls-4" x1="274.55" y1="64.31" x2="319.16" y2="64.31"/><line class="cls-4" x1="274.57" y1="78.1" x2="334.06" y2="78.1"/><line class="cls-4" x1="274.73" y1="91.89" x2="343.22" y2="91.89"/><line class="cls-4" x1="274.74" y1="105.68" x2="351.36" y2="105.68"/><line class="cls-4" x1="330.57" y1="119.47" x2="356.53" y2="119.47"/><line class="cls-4" x1="274.58" y1="133.26" x2="358.89" y2="133.26"/><line class="cls-4" x1="274.58" y1="147.05" x2="355.79" y2="147.05"/><line class="cls-4" x1="274.5" y1="160.84" x2="345.02" y2="160.84"/><line class="cls-4" x1="294.9" y1="174.63" x2="317.54" y2="174.63"/><line class="cls-4" x1="279.85" y1="188.42" x2="315.16" y2="188.42"/><line class="cls-4" x1="276.65" y1="202.21" x2="314.48" y2="202.21"/><line class="cls-4" x1="292.24" y1="216" x2="304.61" y2="216"/><line class="cls-4" x1="274.82" y1="229.79" x2="306.12" y2="229.79"/><line class="cls-4" x1="274.42" y1="243.59" x2="287.4" y2="243.59"/><line class="cls-4" x1="330.69" y1="64.31" x2="352.56" y2="64.31"/><line class="cls-4" x1="345.05" y1="78.1" x2="354.74" y2="78.1"/><line class="cls-4" x1="274.25" y1="119.47" x2="285.58" y2="119.47"/><path class="cls-5" d="M385.82,570c-23.81,23.78-52.14,41.62-83.55,50.68-31.41-9.07-59.74-26.91-83.54-50.68" transform="translate(-31.48 -182.43)"/><polyline class="cls-5" points="392.01 16.59 431.36 16.57 431.36 71.73"/><polyline class="cls-5" points="110.28 71.73 110.3 16.66 150.87 16.64"/><path class="cls-1" d="M544.58,640.69h5.22l-23.14,61.37h-5.22Z" transform="translate(-31.48 -182.43)"/><path class="cls-1" d="M33,666.91h0a5.41,5.41,0,0,1,2.37-4.47l32.06-21.75v4.42A5.39,5.39,0,0,1,65,649.59L39.62,666.73v.36L65,684.23a5.39,5.39,0,0,1,2.38,4.48v4.42L35.35,671.38A5.41,5.41,0,0,1,33,666.91Z" transform="translate(-31.48 -182.43)"/><text class="cls-6" transform="translate(42.82 507.27)">R. <tspan class="cls-7" x="77.77" y="0">U</tspan><tspan class="cls-8" x="122.32" y="0">. Hacking?</tspan></text><path class="cls-1" d="M593.54,675.84l-32.06,21.75v-4.42a5.39,5.39,0,0,1,2.38-4.47l25.41-17.14v-.37l-25.41-17.13a5.42,5.42,0,0,1-2.38-4.48v-4.42l32.06,21.75a5.4,5.4,0,0,1,2.37,4.47h0A5.38,5.38,0,0,1,593.54,675.84Z" transform="translate(-31.48 -182.43)"/><path class="cls-1" d="M544.58,640.69h5.22l-23.14,61.37h-5.22Z" transform="translate(-31.48 -182.43)"/><path class="cls-1" d="M33,666.91h0a5.41,5.41,0,0,1,2.37-4.47l32.06-21.75v4.42A5.39,5.39,0,0,1,65,649.59L39.62,666.73v.36L65,684.23a5.39,5.39,0,0,1,2.38,4.48v4.42L35.35,671.38A5.41,5.41,0,0,1,33,666.91Z" transform="translate(-31.48 -182.43)"/><text class="cls-6" transform="translate(42.82 507.27)">R. <tspan class="cls-7" x="77.77" y="0">U</tspan><tspan class="cls-8" x="122.32" y="0">. Hacking?</tspan></text></svg>