<svg id="logo" xmlns="http://www.w3.org/2000/svg" viewBox="0 0 354.21 443.23"><defs><style>.cls-1,.cls-5{fill:#ea5837;}.cls-1,.cls-2{fill-rule:evenodd;}.cls-2,.cls-3,.cls-4{fill:none;stroke-linecap:round;stroke-linejoin:round;}.cls-2,.cls-3{stroke:#11b8d8;stroke-width:8px;}.cls-4,.cls-5{stroke:#ea5837;}.cls-4{stroke-width:10px;}.cls-5,.cls-6{stroke-miterlimit:10;}.cls-5{stroke-width:0.4px;}.cls-6{fill:#15b8d8;stroke:#15b8d8;stroke-width:0.27px;}</style></defs><title>RUHLogoFinal04</title><path class="cls-1" d="M254.07,339.52c6.7,9.78,17.88,11.71,32.13,8.27l15.83-9C278.28,345.93,266.4,315.85,254.07,339.52Z" transform="translate(-139.96 -226.47)"/><path class="cls-1" d="M280.53,451.15c0-7.5,14.13-13.59,31.54-13.59V389.34a82.88,82.88,0,0,1-27.28-4.7c-5.37,10.18,3.39,19.67,23.86,28.59.81,15.08-10.73,21.93-30.71,23.15-13-10.31-16.69-24.56-17.72-39.92-46.74-26.12-36.87-57-19.83-85l17.31-26L248.3,271l1.27,14.7-17.13,22.06,0,0-.08.1c-11.32-32.65,4.87-55.25,29.66-52,13.28,7.47,32.89,26.53,45.57,30.22.17.23.34.43.51.68-.17-.24-.34-.45-.51-.68a14.42,14.42,0,0,0,3.89.68c.19,0,.42-.06.62-.08V247.44c-11.87-2.35-16.63-23.35-50.76-20.74-36.05,2.75-62.72,48.37-62.72,48.37s15.14-12,31.75-18.56c-7.26,4.91-14.23,12.09-20.84,21.42h0c-48.42,30.6-64,51.35-69.53,85.29,18.31-19.5,36.62-36.23,54.93-43.09-60.15,49.4-63,105.75-39.78,165.26l6.22-12.16c5.64,47.86,37.63,89.08,90.38,122-20.84-41.33-27.94-82.09-18.47-122.17-4.14,53.63,17.87,106.74,78.13,159.1l.7-.66V464.73C294.66,464.73,280.53,458.65,280.53,451.15Z" transform="translate(-139.96 -226.47)"/><path class="cls-2" d="M320.91,251.17c4.92-4.38,14.57-15.44,32.49-15.66s29,3.64,43.91,15.61a125.75,125.75,0,0,1,24.58,27.22" transform="translate(-139.96 -226.47)"/><path class="cls-2" d="M321.6,624.79c15.75-15,58.54-59.09,64.33-101.58" transform="translate(-139.96 -226.47)"/><path class="cls-2" d="M371.47,601.53s76-46.11,85.68-99.6" transform="translate(-139.96 -226.47)"/><path class="cls-2" d="M474.83,468a115.9,115.9,0,0,0,3.31-37.31c-3.46-47.61-30.23-73.61-30.23-73.61" transform="translate(-139.96 -226.47)"/><path class="cls-2" d="M440.72,307.87S472.5,315,481.64,358" transform="translate(-139.96 -226.47)"/><circle class="cls-3" cx="285.35" cy="61.26" r="7.55"/><circle class="cls-3" cx="342.66" cy="139.99" r="7.55"/><circle class="cls-3" cx="317.2" cy="266.96" r="7.55"/><circle class="cls-3" cx="247.03" cy="287.33" r="7.55"/><circle class="cls-3" cx="303.77" cy="124.01" r="7.55"/><path class="cls-4" d="M398.59,614c-23.81,23.78-52.14,41.62-83.55,50.69C283.63,655.64,255.3,637.8,231.5,614" transform="translate(-139.96 -226.47)"/><polyline class="cls-4" points="296.3 16.59 335.64 16.57 335.64 71.73"/><polyline class="cls-4" points="14.56 71.73 14.58 16.66 55.16 16.64"/><path class="cls-5" d="M386.64,277.72l-4.3,2.93v-.6a.71.71,0,0,1,.31-.6l3.42-2.3v0l-3.42-2.31a.71.71,0,0,1-.31-.6v-.59l4.3,2.92a.73.73,0,0,1,.32.6h0A.72.72,0,0,1,386.64,277.72Z" transform="translate(-139.96 -226.47)"/><path class="cls-5" d="M380.06,273h.71l-3.11,8.25H377Z" transform="translate(-139.96 -226.47)"/><path class="cls-5" d="M358.22,263.46h0a.72.72,0,0,1,.31-.6l4.31-2.92v.59a.72.72,0,0,1-.32.6l-3.41,2.31v.05l3.41,2.3a.72.72,0,0,1,.32.6v.6l-4.31-2.93A.71.71,0,0,1,358.22,263.46Z" transform="translate(-139.96 -226.47)"/><path class="cls-5" d="M388.61,277.15h0a.72.72,0,0,1,.32-.6l4.31-2.93v.6a.72.72,0,0,1-.32.6l-3.41,2.3v.05l3.41,2.31a.72.72,0,0,1,.32.6v.59l-4.31-2.92A.73.73,0,0,1,388.61,277.15Z" transform="translate(-139.96 -226.47)"/><path class="cls-6" d="M365.49,266.15a.42.42,0,0,1-.42.42.42.42,0,0,1-.42-.42v-5.92a.42.42,0,0,1,.42-.42h1.56a2,2,0,0,1,2.14,2.06,1.86,1.86,0,0,1-1.12,1.75l1.22,2.27a.62.62,0,0,1,.09.28.39.39,0,0,1-.42.4.47.47,0,0,1-.37-.22l-1.32-2.51a3.25,3.25,0,0,1-.44,0h-.92Zm0-3h1.11a1.32,1.32,0,1,0,0-2.63h-1.11Z" transform="translate(-139.96 -226.47)"/><path class="cls-6" d="M370.6,265.37a.6.6,0,0,1,.61.6.6.6,0,0,1-.61.59A.58.58,0,0,1,370,266,.59.59,0,0,1,370.6,265.37Z" transform="translate(-139.96 -226.47)"/><path class="cls-5" d="M390.75,291h0a.72.72,0,0,1,.32-.6l4.31-2.93v.6a.72.72,0,0,1-.32.6l-3.42,2.3V291l3.42,2.31a.72.72,0,0,1,.32.6v.59l-4.31-2.92A.73.73,0,0,1,390.75,291Z" transform="translate(-139.96 -226.47)"/><path class="cls-6" d="M398,293.64a.43.43,0,0,1-.85,0v-5.92a.43.43,0,0,1,.42-.43h1.57a2,2,0,0,1,2.13,2.07,1.87,1.87,0,0,1-1.12,1.75l1.23,2.27a.62.62,0,0,1,.09.28.4.4,0,0,1-.43.4.47.47,0,0,1-.37-.22l-1.31-2.51a3.29,3.29,0,0,1-.45,0H398Zm0-3h1.11a1.31,1.31,0,1,0,0-2.62H398Z" transform="translate(-139.96 -226.47)"/><path class="cls-6" d="M403.14,292.86a.6.6,0,1,1,0,1.19.6.6,0,1,1,0-1.19Z" transform="translate(-139.96 -226.47)"/><path class="cls-6" d="M375.06,260.18a.43.43,0,0,1,.85,0v4.08c0,1,.48,1.6,1.39,1.6s1.39-.64,1.39-1.6v-4.08a.41.41,0,0,1,.42-.42.42.42,0,0,1,.43.42v4.08a2.24,2.24,0,1,1-4.48,0Z" transform="translate(-139.96 -226.47)"/><path class="cls-6" d="M381.38,265.37a.61.61,0,0,1,.61.6.6.6,0,0,1-.61.59.58.58,0,0,1-.59-.59A.59.59,0,0,1,381.38,265.37Z" transform="translate(-139.96 -226.47)"/><path class="cls-5" d="M375.62,304.67h0a.73.73,0,0,1,.32-.6l4.31-2.92v.59a.74.74,0,0,1-.32.61l-3.42,2.3v.05l3.42,2.3a.73.73,0,0,1,.32.6v.6l-4.31-2.93A.72.72,0,0,1,375.62,304.67Z" transform="translate(-139.96 -226.47)"/><path class="cls-6" d="M382.9,307.36a.43.43,0,1,1-.85,0v-5.92a.42.42,0,0,1,.42-.42H384a2,2,0,0,1,2.14,2.07,1.87,1.87,0,0,1-1.12,1.74l1.22,2.27a.62.62,0,0,1,.09.28.4.4,0,0,1-.43.41.47.47,0,0,1-.37-.22l-1.31-2.52a3.25,3.25,0,0,1-.44,0h-.92Zm0-3H384a1.31,1.31,0,1,0,0-2.62H382.9Z" transform="translate(-139.96 -226.47)"/><path class="cls-6" d="M388,306.59a.6.6,0,1,1-.6.59A.59.59,0,0,1,388,306.59Z" transform="translate(-139.96 -226.47)"/><path class="cls-6" d="M392.46,301.39a.43.43,0,0,1,.43-.42.42.42,0,0,1,.42.42v4.09c0,1,.49,1.59,1.39,1.59s1.39-.63,1.39-1.59v-4.09a.43.43,0,0,1,.85,0v4.09a2.24,2.24,0,1,1-4.48,0Z" transform="translate(-139.96 -226.47)"/><path class="cls-6" d="M398.78,306.59a.6.6,0,1,1,0,1.19.6.6,0,0,1,0-1.19Z" transform="translate(-139.96 -226.47)"/><path class="cls-5" d="M330.3,442.56h0a.72.72,0,0,1,.32-.6l4.31-2.93v.6a.73.73,0,0,1-.32.6l-3.42,2.3v.05l3.42,2.3a.74.74,0,0,1,.32.61v.59l-4.31-2.92A.73.73,0,0,1,330.3,442.56Z" transform="translate(-139.96 -226.47)"/><path class="cls-6" d="M337.58,445.25a.43.43,0,0,1-.85,0v-5.92a.42.42,0,0,1,.42-.43h1.57a2,2,0,0,1,2.13,2.07,1.84,1.84,0,0,1-1.12,1.74L341,445a.66.66,0,0,1,.09.29.4.4,0,0,1-.43.4.47.47,0,0,1-.37-.22l-1.31-2.51a3.29,3.29,0,0,1-.45,0h-.91Zm0-3h1.11a1.31,1.31,0,1,0,0-2.62h-1.11Z" transform="translate(-139.96 -226.47)"/><path class="cls-6" d="M342.69,444.47a.6.6,0,1,1-.6.59A.59.59,0,0,1,342.69,444.47Z" transform="translate(-139.96 -226.47)"/><path class="cls-6" d="M347.14,439.27a.42.42,0,0,1,.43-.42.42.42,0,0,1,.42.42v4.09c0,1,.48,1.59,1.39,1.59s1.39-.63,1.39-1.59v-4.09a.43.43,0,0,1,.85,0v4.09a2.24,2.24,0,1,1-4.48,0Z" transform="translate(-139.96 -226.47)"/><path class="cls-6" d="M353.46,444.47a.6.6,0,1,1,0,1.19.6.6,0,0,1,0-1.19Z" transform="translate(-139.96 -226.47)"/><path class="cls-6" d="M373.73,321.13a.43.43,0,0,1-.85,0v-5.92a.43.43,0,0,1,.42-.43h1.57a2,2,0,0,1,2.14,2.07,1.88,1.88,0,0,1-1.12,1.75l1.22,2.27a.62.62,0,0,1,.09.28.4.4,0,0,1-.43.4.47.47,0,0,1-.37-.22l-1.31-2.51a3.25,3.25,0,0,1-.44,0h-.92Zm0-3h1.11a1.31,1.31,0,1,0,0-2.62h-1.11Z" transform="translate(-139.96 -226.47)"/><path class="cls-6" d="M378.84,320.35a.6.6,0,1,1,0,1.19.6.6,0,1,1,0-1.19Z" transform="translate(-139.96 -226.47)"/><path class="cls-6" d="M383.29,315.16a.43.43,0,0,1,.43-.43.42.42,0,0,1,.42.43v4.08c0,1,.48,1.6,1.39,1.6s1.39-.64,1.39-1.6v-4.08a.43.43,0,1,1,.85,0v4.08a2.24,2.24,0,1,1-4.48,0Z" transform="translate(-139.96 -226.47)"/><path class="cls-6" d="M389.61,320.35a.6.6,0,1,1,0,1.19.6.6,0,0,1,0-1.19Z" transform="translate(-139.96 -226.47)"/><path class="cls-5" d="M315.19,290.88h0a.73.73,0,0,1,.32-.6l4.31-2.92V288a.75.75,0,0,1-.32.61l-3.42,2.3v.05l3.42,2.3a.73.73,0,0,1,.32.6v.6l-4.31-2.93A.72.72,0,0,1,315.19,290.88Z" transform="translate(-139.96 -226.47)"/><path class="cls-6" d="M322.47,293.57a.43.43,0,0,1-.43.43.43.43,0,0,1-.42-.43v-5.92a.42.42,0,0,1,.42-.42h1.57a2,2,0,0,1,2.14,2.07,1.87,1.87,0,0,1-1.12,1.74l1.22,2.27a.62.62,0,0,1,.09.28.4.4,0,0,1-.43.41.45.45,0,0,1-.37-.23l-1.31-2.51a3.25,3.25,0,0,1-.44,0h-.92Zm0-3h1.11a1.31,1.31,0,1,0,0-2.62h-1.11Z" transform="translate(-139.96 -226.47)"/><path class="cls-6" d="M327.58,292.8a.59.59,0,0,1,.6.59.6.6,0,1,1-1.2,0A.59.59,0,0,1,327.58,292.8Z" transform="translate(-139.96 -226.47)"/><path class="cls-6" d="M332,287.6a.43.43,0,0,1,.43-.42.42.42,0,0,1,.42.42v4.09c0,.95.49,1.59,1.39,1.59s1.39-.64,1.39-1.59V287.6a.43.43,0,0,1,.85,0v4.09a2.24,2.24,0,1,1-4.48,0Z" transform="translate(-139.96 -226.47)"/><path class="cls-6" d="M338.36,292.8a.59.59,0,0,1,.6.59.6.6,0,0,1-.6.6.6.6,0,0,1-.6-.6A.59.59,0,0,1,338.36,292.8Z" transform="translate(-139.96 -226.47)"/><path class="cls-6" d="M339,273.24a.43.43,0,0,1,.85,0v2.53h2.57v-2.53a.41.41,0,0,1,.42-.42.42.42,0,0,1,.43.42v6a.42.42,0,0,1-.43.42.41.41,0,0,1-.42-.42v-2.69h-2.57v2.69a.43.43,0,0,1-.85,0Z" transform="translate(-139.96 -226.47)"/><path class="cls-6" d="M347.52,276.33c0-.57-.25-1-1.07-1a2.48,2.48,0,0,0-.74.14,2,2,0,0,1-.46.12.33.33,0,0,1-.35-.34c0-.15.1-.26.29-.36a3.43,3.43,0,0,1,1.33-.26,1.61,1.61,0,0,1,1.85,1.72v2a6.56,6.56,0,0,0,.1.95.36.36,0,0,1-.39.37.37.37,0,0,1-.38-.28l-.07-.29a2.27,2.27,0,0,1-1.52.63,1.42,1.42,0,0,1-1.57-1.45c0-.91.7-1.43,1.87-1.43h1.11Zm0,1.09h-1.08c-.71,0-1.07.27-1.07.77s.33.79.91.79a1.92,1.92,0,0,0,1.24-.53Z" transform="translate(-139.96 -226.47)"/><path class="cls-6" d="M352.68,275.51a1.54,1.54,0,0,0-.76-.2c-.92,0-1.34.71-1.34,1.83S351,279,351.92,279a2.53,2.53,0,0,0,.8-.14,2,2,0,0,1,.48-.12.32.32,0,0,1,.33.33c0,.19-.14.29-.31.37a3.65,3.65,0,0,1-1.3.27c-1.45,0-2.19-1-2.19-2.55s.78-2.53,2.19-2.53a2.54,2.54,0,0,1,1.24.32.64.64,0,0,1,.31.54l0,.43c0,.31-.13.5-.37.5a.39.39,0,0,1-.39-.39Z" transform="translate(-139.96 -226.47)"/><path class="cls-6" d="M354.85,272.8a.41.41,0,0,1,.42-.43.42.42,0,0,1,.42.43v3.89h.78l1.24-1.85a.39.39,0,0,1,.35-.18.41.41,0,0,1,.43.4.48.48,0,0,1-.07.24L357.2,277l1.37,2a.53.53,0,0,1,.08.25.4.4,0,0,1-.43.38.41.41,0,0,1-.34-.17l-1.41-2.09h-.78v1.84a.42.42,0,0,1-.42.42.41.41,0,0,1-.42-.42Z" transform="translate(-139.96 -226.47)"/><path class="cls-6" d="M359.77,278.87h.88v-3.45h-.85a.34.34,0,0,1-.36-.34.35.35,0,0,1,.36-.37h1.34a.36.36,0,0,1,.36.37v3.79h.88a.36.36,0,0,1,0,.71h-2.61a.36.36,0,1,1,0-.71Zm.49-5.56a.6.6,0,0,1,1.19,0,.6.6,0,1,1-1.19,0Z" transform="translate(-139.96 -226.47)"/><path class="cls-6" d="M363.73,275.93a7.75,7.75,0,0,0-.09-.86.36.36,0,0,1,.37-.41.37.37,0,0,1,.39.28l.07.32a2.33,2.33,0,0,1,1.47-.65c1,0,1.65.47,1.65,1.84v2.76a.43.43,0,0,1-.85,0v-2.76c0-.77-.29-1.14-1-1.14a2.11,2.11,0,0,0-1.19.53v3.37a.41.41,0,0,1-.42.42.42.42,0,0,1-.42-.42Z" transform="translate(-139.96 -226.47)"/><path class="cls-6" d="M372.37,274.94a.35.35,0,0,1,.37-.28.37.37,0,0,1,.39.4,7.86,7.86,0,0,0-.1.87v3.78c0,1.36-.79,1.92-2.06,1.92a3.2,3.2,0,0,1-1.42-.3.34.34,0,0,1-.2-.31.33.33,0,0,1,.36-.35,2,2,0,0,1,.47.12,2.31,2.31,0,0,0,.79.15c.76,0,1.22-.33,1.22-1.13v-.39a2.79,2.79,0,0,1-1.13.27c-1.43,0-2.13-1-2.13-2.53s.6-2.55,1.89-2.55a2.27,2.27,0,0,1,1.47.64Zm-.18.9a1.93,1.93,0,0,0-1.2-.53c-.84,0-1.2.74-1.2,1.86s.43,1.81,1.39,1.81a2.2,2.2,0,0,0,1-.26Z" transform="translate(-139.96 -226.47)"/><path class="cls-6" d="M374.35,273.68a.73.73,0,0,1,.51-.65,2.65,2.65,0,0,1,1.11-.24,1.64,1.64,0,0,1,1.77,1.64c0,1.42-1.68,2.05-1.68,2.79v.21a.39.39,0,0,1-.39.41.41.41,0,0,1-.4-.41v-.22c0-1.08,1.62-1.64,1.62-2.77a.9.9,0,0,0-.94-.95,1.81,1.81,0,0,0-.82.19l-.1.71a.38.38,0,0,1-.4.35.37.37,0,0,1-.35-.45Zm1.87,5.38a.56.56,0,0,1-1.12,0,.56.56,0,1,1,1.12,0Z" transform="translate(-139.96 -226.47)"/><path class="cls-5" d="M388.89,291.6l-4.31,2.93v-.6a.72.72,0,0,1,.32-.6l3.41-2.3v0l-3.41-2.31a.72.72,0,0,1-.32-.6v-.59l4.31,2.92a.73.73,0,0,1,.32.6h0A.72.72,0,0,1,388.89,291.6Z" transform="translate(-139.96 -226.47)"/><path class="cls-5" d="M382.31,286.88h.7l-3.11,8.25h-.7Z" transform="translate(-139.96 -226.47)"/><path class="cls-5" d="M315.19,470h0a.73.73,0,0,1,.32-.6l4.31-2.92V467a.74.74,0,0,1-.32.61l-3.42,2.3V470l3.42,2.3a.73.73,0,0,1,.32.6v.6l-4.31-2.93A.72.72,0,0,1,315.19,470Z" transform="translate(-139.96 -226.47)"/><path class="cls-5" d="M330.67,470.67l-4.31,2.93V473a.73.73,0,0,1,.32-.6l3.42-2.3v-.05l-3.42-2.31a.72.72,0,0,1-.32-.6v-.59l4.31,2.92a.73.73,0,0,1,.32.6h0A.72.72,0,0,1,330.67,470.67Z" transform="translate(-139.96 -226.47)"/><path class="cls-5" d="M324.09,466h.7l-3.11,8.25H321Z" transform="translate(-139.96 -226.47)"/><path class="cls-6" d="M341.2,287.12a.43.43,0,0,1,.85,0v2.53h2.57v-2.53a.43.43,0,0,1,.85,0v6a.43.43,0,1,1-.85,0V290.4h-2.57v2.69a.43.43,0,1,1-.85,0Z" transform="translate(-139.96 -226.47)"/><path class="cls-6" d="M349.76,290.21c0-.57-.25-1-1.07-1a2.36,2.36,0,0,0-.73.14,2.16,2.16,0,0,1-.47.12.33.33,0,0,1-.35-.34c0-.15.1-.25.29-.35a3.26,3.26,0,0,1,1.33-.27,1.61,1.61,0,0,1,1.85,1.72v2a6.56,6.56,0,0,0,.1.95.36.36,0,0,1-.38.38.38.38,0,0,1-.39-.29l-.07-.29a2.27,2.27,0,0,1-1.52.63,1.41,1.41,0,0,1-1.56-1.45c0-.9.69-1.43,1.86-1.43h1.11Zm0,1.09h-1.08c-.7,0-1.07.27-1.07.77s.34.79.91.79a2,2,0,0,0,1.24-.52Z" transform="translate(-139.96 -226.47)"/><path class="cls-6" d="M354.92,289.39a1.53,1.53,0,0,0-.75-.2c-.93,0-1.35.71-1.35,1.83s.43,1.84,1.35,1.84a2.52,2.52,0,0,0,.79-.14,2.1,2.1,0,0,1,.48-.12.32.32,0,0,1,.33.33c0,.19-.14.29-.31.37a3.43,3.43,0,0,1-1.29.27c-1.46,0-2.2-1-2.2-2.55s.78-2.53,2.2-2.53a2.44,2.44,0,0,1,1.23.33.61.61,0,0,1,.31.53l0,.43c0,.31-.13.5-.36.5a.39.39,0,0,1-.4-.39Z" transform="translate(-139.96 -226.47)"/><path class="cls-6" d="M357.09,286.68a.42.42,0,0,1,.42-.43.44.44,0,0,1,.43.43v3.89h.77l1.24-1.85a.39.39,0,0,1,.36-.18.41.41,0,0,1,.42.4.48.48,0,0,1-.07.24l-1.22,1.71,1.37,2a.53.53,0,0,1,.08.25.41.41,0,0,1-.43.39.42.42,0,0,1-.34-.18l-1.41-2.08h-.77v1.83a.43.43,0,0,1-.43.43.42.42,0,0,1-.42-.43Z" transform="translate(-139.96 -226.47)"/><path class="cls-6" d="M362,292.75h.89V289.3H362a.34.34,0,0,1-.35-.34.36.36,0,0,1,.35-.37h1.34a.37.37,0,0,1,.36.37v3.79h.88a.35.35,0,0,1,.35.36.36.36,0,0,1-.35.36H362a.36.36,0,0,1-.36-.36A.36.36,0,0,1,362,292.75Zm.49-5.56a.6.6,0,0,1,1.19,0,.6.6,0,1,1-1.19,0Z" transform="translate(-139.96 -226.47)"/><path class="cls-6" d="M366,289.81a7.75,7.75,0,0,0-.09-.86.36.36,0,0,1,.37-.41.39.39,0,0,1,.4.29l.07.31a2.29,2.29,0,0,1,1.46-.65c1,0,1.65.47,1.65,1.84v2.76a.42.42,0,1,1-.84,0v-2.76c0-.77-.3-1.14-1-1.14a2.05,2.05,0,0,0-1.19.53v3.37a.43.43,0,1,1-.85,0Z" transform="translate(-139.96 -226.47)"/><path class="cls-6" d="M374.61,288.83a.35.35,0,0,1,.37-.29.37.37,0,0,1,.4.4,7.86,7.86,0,0,0-.1.87v3.78c0,1.36-.8,1.92-2.07,1.92a3.13,3.13,0,0,1-1.41-.3.33.33,0,0,1-.21-.31.34.34,0,0,1,.36-.35,2.06,2.06,0,0,1,.47.13,2.37,2.37,0,0,0,.79.14c.77,0,1.22-.33,1.22-1.13v-.39a2.75,2.75,0,0,1-1.13.27c-1.42,0-2.13-1-2.13-2.53s.61-2.55,1.89-2.55a2.25,2.25,0,0,1,1.47.64Zm-.18.89a1.91,1.91,0,0,0-1.2-.53c-.84,0-1.2.74-1.2,1.86s.43,1.81,1.39,1.81a2.17,2.17,0,0,0,1-.26Z" transform="translate(-139.96 -226.47)"/><path class="cls-6" d="M376.59,287.56a.74.74,0,0,1,.51-.65,2.68,2.68,0,0,1,1.11-.24,1.63,1.63,0,0,1,1.77,1.64c0,1.42-1.68,2.05-1.68,2.79v.21a.39.39,0,0,1-.38.41.41.41,0,0,1-.41-.41v-.22c0-1.07,1.63-1.64,1.63-2.77a.91.91,0,0,0-.95-.95,1.84,1.84,0,0,0-.82.19l-.1.71a.38.38,0,1,1-.75-.1Zm1.87,5.38a.56.56,0,1,1-1.12,0,.56.56,0,1,1,1.12,0Z" transform="translate(-139.96 -226.47)"/><path class="cls-5" d="M315.19,359.75h0a.72.72,0,0,1,.32-.6l4.31-2.93v.6a.73.73,0,0,1-.32.6l-3.42,2.3v0l3.42,2.3a.74.74,0,0,1,.32.61v.59l-4.31-2.92A.73.73,0,0,1,315.19,359.75Z" transform="translate(-139.96 -226.47)"/><path class="cls-6" d="M322.47,362.44a.43.43,0,0,1-.85,0v-5.92a.42.42,0,0,1,.42-.43h1.57a2,2,0,0,1,2.14,2.07,1.86,1.86,0,0,1-1.12,1.74l1.22,2.27a.66.66,0,0,1,.09.29.4.4,0,0,1-.43.4.47.47,0,0,1-.37-.22l-1.31-2.51a3.25,3.25,0,0,1-.44,0h-.92Zm0-3h1.11a1.31,1.31,0,1,0,0-2.62h-1.11Z" transform="translate(-139.96 -226.47)"/><path class="cls-6" d="M327.58,361.66a.6.6,0,1,1-.6.59A.59.59,0,0,1,327.58,361.66Z" transform="translate(-139.96 -226.47)"/><path class="cls-6" d="M332,356.47a.43.43,0,0,1,.43-.43.42.42,0,0,1,.42.43v4.08c0,1,.49,1.59,1.39,1.59s1.39-.63,1.39-1.59v-4.08a.43.43,0,1,1,.85,0v4.08a2.24,2.24,0,1,1-4.48,0Z" transform="translate(-139.96 -226.47)"/><path class="cls-6" d="M338.36,361.66a.6.6,0,1,1-.6.59A.59.59,0,0,1,338.36,361.66Z" transform="translate(-139.96 -226.47)"/><path class="cls-5" d="M388.89,360.47l-4.31,2.92v-.59a.74.74,0,0,1,.32-.61l3.41-2.3v-.05l-3.41-2.3a.73.73,0,0,1-.32-.6v-.6l4.31,2.93a.72.72,0,0,1,.32.6h0A.73.73,0,0,1,388.89,360.47Z" transform="translate(-139.96 -226.47)"/><path class="cls-5" d="M382.31,355.74h.7L379.9,364h-.7Z" transform="translate(-139.96 -226.47)"/><path class="cls-6" d="M341.2,356a.43.43,0,0,1,.85,0v2.54h2.57V356a.43.43,0,0,1,.85,0v6a.43.43,0,0,1-.85,0v-2.7h-2.57V362a.43.43,0,0,1-.85,0Z" transform="translate(-139.96 -226.47)"/><path class="cls-6" d="M349.76,359.07c0-.56-.25-1-1.07-1a2.36,2.36,0,0,0-.73.14,2.16,2.16,0,0,1-.47.12.33.33,0,0,1-.35-.34c0-.15.1-.25.29-.35a3.43,3.43,0,0,1,1.33-.26c1.43,0,1.85.84,1.85,1.71v2a7,7,0,0,0,.1.95.35.35,0,0,1-.38.37.37.37,0,0,1-.39-.28l-.07-.3a2.22,2.22,0,0,1-1.52.63,1.41,1.41,0,0,1-1.56-1.44c0-.91.69-1.43,1.86-1.43h1.11Zm0,1.09h-1.08c-.7,0-1.07.27-1.07.78s.34.78.91.78a2,2,0,0,0,1.24-.52Z" transform="translate(-139.96 -226.47)"/><path class="cls-6" d="M354.92,358.25a1.53,1.53,0,0,0-.75-.2c-.93,0-1.35.72-1.35,1.84s.43,1.83,1.35,1.83a2.52,2.52,0,0,0,.79-.14,2.1,2.1,0,0,1,.48-.12.32.32,0,0,1,.33.33c0,.2-.14.3-.31.38a3.61,3.61,0,0,1-1.29.26c-1.46,0-2.2-1-2.2-2.54s.78-2.53,2.2-2.53a2.54,2.54,0,0,1,1.23.32.61.61,0,0,1,.31.53l0,.44c0,.3-.13.49-.36.49a.39.39,0,0,1-.4-.38Z" transform="translate(-139.96 -226.47)"/><path class="cls-6" d="M357.09,355.54a.41.41,0,0,1,.42-.42.43.43,0,0,1,.43.42v3.89h.77l1.24-1.84a.39.39,0,0,1,.36-.18.4.4,0,0,1,.42.39.48.48,0,0,1-.07.24l-1.22,1.72,1.37,2a.53.53,0,0,1,.08.26.4.4,0,0,1-.43.38.44.44,0,0,1-.34-.17l-1.41-2.09h-.77V362a.42.42,0,0,1-.43.42.41.41,0,0,1-.42-.42Z" transform="translate(-139.96 -226.47)"/><path class="cls-6" d="M362,361.61h.89v-3.45H362a.34.34,0,0,1-.35-.34.35.35,0,0,1,.35-.36h1.34a.36.36,0,0,1,.36.36v3.79h.88a.35.35,0,0,1,.35.37.35.35,0,0,1-.35.35H362a.36.36,0,0,1-.36-.35A.36.36,0,0,1,362,361.61Zm.49-5.55a.6.6,0,1,1,.6.59A.59.59,0,0,1,362.5,356.06Z" transform="translate(-139.96 -226.47)"/><path class="cls-6" d="M366,358.68a7.73,7.73,0,0,0-.09-.87.36.36,0,0,1,.37-.4.39.39,0,0,1,.4.28l.07.31a2.32,2.32,0,0,1,1.46-.64c1,0,1.65.46,1.65,1.83V362a.42.42,0,1,1-.84,0v-2.77c0-.76-.3-1.14-1-1.14a2,2,0,0,0-1.19.54V362a.43.43,0,0,1-.85,0Z" transform="translate(-139.96 -226.47)"/><path class="cls-6" d="M374.61,357.69a.35.35,0,0,1,.37-.28.37.37,0,0,1,.4.39,7.82,7.82,0,0,0-.1.88v3.77c0,1.36-.8,1.93-2.07,1.93a3,3,0,0,1-1.41-.31.34.34,0,0,1,.15-.65,2,2,0,0,1,.47.12,2.37,2.37,0,0,0,.79.14c.77,0,1.22-.32,1.22-1.13v-.38a2.76,2.76,0,0,1-1.13.26c-1.42,0-2.13-1-2.13-2.52s.61-2.55,1.89-2.55a2.29,2.29,0,0,1,1.47.63Zm-.18.9a1.87,1.87,0,0,0-1.2-.54c-.84,0-1.2.75-1.2,1.87s.43,1.8,1.39,1.8a2.17,2.17,0,0,0,1-.26Z" transform="translate(-139.96 -226.47)"/><path class="cls-6" d="M376.59,356.43a.76.76,0,0,1,.51-.66,2.68,2.68,0,0,1,1.11-.24,1.64,1.64,0,0,1,1.77,1.64c0,1.43-1.68,2.05-1.68,2.8v.2a.39.39,0,0,1-.38.41.41.41,0,0,1-.41-.41V360c0-1.08,1.63-1.65,1.63-2.78a.9.9,0,0,0-.95-.94,1.84,1.84,0,0,0-.82.19l-.1.7a.38.38,0,1,1-.75-.1Zm1.87,5.37a.56.56,0,1,1-.56-.56A.56.56,0,0,1,378.46,361.8Z" transform="translate(-139.96 -226.47)"/><path class="cls-5" d="M366.46,318.44h0a.72.72,0,0,1,.32-.6l4.31-2.92v.59a.72.72,0,0,1-.32.6l-3.42,2.3v0l3.42,2.31a.72.72,0,0,1,.32.6V322L366.78,319A.73.73,0,0,1,366.46,318.44Z" transform="translate(-139.96 -226.47)"/><path class="cls-5" d="M364.6,319.09,360.29,322v-.6a.73.73,0,0,1,.32-.6l3.41-2.3v0l-3.41-2.3a.74.74,0,0,1-.32-.61V315l4.31,2.92a.73.73,0,0,1,.32.6h0A.72.72,0,0,1,364.6,319.09Z" transform="translate(-139.96 -226.47)"/><path class="cls-5" d="M358,314.37h.7l-3.11,8.25h-.7Z" transform="translate(-139.96 -226.47)"/><path class="cls-6" d="M316.92,314.61a.42.42,0,1,1,.84,0v2.53h2.57v-2.53a.42.42,0,0,1,.43-.42.41.41,0,0,1,.42.42v6a.42.42,0,0,1-.42.43.43.43,0,0,1-.43-.43v-2.69h-2.57v2.69a.42.42,0,1,1-.84,0Z" transform="translate(-139.96 -226.47)"/><path class="cls-6" d="M325.47,317.7c0-.57-.25-1-1.06-1a2.36,2.36,0,0,0-.74.14,1.91,1.91,0,0,1-.47.12.33.33,0,0,1-.35-.34c0-.15.1-.25.29-.35a3.31,3.31,0,0,1,1.34-.27,1.6,1.6,0,0,1,1.84,1.72v2a6.55,6.55,0,0,0,.1.94.36.36,0,0,1-.38.38.37.37,0,0,1-.38-.29l-.07-.29a2.29,2.29,0,0,1-1.53.63,1.41,1.41,0,0,1-1.56-1.45c0-.9.7-1.43,1.87-1.43h1.1Zm0,1.09H324.4c-.71,0-1.07.27-1.07.77s.33.79.9.79a1.93,1.93,0,0,0,1.24-.52Z" transform="translate(-139.96 -226.47)"/><path class="cls-6" d="M330.64,316.88a1.6,1.6,0,0,0-.76-.2c-.93,0-1.34.72-1.34,1.84s.42,1.83,1.34,1.83a2.63,2.63,0,0,0,.8-.14,2,2,0,0,1,.47-.12.32.32,0,0,1,.33.33c0,.19-.14.29-.31.37a3.39,3.39,0,0,1-1.29.27c-1.45,0-2.2-1-2.2-2.54s.79-2.54,2.2-2.54a2.41,2.41,0,0,1,1.23.33.61.61,0,0,1,.31.53l0,.43c0,.31-.13.5-.36.5a.39.39,0,0,1-.39-.38Z" transform="translate(-139.96 -226.47)"/><path class="cls-6" d="M332.8,314.17a.42.42,0,0,1,.43-.43.43.43,0,0,1,.42.43v3.89h.78l1.24-1.84A.38.38,0,0,1,336,316a.41.41,0,0,1,.42.4.48.48,0,0,1-.07.24l-1.22,1.71,1.37,2a.53.53,0,0,1,.08.25.42.42,0,0,1-.76.22l-1.41-2.09h-.78v1.83a.43.43,0,1,1-.85,0Z" transform="translate(-139.96 -226.47)"/><path class="cls-6" d="M337.72,320.24h.89v-3.45h-.86a.34.34,0,0,1-.35-.34.36.36,0,0,1,.35-.37h1.34a.38.38,0,0,1,.37.37v3.79h.87a.35.35,0,0,1,.36.36.36.36,0,0,1-.36.36h-2.61a.36.36,0,0,1-.35-.36A.35.35,0,0,1,337.72,320.24Zm.49-5.56a.6.6,0,1,1,.6.6A.59.59,0,0,1,338.21,314.68Z" transform="translate(-139.96 -226.47)"/><path class="cls-6" d="M341.68,317.3a7.75,7.75,0,0,0-.09-.86A.37.37,0,0,1,342,316a.38.38,0,0,1,.4.29l.07.31a2.36,2.36,0,0,1,1.46-.65c1,0,1.66.47,1.66,1.84v2.76a.43.43,0,0,1-.43.43.42.42,0,0,1-.42-.43v-2.76c0-.77-.29-1.14-1-1.14a2.08,2.08,0,0,0-1.19.53v3.37a.42.42,0,0,1-.42.43.43.43,0,0,1-.43-.43Z" transform="translate(-139.96 -226.47)"/><path class="cls-6" d="M350.32,316.32a.39.39,0,0,1,.77.11,7.86,7.86,0,0,0-.1.87v3.78c0,1.36-.8,1.92-2.07,1.92a3.16,3.16,0,0,1-1.41-.3.34.34,0,0,1-.2-.31.32.32,0,0,1,.35-.34,2,2,0,0,1,.47.12,2.42,2.42,0,0,0,.79.14c.77,0,1.22-.32,1.22-1.13v-.39a2.56,2.56,0,0,1-1.13.27c-1.42,0-2.13-1-2.13-2.52s.61-2.56,1.89-2.56a2.3,2.3,0,0,1,1.47.64Zm-.18.89a1.91,1.91,0,0,0-1.2-.53c-.84,0-1.2.75-1.2,1.87s.43,1.8,1.39,1.8a2.13,2.13,0,0,0,1-.26Z" transform="translate(-139.96 -226.47)"/><path class="cls-6" d="M352.31,315.06a.73.73,0,0,1,.5-.66,2.68,2.68,0,0,1,1.11-.24,1.64,1.64,0,0,1,1.78,1.64c0,1.42-1.69,2.05-1.69,2.8v.2a.39.39,0,0,1-.38.41.41.41,0,0,1-.4-.41v-.21c0-1.08,1.62-1.65,1.62-2.78a.9.9,0,0,0-1-.95,1.76,1.76,0,0,0-.82.2l-.1.7a.38.38,0,0,1-.39.35.37.37,0,0,1-.35-.45Zm1.86,5.37a.56.56,0,0,1-.55.57.57.57,0,0,1-.57-.57.56.56,0,0,1,.57-.56A.55.55,0,0,1,354.17,320.43Z" transform="translate(-139.96 -226.47)"/><path class="cls-5" d="M364.6,429.42l-4.31,2.92v-.59a.72.72,0,0,1,.32-.6l3.41-2.31v0l-3.41-2.3a.72.72,0,0,1-.32-.6v-.59l4.31,2.92a.72.72,0,0,1,.32.6h0A.72.72,0,0,1,364.6,429.42Z" transform="translate(-139.96 -226.47)"/><path class="cls-5" d="M358,424.7h.7l-3.11,8.24h-.7Z" transform="translate(-139.96 -226.47)"/><path class="cls-6" d="M316.92,424.94a.42.42,0,1,1,.84,0v2.53h2.57v-2.53a.43.43,0,0,1,.43-.43.42.42,0,0,1,.42.43v6a.41.41,0,0,1-.42.42.42.42,0,0,1-.43-.42v-2.69h-2.57v2.69a.42.42,0,1,1-.84,0Z" transform="translate(-139.96 -226.47)"/><path class="cls-6" d="M325.47,428c0-.56-.25-1-1.06-1a2.36,2.36,0,0,0-.74.14,1.91,1.91,0,0,1-.47.12.33.33,0,0,1-.35-.34c0-.16.1-.26.29-.36a3.47,3.47,0,0,1,1.34-.26,1.6,1.6,0,0,1,1.84,1.71v2a6.56,6.56,0,0,0,.1.95.35.35,0,0,1-.38.37.37.37,0,0,1-.38-.28l-.07-.29a2.29,2.29,0,0,1-1.53.62,1.4,1.4,0,0,1-1.56-1.44c0-.91.7-1.43,1.87-1.43h1.1Zm0,1.09H324.4c-.71,0-1.07.28-1.07.78s.33.79.9.79a1.9,1.9,0,0,0,1.24-.53Z" transform="translate(-139.96 -226.47)"/><path class="cls-6" d="M330.64,427.21a1.6,1.6,0,0,0-.76-.2c-.93,0-1.34.71-1.34,1.83s.42,1.84,1.34,1.84a2.63,2.63,0,0,0,.8-.14,2,2,0,0,1,.47-.12.32.32,0,0,1,.33.33c0,.19-.14.29-.31.37a3.57,3.57,0,0,1-1.29.26c-1.45,0-2.2-1-2.2-2.54s.79-2.53,2.2-2.53a2.51,2.51,0,0,1,1.23.32.63.63,0,0,1,.31.54l0,.43c0,.3-.13.5-.36.5a.4.4,0,0,1-.39-.39Z" transform="translate(-139.96 -226.47)"/><path class="cls-6" d="M332.8,424.49a.41.41,0,0,1,.43-.42.42.42,0,0,1,.42.42v3.9h.78l1.24-1.85a.39.39,0,0,1,.35-.18.4.4,0,0,1,.42.39.52.52,0,0,1-.07.25l-1.22,1.71,1.37,2a.53.53,0,0,1,.08.25.42.42,0,0,1-.76.21l-1.41-2.09h-.78v1.84a.43.43,0,0,1-.85,0Z" transform="translate(-139.96 -226.47)"/><path class="cls-6" d="M337.72,430.57h.89v-3.45h-.86a.34.34,0,0,1-.35-.35.35.35,0,0,1,.35-.36h1.34a.37.37,0,0,1,.37.36v3.8h.87a.36.36,0,1,1,0,.71h-2.61a.36.36,0,0,1,0-.71Zm.49-5.56a.6.6,0,1,1,1.2,0,.6.6,0,0,1-1.2,0Z" transform="translate(-139.96 -226.47)"/><path class="cls-6" d="M341.68,427.63a8.35,8.35,0,0,0-.09-.87.36.36,0,0,1,.37-.4.37.37,0,0,1,.4.28l.07.32a2.31,2.31,0,0,1,1.46-.65c1,0,1.66.46,1.66,1.84v2.76a.42.42,0,0,1-.43.42.41.41,0,0,1-.42-.42v-2.76c0-.77-.29-1.14-1-1.14a2.08,2.08,0,0,0-1.19.53v3.37a.41.41,0,0,1-.42.42.42.42,0,0,1-.43-.42Z" transform="translate(-139.96 -226.47)"/><path class="cls-6" d="M350.32,426.64a.39.39,0,0,1,.77.11,8.49,8.49,0,0,0-.1.88v3.77c0,1.36-.8,1.93-2.07,1.93a3.16,3.16,0,0,1-1.41-.3.34.34,0,0,1-.2-.32.32.32,0,0,1,.35-.34,2,2,0,0,1,.47.12,2.42,2.42,0,0,0,.79.14c.77,0,1.22-.32,1.22-1.13v-.38a2.72,2.72,0,0,1-1.13.26c-1.42,0-2.13-1-2.13-2.52s.61-2.55,1.89-2.55a2.25,2.25,0,0,1,1.47.64Zm-.18.9a1.91,1.91,0,0,0-1.2-.53c-.84,0-1.2.74-1.2,1.86s.43,1.81,1.39,1.81a2.13,2.13,0,0,0,1-.26Z" transform="translate(-139.96 -226.47)"/><path class="cls-6" d="M352.31,425.38a.73.73,0,0,1,.5-.65,2.55,2.55,0,0,1,1.11-.25,1.65,1.65,0,0,1,1.78,1.65c0,1.42-1.69,2.05-1.69,2.79v.2a.39.39,0,0,1-.38.42.41.41,0,0,1-.4-.42v-.21c0-1.08,1.62-1.64,1.62-2.77a.9.9,0,0,0-1-.95,1.87,1.87,0,0,0-.82.19l-.1.71a.38.38,0,0,1-.39.35.37.37,0,0,1-.35-.45Zm1.86,5.38a.55.55,0,0,1-.55.56.56.56,0,0,1-.57-.56.57.57,0,0,1,.57-.57A.56.56,0,0,1,354.17,430.76Z" transform="translate(-139.96 -226.47)"/><path class="cls-5" d="M364.6,457l-4.31,2.93v-.6a.72.72,0,0,1,.32-.6l3.41-2.3v-.05l-3.41-2.31a.72.72,0,0,1-.32-.6v-.59l4.31,2.92a.73.73,0,0,1,.32.6h0A.72.72,0,0,1,364.6,457Z" transform="translate(-139.96 -226.47)"/><path class="cls-5" d="M358,452.28h.7l-3.11,8.25h-.7Z" transform="translate(-139.96 -226.47)"/><path class="cls-6" d="M316.92,452.52a.42.42,0,0,1,.84,0v2.53h2.57v-2.53a.42.42,0,0,1,.43-.42.41.41,0,0,1,.42.42v6a.41.41,0,0,1-.42.42.42.42,0,0,1-.43-.42V455.8h-2.57v2.69a.42.42,0,0,1-.84,0Z" transform="translate(-139.96 -226.47)"/><path class="cls-6" d="M325.47,455.61c0-.57-.25-1-1.06-1a2.36,2.36,0,0,0-.74.14,1.91,1.91,0,0,1-.47.12.33.33,0,0,1-.35-.34c0-.15.1-.26.29-.36a3.47,3.47,0,0,1,1.34-.26,1.6,1.6,0,0,1,1.84,1.72v2a6.56,6.56,0,0,0,.1,1,.35.35,0,0,1-.38.37.37.37,0,0,1-.38-.28l-.07-.29a2.29,2.29,0,0,1-1.53.63,1.41,1.41,0,0,1-1.56-1.45c0-.9.7-1.43,1.87-1.43h1.1Zm0,1.09H324.4c-.71,0-1.07.27-1.07.77s.33.79.9.79a1.9,1.9,0,0,0,1.24-.53Z" transform="translate(-139.96 -226.47)"/><path class="cls-6" d="M330.64,454.79a1.6,1.6,0,0,0-.76-.2c-.93,0-1.34.71-1.34,1.83s.42,1.84,1.34,1.84a2.63,2.63,0,0,0,.8-.14,2,2,0,0,1,.47-.12.32.32,0,0,1,.33.33c0,.19-.14.29-.31.37a3.6,3.6,0,0,1-1.29.27c-1.45,0-2.2-1-2.2-2.55s.79-2.53,2.2-2.53a2.51,2.51,0,0,1,1.23.32.64.64,0,0,1,.31.54l0,.43c0,.31-.13.5-.36.5a.39.39,0,0,1-.39-.39Z" transform="translate(-139.96 -226.47)"/><path class="cls-6" d="M332.8,452.08a.41.41,0,0,1,.43-.43.42.42,0,0,1,.42.43V456h.78l1.24-1.85a.39.39,0,0,1,.35-.18.41.41,0,0,1,.42.4.48.48,0,0,1-.07.24l-1.22,1.71,1.37,2a.53.53,0,0,1,.08.25.42.42,0,0,1-.76.21l-1.41-2.08h-.78v1.83a.43.43,0,0,1-.85,0Z" transform="translate(-139.96 -226.47)"/><path class="cls-6" d="M337.72,458.15h.89V454.7h-.86a.34.34,0,0,1-.35-.34.35.35,0,0,1,.35-.37h1.34a.37.37,0,0,1,.37.37v3.79h.87a.36.36,0,1,1,0,.71h-2.61a.36.36,0,0,1,0-.71Zm.49-5.56a.6.6,0,0,1,1.2,0,.6.6,0,0,1-1.2,0Z" transform="translate(-139.96 -226.47)"/><path class="cls-6" d="M341.68,455.21a7.75,7.75,0,0,0-.09-.86.36.36,0,0,1,.37-.41.37.37,0,0,1,.4.28l.07.32a2.31,2.31,0,0,1,1.46-.65c1,0,1.66.47,1.66,1.84v2.76a.42.42,0,0,1-.43.42.41.41,0,0,1-.42-.42v-2.76c0-.77-.29-1.14-1-1.14a2.08,2.08,0,0,0-1.19.53v3.37a.41.41,0,0,1-.42.42.42.42,0,0,1-.43-.42Z" transform="translate(-139.96 -226.47)"/><path class="cls-6" d="M350.32,454.22a.36.36,0,0,1,.38-.28.37.37,0,0,1,.39.4,7.86,7.86,0,0,0-.1.87V459c0,1.36-.8,1.92-2.07,1.92a3.16,3.16,0,0,1-1.41-.3.34.34,0,0,1-.2-.31.33.33,0,0,1,.35-.35,2,2,0,0,1,.47.12,2.18,2.18,0,0,0,.79.15c.77,0,1.22-.33,1.22-1.13v-.39A2.7,2.7,0,0,1,349,459c-1.42,0-2.13-1-2.13-2.53s.61-2.55,1.89-2.55a2.25,2.25,0,0,1,1.47.64Zm-.18.9a1.91,1.91,0,0,0-1.2-.53c-.84,0-1.2.74-1.2,1.86s.43,1.81,1.39,1.81a2.13,2.13,0,0,0,1-.26Z" transform="translate(-139.96 -226.47)"/><path class="cls-6" d="M352.31,453a.73.73,0,0,1,.5-.65,2.68,2.68,0,0,1,1.11-.24,1.64,1.64,0,0,1,1.78,1.64c0,1.42-1.69,2.05-1.69,2.79v.21a.39.39,0,0,1-.38.41.41.41,0,0,1-.4-.41v-.22c0-1.08,1.62-1.64,1.62-2.77a.9.9,0,0,0-1-1,1.87,1.87,0,0,0-.82.19l-.1.71a.38.38,0,0,1-.39.35.37.37,0,0,1-.35-.45Zm1.86,5.38a.55.55,0,0,1-.55.56.56.56,0,0,1-.57-.56.57.57,0,0,1,.57-.57A.56.56,0,0,1,354.17,458.34Z" transform="translate(-139.96 -226.47)"/><path class="cls-6" d="M373.73,390.08a.43.43,0,1,1-.85,0v-5.92a.42.42,0,0,1,.42-.42h1.57a2,2,0,0,1,2.14,2.07,1.87,1.87,0,0,1-1.12,1.74l1.22,2.27a.62.62,0,0,1,.09.28.4.4,0,0,1-.43.41.45.45,0,0,1-.37-.23l-1.31-2.51a3.25,3.25,0,0,1-.44,0h-.92Zm0-3h1.11a1.31,1.31,0,1,0,0-2.62h-1.11Z" transform="translate(-139.96 -226.47)"/><path class="cls-6" d="M378.84,389.31a.59.59,0,0,1,.6.59.6.6,0,0,1-.6.6.6.6,0,0,1-.6-.6A.59.59,0,0,1,378.84,389.31Z" transform="translate(-139.96 -226.47)"/><path class="cls-6" d="M383.29,384.11a.42.42,0,0,1,.43-.42.42.42,0,0,1,.42.42v4.09c0,.95.48,1.59,1.39,1.59s1.39-.64,1.39-1.59v-4.09a.43.43,0,0,1,.85,0v4.09a2.24,2.24,0,1,1-4.48,0Z" transform="translate(-139.96 -226.47)"/><path class="cls-6" d="M389.61,389.31a.6.6,0,0,1,.61.59.6.6,0,0,1-.61.6.59.59,0,0,1-.59-.6A.58.58,0,0,1,389.61,389.31Z" transform="translate(-139.96 -226.47)"/><path class="cls-5" d="M366.46,387.39h0a.73.73,0,0,1,.32-.6l4.31-2.92v.59a.75.75,0,0,1-.32.61l-3.42,2.3v.05l3.42,2.3a.73.73,0,0,1,.32.6v.6L366.78,388A.72.72,0,0,1,366.46,387.39Z" transform="translate(-139.96 -226.47)"/><path class="cls-5" d="M364.6,388.05,360.29,391v-.59a.72.72,0,0,1,.32-.6l3.41-2.31v-.05l-3.41-2.3a.73.73,0,0,1-.32-.6v-.6l4.31,2.93a.72.72,0,0,1,.32.6h0A.73.73,0,0,1,364.6,388.05Z" transform="translate(-139.96 -226.47)"/><path class="cls-5" d="M358,383.32h.7l-3.11,8.25h-.7Z" transform="translate(-139.96 -226.47)"/><path class="cls-6" d="M316.92,383.57a.42.42,0,1,1,.84,0v2.53h2.57v-2.53a.42.42,0,0,1,.43-.43.41.41,0,0,1,.42.43v6a.41.41,0,0,1-.42.42.42.42,0,0,1-.43-.42v-2.7h-2.57v2.7a.42.42,0,1,1-.84,0Z" transform="translate(-139.96 -226.47)"/><path class="cls-6" d="M325.47,386.65a.92.92,0,0,0-1.06-1,2.36,2.36,0,0,0-.74.14,1.59,1.59,0,0,1-.47.13.34.34,0,0,1-.35-.35c0-.15.1-.25.29-.35a3.47,3.47,0,0,1,1.34-.26,1.6,1.6,0,0,1,1.84,1.71v2a6.77,6.77,0,0,0,.1.95.35.35,0,0,1-.38.37.37.37,0,0,1-.38-.28l-.07-.29a2.29,2.29,0,0,1-1.53.62,1.4,1.4,0,0,1-1.56-1.44c0-.91.7-1.43,1.87-1.43h1.1Zm0,1.09H324.4c-.71,0-1.07.27-1.07.78s.33.79.9.79a2,2,0,0,0,1.24-.53Z" transform="translate(-139.96 -226.47)"/><path class="cls-6" d="M330.64,385.84a1.5,1.5,0,0,0-.76-.21c-.93,0-1.34.72-1.34,1.84s.42,1.84,1.34,1.84a2.64,2.64,0,0,0,.8-.15,2,2,0,0,1,.47-.12.32.32,0,0,1,.33.34c0,.19-.14.29-.31.37a3.57,3.57,0,0,1-1.29.26c-1.45,0-2.2-1-2.2-2.54s.79-2.53,2.2-2.53a2.51,2.51,0,0,1,1.23.32.61.61,0,0,1,.31.53l0,.44c0,.3-.13.49-.36.49a.39.39,0,0,1-.39-.38Z" transform="translate(-139.96 -226.47)"/><path class="cls-6" d="M332.8,383.12a.41.41,0,0,1,.43-.42.42.42,0,0,1,.42.42V387h.78l1.24-1.85A.39.39,0,0,1,336,385a.4.4,0,0,1,.42.39.48.48,0,0,1-.07.24l-1.22,1.72,1.37,2a.53.53,0,0,1,.08.25.42.42,0,0,1-.76.21l-1.41-2.09h-.78v1.84a.43.43,0,0,1-.85,0Z" transform="translate(-139.96 -226.47)"/><path class="cls-6" d="M337.72,389.19h.89v-3.45h-.86a.34.34,0,0,1-.35-.34.35.35,0,0,1,.35-.36h1.34a.37.37,0,0,1,.37.36v3.79h.87a.36.36,0,0,1,.36.37.35.35,0,0,1-.36.35h-2.61a.35.35,0,0,1-.35-.35A.36.36,0,0,1,337.72,389.19Zm.49-5.55a.6.6,0,1,1,.6.59A.6.6,0,0,1,338.21,383.64Z" transform="translate(-139.96 -226.47)"/><path class="cls-6" d="M341.68,386.26a8,8,0,0,0-.09-.87.36.36,0,0,1,.37-.4.37.37,0,0,1,.4.28l.07.31a2.35,2.35,0,0,1,1.46-.64c1,0,1.66.46,1.66,1.83v2.77a.42.42,0,0,1-.43.42.41.41,0,0,1-.42-.42v-2.77c0-.76-.29-1.14-1-1.14a2.1,2.1,0,0,0-1.19.54v3.37a.41.41,0,0,1-.42.42.42.42,0,0,1-.43-.42Z" transform="translate(-139.96 -226.47)"/><path class="cls-6" d="M350.32,385.27a.39.39,0,0,1,.77.11,8.14,8.14,0,0,0-.1.88V390c0,1.36-.8,1.93-2.07,1.93a3.16,3.16,0,0,1-1.41-.3.36.36,0,0,1-.2-.32.32.32,0,0,1,.35-.34,2,2,0,0,1,.47.12,2.42,2.42,0,0,0,.79.14c.77,0,1.22-.32,1.22-1.13v-.38A2.72,2.72,0,0,1,349,390c-1.42,0-2.13-1-2.13-2.52s.61-2.55,1.89-2.55a2.29,2.29,0,0,1,1.47.63Zm-.18.9a1.87,1.87,0,0,0-1.2-.54c-.84,0-1.2.75-1.2,1.87s.43,1.81,1.39,1.81a2.13,2.13,0,0,0,1-.27Z" transform="translate(-139.96 -226.47)"/><path class="cls-6" d="M352.31,384a.75.75,0,0,1,.5-.66,2.68,2.68,0,0,1,1.11-.24,1.65,1.65,0,0,1,1.78,1.65c0,1.42-1.69,2-1.69,2.79v.2a.4.4,0,0,1-.38.42.42.42,0,0,1-.4-.42v-.21c0-1.08,1.62-1.64,1.62-2.77a.9.9,0,0,0-1-.95,1.87,1.87,0,0,0-.82.19l-.1.71a.38.38,0,1,1-.74-.11Zm1.86,5.38a.55.55,0,0,1-.55.56.57.57,0,1,1,0-1.13A.55.55,0,0,1,354.17,389.39Z" transform="translate(-139.96 -226.47)"/><path class="cls-6" d="M373.73,334.92a.43.43,0,0,1-.85,0V329a.42.42,0,0,1,.42-.42h1.57a2,2,0,0,1,2.14,2.06,1.87,1.87,0,0,1-1.12,1.75l1.22,2.27a.62.62,0,0,1,.09.28.4.4,0,0,1-.43.4.47.47,0,0,1-.37-.22l-1.31-2.51a3.25,3.25,0,0,1-.44,0h-.92Zm0-3h1.11a1.31,1.31,0,1,0,0-2.62h-1.11Z" transform="translate(-139.96 -226.47)"/><path class="cls-6" d="M378.84,334.14a.6.6,0,0,1,.6.6.59.59,0,0,1-.6.59.59.59,0,0,1-.6-.59A.6.6,0,0,1,378.84,334.14Z" transform="translate(-139.96 -226.47)"/><path class="cls-6" d="M383.29,329a.42.42,0,0,1,.43-.42.42.42,0,0,1,.42.42V333c0,1,.48,1.6,1.39,1.6s1.39-.64,1.39-1.6V329a.43.43,0,0,1,.85,0V333a2.24,2.24,0,1,1-4.48,0Z" transform="translate(-139.96 -226.47)"/><path class="cls-6" d="M389.61,334.14a.6.6,0,0,1,.61.6.6.6,0,0,1-.61.59.58.58,0,0,1-.59-.59A.59.59,0,0,1,389.61,334.14Z" transform="translate(-139.96 -226.47)"/><path class="cls-5" d="M366.46,332.23h0a.72.72,0,0,1,.32-.6l4.31-2.92v.59a.72.72,0,0,1-.32.6l-3.42,2.31v.05l3.42,2.3a.72.72,0,0,1,.32.6v.59l-4.31-2.92A.72.72,0,0,1,366.46,332.23Z" transform="translate(-139.96 -226.47)"/><path class="cls-5" d="M364.6,332.88l-4.31,2.93v-.6a.73.73,0,0,1,.32-.6l3.41-2.3v-.05l-3.41-2.3a.74.74,0,0,1-.32-.61v-.59l4.31,2.92a.73.73,0,0,1,.32.6h0A.72.72,0,0,1,364.6,332.88Z" transform="translate(-139.96 -226.47)"/><path class="cls-6" d="M398,362.47a.42.42,0,0,1-.42.43.42.42,0,0,1-.42-.43v-5.92a.42.42,0,0,1,.42-.42h1.56a2,2,0,0,1,2.14,2.07,1.84,1.84,0,0,1-1.12,1.74l1.22,2.27a.62.62,0,0,1,.09.28.4.4,0,0,1-.42.41.47.47,0,0,1-.37-.22l-1.31-2.52a2.32,2.32,0,0,1-.45,0H398Zm0-3h1.11a1.31,1.31,0,1,0,0-2.62H398Z" transform="translate(-139.96 -226.47)"/><path class="cls-6" d="M403.12,361.7a.6.6,0,1,1,0,1.19.6.6,0,0,1,0-1.19Z" transform="translate(-139.96 -226.47)"/><path class="cls-5" d="M390.75,359.78h0a.73.73,0,0,1,.32-.6l4.31-2.92v.6a.73.73,0,0,1-.32.6l-3.42,2.3v.05l3.42,2.3a.73.73,0,0,1,.32.6v.6l-4.31-2.92A.74.74,0,0,1,390.75,359.78Z" transform="translate(-139.96 -226.47)"/><path class="cls-5" d="M358,328.16h.7l-3.11,8.25h-.7Z" transform="translate(-139.96 -226.47)"/><path class="cls-6" d="M316.92,328.4a.42.42,0,0,1,.84,0v2.53h2.57V328.4a.42.42,0,0,1,.43-.42.41.41,0,0,1,.42.42v6a.41.41,0,0,1-.42.43.42.42,0,0,1-.43-.43v-2.69h-2.57v2.69a.42.42,0,1,1-.84,0Z" transform="translate(-139.96 -226.47)"/><path class="cls-6" d="M325.47,331.49c0-.57-.25-1-1.06-1a2.36,2.36,0,0,0-.74.14,1.91,1.91,0,0,1-.47.12.33.33,0,0,1-.35-.34c0-.15.1-.25.29-.35a3.49,3.49,0,0,1,1.34-.27,1.6,1.6,0,0,1,1.84,1.72v2a6.55,6.55,0,0,0,.1.94.36.36,0,0,1-.38.38.37.37,0,0,1-.38-.28l-.07-.3a2.25,2.25,0,0,1-1.53.63,1.41,1.41,0,0,1-1.56-1.44c0-.91.7-1.44,1.87-1.44h1.1Zm0,1.09H324.4c-.71,0-1.07.27-1.07.77s.33.79.9.79a1.93,1.93,0,0,0,1.24-.52Z" transform="translate(-139.96 -226.47)"/><path class="cls-6" d="M330.64,330.67a1.6,1.6,0,0,0-.76-.2c-.93,0-1.34.72-1.34,1.84s.42,1.83,1.34,1.83a2.63,2.63,0,0,0,.8-.14,2,2,0,0,1,.47-.12.32.32,0,0,1,.33.33c0,.19-.14.29-.31.38a3.57,3.57,0,0,1-1.29.26c-1.45,0-2.2-1-2.2-2.54s.79-2.54,2.2-2.54a2.52,2.52,0,0,1,1.23.33.61.61,0,0,1,.31.53l0,.44c0,.3-.13.49-.36.49a.39.39,0,0,1-.39-.38Z" transform="translate(-139.96 -226.47)"/><path class="cls-6" d="M332.8,328a.41.41,0,0,1,.43-.42.42.42,0,0,1,.42.42v3.89h.78l1.24-1.84a.39.39,0,0,1,.35-.18.4.4,0,0,1,.42.39.48.48,0,0,1-.07.24l-1.22,1.72,1.37,2a.53.53,0,0,1,.08.25.42.42,0,0,1-.76.22l-1.41-2.09h-.78v1.83a.43.43,0,1,1-.85,0Z" transform="translate(-139.96 -226.47)"/><path class="cls-6" d="M337.72,334h.89v-3.45h-.86a.34.34,0,0,1-.35-.34.35.35,0,0,1,.35-.36h1.34a.37.37,0,0,1,.37.36V334h.87a.36.36,0,1,1,0,.72h-2.61a.36.36,0,0,1,0-.72Zm.49-5.56a.6.6,0,1,1,.6.6A.59.59,0,0,1,338.21,328.47Z" transform="translate(-139.96 -226.47)"/><path class="cls-6" d="M341.68,331.1a7.73,7.73,0,0,0-.09-.87.36.36,0,0,1,.37-.4.37.37,0,0,1,.4.28l.07.31a2.36,2.36,0,0,1,1.46-.65c1,0,1.66.47,1.66,1.84v2.76a.42.42,0,0,1-.43.43.41.41,0,0,1-.42-.43v-2.76c0-.77-.29-1.14-1-1.14a2,2,0,0,0-1.19.54v3.36a.41.41,0,0,1-.42.43.42.42,0,0,1-.43-.43Z" transform="translate(-139.96 -226.47)"/><path class="cls-6" d="M350.32,330.11a.39.39,0,0,1,.77.11,7.82,7.82,0,0,0-.1.88v3.77c0,1.36-.8,1.92-2.07,1.92a3.16,3.16,0,0,1-1.41-.3.34.34,0,0,1-.2-.31.32.32,0,0,1,.35-.34,2,2,0,0,1,.47.12,2.42,2.42,0,0,0,.79.14c.77,0,1.22-.32,1.22-1.13v-.38a2.72,2.72,0,0,1-1.13.26c-1.42,0-2.13-1-2.13-2.52s.61-2.56,1.89-2.56a2.3,2.3,0,0,1,1.47.64Zm-.18.9a1.87,1.87,0,0,0-1.2-.54c-.84,0-1.2.75-1.2,1.87s.43,1.8,1.39,1.8a2.13,2.13,0,0,0,1-.26Z" transform="translate(-139.96 -226.47)"/><path class="cls-6" d="M352.31,328.85a.73.73,0,0,1,.5-.66,2.68,2.68,0,0,1,1.11-.24,1.64,1.64,0,0,1,1.78,1.64c0,1.43-1.69,2.05-1.69,2.8v.2a.39.39,0,0,1-.38.41.41.41,0,0,1-.4-.41v-.21c0-1.08,1.62-1.65,1.62-2.78a.89.89,0,0,0-1-.94,1.87,1.87,0,0,0-.82.19l-.1.7a.39.39,0,0,1-.39.36.38.38,0,0,1-.35-.46Zm1.86,5.37a.55.55,0,0,1-.55.57.57.57,0,1,1,0-1.13A.55.55,0,0,1,354.17,334.22Z" transform="translate(-139.96 -226.47)"/><path class="cls-6" d="M336.65,397.36a.43.43,0,1,1,.85,0v2.53h2.57v-2.53a.43.43,0,1,1,.85,0v6a.43.43,0,0,1-.85,0v-2.69H337.5v2.69a.43.43,0,0,1-.85,0Z" transform="translate(-139.96 -226.47)"/><path class="cls-6" d="M345.21,400.44c0-.56-.25-1-1.07-1a2.5,2.5,0,0,0-.74.15,2,2,0,0,1-.46.12.34.34,0,0,1-.35-.35c0-.15.1-.25.29-.35a3.43,3.43,0,0,1,1.33-.26,1.61,1.61,0,0,1,1.85,1.71v2a6.56,6.56,0,0,0,.1.95.35.35,0,0,1-.38.37.37.37,0,0,1-.39-.28l-.07-.29a2.26,2.26,0,0,1-1.52.62,1.41,1.41,0,0,1-1.57-1.44c0-.91.7-1.43,1.87-1.43h1.11Zm0,1.09h-1.08c-.7,0-1.07.27-1.07.78s.34.79.91.79a2,2,0,0,0,1.24-.53Z" transform="translate(-139.96 -226.47)"/><path class="cls-6" d="M350.37,399.63a1.44,1.44,0,0,0-.75-.21c-.93,0-1.35.72-1.35,1.84s.43,1.84,1.35,1.84a2.26,2.26,0,0,0,.79-.15,2.1,2.1,0,0,1,.48-.12.33.33,0,0,1,.33.34c0,.19-.14.29-.31.37a3.61,3.61,0,0,1-1.29.26c-1.46,0-2.2-1-2.2-2.54s.78-2.53,2.2-2.53a2.54,2.54,0,0,1,1.23.32.62.62,0,0,1,.31.54l0,.43c0,.3-.13.49-.36.49a.39.39,0,0,1-.4-.38Z" transform="translate(-139.96 -226.47)"/><path class="cls-6" d="M352.54,396.91a.41.41,0,0,1,.42-.42.42.42,0,0,1,.42.42v3.9h.78L355.4,399a.39.39,0,0,1,.36-.18.4.4,0,0,1,.42.39.48.48,0,0,1-.07.24l-1.22,1.72,1.37,2a.53.53,0,0,1,.08.25.4.4,0,0,1-.43.38.42.42,0,0,1-.34-.17l-1.41-2.09h-.78v1.84a.42.42,0,0,1-.42.42.41.41,0,0,1-.42-.42Z" transform="translate(-139.96 -226.47)"/><path class="cls-5" d="M398.79,346.68l-4.31,2.92V349a.73.73,0,0,1,.32-.6l3.41-2.3v-.05l-3.41-2.3a.73.73,0,0,1-.32-.6v-.6l4.31,2.92a.75.75,0,0,1,.31.61h0A.75.75,0,0,1,398.79,346.68Z" transform="translate(-139.96 -226.47)"/><path class="cls-5" d="M392.2,342h.71l-3.11,8.25h-.71Z" transform="translate(-139.96 -226.47)"/><path class="cls-6" d="M316.92,342.19a.42.42,0,0,1,.84,0v2.54h2.57v-2.54a.42.42,0,0,1,.43-.42.41.41,0,0,1,.42.42v6a.41.41,0,0,1-.42.43.42.42,0,0,1-.43-.43v-2.69h-2.57v2.69a.42.42,0,1,1-.84,0Z" transform="translate(-139.96 -226.47)"/><path class="cls-6" d="M325.47,345.28a.92.92,0,0,0-1.06-1,2.36,2.36,0,0,0-.74.14,1.91,1.91,0,0,1-.47.12.33.33,0,0,1-.35-.34c0-.15.1-.25.29-.35a3.47,3.47,0,0,1,1.34-.26,1.6,1.6,0,0,1,1.84,1.71v2a7,7,0,0,0,.1,1,.35.35,0,0,1-.38.37.37.37,0,0,1-.38-.28l-.07-.3a2.25,2.25,0,0,1-1.53.63,1.41,1.41,0,0,1-1.56-1.44c0-.91.7-1.44,1.87-1.44h1.1Zm0,1.09H324.4c-.71,0-1.07.27-1.07.78s.33.78.9.78a1.93,1.93,0,0,0,1.24-.52Z" transform="translate(-139.96 -226.47)"/><path class="cls-6" d="M330.64,344.46a1.6,1.6,0,0,0-.76-.2c-.93,0-1.34.72-1.34,1.84s.42,1.83,1.34,1.83a2.63,2.63,0,0,0,.8-.14,2,2,0,0,1,.47-.12.32.32,0,0,1,.33.33c0,.2-.14.3-.31.38a3.57,3.57,0,0,1-1.29.26c-1.45,0-2.2-1-2.2-2.54s.79-2.53,2.2-2.53a2.51,2.51,0,0,1,1.23.32.61.61,0,0,1,.31.53l0,.44c0,.3-.13.49-.36.49a.39.39,0,0,1-.39-.38Z" transform="translate(-139.96 -226.47)"/><path class="cls-6" d="M332.8,341.75a.41.41,0,0,1,.43-.42.42.42,0,0,1,.42.42v3.89h.78l1.24-1.84a.39.39,0,0,1,.35-.18.4.4,0,0,1,.42.39.48.48,0,0,1-.07.24L335.15,346l1.37,2a.53.53,0,0,1,.08.25.42.42,0,0,1-.76.22l-1.41-2.09h-.78v1.83a.43.43,0,1,1-.85,0Z" transform="translate(-139.96 -226.47)"/><path class="cls-6" d="M371.91,347.82h.88v-3.45h-.85a.35.35,0,0,1-.36-.34.36.36,0,0,1,.36-.36h1.34a.36.36,0,0,1,.36.36v3.79h.88a.36.36,0,0,1,0,.72h-2.61a.36.36,0,0,1,0-.72Zm.49-5.56a.6.6,0,1,1,.6.6A.59.59,0,0,1,372.4,342.26Z" transform="translate(-139.96 -226.47)"/><path class="cls-6" d="M375.87,344.89a7.73,7.73,0,0,0-.09-.87.36.36,0,0,1,.37-.4.37.37,0,0,1,.39.28l.07.31a2.37,2.37,0,0,1,1.47-.64c1,0,1.65.46,1.65,1.83v2.76a.41.41,0,0,1-.42.43.42.42,0,0,1-.43-.43V345.4c0-.77-.29-1.14-1-1.14a2.06,2.06,0,0,0-1.2.54v3.36a.41.41,0,0,1-.42.43.42.42,0,0,1-.42-.43Z" transform="translate(-139.96 -226.47)"/><path class="cls-6" d="M384.51,343.9a.35.35,0,0,1,.37-.28.38.38,0,0,1,.4.39,7.14,7.14,0,0,0-.11.88v3.77c0,1.36-.79,1.93-2.06,1.93a3.13,3.13,0,0,1-1.41-.31.33.33,0,0,1-.21-.31.33.33,0,0,1,.36-.34,2,2,0,0,1,.47.12,2.32,2.32,0,0,0,.79.14c.76,0,1.22-.32,1.22-1.13v-.38a2.76,2.76,0,0,1-1.13.26c-1.42,0-2.13-1-2.13-2.52s.6-2.55,1.89-2.55a2.31,2.31,0,0,1,1.47.63Zm-.18.9a1.89,1.89,0,0,0-1.2-.54c-.84,0-1.2.75-1.2,1.87s.43,1.8,1.39,1.8a2.17,2.17,0,0,0,1-.26Z" transform="translate(-139.96 -226.47)"/><path class="cls-6" d="M386.49,342.64A.73.73,0,0,1,387,342a2.65,2.65,0,0,1,1.11-.24,1.63,1.63,0,0,1,1.77,1.64c0,1.43-1.68,2.05-1.68,2.8v.2a.39.39,0,0,1-.39.41.41.41,0,0,1-.4-.41v-.21c0-1.08,1.62-1.65,1.62-2.78a.89.89,0,0,0-.94-.94,1.81,1.81,0,0,0-.82.19l-.1.7a.38.38,0,1,1-.75-.1Zm1.87,5.37a.56.56,0,1,1-.56-.56A.56.56,0,0,1,388.36,348Z" transform="translate(-139.96 -226.47)"/><path class="cls-5" d="M347.73,415.46l-4.31,2.92v-.59a.72.72,0,0,1,.32-.6l3.42-2.31v-.05l-3.42-2.3a.73.73,0,0,1-.32-.6v-.6l4.31,2.93a.72.72,0,0,1,.32.6h0A.73.73,0,0,1,347.73,415.46Z" transform="translate(-139.96 -226.47)"/><path class="cls-5" d="M341.15,410.73h.7L338.74,419H338Z" transform="translate(-139.96 -226.47)"/><path class="cls-6" d="M320.85,416.6h.89v-3.45h-.86a.34.34,0,0,1-.35-.34.35.35,0,0,1,.35-.36h1.34a.37.37,0,0,1,.37.36v3.79h.87a.36.36,0,0,1,.36.37.35.35,0,0,1-.36.35h-2.61a.35.35,0,0,1-.35-.35A.36.36,0,0,1,320.85,416.6Zm.49-5.55a.6.6,0,1,1,.6.59A.6.6,0,0,1,321.34,411.05Z" transform="translate(-139.96 -226.47)"/><path class="cls-6" d="M324.81,413.67a8,8,0,0,0-.09-.87.36.36,0,0,1,.37-.4.37.37,0,0,1,.4.28l.07.31a2.35,2.35,0,0,1,1.46-.64c1,0,1.66.46,1.66,1.83V417a.42.42,0,0,1-.43.42.41.41,0,0,1-.42-.42v-2.77c0-.76-.29-1.14-1-1.14a2.1,2.1,0,0,0-1.19.54V417a.41.41,0,0,1-.42.42.42.42,0,0,1-.43-.42Z" transform="translate(-139.96 -226.47)"/><path class="cls-6" d="M333.45,412.68a.39.39,0,0,1,.77.11,8.14,8.14,0,0,0-.1.88v3.77c0,1.36-.8,1.93-2.07,1.93a3.16,3.16,0,0,1-1.41-.3.36.36,0,0,1-.2-.32.32.32,0,0,1,.35-.34,2,2,0,0,1,.47.12,2.42,2.42,0,0,0,.79.14c.77,0,1.22-.32,1.22-1.13v-.38a2.72,2.72,0,0,1-1.13.26c-1.42,0-2.13-1-2.13-2.52s.61-2.55,1.89-2.55a2.29,2.29,0,0,1,1.47.63Zm-.18.9a1.87,1.87,0,0,0-1.2-.54c-.84,0-1.2.75-1.2,1.87s.43,1.81,1.39,1.81a2.13,2.13,0,0,0,1-.27Z" transform="translate(-139.96 -226.47)"/><path class="cls-6" d="M335.44,411.42a.75.75,0,0,1,.5-.66,2.68,2.68,0,0,1,1.11-.24,1.65,1.65,0,0,1,1.78,1.65c0,1.42-1.69,2-1.69,2.79v.2a.4.4,0,0,1-.38.42.42.42,0,0,1-.4-.42V415c0-1.08,1.62-1.64,1.62-2.77a.9.9,0,0,0-1-.95,1.87,1.87,0,0,0-.82.19l-.1.71a.38.38,0,1,1-.74-.11Zm1.86,5.38a.55.55,0,0,1-.55.56.57.57,0,1,1,0-1.13A.55.55,0,0,1,337.3,416.8Z" transform="translate(-139.96 -226.47)"/><path class="cls-6" d="M316.91,301.3a.42.42,0,0,1,.42-.42.42.42,0,0,1,.42.42v4.09c0,1,.49,1.59,1.39,1.59s1.4-.63,1.4-1.59V301.3a.41.41,0,0,1,.42-.42.42.42,0,0,1,.42.42v4.09a2.24,2.24,0,1,1-4.47,0Z" transform="translate(-139.96 -226.47)"/><path class="cls-6" d="M323.23,306.5a.59.59,0,0,1,.6.59.6.6,0,0,1-.6.6.6.6,0,0,1-.6-.6A.59.59,0,0,1,323.23,306.5Z" transform="translate(-139.96 -226.47)"/><path class="cls-5" d="M373.76,305.3l-4.31,2.93v-.6a.73.73,0,0,1,.32-.6l3.41-2.3v-.05l-3.41-2.31a.72.72,0,0,1-.32-.6v-.59l4.31,2.92a.73.73,0,0,1,.32.6h0A.72.72,0,0,1,373.76,305.3Z" transform="translate(-139.96 -226.47)"/><path class="cls-5" d="M367.18,300.58h.7l-3.11,8.25h-.7Z" transform="translate(-139.96 -226.47)"/><path class="cls-6" d="M326.07,300.82a.43.43,0,0,1,.85,0v2.53h2.57v-2.53a.43.43,0,0,1,.85,0v6a.43.43,0,1,1-.85,0V304.1h-2.57v2.69a.43.43,0,1,1-.85,0Z" transform="translate(-139.96 -226.47)"/><path class="cls-6" d="M334.63,303.91c0-.57-.25-1-1.07-1a2.36,2.36,0,0,0-.73.14,1.91,1.91,0,0,1-.47.12.33.33,0,0,1-.35-.34c0-.15.1-.25.29-.35a3.3,3.3,0,0,1,1.33-.27,1.61,1.61,0,0,1,1.85,1.72v2a6.56,6.56,0,0,0,.1.95.36.36,0,0,1-.38.38.39.39,0,0,1-.39-.29l-.07-.29a2.24,2.24,0,0,1-1.52.63,1.41,1.41,0,0,1-1.56-1.45c0-.9.69-1.43,1.86-1.43h1.11Zm0,1.09h-1.08c-.7,0-1.07.27-1.07.77s.34.79.91.79a1.93,1.93,0,0,0,1.24-.52Z" transform="translate(-139.96 -226.47)"/><path class="cls-6" d="M339.79,303.09a1.53,1.53,0,0,0-.75-.2c-.93,0-1.34.71-1.34,1.83s.42,1.84,1.34,1.84a2.63,2.63,0,0,0,.8-.14,2,2,0,0,1,.47-.12.32.32,0,0,1,.33.33c0,.19-.14.29-.31.37a3.39,3.39,0,0,1-1.29.27c-1.45,0-2.2-1-2.2-2.55s.79-2.53,2.2-2.53a2.41,2.41,0,0,1,1.23.33.61.61,0,0,1,.31.53l0,.43c0,.31-.13.5-.36.5a.4.4,0,0,1-.4-.38Z" transform="translate(-139.96 -226.47)"/><path class="cls-6" d="M342,300.38a.42.42,0,0,1,.42-.43.43.43,0,0,1,.43.43v3.89h.77l1.24-1.84a.4.4,0,0,1,.36-.19.41.41,0,0,1,.42.4.48.48,0,0,1-.07.24l-1.22,1.71,1.37,2a.53.53,0,0,1,.08.25.41.41,0,0,1-.43.39A.39.39,0,0,1,345,307L343.58,305h-.77v1.83a.43.43,0,0,1-.43.43.42.42,0,0,1-.42-.43Z" transform="translate(-139.96 -226.47)"/><path class="cls-6" d="M346.88,306.45h.89V303h-.86a.34.34,0,0,1-.35-.34.36.36,0,0,1,.35-.37h1.34a.37.37,0,0,1,.36.37v3.79h.88a.35.35,0,0,1,.35.36.36.36,0,0,1-.35.36h-2.61a.36.36,0,0,1-.35-.36A.35.35,0,0,1,346.88,306.45Zm.49-5.56a.59.59,0,0,1,.6-.59.58.58,0,0,1,.59.59.59.59,0,0,1-.59.6A.6.6,0,0,1,347.37,300.89Z" transform="translate(-139.96 -226.47)"/><path class="cls-6" d="M350.84,303.51a7.75,7.75,0,0,0-.09-.86.37.37,0,0,1,.37-.41.37.37,0,0,1,.4.29l.07.31a2.36,2.36,0,0,1,1.46-.65c1,0,1.65.47,1.65,1.84v2.76a.42.42,0,1,1-.84,0V304c0-.77-.3-1.14-1-1.14a2.05,2.05,0,0,0-1.19.53v3.37a.43.43,0,1,1-.85,0Z" transform="translate(-139.96 -226.47)"/><path class="cls-6" d="M359.48,302.53a.35.35,0,0,1,.37-.29.38.38,0,0,1,.4.4,7.86,7.86,0,0,0-.1.87v3.78c0,1.36-.8,1.92-2.07,1.92a3.16,3.16,0,0,1-1.41-.3.34.34,0,0,1-.2-.31.33.33,0,0,1,.35-.35,2.06,2.06,0,0,1,.47.13,2.37,2.37,0,0,0,.79.14c.77,0,1.22-.33,1.22-1.13V307a2.56,2.56,0,0,1-1.13.27c-1.42,0-2.13-1-2.13-2.52s.61-2.56,1.89-2.56a2.3,2.3,0,0,1,1.47.64Zm-.18.89a1.91,1.91,0,0,0-1.2-.53c-.84,0-1.2.75-1.2,1.86s.43,1.81,1.39,1.81a2.13,2.13,0,0,0,1-.26Z" transform="translate(-139.96 -226.47)"/><path class="cls-6" d="M361.47,301.27a.73.73,0,0,1,.5-.66,2.68,2.68,0,0,1,1.11-.24,1.63,1.63,0,0,1,1.77,1.64c0,1.42-1.68,2.05-1.68,2.8v.2a.39.39,0,0,1-.38.41.42.42,0,0,1-.41-.41v-.21c0-1.08,1.63-1.65,1.63-2.78a.91.91,0,0,0-.95-.95,1.73,1.73,0,0,0-.82.2l-.1.7a.38.38,0,1,1-.75-.1Zm1.86,5.37a.56.56,0,1,1-.55-.56A.55.55,0,0,1,363.33,306.64Z" transform="translate(-139.96 -226.47)"/><path class="cls-5" d="M375.62,373.63h0a.72.72,0,0,1,.32-.6l4.31-2.93v.6a.73.73,0,0,1-.32.6l-3.42,2.3v0l3.42,2.31a.72.72,0,0,1,.32.6v.59l-4.31-2.92A.73.73,0,0,1,375.62,373.63Z" transform="translate(-139.96 -226.47)"/><path class="cls-6" d="M382.9,376.32a.43.43,0,0,1-.85,0V370.4a.42.42,0,0,1,.42-.43H384a2,2,0,0,1,2.14,2.07,1.88,1.88,0,0,1-1.12,1.75l1.22,2.27a.62.62,0,0,1,.09.28.4.4,0,0,1-.43.4.47.47,0,0,1-.37-.22L384.26,374a3.25,3.25,0,0,1-.44,0h-.92Zm0-3H384a1.31,1.31,0,1,0,0-2.62H382.9Z" transform="translate(-139.96 -226.47)"/><path class="cls-6" d="M388,375.54a.6.6,0,1,1-.6.6A.6.6,0,0,1,388,375.54Z" transform="translate(-139.96 -226.47)"/><path class="cls-6" d="M392.46,370.35a.43.43,0,0,1,.43-.43.42.42,0,0,1,.42.43v4.08c0,1,.49,1.6,1.39,1.6s1.39-.64,1.39-1.6v-4.08a.43.43,0,1,1,.85,0v4.08a2.24,2.24,0,1,1-4.48,0Z" transform="translate(-139.96 -226.47)"/><path class="cls-6" d="M398.78,375.54a.6.6,0,1,1,0,1.19.6.6,0,0,1,0-1.19Z" transform="translate(-139.96 -226.47)"/><path class="cls-6" d="M316.91,370.26a.42.42,0,0,1,.42-.43.42.42,0,0,1,.42.43v4.08c0,1,.49,1.59,1.39,1.59s1.4-.63,1.4-1.59v-4.08a.41.41,0,0,1,.42-.43.42.42,0,0,1,.42.43v4.08a2.24,2.24,0,1,1-4.47,0Z" transform="translate(-139.96 -226.47)"/><path class="cls-6" d="M323.23,375.45a.6.6,0,1,1,0,1.19.6.6,0,1,1,0-1.19Z" transform="translate(-139.96 -226.47)"/><path class="cls-5" d="M373.76,374.26l-4.31,2.92v-.59a.74.74,0,0,1,.32-.61l3.41-2.3v-.05l-3.41-2.3a.73.73,0,0,1-.32-.6v-.6l4.31,2.93a.72.72,0,0,1,.32.6h0A.73.73,0,0,1,373.76,374.26Z" transform="translate(-139.96 -226.47)"/><path class="cls-5" d="M349.56,414.79h0a.73.73,0,0,1,.32-.6l4.31-2.92v.59a.72.72,0,0,1-.32.6l-3.42,2.31v.05l3.42,2.3a.72.72,0,0,1,.32.6v.59l-4.31-2.92A.72.72,0,0,1,349.56,414.79Z" transform="translate(-139.96 -226.47)"/><path class="cls-6" d="M356.84,417.48a.43.43,0,0,1-.85,0v-5.92a.42.42,0,0,1,.42-.42H358a2,2,0,0,1,2.13,2.06A1.86,1.86,0,0,1,359,415l1.23,2.27a.62.62,0,0,1,.09.28.4.4,0,0,1-.43.4.47.47,0,0,1-.37-.22l-1.31-2.51a3.29,3.29,0,0,1-.45,0h-.91Zm0-3H358a1.32,1.32,0,1,0,0-2.63h-1.11Z" transform="translate(-139.96 -226.47)"/><path class="cls-6" d="M362,416.7a.6.6,0,0,1,.6.6.59.59,0,0,1-.6.59.59.59,0,0,1-.6-.59A.6.6,0,0,1,362,416.7Z" transform="translate(-139.96 -226.47)"/><path class="cls-6" d="M366.4,411.51a.42.42,0,0,1,.43-.42.42.42,0,0,1,.42.42v4.08c0,1,.48,1.6,1.39,1.6s1.39-.64,1.39-1.6v-4.08a.43.43,0,0,1,.85,0v4.08a2.24,2.24,0,1,1-4.48,0Z" transform="translate(-139.96 -226.47)"/><path class="cls-6" d="M372.72,416.7a.6.6,0,0,1,.61.6.6.6,0,0,1-.61.59.58.58,0,0,1-.59-.59A.59.59,0,0,1,372.72,416.7Z" transform="translate(-139.96 -226.47)"/><path class="cls-5" d="M367.18,369.53h.7l-3.11,8.25h-.7Z" transform="translate(-139.96 -226.47)"/><path class="cls-6" d="M326.07,369.78a.43.43,0,1,1,.85,0v2.53h2.57v-2.53a.43.43,0,1,1,.85,0v6a.43.43,0,0,1-.85,0v-2.7h-2.57v2.7a.43.43,0,0,1-.85,0Z" transform="translate(-139.96 -226.47)"/><path class="cls-6" d="M334.63,372.86c0-.56-.25-1-1.07-1a2.36,2.36,0,0,0-.73.14,2,2,0,0,1-.47.13.34.34,0,0,1-.35-.35c0-.15.1-.25.29-.35a3.46,3.46,0,0,1,1.33-.26c1.43,0,1.85.84,1.85,1.71v2a6.77,6.77,0,0,0,.1.95.35.35,0,0,1-.38.37.38.38,0,0,1-.39-.28l-.07-.3a2.2,2.2,0,0,1-1.52.63,1.4,1.4,0,0,1-1.56-1.44c0-.91.69-1.43,1.86-1.43h1.11Zm0,1.09h-1.08c-.7,0-1.07.27-1.07.78s.34.78.91.78a1.93,1.93,0,0,0,1.24-.52Z" transform="translate(-139.96 -226.47)"/><path class="cls-6" d="M339.79,372a1.53,1.53,0,0,0-.75-.2c-.93,0-1.34.72-1.34,1.84s.42,1.83,1.34,1.83a2.63,2.63,0,0,0,.8-.14,2,2,0,0,1,.47-.12.32.32,0,0,1,.33.33c0,.2-.14.3-.31.38a3.57,3.57,0,0,1-1.29.26c-1.45,0-2.2-1-2.2-2.54s.79-2.53,2.2-2.53a2.51,2.51,0,0,1,1.23.32.61.61,0,0,1,.31.53l0,.44c0,.3-.13.49-.36.49a.4.4,0,0,1-.4-.38Z" transform="translate(-139.96 -226.47)"/><path class="cls-6" d="M342,369.33a.41.41,0,0,1,.42-.42.42.42,0,0,1,.43.42v3.89h.77l1.24-1.84a.42.42,0,0,1,.36-.18.4.4,0,0,1,.42.39.48.48,0,0,1-.07.24l-1.22,1.72,1.37,2a.61.61,0,0,1,.08.26.42.42,0,0,1-.76.21l-1.42-2.09h-.77v1.84a.42.42,0,0,1-.43.42.41.41,0,0,1-.42-.42Z" transform="translate(-139.96 -226.47)"/><path class="cls-6" d="M346.88,375.4h.89V372h-.86a.34.34,0,0,1-.35-.34.35.35,0,0,1,.35-.36h1.34a.36.36,0,0,1,.36.36v3.79h.88a.35.35,0,0,1,.35.37.35.35,0,0,1-.35.35h-2.61a.35.35,0,0,1-.35-.35A.35.35,0,0,1,346.88,375.4Zm.49-5.55a.6.6,0,0,1,.6-.6.6.6,0,0,1,0,1.19A.59.59,0,0,1,347.37,369.85Z" transform="translate(-139.96 -226.47)"/><path class="cls-6" d="M350.84,372.47a7.73,7.73,0,0,0-.09-.87.36.36,0,0,1,.37-.4.37.37,0,0,1,.4.28l.07.31a2.35,2.35,0,0,1,1.46-.64c1,0,1.65.46,1.65,1.83v2.77a.42.42,0,0,1-.84,0V373c0-.76-.3-1.14-1-1.14a2,2,0,0,0-1.19.54v3.37a.43.43,0,0,1-.85,0Z" transform="translate(-139.96 -226.47)"/><path class="cls-6" d="M359.48,371.48a.35.35,0,0,1,.37-.28.37.37,0,0,1,.4.39,7.82,7.82,0,0,0-.1.88v3.77c0,1.36-.8,1.93-2.07,1.93a3,3,0,0,1-1.41-.31.34.34,0,0,1-.2-.31.32.32,0,0,1,.35-.34,2,2,0,0,1,.47.12,2.37,2.37,0,0,0,.79.14c.77,0,1.22-.32,1.22-1.13V376a2.72,2.72,0,0,1-1.13.26c-1.42,0-2.13-1-2.13-2.52s.61-2.55,1.89-2.55a2.29,2.29,0,0,1,1.47.63Zm-.18.9a1.87,1.87,0,0,0-1.2-.54c-.84,0-1.2.75-1.2,1.87s.43,1.8,1.39,1.8a2.13,2.13,0,0,0,1-.26Z" transform="translate(-139.96 -226.47)"/><path class="cls-6" d="M361.47,370.22a.74.74,0,0,1,.5-.66,2.68,2.68,0,0,1,1.11-.24,1.64,1.64,0,0,1,1.77,1.65c0,1.42-1.68,2-1.68,2.79v.2a.39.39,0,0,1-.38.41.42.42,0,0,1-.41-.41v-.21c0-1.08,1.63-1.64,1.63-2.77a.9.9,0,0,0-.95-1,1.84,1.84,0,0,0-.82.19l-.1.71a.38.38,0,0,1-.39.35.38.38,0,0,1-.36-.46Zm1.86,5.37a.56.56,0,1,1-.55-.56A.55.55,0,0,1,363.33,375.59Z" transform="translate(-139.96 -226.47)"/></svg>