<svg id="Layer_1" data-name="Layer 1" xmlns="http://www.w3.org/2000/svg" viewBox="0 0 448.11 129.84"><defs><style>.cls-1{fill:#37287a;}</style></defs><title>New logo-responsive</title><path class="cls-1" d="M51.75,87.31H38v40.27H0V2.05H67c29.36,0,45.17,19.58,45.17,43.1,0,21.64-12.61,33.12-22.59,38l22.78,44.41H69.07Zm9.42-53.64H38v22H61.17c6.39,0,12.42-4.14,12.42-11.1C73.59,37.81,67.56,33.67,61.17,33.67Z"/><path class="cls-1" d="M108.78,2.05h38.58V74.7c0,12,6.21,21.64,21.83,21.64,15.43,0,21.64-9.6,21.64-21.64V2.05h38.59V75.83c0,31.24-17.88,54-60.23,54S108.78,107.07,108.78,76Z"/><path class="cls-1" d="M241.08,81.66a58.51,58.51,0,0,0,40.47,16.19c7.15,0,13.92-2.45,13.92-7.34s-5.26-7.34-17.69-9.6c-20.7-3.76-52.32-8.66-52.32-40.09,0-21.26,17.7-40.65,52.14-40.65,20.51,0,38.95,5.84,53.26,17.5L310.53,44.59c-10.91-8.28-25-12.42-35-12.42-9.41,0-11.49,3.38-11.49,6.58,0,4.9,5.09,6.59,18.45,8.85,20.7,3.57,51.38,9.6,51.38,38.58,0,27.67-20.52,43.66-54.2,43.66-26.73,0-45-7.9-58.35-20Z"/><path class="cls-1" d="M327.47,2.05h38.58V74.7c0,12,6.21,21.64,21.83,21.64,15.43,0,21.64-9.6,21.64-21.64V2.05h38.59V75.83c0,31.24-17.88,54-60.23,54S327.47,107.07,327.47,76Z"/></svg>