<?xml version="1.0" encoding="utf-8"?>
<!-- Generator: Adobe Illustrator 23.0.1, SVG Export Plug-In . SVG Version: 6.00 Build 0)  -->
<svg version="1.0" id="Layer_1" xmlns="http://www.w3.org/2000/svg" xmlns:xlink="http://www.w3.org/1999/xlink" x="0px" y="0px"
	 viewBox="0 0 1181 1181" style="enable-background:new 0 0 1181 1181;" xml:space="preserve">
<style type="text/css">
	.st0{display:none;}
	.st1{display:inline;}
	.st2{fill:#FFFFFF;}
</style>
<g class="st0">
	<path class="st1" d="M313.5,625.9c-9.1-4.2-17.7-4.9-62.1-4.9H211v38.1v38l44.8-0.4c37.2-0.3,45.6-0.6,50-1.9
		c12.3-3.7,19.4-9.5,23.8-19.2c2.6-5.5,2.8-7.2,2.9-17.1c0-10.5-0.2-11.4-3.3-17.7C325.4,633.1,321.9,629.8,313.5,625.9z"/>
	<path class="st1" d="M300.5,542.1c8-3.2,14.8-10.1,16.9-17.2c4.2-13.9,0.7-27.3-8.7-33.6c-9.6-6.5-16.7-7.3-60.9-7.3H211v30.6v30.5
		l41.8-0.3C294,544.5,294.6,544.5,300.5,542.1z"/>
	<path class="st1" d="M590.5,0H0v590.5V1181h590.5H1181V590.5V0H590.5z M932,590.5V794h-59.5H813l-0.2-130.7l-0.3-130.7L777.7,661
		c-19.1,70.7-35,129.5-35.3,130.8l-0.6,2.2H695h-46.7l-3-10.7c-1.6-6-17.5-64.7-35.4-130.5C592.1,586.9,577.2,533,576.8,533
		c-0.5,0-0.8,58.7-0.8,130.5V794h-59h-59l-0.1-54.2l-0.1-54.3l-1.8,9c-10.9,54.1-56.8,91.4-121.2,98.4c-6.3,0.7-51.5,1.1-129.8,1.1
		H85V590.5V386.9l124.3,0.4c135.1,0.4,130,0.2,152.2,6.1c31.8,8.5,55.9,27.4,67.6,53.1c8.8,19.4,11.2,46.4,5.9,67.1
		c-5.4,21.1-19,38.3-40.9,51.5l-6,3.6l7.7,3.3c32.5,13.6,53,38.1,60.1,72.2l2,9.3V520.2L458,387l89.2,0.2l89.2,0.3l28.9,119
		c15.9,65.5,29.1,119.2,29.3,119.4s0.6,0.2,0.8,0s13.3-53.9,29.2-119.4l28.9-119l89.3-0.3L932,387V590.5z M1096,590.5V794h-63h-63
		V590.5V387h63h63V590.5z"/>
</g>
<rect y="-0.1" width="1181" height="1181.1"/>
<g>
	<polygon class="st2" points="0,1181 590.5,1181 1181,1181 1181,1180.9 0,1180.9 	"/>
	<path class="st2" d="M435,513.6c5.3-20.7,2.9-47.7-5.9-67.1c-11.7-25.7-35.8-44.6-67.6-53.1c-22.2-5.9-17.1-5.7-152.2-6.1L85,386.9
		v203.6V794h120c78.3,0,123.5-0.4,129.8-1.1c64.4-7,110.3-44.3,121.2-98.4l1.8-9l0.1,54.3L458,794h59h59V663.5
		c0-71.8,0.3-130.5,0.8-130.5c0.4,0,15.3,53.9,33.1,119.8c17.9,65.8,33.8,124.5,35.4,130.5l3,10.7H695h46.8l0.6-2.2
		c0.3-1.3,16.2-60.1,35.3-130.8l34.8-128.4l0.3,130.7L813,794h59.5H932V590.5V387l-89.2,0.2l-89.3,0.3l-28.9,119
		c-15.9,65.5-29,119.2-29.2,119.4s-0.6,0.2-0.8,0s-13.4-53.9-29.3-119.4l-28.9-119l-89.2-0.3L458,387l-0.1,133.2v133.3l-2-9.3
		c-7.1-34.1-27.6-58.6-60.1-72.2l-7.7-3.3l6-3.6C416,551.9,429.6,534.7,435,513.6z M211,514.6V484h36.8c44.2,0,51.3,0.8,60.9,7.3
		c9.4,6.3,12.9,19.7,8.7,33.6c-2.1,7.1-8.9,14-16.9,17.2c-5.9,2.4-6.5,2.4-47.7,2.7l-41.8,0.3V514.6z M329.6,675.6
		c-4.4,9.7-11.5,15.5-23.8,19.2c-4.4,1.3-12.8,1.6-50,1.9l-44.8,0.4v-38V621h40.4c44.4,0,53,0.7,62.1,4.9
		c8.4,3.9,11.9,7.2,15.7,14.9c3.1,6.3,3.3,7.2,3.3,17.7C332.4,668.4,332.2,670.1,329.6,675.6z"/>
	<polygon class="st2" points="0,-0.1 0,0 590.5,0 1181,0 1181,-0.1 	"/>
	<polygon class="st2" points="1096,590.5 1096,387 1033,387 970,387 970,590.5 970,794 1033,794 1096,794 	"/>
</g>
</svg>
