<svg id="Layer_1" data-name="Layer 1" xmlns="http://www.w3.org/2000/svg" viewBox="0 0 2154.87 1230.26"><defs><style>.cls-1,.cls-11,.cls-12,.cls-13,.cls-14,.cls-15,.cls-16,.cls-17,.cls-18,.cls-19,.cls-30,.cls-6,.cls-7,.cls-8,.cls-9{fill:none;}.cls-2{fill:#ccd6dc;}.cls-3,.cls-39{fill:#005496;}.cls-4{fill:#91a1ab;}.cls-40,.cls-41,.cls-5{fill:#fff;}.cls-11,.cls-12,.cls-13,.cls-17,.cls-18,.cls-30,.cls-6,.cls-7,.cls-8,.cls-9{stroke:#6e818b;}.cls-11,.cls-12,.cls-13,.cls-6,.cls-7,.cls-8,.cls-9{stroke-miterlimit:2;}.cls-6{stroke-width:3.19px;}.cls-7{stroke-width:2.78px;}.cls-8{stroke-width:2.82px;}.cls-9{stroke-width:3.23px;}.cls-10,.cls-31{fill:#6e818b;}.cls-11{stroke-width:3.79px;}.cls-12{stroke-width:2.75px;}.cls-13{stroke-width:3.34px;}.cls-14,.cls-15,.cls-19{stroke:#fff;}.cls-14,.cls-17{stroke-width:2.12px;}.cls-15{stroke-width:2.08px;}.cls-16{stroke:#bcbec0;stroke-width:3.18px;}.cls-18{stroke-width:2.27px;stroke-dasharray:3.4 3.4;}.cls-19{stroke-width:1.59px;}.cls-20,.cls-21,.cls-25,.cls-27,.cls-28{fill:#3d505a;}.cls-21{font-size:8.59px;}.cls-21,.cls-40,.cls-41{font-family:RdgVesta-Bold, Rdg Vesta;}.cls-21,.cls-25,.cls-27,.cls-28,.cls-40,.cls-41{font-weight:700;}.cls-22{letter-spacing:0.01em;}.cls-23{letter-spacing:0.03em;}.cls-24{letter-spacing:0.02em;}.cls-25{font-size:14.61px;letter-spacing:-0.02em;}.cls-25,.cls-27,.cls-28{font-family:HelveticaNeue-CondensedBold, Helvetica Neue;}.cls-26{letter-spacing:0em;}.cls-27,.cls-28{font-size:13.15px;}.cls-28{letter-spacing:-0.02em;}.cls-29{letter-spacing:0em;}.cls-30{stroke-width:4.24px;}.cls-31{font-size:60px;}.cls-31,.cls-39{font-family:RdgVesta-Regular, Rdg Vesta;}.cls-32{letter-spacing:-0.02em;}.cls-33{letter-spacing:-0.01em;}.cls-34{letter-spacing:-0.02em;}.cls-35{letter-spacing:-0.03em;}.cls-36{letter-spacing:-0.02em;}.cls-37{letter-spacing:-0.01em;}.cls-38{letter-spacing:-0.02em;}.cls-39{font-size:45px;}.cls-40{font-size:77px;}.cls-41{font-size:24px;}</style></defs><title>First Floor</title><polyline class="cls-1" points="69 189.49 1438.69 189.49 1438.69 -862.63"/><polyline class="cls-1" points="69 189.49 1438.69 189.49 1438.69 -862.63"/><polyline class="cls-1" points="69 211.97 1450.05 211.97 1450.05 -863.63"/><polyline class="cls-1" points="69 189.49 1438.69 189.49 1438.69 -862.63"/><path class="cls-2" d="M1009.47,502.79,1060.58,530l-22,41.32,140,74.42,256.71-482.79-140-74.42L1273.77,129l-6,11.36-154,289.67-74.78-39.76-36,67.79-27.47,51.65-34-8.24-64.83-14.24-10.8,9.32-.27-.28-15.86-15.84-78.8-22.34-28.32-5.93c-14.23,48.56-35.51,92.1-73.7,126.57a255.35,255.35,0,0,1-44.17,31.76c-28.15,16-54.91,26.38-86.53,31.36-26.95,4.25-54.79,6.94-81.73,1.26-21.21-4.47-42-11.22-62.2-19-4.6-1.77-9.25-3.47-13.78-5.44L342.6,692l-213.15-82L71.05,763.62l201.36,79-31.63,168.48,165.71,33.11,1-4.78,140,5.16s5.87,24,16.95,42.68c20.87,35.25,62.51,51.46,101.9,49,11.27-.71,22.32-2.93,33.37-5.11,17.62-3.47,32.26-9.29,48.69-16.66,31.59-14.17,62.75-41.32,69.56-77.25,3.58-18.85,2.73-44.62-6.11-68.91l46.25-30.59,25.75,34.26,134.48-98.27L891.41,702.15l93.88-97.42L965.68,586Z"/><polygon class="cls-3" points="768 639.21 887.21 513.01 984.72 605.33 891.05 702.21 886.9 697 854.24 721.22 768 639.21"/><polygon class="cls-4" points="805.25 811.5 912.58 731.03 1017.95 873.71 883.13 971.7 818.02 881.74 843.67 862.25 805.25 811.5"/><polygon class="cls-4" points="415.89 954.69 397.87 1041.72 239.76 1010.54 258.34 923.69 415.89 954.69"/><rect class="cls-5" x="1033.37" y="397.39" width="32.44" height="33.29" transform="translate(191.29 1146.41) rotate(-62)"/><polygon class="cls-5" points="437.92 843.21 473.7 850.88 466.99 885.52 430.65 878.45 437.92 843.21"/><polygon class="cls-4" points="717.62 692.42 767.15 639.08 778.22 648.97 726.76 705.4 717.62 692.42"/><polygon class="cls-4" points="740.29 723.91 759.07 709.26 775.84 724.56 753.49 741.52 740.29 723.91"/><polygon class="cls-4" points="780.4 728.24 818.95 687.74 854.5 721.4 801.87 760.6 780.4 728.24"/><polygon class="cls-4" points="744.55 962.22 801.97 944.47 811.3 967.62 752.46 987.68 744.55 962.22"/><polygon class="cls-4" points="543.46 1022.81 601.28 1004.92 608.8 1030.52 549.5 1048.06 543.46 1022.81"/><polygon class="cls-4" points="327.08 808.39 411.86 824.74 408.81 838.65 324.76 820.98 327.08 808.39"/><polygon class="cls-4" points="321.89 735.45 339.2 691.02 367.77 701.82 350.8 745.44 321.89 735.45"/><polygon class="cls-4" points="70.84 763.15 87.14 721.33 295.95 802.33 279.8 844.41 70.84 763.15"/><polygon class="cls-4" points="113.37 653.93 129.27 610.25 338.87 690.62 322.58 735.12 113.37 653.93"/><polygon class="cls-4" points="257.55 923.33 270.52 858.62 399.93 884.55 387.75 949.62 257.55 923.33"/><path class="cls-4" d="M811.84,968.24c8.84,24.29,9.69,50.06,6.11,68.91-6.81,35.93-38,63.08-69.56,77.25-16.43,7.37-31.07,13.19-48.69,16.66-11.05,2.18-22.1,4.4-33.37,5.11-39.39,2.51-81-13.7-101.9-49a139.13,139.13,0,0,1-15.06-38.39L608,1029.9l20.75,35.22L668,1073.8l59.57-18.91L754.5,1027l-2.13-40.2Z"/><polygon class="cls-4" points="819.61 747.55 844.94 781.99 912.37 731.48 886.71 697.17 819.61 747.55"/><rect class="cls-4" x="1306.4" y="206.51" width="74.65" height="82.3" transform="translate(494.19 1317.81) rotate(-62)"/><polygon class="cls-4" points="1397.91 142.69 1330.69 106.74 1313 140.01 1334.24 151.3 1326.62 165.63 1372.69 190.12 1397.91 142.69"/><polygon class="cls-4" points="1144.42 534.84 1216.84 573.34 1324.65 368.74 1253 330.64 1204.67 421.53 1224.25 431.94 1215.65 448.51 1195.73 438.34 1162.24 501.32 1144.42 534.84"/><polygon class="cls-4" points="1302.39 183.86 1285.59 215.46 1240.79 191.64 1257.59 160.04 1302.39 183.86"/><rect class="cls-4" x="1187.63" y="247.04" width="77.9" height="50.73" transform="translate(410.23 1227.54) rotate(-62)"/><polygon class="cls-4" points="1216.28 572.75 1177.86 644.99 1109.95 608.88 1105.97 607.15 1114.65 592.71 1145.32 535.02 1216.28 572.75"/><polygon class="cls-4" points="1434.81 162.15 1396.79 233.65 1360.52 214.37 1398.26 143.4 1434.81 162.15"/><rect class="cls-4" x="1120.47" y="477.08" width="32.54" height="11.32" transform="translate(176.78 1259.71) rotate(-62)"/><rect class="cls-4" x="1124.02" y="332.29" width="114.44" height="50.74" transform="translate(310.93 1232.77) rotate(-62)"/><rect class="cls-4" x="1234.3" y="195.06" width="39.82" height="50.73" transform="translate(470.79 1224.36) rotate(-62)"/><polygon class="cls-4" points="1132.89 556.54 1105.97 607.15 1038.49 571.26 1077.17 498.51 1113.46 517.81 1101.69 539.95 1129.66 554.82 1132.89 556.54"/><path class="cls-6" d="M636.65,710l42.58-22,68-73.69m-119.49,75L663,672.32l71.33-76.76"/><path class="cls-7" d="M741.93,618.53l-15.5-13.74m11.68,18-15.5-13.74m-3.78,4.26,15.5,13.75m-19.49-9.25,15.5,13.74M726.78,636l-15.5-13.75m-3.14,3.45,15.5,13.75m-18.39-10.49,15.5,13.75M702.36,632.2,717.86,646"/><path class="cls-8" d="M648,703.86l-9.26-19.1m4,21.49-9.26-19.11m35.55,6-9.26-19.11m5.35,21L655.87,676M652,677.88l9.26,19.1M648,679.78l9.26,19.1m-13.18-17.2,9.26,19.1"/><path class="cls-9" d="M371,855.92h0m-5.33,22.85,5-22.92m-10.1,21.91,5-22.92m-5.1-1-5,22.92m-.11-23.93-5,22.91m-.11-23.93-5,22.92M387.7,856.9l4.19-19.21M382.58,856l4.2-19.27m-5.1-1-4.17,19.1m-.94-20.12-4.18,19.19m-.92-20.2-4.21,19.27"/><polygon class="cls-10" points="339.76 847.92 344.1 828.03 370.3 833.25 365.96 853.13 339.76 847.92"/><path class="cls-11" d="M339.64,848.44l61.65,12.26M334,869.2l63.7,12.56,9.44-41.64-63-12.55"/><polygon class="cls-10" points="370.09 878.5 375.09 855.59 401.31 860.81 396.31 883.72 370.09 878.5"/><polygon class="cls-10" points="662.27 672.83 672.53 693.33 679.84 689.73 714.29 652.5 696.35 637.12 662.27 672.83"/><path class="cls-12" d="M1301.19,122.72h0m16.33,9L1301.08,123m14.52,12.36-16.45-8.75m-1.93,3.62,16.45,8.75m-18.37-5.13,16.45,8.74m-18.37-5.13,16.45,8.75m-4.14-35.76-14.07-7.48M1303.8,114l-14.1-7.49m-1.92,3.61,14,7.44m-15.91-3.82,14.05,7.47m-16-3.85,14.11,7.5"/><rect class="cls-10" x="1275.21" y="123.09" width="21.02" height="16.47" transform="translate(566.17 1204.91) rotate(-62)"/><path class="cls-12" d="M1288.43,144.68,1311.64,101m-7.08,52.25,23.74-44.65-31.92-17-23.75,44.65"/><rect class="cls-10" x="1304.49" y="105.36" width="21.04" height="18.63" transform="translate(596.46 1221.96) rotate(-62)"/><path class="cls-13" d="M1024.41,442.69h0m10.38,5.52,9.27-17.43m-4.25,20.1,9.27-17.43m6,25.54,9.27-17.43M1050,456.31l9.27-17.44m-14.45,14.68,9.27-17.43m-30.86,8.08-8,14.94m5,2.67,7.88-14.81m-2.86,17.49,7.92-14.89m-2.89,17.56,7.95-15"/><rect class="cls-10" x="1039.14" y="456" width="17.46" height="21.43" transform="translate(143.82 1172.78) rotate(-62)"/><path class="cls-13" d="M1061.58,463.61,1015.31,439m55.1,7.36-46-24.46m-18,33.84,46.27,24.6"/><rect class="cls-10" x="1017.62" y="425.69" width="19.74" height="17.04" transform="translate(161.75 1137.6) rotate(-62)"/><path class="cls-14" d="M1272.05,471.13l-53.69-28.55m-41.89-22.28L1130.78,396M1290.4,436.6l-72.94-38.78m-22.63-12-45.7-24.29m81.42-42.89-45.69-24.3m82.4-44.75-45.69-24.29m159.63,40.59-73-38.78m-22.63-12-45.7-24.29m68.83,211.36-74.62-39.67-3.77-2m-9.23-4.9-53.24-28.31m162.47-219.59-30.13,56.66m-4.88,9.2-2.67,5M1218,573.61l-55.82-29.71-10-5.32-7.23-3.85-3.88,7.29m-5,9.42-29.73,55.92M1363.6,123.5,1338,171.76m8.28-14.21-33.59-17.86m38.41,8.22-11.38-6m32.66,48-19.75-10.5m-9.63-5.12-16.23-8.63,17.55-33,11.37,6.05m42.22,4.39-27.38,51.49m-4.8,9L1360.14,214M358.89,814.61,356,828.51M628.74,1065.2l-34.8,53.48m74.3-44.83,8.63,61.39m50.51-80.09,27.13,57.26m.17-85.48,59,25.06m-61.37-65,59.09-18.27M538.85,865l13.35,6.48m12.17,6.09,35.75,17.18,36.08-11.06m13.09-4,36.33-11.14,20.25-33.86m7-11.65,7.4-12.37m-393.1-2.08,84.65,16.12-2.86,13.9M865.4,497.43l4.43,4.34m9.64,9.44,4.73,4.63m28.93,215.09L805.32,811.32m16.75-60.82-2.44-3.26m10.87,14.87,14.63,19.78m-296.79,262s-3-13.91-4.85-22.42l57.58-17.31,8.07,26.05,2.87,5.13m6.66,11.87,10.07,18,5.78,1.27M648,1069.4l20.29,4.45,39.63-12.53m12.54-4,7-2.2L741.09,1041m9.08-9.36,4.51-4.67-1.19-19.73m-.81-13.44-.41-6.75-8-25.48,57.6-17.43L810.25,967M780,728.47l21.85,32.13,2.7-2,10.83-8.13L886.56,697l5.33,7.66m-140.33-2.84L780,728.47l38.17-40.14m-43.06,82.56,22.71-16.73m-45.06-12.11,22.7-16.73m-35.12-1.89,18.45-14.06m-32.39-4.86,51.69-55m-35.37,16.83,9.93,10.22M767.5,639l87,82.37m69.22-52.57-96.25-92.27m16.22,286.52L817.78,828.2m-8.07-10.87-15.3-20.59M781.91,780l-16.74-22.57m-8.32-11.2-19.67-26.52m-8-10.78-12.24-16.49,55.9-59.05m9.54-10.08L832.9,570m9.61-10.15,44.47-47,79.84,75.1M858.26,936.45l-29.2-39.9m-7.66-17.62,5.15-4m11-8.08,114.92-84.06M781,978.26l-8.55-24.69m-190.7,84.61-6.57-25.43m-26.1,36,59.4-18.72M258.17,923.75l128.74,26m-115.53-91,128.46,25.92M173.81,628l-16.63,42.65m57-27.14-16.63,42.65m57.26-26.39-16.62,42.65m-124.66-48,24.05,9.22m12.1,4.72,28.21,10.81m11.85,4.54,15.75,6.11m12.23,4.7,41.41,15.92m11.67,4.48L286,720.71m11.7,4.5,38.06,14.63M348,744.55l3.07,1.18,16-42.13M88,721.79l22.4,8.63M123,735.29l28.37,10.94m12,4.64,15.56,6m12.47,4.8L232,777.31m12.64,4.87,13.81,5.25m14,5.47,23.28,9,4.76,1.63M314.33,807l12.27,1.53-2.73,12.39,85.06,17.67-9.73,51.6m-2.44,12.62-9.1,47,7.06,1.21m13.46,2.31,5.71,1.22m-4.8,35.35-10.42,52M339.16,690.56,321.8,735.2m-25.9-61.92-17.37,44.64m17.66,84.19-16.32,42.17-6.67-2.19M131.42,738.72l-16.58,41.8m56.79-25.94-16.58,41.79m56.78-25.94-16.58,41.79m56.86-26.53-16.58,41.79"/><line class="cls-15" x1="1156.7" y1="457.48" x2="1111.87" y2="433.64"/><path class="cls-14" d="M1249.38,283.59l-43.79-23.29m-64,225.18-9.47-5m16.68-9.17-10.12-5.38-15.44,29m-5.72,15.15-8.17,15.37m-4.62,8.69-3.17,6,31.34,16.66m-10.21-56.41,2.72-5.12m-67.46-8.7-53.31-28.35M1114.32,431l-24.25,45.61.11.06L1134.09,500l.21.12,16.54-31.1m5-9.37,2.32-4.37m4.95-9.32,16.29-30.63m5-9.36,13.46-25.32m5.11-9.61,20.85-39.2m4.7-8.85,5.37-10.09m4.83-9.08,13.46-25.33m5-9.35,13.58-25.55m4.84-9.09,13-24.52m5.2-9.79,8.63-16.23-3.22-1.71L1257.31,160M1114.38,518.51l-34.55-18.37-1.77-.94-16.57,31.16m334.9-296.42-71.19-37.85-.15-.08-8.81,16.57m-5,9.44-13,24.5m-5,9.41-3.07,5.78,2.44,1.29,70.28,37.38m-36.71,69-70.3-37.37-2.42-1.3-2.05,3.84m-5.06,9.52-21,39.49m-4.92,9.26-13.18,24.79-2,3.8,7.28,3.87m-23.91,27.42,7.71-14.52,19.81,10.53L1225,432l-3.62-1.93m-37.58,31.64-13.73,25.82m-4.87,9.15L1153.84,518m-5.06,9.52-3.81,7.17m18.17-32.91,71.23,37.87m19.32-34-72.94-38.79"/><path class="cls-5" d="M380.3,616.89c4.52,2,9.17,3.67,13.78,5.43,20.21,7.77,41,14.52,62.2,19,26.94,5.68,54.78,3,81.72-1.26,31.63-5,58.39-15.36,86.53-31.37a254,254,0,0,0,44.17-31.75c38.2-34.47,59.48-78,73.71-126.58l28.32,5.93,78.79,22.34,15.86,15.85L749.79,615.28,733,589.79l-73.1,76.28L622.36,685l12.71,27.62,45.41-24.36,43.38,59.2-30.61,47.16c-1.28-.38-2.61-.71-4-1-24.31-4.79-62.82,6.31-70.17,9-7.73,2.86-40.05,12.32-63.66,34.48L446.6,790l9.95-52.87L341.72,691.63Z"/><path class="cls-16" d="M865.38,494.47l-116.2,120-15.91-23.93-73.38,75.5L622.36,685l12.71,27.62,45.41-24.36,43.38,59.2-30.61,47.15c-1.28-.37-2.61-.7-4-1-24.31-4.79-62.82,6.31-70.17,9-7.73,2.86-40.05,12.32-63.66,34.48L446.6,790l9.95-52.87L341.72,691.63"/><path class="cls-5" d="M409.79,988.84l128.51,4.72c-4.19-26.21-7-55.68-6.87-64.93.13-13.9-1.56-41,7-63.88l-97.16-42.54-4,21.53,36.57,6.89-6.35,34.79-36.87-7.18Z"/><path class="cls-16" d="M409.79,988.84l128.51,4.72c-4.19-26.21-7-55.68-6.87-64.93.13-13.9-1.56-41,7-63.88l-97.16-42.54-4,21.53,36.57,6.89-6.35,34.79-36.87-7.18Z"/><path class="cls-5" d="M830.79,894.23l-39.84,24c-5.71-13.38-8.24-16.81-15.65-31.89-7.78-15.82-21.56-39-26.57-46.17-8.29-11.83-17.36-21.54-28.5-29.54l23-37.66,77.21,106.35Z"/><path class="cls-16" d="M830.79,894.23l-39.84,24c-5.71-13.38-8.24-16.81-15.65-31.89-7.78-15.82-21.56-39-26.57-46.17-8.29-11.83-17.36-21.54-28.5-29.54l23-37.66,77.21,106.35Z"/><polyline class="cls-17" points="1058.67 432.67 1056.71 436.35 1026.38 420.23 1040.96 392.81 1071.29 408.94 1068.86 413.49"/><path class="cls-18" d="M437.22,843.74,430.62,878m637.26-462.58-8.52,16"/><path class="cls-19" d="M1219.91,359.07l3.44-6.48m5.32,11.14,3.44-6.48m-46.87,94,6.48,3.44M1180.58,460l6.48,3.44m-49.26,77,6.48,3.45m-11.14,5.32,6.48,3.44m10.89-36.1L1157,520m-11.13,5.32,6.47,3.44m14.5-42.87,6.48,3.44m-11.14,5.32,6.47,3.44m-60.3,37.4-6.48-3.44M1113,526.7l-6.48-3.44m14.6-11.83-6.48-3.45m11.13-5.31-6.47-3.45M1353.81,176l-3.44,6.48M1345,171.31l-3.43,6.48m27.47,27.29-6.47-3.45m11.13-5.32-6.47-3.44m-68.43-18-6.49-3.44m11.14-5.32-6.48-3.44M1154.29,470.59l-6.47-3.44m11.14-5.32-6.49-3.45m162.21-235-6.49-3.44m11.15-5.32-6.49-3.45m-16.11,45.94-6.48-3.45m11.14-5.32-6.48-3.44m-2.82-33.52-6.47-3.44m11.13-5.33-6.47-3.44m-16.12,45.94-6.48-3.45m11.14-5.32-6.48-3.44m-16.54,46.73-6.48-3.45m11.14-5.32-6.48-3.44M1237,315l-6.48-3.45m11.14-5.32-6.47-3.44m14.35,43.06-6.47-3.45m11.14-5.32-6.48-3.44m-23.88,60.54-6.47-3.44m11.14-5.32-6.49-3.44m-11.63,46.34,3.44-6.48M1219.2,433l3.44-6.48m4.37-92.65-6.47-3.45m11.13-5.32-6.48-3.44m-23.88,60.54-6.48-3.44M1206,373.4,1199.5,370M1183,416.68l-6.49-3.44m11.14-5.32-6.47-3.45m-19.36,52-6.48-3.44m11.14-5.32-6.49-3.44M757.28,1007.53l-7.41.46m6.53-14.46L749,994m-5.62,50-5.33-5.17m15.1-4.89-5.33-5.17m-27.72,24.93,2.19,7.1m-15.59-3,2.19,7.1m-60.1,1.35-2.06,7.14m-11.41-11-2.06,7.13M565.68,874.72l-3.59,6.5m-8.69-13.28-3.59,6.5m87.6,13.39-2.47-7m15.69,2.34-2.47-7m61.32-39.71-6.37-3.81m13.57-8.23-6.38-3.81m-395.4-17-2.06,7.13M301.34,800,299,807.07M124.7,732l-2.57,7m-10.59-11.81-2.57,7m56.14,13.25-2.57,7M152,742.51l-2.57,7m43.69,8.75-2.57,7m-10.59-11.81-2.57,7m68.93,18.32-2.57,7m-10.59-11.82-2.57,7m42.6,8.17-2.58,7M260,784.12l-2.57,7M151.23,665l-2.57,7m-10.59-11.82-2.57,7m56.14,13.25-2.57,7M178.48,675.5l-2.57,7m43.7,8.76-2.57,7m-10.59-11.82-2.57,7m68.92,18.32-2.57,7m-10.59-11.81-2.57,7M349.74,741l-2.57,7m-10.59-11.81-2.57,7M299.67,722l-2.57,7m-10.59-11.82-2.57,7M835.56,864.27l4.29,6.06m-15.74,2,4.29,6.06m5.16-118.91-5.91,4.5m-2.59-15.66-5.91,4.5M821,826.1l-6,4.43m-2.42-15.68-6,4.43m-38.4-64.13-6,4.44m-2.42-15.69-6,4.44M740.41,718l-5.95,4.44M732,706.71l-6,4.44m156.21-202.3-5.23,5.28M872.32,499l-5.22,5.28m-87,116.41,5.17,5.33M770,630.43l5.17,5.34m65.27-79,5.17,5.34m-15.24,4.43,5.17,5.33M621.81,1045.08l-6.35,3.86m-1-15.84-6.34,3.87m-199.35-87-1.53,7.27m-12.2-10.14-1.52,7.27m2.35-65.56,7.28,1.47m-10.05,12.28,7.28,1.47"/><path class="cls-20" d="M295.25,854.12l-.47-1a4.86,4.86,0,0,1-1.73,1.67,4.83,4.83,0,0,1-6.09-7.29,4.77,4.77,0,0,1,2.8-1.65V841.6a1.36,1.36,0,0,1,.41-1,1.31,1.31,0,0,1,1-.4,1.41,1.41,0,0,1,1,.41,1.44,1.44,0,0,1-1,2.45v2.28h3.09v1.18h-3.09v1.19h3.72l1.33,4.52,1.36-.62.54,1.2ZM293.1,853a3.32,3.32,0,0,0,1-2.43l-.42-1.46h-3.94v-1.85a3.46,3.46,0,0,0-1.81,1.21,3.44,3.44,0,0,0,2.73,5.54,3.27,3.27,0,0,0,2.42-1"/><text class="cls-21" transform="translate(300.48 845.65)"><tspan class="cls-22">r</tspan><tspan x="3.45" y="0">e</tspan></text><text class="cls-21" transform="translate(308.69 845.65)"><tspan class="cls-23">f</tspan><tspan x="2.9" y="0">u</tspan></text><text class="cls-21" transform="translate(316.75 845.65)"><tspan class="cls-24">g</tspan><tspan x="4.68" y="0">e</tspan></text><text class="cls-21" transform="translate(300.48 855.2)"><tspan class="cls-22">ar</tspan><tspan x="8.03" y="0">e</tspan></text><text class="cls-21" transform="translate(313.19 855.2)">a</text><polygon class="cls-20" points="446.94 850.18 451.55 854.8 451.55 858.26 448.17 854.87 448.17 861.66 445.72 861.66 445.72 854.87 442.33 858.26 442.33 854.8 446.94 850.18"/><polygon class="cls-20" points="458.08 862.75 453.47 858.14 453.47 854.67 456.85 858.06 456.85 851.27 459.3 851.27 459.3 858.06 462.68 854.67 462.68 858.14 458.08 862.75"/><text class="cls-25" transform="translate(445.03 877.18)">lif<tspan class="cls-26" x="10.28" y="0">t</tspan></text><polygon class="cls-20" points="1043.35 401.76 1047.49 405.92 1047.49 409.03 1044.45 405.99 1044.45 412.09 1042.24 412.09 1042.24 405.99 1039.2 409.03 1039.2 405.92 1043.35 401.76"/><polygon class="cls-20" points="1053.37 413.08 1049.22 408.92 1049.22 405.81 1052.26 408.86 1052.26 402.75 1054.47 402.75 1054.47 408.86 1057.51 405.81 1057.51 408.93 1053.37 413.08"/><text class="cls-27" transform="translate(1041.62 426.06)">l</text><text class="cls-28" transform="translate(1044.45 426.06)">if<tspan class="cls-29" x="6.42" y="0">t</tspan></text><path class="cls-20" d="M775,676a2.29,2.29,0,1,1,2.29,2.28A2.29,2.29,0,0,1,775,676"/><path class="cls-20" d="M779.63,679.35a2.43,2.43,0,0,1,2.22,1.51l1.88,7.12a1.08,1.08,0,0,1-.76,1.31,1.07,1.07,0,0,1-1.32-.75l-1.47-5.45h-.55l2.4,9.23h-2.31v6a1.14,1.14,0,0,1-1.09,1.14,1.07,1.07,0,0,1-1.07-1.07v-6.09H777v6.09a1.07,1.07,0,0,1-1.08,1.07,1.14,1.14,0,0,1-1.08-1.14v-6H772.4l2.41-9.23h-.55l-1.47,5.45a1.08,1.08,0,0,1-2.09-.56l1.88-7.12a2.44,2.44,0,0,1,2.23-1.51Z"/><path class="cls-20" d="M782.13,754.24l-.68-1.47a7,7,0,0,1-2.48,2.39,6.92,6.92,0,0,1-8.73-10.45,6.9,6.9,0,0,1,4-2.37v-6.05a2,2,0,0,1,2-2,2,2,0,0,1,1.45.6,2,2,0,0,1,.6,1.45,1.92,1.92,0,0,1-.6,1.45,2,2,0,0,1-1.44.61v3.26h4.42v1.71h-4.42v1.7h5.32l1.91,6.47,1.94-.89.79,1.73ZM779,752.63a4.78,4.78,0,0,0,1.46-3.48l-.6-2.11h-5.64V744.4a4.85,4.85,0,0,0-2.59,1.74,4.66,4.66,0,0,0-1,3,5,5,0,0,0,5,5,4.71,4.71,0,0,0,3.47-1.45"/><path class="cls-20" d="M1140.43,416.41a2.29,2.29,0,1,1,2.29,2.28,2.29,2.29,0,0,1-2.29-2.28"/><path class="cls-20" d="M1145,419.78a2.43,2.43,0,0,1,2.22,1.51l1.88,7.12a1.08,1.08,0,0,1-.76,1.31,1.06,1.06,0,0,1-1.32-.76l-1.47-5.44H1145l2.4,9.24h-2.31v6a1.14,1.14,0,0,1-1.08,1.14,1.07,1.07,0,0,1-1.08-1.07v-6.09h-.61v6.09a1.08,1.08,0,0,1-1.07,1.07,1.14,1.14,0,0,1-1.09-1.14v-6h-2.39l2.41-9.23h-.55l-1.48,5.44a1.08,1.08,0,0,1-2.08-.55l1.88-7.12a2.45,2.45,0,0,1,2.23-1.51Z"/><path class="cls-20" d="M1125.53,459.44a1,1,0,0,1,1,1.05v7.16a1.05,1.05,0,0,1-2.1,0v-5.5H1124V478.5a1.11,1.11,0,0,1-1.06,1.11,1,1,0,0,1-1-1v-9.95h-.59v9.95a1,1,0,0,1-1,1,1.11,1.11,0,0,1-1.06-1.11V462.15h-.45v5.5a1.05,1.05,0,0,1-2.1,0v-7.16a1,1,0,0,1,1-1.05Z"/><path class="cls-20" d="M1119.44,456a2.24,2.24,0,1,1,2.23,2.23,2.23,2.23,0,0,1-2.23-2.23"/><path class="cls-30" d="M1009.47,502.79,1060.58,530l-22,41.32,140,74.42,256.71-482.79-140-74.42L1273.77,129l-6,11.36-154,289.67-74.78-39.76-36,67.79-27.47,51.65-34-8.24-64.83-14.24-10.8,9.32-.27-.28-15.86-15.84-78.8-22.34-28.32-5.93c-14.23,48.56-35.51,92.1-73.7,126.57a255.35,255.35,0,0,1-44.17,31.76c-28.15,16-54.91,26.38-86.53,31.36-26.95,4.25-54.79,6.94-81.73,1.26-21.21-4.47-42-11.22-62.2-19-4.6-1.77-9.25-3.47-13.78-5.44L342.6,692l-213.15-82L71.05,763.62l201.36,79-31.63,168.48,165.71,33.11,1-4.78,140,5.16s5.87,24,16.95,42.68c20.87,35.25,62.51,51.46,101.9,49,11.27-.71,22.32-2.93,33.37-5.11,17.62-3.47,32.26-9.29,48.69-16.66,31.59-14.17,62.75-41.32,69.56-77.25,3.58-18.85,2.73-44.62-6.11-68.91l46.25-30.59,25.75,34.26,134.48-98.27L891.41,702.15l93.88-97.42L965.68,586Z"/><text class="cls-31" transform="translate(1711 102.92)"><tspan class="cls-32">o</tspan><tspan x="33" y="0">n </tspan><tspan class="cls-33" x="79.14" y="0">t</tspan><tspan class="cls-34" x="99.84" y="0">h</tspan><tspan x="132.36" y="0">e </tspan><tspan class="cls-35" x="175.68" y="0">fi</tspan><tspan x="205.92" y="0">rst f</tspan><tspan class="cls-36" x="284.99" y="0">l</tspan><tspan class="cls-37" x="315.59" y="0">o</tspan><tspan class="cls-38" x="348.89" y="0">o</tspan><tspan x="381.89" y="0">r</tspan></text><text class="cls-39" transform="translate(1613.01 195.63)">101</text><text class="cls-39" transform="translate(1688.34 195.63)"> </text><text class="cls-39" transform="translate(1711.02 195.63)">Hacking Room D</text><text class="cls-39" transform="translate(1613.01 276.14)">102</text><text class="cls-39" transform="translate(1688.34 276.14)"> </text><text class="cls-39" transform="translate(1711.02 276.14)">Hacking Room E</text><path class="cls-10" d="M94.24,351.82c24.88,0,45.05,21.54,45.05,46.42a45.05,45.05,0,0,1-90.1,0c0-24.88,20.17-46.42,45.05-46.42"/><text class="cls-40" transform="translate(71.46 424.19)">1</text><path class="cls-20" d="M194.48,418.26l-10-15.26v15.26h-6.12V387.82h6.12V402l11-14.19h6.43l-11.47,13.54L202,418.26Zm14.44-10.65V408c0,4.32,2.8,6.95,7.07,6.95a9.9,9.9,0,0,0,4.7-1l1.17,3.32s-2.42,1.29-7.59,1.29c-6,0-11.47-2.5-11.47-11.34,0-4.14,1.55-11.51,10.52-11.51,4.35,0,6.64,1.59,8,4,1.21,2.15,1.34,5.08,1.34,7.5v.34Zm7.76-4c0-3.27-1.2-4.91-3.79-4.91-2.16,0-3.19,1.29-3.67,3.27a11.44,11.44,0,0,0-.26,2.59h7.72Zm19.88,18.59c-1.51,4.31-3.71,5.82-7.29,5.82a10.31,10.31,0,0,1-3.75-.56l.91-3.54a5.42,5.42,0,0,0,2.15.52c1.86,0,2.76-1,3.5-3.06l.73-2L224,396.19h6.55l4.36,14.31c.52,1.77.65,2.68.69,2.76,0-.08.39-1.46.73-2.67l4.06-14.4h5.34Zm32.13-3.93v-2s-1.64,2.29-5.65,2.29c-4.19,0-6.9-2.46-6.9-6.47a6.13,6.13,0,0,1,2.46-5.31c1.85-1.33,4.31-1.5,6.89-1.5,1.47,0,3.07.12,3.07.12V404a8.64,8.64,0,0,0-.35-2.8c-.56-1.47-1.9-1.94-3.79-1.94a11,11,0,0,0-5,1.12l-1.2-3.41a20.64,20.64,0,0,1,7.76-1.25c5.73,0,7.33,2.42,7.93,4.1a19,19,0,0,1,.43,5.26v13.19Zm-.13-10.17s-.39,0-2,0a5,5,0,0,0-3.28.91,3.59,3.59,0,0,0-1.16,2.8c0,2.72,2,3.41,3.79,3.41a6.3,6.3,0,0,0,2.68-.47Zm24.19-6.86a6.06,6.06,0,0,0-3.58-1.08,6.21,6.21,0,0,0-3.24.78v17.33h-6V396.19h5.86v2.93a6.09,6.09,0,0,1,5.31-3.28,7.1,7.1,0,0,1,2.88.56Zm8.79,6.38V408c0,4.32,2.81,6.95,7.08,6.95a10,10,0,0,0,4.7-1l1.16,3.32s-2.42,1.29-7.59,1.29c-6,0-11.47-2.5-11.47-11.34,0-4.14,1.55-11.51,10.52-11.51,4.36,0,6.64,1.59,8,4,1.21,2.15,1.34,5.08,1.34,7.5v.34Zm7.77-4c0-3.27-1.21-4.91-3.8-4.91-2.16,0-3.19,1.29-3.66,3.27a11.44,11.44,0,0,0-.26,2.59h7.72Zm21.51,14.66v-2s-1.64,2.29-5.65,2.29c-4.18,0-6.9-2.46-6.9-6.47a6.15,6.15,0,0,1,2.46-5.31c1.86-1.33,4.31-1.5,6.9-1.5,1.47,0,3.06.12,3.06.12V404a8.67,8.67,0,0,0-.34-2.8c-.56-1.47-1.9-1.94-3.8-1.94a11,11,0,0,0-5,1.12L320.34,397a20.73,20.73,0,0,1,7.77-1.25c5.73,0,7.33,2.42,7.93,4.1a19.33,19.33,0,0,1,.43,5.26v13.19Zm-.13-10.17s-.39,0-2,0a5,5,0,0,0-3.28.91,3.6,3.6,0,0,0-1.17,2.8c0,2.72,2,3.41,3.8,3.41a6.22,6.22,0,0,0,2.67-.47Zm16.82,10.52c-5.09,0-7.46-1.29-7.46-1.29l1.21-3.45a11.54,11.54,0,0,0,5.6,1.2c2.37,0,3.67-.82,3.67-2.45,0-1.3-.61-1.69-2.07-2.51l-3.24-1.76c-2.88-1.6-4.39-3.19-4.39-6.3,0-4.18,3-6.29,7.93-6.29a16.87,16.87,0,0,1,6.77,1.16l-1.21,3.45a10.49,10.49,0,0,0-4.78-1.16c-1.81,0-3.41.47-3.41,2.15,0,1.38.82,1.81,2.59,2.72l3.14,1.59c2.68,1.38,4.14,3.06,4.14,6C356,416.76,352.08,418.61,347.51,418.61ZM362,428h-3.84l7-43.12H369Zm23.8-26.78a6,6,0,0,0-3.58-1.08,6.15,6.15,0,0,0-3.23.78v17.33h-6V396.19h5.87v2.93a6.08,6.08,0,0,1,5.3-3.28,7.2,7.2,0,0,1,2.89.56Zm13.37,17.55c-6.9,0-10.7-4.27-10.7-11.17,0-6.16,3.07-11.9,11.13-11.9,6.9,0,10.65,4.27,10.65,11.17C410.25,413.05,407.23,418.78,399.17,418.78Zm.17-19.53c-3.41,0-4.61,2.63-4.61,7.93,0,5.09,1.16,8.07,4.7,8.07s4.57-2.68,4.57-8C404,402.18,402.88,399.25,399.34,399.25Zm25,19.53c-6.9,0-10.7-4.27-10.7-11.17,0-6.16,3.06-11.9,11.13-11.9,6.9,0,10.65,4.27,10.65,11.17C435.39,413.05,432.37,418.78,424.31,418.78Zm.17-19.53c-3.41,0-4.61,2.63-4.61,7.93,0,5.09,1.16,8.07,4.7,8.07s4.57-2.68,4.57-8C429.14,402.18,428,399.25,424.48,399.25Zm42.47,19V405.54a16.23,16.23,0,0,0-.17-3c-.43-2.29-2.07-3-4.18-3a7.46,7.46,0,0,0-3.54.82,5.54,5.54,0,0,1,.3,1.25,24.73,24.73,0,0,1,.18,3.8v12.8h-6.08V405.54a15.34,15.34,0,0,0-.18-3c-.34-1.94-1.64-3-4-3a6.58,6.58,0,0,0-3.23.74v17.93h-6V396.19h5.86v2.24s1.86-2.72,6.43-2.72c4.74,0,6,2.85,6,2.85a9.93,9.93,0,0,1,7.24-2.89c1.42,0,6,.17,7.16,5a16.65,16.65,0,0,1,.34,4.14v13.49Zm17.12.35c-5.09,0-7.46-1.29-7.46-1.29l1.21-3.45a11.54,11.54,0,0,0,5.6,1.2c2.38,0,3.67-.82,3.67-2.45,0-1.3-.6-1.69-2.07-2.51l-3.24-1.76c-2.88-1.6-4.39-3.19-4.39-6.3,0-4.18,3-6.29,7.93-6.29a16.87,16.87,0,0,1,6.77,1.16l-1.21,3.45a10.49,10.49,0,0,0-4.78-1.16c-1.81,0-3.41.47-3.41,2.15,0,1.38.82,1.81,2.59,2.72l3.15,1.59c2.67,1.38,4.14,3.06,4.14,6C492.57,416.76,488.64,418.61,484.07,418.61Zm31.05.17c-6.9,0-10.7-4.27-10.7-11.17,0-6.16,3.07-11.9,11.13-11.9,6.9,0,10.65,4.27,10.65,11.17C526.2,413.05,523.18,418.78,515.12,418.78Zm.17-19.53c-3.41,0-4.61,2.63-4.61,7.93,0,5.09,1.16,8.07,4.7,8.07s4.57-2.68,4.57-8C520,402.18,518.83,399.25,515.29,399.25Zm29.15,19V405.63a17.15,17.15,0,0,0-.17-3.1c-.43-2.07-1.9-2.94-4.14-2.94a7.66,7.66,0,0,0-3.32.74v17.93h-6V396.19h5.86v2.24s1.9-2.72,6.6-2.72,6.43,2.68,6.94,4.92a20.38,20.38,0,0,1,.35,4.31v13.32Zm28.2.26c-3.58,0-5.78-.82-6.73-3.58a16.76,16.76,0,0,1-.43-4.48V399.51h-2.76v-2.76l.61-.22a6.54,6.54,0,0,0,4.22-5.09l0-.39h3.93v5.18H578v3.28h-6.51v11.34c0,2.2.26,4,3.1,4a6,6,0,0,0,2.59-.61l1,3.32A15.69,15.69,0,0,1,572.64,418.52Zm22.29-.26V405.63a17.15,17.15,0,0,0-.17-3.1c-.43-2.07-1.9-2.94-4.14-2.94a7.66,7.66,0,0,0-3.32.74v17.93h-6V384.89h6v13.54s1.81-2.72,6.47-2.72,6.38,2.68,6.9,4.92a21,21,0,0,1,.34,4.31v13.32Zm16.56-10.65V408c0,4.32,2.8,6.95,7.07,6.95a9.9,9.9,0,0,0,4.7-1l1.17,3.32s-2.42,1.29-7.59,1.29c-6,0-11.47-2.5-11.47-11.34,0-4.14,1.55-11.51,10.52-11.51,4.35,0,6.64,1.59,8,4,1.21,2.15,1.34,5.08,1.34,7.5v.34Zm7.76-4c0-3.27-1.2-4.91-3.79-4.91-2.16,0-3.19,1.29-3.67,3.27a11.44,11.44,0,0,0-.26,2.59h7.72Zm35.66-12c-3.1,0-3.49-2.15-3.49-3.1v-.39a9.34,9.34,0,0,0-1.34-.09c-2.76,0-4.09,1.25-4.65,2.94a9.79,9.79,0,0,0-.35,3.19v2.11h12.85v22h-6v-18.8h-6.81v18.8h-6v-18.8h-2.72v-3.23h2.72v-.82a11.34,11.34,0,0,1,1.59-6.3c1.69-2.84,4.83-4.22,9.23-4.22,2.55,0,8.5.13,8.5,3.66C658.41,390.37,657.2,391.57,654.91,391.57Zm21.65,9.66a6.06,6.06,0,0,0-3.58-1.08,6.15,6.15,0,0,0-3.23.78v17.33h-6V396.19h5.86v2.93a6.11,6.11,0,0,1,5.31-3.28,7.2,7.2,0,0,1,2.89.56Zm9.36,17.38c-5.09,0-7.46-1.29-7.46-1.29l1.2-3.45a11.6,11.6,0,0,0,5.61,1.2c2.37,0,3.66-.82,3.66-2.45,0-1.3-.6-1.69-2.06-2.51l-3.24-1.76c-2.89-1.6-4.4-3.19-4.4-6.3,0-4.18,3-6.29,7.94-6.29a16.93,16.93,0,0,1,6.77,1.16l-1.21,3.45a10.56,10.56,0,0,0-4.79-1.16c-1.81,0-3.4.47-3.4,2.15,0,1.38.82,1.81,2.58,2.72l3.15,1.59c2.68,1.38,4.14,3.06,4.14,6C694.41,416.76,690.49,418.61,685.92,418.61Zm20-.09c-3.57,0-5.77-.82-6.72-3.58a16.35,16.35,0,0,1-.43-4.48V399.51H696v-2.76l.6-.22a6.55,6.55,0,0,0,4.23-5.09l0-.39h3.92v5.18h6.51v3.28H704.8v11.34c0,2.2.26,4,3.11,4a6,6,0,0,0,2.59-.61l1,3.32A15.82,15.82,0,0,1,705.92,418.52Zm30.88-.26V388.12a5.8,5.8,0,0,0-1.86-.13c-2.76,0-4.09,1.25-4.65,2.94a10.07,10.07,0,0,0-.35,3.19v2.11h4.53v3.23h-4.53v18.8h-6v-18.8h-2.72v-3.23H724v-1.12a11.94,11.94,0,0,1,1.46-6.08c1.69-2.85,4.53-4.14,8.89-4.14a21,21,0,0,1,3.71.34l4.83-.43v33.46Zm21.34.52c-6.9,0-10.69-4.27-10.69-11.17,0-6.16,3.06-11.9,11.12-11.9,6.9,0,10.66,4.27,10.66,11.17C769.23,413.05,766.21,418.78,758.14,418.78Zm.18-19.53c-3.41,0-4.62,2.63-4.62,7.93,0,5.09,1.17,8.07,4.7,8.07s4.57-2.68,4.57-8C763,402.18,761.85,399.25,758.32,399.25Zm25,19.53c-6.9,0-10.69-4.27-10.69-11.17,0-6.16,3.06-11.9,11.12-11.9,6.9,0,10.65,4.27,10.65,11.17C794.36,413.05,791.35,418.78,783.28,418.78Zm.17-19.53c-3.4,0-4.61,2.63-4.61,7.93,0,5.09,1.16,8.07,4.7,8.07s4.57-2.68,4.57-8C788.11,402.18,787,399.25,783.45,399.25Zm28.33,2a6,6,0,0,0-3.58-1.08,6.19,6.19,0,0,0-3.23.78v17.33h-6V396.19h5.87v2.93a6.08,6.08,0,0,1,5.3-3.28,7.2,7.2,0,0,1,2.89.56Z"/><text class="cls-41" transform="translate(864.95 591.22)">Room D<tspan x="13.38" y="28.8">(101)</tspan></text><text class="cls-41" transform="translate(803.85 651.17)">Room E<tspan x="10.74" y="28.8">(102)</tspan></text></svg>