<svg id="Layer_1" data-name="Layer 1" xmlns="http://www.w3.org/2000/svg" viewBox="0 0 2266.3 1190.55"><defs><style>.cls-1{fill:#ccd6dc;}.cls-2,.cls-30{fill:#005496;}.cls-3,.cls-31,.cls-43{fill:#fff;}.cls-4{fill:#91a1ab;}.cls-11,.cls-12,.cls-13,.cls-14,.cls-15,.cls-16,.cls-17,.cls-27,.cls-28,.cls-29,.cls-5,.cls-6,.cls-7,.cls-8,.cls-9{fill:none;}.cls-11,.cls-12,.cls-13,.cls-29,.cls-5,.cls-6,.cls-7,.cls-8,.cls-9{stroke:#6e818b;}.cls-5{stroke-width:2.27px;stroke-dasharray:3.4 3.4;}.cls-14,.cls-6{stroke-width:2.12px;}.cls-11,.cls-12,.cls-13,.cls-7,.cls-8,.cls-9{stroke-miterlimit:2;}.cls-7{stroke-width:3.19px;}.cls-8{stroke-width:2.78px;}.cls-9{stroke-width:3.23px;}.cls-10,.cls-32{fill:#6e818b;}.cls-11{stroke-width:3.79px;}.cls-12{stroke-width:2.75px;}.cls-13{stroke-width:3.34px;}.cls-14,.cls-15,.cls-17{stroke:#fff;}.cls-15{stroke-width:2.08px;}.cls-16{stroke:#bcbec0;stroke-width:3.18px;}.cls-17{stroke-width:1.59px;}.cls-18,.cls-19,.cls-23,.cls-25{fill:#3d505a;}.cls-19{font-size:8.59px;}.cls-19,.cls-31,.cls-43{font-family:RdgVesta-Bold, Rdg Vesta;}.cls-19,.cls-23,.cls-25,.cls-31,.cls-43{font-weight:700;}.cls-20{letter-spacing:0.01em;}.cls-21{letter-spacing:0.03em;}.cls-22{letter-spacing:0.01em;}.cls-23{font-size:14.61px;letter-spacing:-0.02em;}.cls-23,.cls-25{font-family:HelveticaNeue-CondensedBold, Helvetica Neue;}.cls-24{letter-spacing:0em;}.cls-25{font-size:13.15px;}.cls-26{letter-spacing:-0.02em;}.cls-27,.cls-28{stroke:#3d505a;}.cls-27{stroke-width:1.06px;}.cls-28{stroke-width:0.22px;}.cls-29{stroke-width:4.24px;}.cls-30{font-size:45px;}.cls-30,.cls-32{font-family:RdgVesta-Regular, Rdg Vesta;}.cls-31{font-size:77px;}.cls-32{font-size:60px;}.cls-33{letter-spacing:-0.02em;}.cls-34{letter-spacing:-0.01em;}.cls-35{letter-spacing:-0.02em;}.cls-36{letter-spacing:-0.01em;}.cls-37{letter-spacing:-0.01em;}.cls-38{letter-spacing:-0.03em;}.cls-39{letter-spacing:-0.02em;}.cls-40{letter-spacing:0em;}.cls-41{letter-spacing:-0.02em;}.cls-42{letter-spacing:-0.02em;}.cls-43{font-size:24px;}</style></defs><title>Second Floor</title><path class="cls-1" d="M856.21,426l-78.79-22.33-28.32-5.93c-14.23,48.56-35.51,92.1-73.71,126.57A254.59,254.59,0,0,1,631.22,556c-28.14,16-54.9,26.37-86.53,31.36-26.94,4.25-54.78,6.94-81.72,1.26-21.21-4.47-42-11.22-62.2-19-4.61-1.77-9.26-3.47-13.78-5.44l-37.83,73.32L136,555.56,77.61,709.13l201.36,79L247.34,956.56l165.71,33.11,1-4.78,140,5.16s5.86,24,17,42.67c20.87,35.26,62.51,51.47,101.9,49,11.27-.72,22.32-2.93,33.37-5.11,17.61-3.47,32.26-9.29,48.68-16.66,31.6-14.18,62.76-41.32,69.57-77.25,3.57-18.85,2.73-44.62-6.11-68.91l46.25-30.59,25.74,34.26,134.49-98.27L898,647.66l93.88-97.42-19.61-18.76,43.66-82.38L1067,476.27l-22,41.33L1185,592l256.71-482.8-140-74.42-21.53,40.52-6,11.36-156.84,295-74.78-39.76-33.22,62.48L981.86,456l-34-8.25L883,433.55l-11.76,7.12Z"/><polygon class="cls-2" points="854.47 500.12 893.77 458.52 991.28 550.84 930.28 614.34 834.03 522.06 847.88 507.09 854.47 500.12"/><polygon class="cls-2" points="429.26 901.45 412.99 989.57 246.32 956.05 264.89 869.2 429.26 901.45"/><polygon class="cls-3" points="444.48 788.72 480.25 796.38 473.55 831.03 437.2 823.96 444.48 788.72"/><rect class="cls-3" x="1035.57" y="351.66" width="32.44" height="33.29" transform="translate(232.84 1124.1) rotate(-62)"/><polygon class="cls-4" points="724.17 637.93 773.7 584.58 784.78 594.48 733.31 650.91 724.17 637.93"/><polygon class="cls-4" points="746.84 669.42 765.63 654.77 786.96 673.75 763.84 692.01 746.84 669.42"/><polygon class="cls-4" points="796.62 664.5 825.54 633.67 861.09 667.32 820.84 696.41 796.62 664.5"/><polygon class="cls-4" points="333.63 753.9 418.42 770.25 415.37 784.15 331.32 766.49 333.63 753.9"/><polygon class="cls-4" points="328.45 680.95 345.76 636.53 374.33 647.33 357.35 690.95 328.45 680.95"/><polygon class="cls-4" points="77.4 708.66 93.7 666.84 302.51 747.84 286.36 789.92 77.4 708.66"/><polygon class="cls-4" points="119.92 599.44 135.83 555.75 345.42 636.12 329.14 680.62 119.92 599.44"/><polygon class="cls-4" points="342.1 863.24 350.88 819.26 406.49 830.06 398.35 874.52 342.1 863.24"/><polygon class="cls-4" points="762.16 739.75 893 642.71 1025.21 818.7 889.81 916.35 762.16 739.75"/><polygon class="cls-4" points="276.79 804.66 350.76 819.43 342.16 863.05 362.4 867.17 358.5 888.83 263.57 869.6 276.79 804.66"/><rect class="cls-4" x="1312.68" y="152.81" width="74.96" height="82.31" transform="translate(545.1 1295.07) rotate(-62)"/><polygon class="cls-4" points="1404.34 89 1337.13 53.05 1319.44 86.31 1340.67 97.61 1333.05 111.94 1379.12 136.43 1404.34 89"/><polygon class="cls-4" points="1147.33 487.78 1219.74 526.28 1331.08 315.04 1259.43 276.94 1211.1 367.83 1230.69 378.24 1222.1 394.81 1202.17 384.65 1168.69 447.62 1147.33 487.78"/><polygon class="cls-4" points="1120.18 540.73 1148.36 487.73 1219.31 525.45 1184.02 591.82 1113.07 554.1 1120.18 540.73"/><rect class="cls-4" x="1124.79" y="427.36" width="32.54" height="11.32" transform="translate(222.97 1237.16) rotate(-62)"/><polygon class="cls-4" points="1181.1 370.39 1136.29 346.57 1264.25 105.92 1309.04 129.74 1181.1 370.39"/><polygon class="cls-4" points="1133.04 514.66 1112.58 552.86 1045.1 516.97 1080.5 450.66 1125.03 474.33 1110.08 502.45 1133.04 514.66"/><polygon class="cls-4" points="1440.52 109.1 1402.31 180.98 1365.68 161.5 1404.26 88.95 1440.52 109.1"/><line class="cls-5" x1="443.77" y1="789.25" x2="437.18" y2="823.48"/><polyline class="cls-6" points="1061.57 385.61 1059.62 389.29 1029.29 373.17 1043.87 345.75 1074.19 361.88 1071.77 366.43"/><line class="cls-5" x1="1070.79" y1="368.33" x2="1062.27" y2="384.37"/><path class="cls-7" d="M750,563.38,789.91,521m-50.47,21.91,52.36-55.47"/><path class="cls-8" d="M784.59,525.21,769.1,511.47m11.68,18-15.5-13.75M761.5,520,777,533.78m-19.49-9.25L773,538.27m-3.56,4.39L754,528.91m-3.14,3.45,15.5,13.75m-18.39-10.49,15.5,13.75M745,538.88l15.5,13.75"/><path class="cls-9" d="M377.58,801.42h0m-5.33,22.86,5-22.92m-10.11,21.91,5-22.92m-5.11-1-5,22.92m-.1-23.94-5,22.92m-.11-23.93-5,22.92m42.42-17.81,4.19-19.21m-9.3,18.25,4.2-19.27m-5.11-1-4.16,19.1m-.94-20.12-4.19,19.19m-.92-20.2-4.2,19.27"/><polygon class="cls-10" points="346.31 793.42 350.65 773.54 376.86 778.75 372.52 798.64 346.31 793.42"/><path class="cls-11" d="M346.2,793.94l61.65,12.27m-67.3,8.5,63.7,12.55,9.44-41.64-63-12.54"/><polygon class="cls-10" points="376.64 824.01 381.64 801.1 407.87 806.32 402.87 829.23 376.64 824.01"/><polygon class="cls-10" points="770.14 511.73 792.34 488.01 808.91 503.82 787.22 526.18 770.14 511.73"/><path class="cls-12" d="M1307.63,69h0M1324,78l-16.44-8.75M1322,81.61l-16.45-8.74m-1.92,3.61,16.45,8.75m-18.38-5.13,16.46,8.75m-18.38-5.13,16.45,8.74m-4.13-35.76-14.07-7.47m12.18,11.11-14.1-7.5m-1.93,3.62,14,7.43m-15.91-3.81,14,7.46m-16-3.85,14.11,7.5"/><polygon class="cls-10" points="1294.5 90.78 1279.94 83.05 1289.82 64.49 1304.36 72.22 1294.5 90.78"/><path class="cls-12" d="M1294.87,91l23.21-43.67M1311,99.56l23.74-44.65-31.93-17-23.74,44.65"/><rect class="cls-10" x="1310.93" y="51.67" width="21.04" height="18.63" transform="translate(647.23 1199.13) rotate(-62)"/><path class="cls-13" d="M1027.32,395.63h0m10.37,5.52,9.27-17.43m-4.24,20.1,9.27-17.43m6,25.54,9.27-17.43m-14.31,14.75,9.27-17.43m-14.45,14.67,9.27-17.43m-30.87,8.08-7.94,14.94m5,2.67,7.88-14.81m-2.85,17.49,7.91-14.88m-2.89,17.55,8-15"/><polygon class="cls-4" points="773.7 584.58 834.03 522.06 930.28 614.34 870.89 673.39 773.7 584.58"/><rect class="cls-10" x="1042.05" y="408.94" width="17.46" height="21.43" transform="translate(186.96 1150.45) rotate(-62)"/><path class="cls-13" d="M1064.49,416.55,1018.22,392m55.1,7.36-46-24.46m-18,33.84,46.27,24.6"/><rect class="cls-10" x="1020.52" y="378.63" width="19.74" height="17.04" transform="translate(204.79 1115.15) rotate(-62)"/><path class="cls-14" d="M1276.86,420.48l-53.68-28.54m-42.25-21.61-45.7-24.3m160.55,38.87-72.94-38.79m-23.27-10.84L1153.86,311m82.56-45-45.7-24.29m83-45.81-45.7-24.3m159.64,40.6-72.94-38.79m-22.64-12-45.7-24.3M1312,350.78l-73.1-38.86-3.78-2m-9.22-4.9-53.24-28.31M1336.8,53.92l-30.13,56.67m-4.89,9.19-2.66,5M1221,526.42l-55.83-29.71-10-5.32-7.24-3.85-3.87,7.29m-5.22,9.82-26.07,49M1370,69.81l-25.67,48.26m8.29-14.22L1319.07,86m38.41,8.22-11.38-6m32.67,48L1359,125.69m-9.62-5.11-16.24-8.64,17.55-33,11.37,6m42.22,4.39-27.37,51.5m-4.81,9-5.54,10.42M769,734.5l-6.39,4.55M780,726.68l5.9-4.21m10.8-58,24,31.78M970.07,861.56l-29.25-39.82M917,899.05,888.5,860.77l39-29M938,823.94l5.82-4.33m11-8.18,41.38-30.8M358.78,888.56l1.11-4.9m2-12.64.77-3.16M350.41,819l-8.57,44.15L380.67,871M394,873.64l4.49.91.11-.64,16.91-89.79-85.06-17.67,2.73-12.39-12.27-1.53m44.55,7.59L362.58,774M333.7,754.09l84.65,16.13-2.86,13.9M872,442.94l4.42,4.34m9.65,9.44,4.73,4.63m7.69,188.85-5.33-7.66-54.43,40.57m-10.77,8-42,31.33L774,706m-15.84-58.61L786.57,674l38.18-40.15m-61.44,58.35L786,674.56m-39.09-5.62,18.46-14.06M733,650l51.7-54.95M749.3,611.9l9.93,10.22m14.83-37.58,87,82.37m69.22-52.57L834,522.06M765.32,694.73l-21.59-29.51m-8-10.78-12.25-16.5,55.91-59m9.54-10.08,50.51-53.35m9.62-10.15,44.47-47,79.84,75.11M264.73,869.26l128.73,26,7.81,1.32m-123.34-92.3,128.46,25.92m-226-256.67-16.63,42.65m57-27.14-16.62,42.65m57.26-26.39-16.63,42.65m-124.65-48,24,9.21m12.11,4.73,28.21,10.81m11.85,4.54,15.74,6.1M224.28,640l41.41,15.92m11.66,4.48,15.17,5.83m11.7,4.5,38.06,14.63m12.24,4.71,3.07,1.18,16.05-42.13M94.55,667.29,117,675.93m12.63,4.87L158,691.74m12,4.64,15.56,6m12.46,4.8,40.57,15.64m12.64,4.87,13.81,5.25m14,5.47,23.29,9,4.75,1.64M414.74,898.88,422,900M345.72,636.07l-17.36,44.64m-25.91-61.92-17.36,44.64m17.66,84.18-16.32,42.18-6.67-2.2M138,684.23,121.4,726m56.78-25.95-16.58,41.8m56.79-26-16.58,41.8m56.85-26.53L242.08,773"/><line class="cls-15" x1="1161.73" y1="406.44" x2="1116.89" y2="382.6"/><path class="cls-14" d="M1255.25,231l-43.8-23.29m-64.82,226.77-9.46-5m16.67-9.17-10.11-5.38-15.44,29m-17.48,11.62-5.06,9.53m10.84,26.79-6,11.28L1133,515m-17.3-68.7,4.13-7.78m-59.09,1.2-53.32-28.35M1119.34,380l-24.25,45.61.11.06,35.94,19.11,8.19,4.35L1155.87,418m5-9.36,2.33-4.37m4.95-9.32,15.73-29.57m5-9.35,13.74-25.86m5.12-9.61,19.85-37.34m4.71-8.85L1246.78,247m4.83-9.08,14.73-27.72m5-9.35,13.6-25.56m4.82-9.08,10.93-20.54m5.2-9.79,3-5.61-3.21-1.71-41.88-22.26M1067.92,476.67l13.54-25.46,1.77.94,42.46,22.58-4.5,8.47m281.64-302.95-71.19-37.86-.16-.08-8.81,16.58m-5,9.44L1311,180.87m-4.71,8.88-9.7,18.26,2.43,1.3,70.29,37.37m-36.71,69-70.29-37.37-2.45-1.29-4.15,7.82m-4.85,9.13-19.38,36.43m-4.63,8.73L1213.63,364l-2,3.79,7.28,3.87M1195,399l7.72-14.51,19.8,10.53,8.92-16.78-3.63-1.93M1190.22,408l-13.73,25.83m-4.87,9.15L1156,472.27m-5.06,9.52-2.82,5.31m19.79-36L1239.18,489m19.33-34-72.94-38.78"/><path class="cls-3" d="M864.65,883.16,818.4,913.75c8.84,24.29,9.68,50.06,6.11,68.91-6.81,35.93-38,63.07-69.57,77.25-16.42,7.37-31.07,13.19-48.68,16.66-11,2.18-22.1,4.39-33.37,5.11-39.39,2.51-81-13.7-101.9-49-11.09-18.72-17-42.67-17-42.67l-140-5.16.21-.76,15.2-82.31-8.75-2.3,16.43-75.77L474,830.92l6.35-34.79-36.57-6.88,12.72-68.52,250.92-58.21L863.94,881.89Z"/><path class="cls-3" d="M871.94,439,810,503l-19.2-18.61L737,540.11l14.93,26.55L688.1,634.3l-220,50L348.27,636.14l38.58-74.74c4.53,2,9.18,3.66,13.79,5.43,20.21,7.77,41,14.51,62.2,19,26.93,5.68,54.77,3,81.72-1.26,31.63-5,58.38-15.36,86.53-31.37a255.3,255.3,0,0,0,44.17-31.75c38.2-34.48,59.47-78,73.7-126.58l28.33,5.93,78.79,22.34Z"/><path class="cls-16" d="M414.24,983.13l15.2-82.31-8.75-2.3,16.43-75.77L474,829.92l6.35-34.79-36.57-6.88,12.72-68.52,250.92-58.21L864.33,880.66M871.94,439,810,503l-19.2-18.61L737,540.11l14.93,26.55L688.1,634.3l-220,50L348.27,636.14"/><path class="cls-17" d="M1224.65,307.56l3.44-6.48m5.33,11.14,3.43-6.48m-45.17,90.77,6.48,3.44M1187,405.28l6.47,3.44m-52.86,83.78,6.49,3.44M1136,501.26l6.48,3.45m10.25-34.92,6.48,3.45m-11.14,5.32,6.48,3.44m18.72-50.84,6.48,3.45m-11.14,5.31,6.48,3.45m-60.6,12.73-6.48-3.45m11.14-5.32-6.48-3.44m247.6-322.62-3.45,6.48m-5.32-11.14-3.44,6.48m27.49,27.29-6.49-3.44m11.14-5.32-6.48-3.45m-68.43-18-6.47-3.45m11.12-5.32-6.47-3.44M1120.06,492.37l-6.48-3.44m11.14-5.32-6.48-3.44m41.08-61.62-6.49-3.44m11.15-5.32-6.49-3.45m163.62-237.63-6.49-3.44m11.15-5.32-6.48-3.44M1309.82,190l-6.48-3.44m11.14-5.33-6.49-3.44m-3.81-31.66-6.48-3.44m11.14-5.32-6.47-3.45m-14,42-6.48-3.44m11.14-5.32-6.48-3.44M1270,210.35l-6.48-3.44m11.13-5.32-6.47-3.44m-17.53,48.58-6.47-3.44m11.13-5.32-6.48-3.44m5.54,59.65-6.48-3.44m11.14-5.32-6.48-3.44m-22.25,57.48-6.48-3.44M1235,330.7l-6.49-3.44m-11.62,46.34,3.44-6.48m5.32,11.14,3.45-6.48m1.68-87.6-6.48-3.45m11.14-5.32-6.48-3.44m-22.89,58.68-6.48-3.44m11.14-5.32-6.47-3.45m-16.83,47.26-6.47-3.44m11.13-5.32-6.47-3.44m-18.8,51-6.47-3.44m11.13-5.32-6.48-3.44m-386.82,330,4.29,6.06m-15.73,2,4.29,6.07m66.11-57.36,4.29,6.06m-15.73,2,4.29,6.06M953,807.69l4.29,6.06m-15.74,2,4.3,6.06M395.09,869.15l-1.4,7.3m-12.37-10-1.41,7.3M321.46,748.15l-2.07,7.13M307.9,744.53l-2.33,7.05M131.25,676.49l-2.57,7m-10.59-11.81-2.57,7m56.15,13.25-2.57,7M158.5,687l-2.56,7m43.69,8.75-2.57,7M186.47,697.9l-2.57,7m68.92,18.32-2.57,7m-10.58-11.82-2.57,7m42.59,8.17-2.57,7m-10.59-11.81-2.57,7M157.79,609.49l-2.57,7m-10.59-11.82-2.57,7m56.14,13.25-2.57,7M185,620l-2.57,7m43.69,8.76-2.57,7M213,630.89l-2.57,7m68.93,18.32-2.57,7M266.2,651.33l-2.57,7m92.67,27.22-2.58,7m-10.59-11.81-2.56,7m-34.34-21.17-2.57,7m-10.59-11.82-2.57,7m646,151,4.3,6.06M925,827.7l4.29,6M776.66,702.51l-6,4.43m-2.42-15.68-6,4.43M747,662.47l-6,4.44m-2.41-15.69-6,4.44m156.21-202.3-5.23,5.28m-4.74-15.15-5.23,5.28m-87,116.41,5.17,5.33m-15.24,4.43,5.16,5.33m65.28-79,5.16,5.34M837,511l5.17,5.33M415.37,894.44l-1.52,7.27m-12.2-10.15-1.53,7.27m-41.86-30,7.29,1.47M355.49,882.6l7.28,1.47"/><path class="cls-18" d="M302.48,798.6l-.48-1a4.88,4.88,0,0,1-1.72,1.66,4.74,4.74,0,0,1-2.38.63,4.85,4.85,0,0,1-4.83-4.83,4.69,4.69,0,0,1,1.12-3.09,4.74,4.74,0,0,1,2.8-1.65v-4.22a1.37,1.37,0,0,1,1.39-1.4,1.39,1.39,0,0,1,1,.42,1.41,1.41,0,0,1,.42,1,1.38,1.38,0,0,1-.42,1,1.43,1.43,0,0,1-1,.43v2.27h3.09V791h-3.09v1.18h3.71l1.34,4.52,1.35-.62.55,1.21Zm-2.15-1.12a3.36,3.36,0,0,0,1-2.43l-.43-1.47H297v-1.85a3.44,3.44,0,0,0-1.81,1.22,3.44,3.44,0,0,0,5.15,4.53"/><text class="cls-19" transform="translate(307.7 790.13)"><tspan class="cls-20">r</tspan><tspan x="3.45" y="0">e</tspan></text><text class="cls-19" transform="translate(315.92 790.13)"><tspan class="cls-21">f</tspan><tspan x="2.9" y="0">u</tspan></text><text class="cls-19" transform="translate(323.98 790.13)"><tspan class="cls-22">g</tspan><tspan x="4.68" y="0">e</tspan></text><text class="cls-19" transform="translate(307.7 799.68)"><tspan class="cls-20">ar</tspan><tspan x="8.03" y="0">e</tspan></text><text class="cls-19" transform="translate(320.41 799.68)">a</text><polygon class="cls-18" points="452.66 794.65 457.26 799.27 457.26 802.73 453.88 799.35 453.88 806.13 451.43 806.13 451.43 799.35 448.05 802.73 448.05 799.27 452.66 794.65"/><polygon class="cls-18" points="463.79 807.22 459.18 802.61 459.18 799.14 462.56 802.53 462.56 795.74 465.01 795.74 465.01 802.53 468.39 799.14 468.39 802.61 463.79 807.22"/><text class="cls-23" transform="translate(450.74 821.65)">lif<tspan class="cls-24" x="10.28" y="0">t</tspan></text><polygon class="cls-18" points="1045.9 353.21 1050.05 357.36 1050.04 360.48 1047 357.43 1047 363.54 1044.79 363.54 1044.79 357.43 1041.75 360.48 1041.75 357.36 1045.9 353.21"/><polygon class="cls-18" points="1055.92 364.52 1051.77 360.37 1051.77 357.25 1054.81 360.3 1054.81 354.19 1057.02 354.19 1057.02 360.3 1060.06 357.25 1060.06 360.37 1055.92 364.52"/><text class="cls-25" transform="translate(1044.17 377.5)"><tspan class="cls-26">lif</tspan><tspan x="9.26" y="0">t</tspan></text><path class="cls-18" d="M788.91,701.09l-.68-1.47a6.9,6.9,0,0,1-2.47,2.39A6.91,6.91,0,0,1,777,691.57a6.79,6.79,0,0,1,4-2.37v-6.05a2,2,0,0,1,2-2,2.06,2.06,0,0,1,1.46,3.5,2,2,0,0,1-1.45.61v3.26h4.42v1.7h-4.42v1.7h5.32l1.92,6.48,1.94-.89.78,1.72Zm-3.08-1.6a4.82,4.82,0,0,0,1.46-3.49l-.61-2.11H781v-2.64a4.88,4.88,0,0,0-2.59,1.74,4.93,4.93,0,0,0,7.38,6.5"/><path class="cls-18" d="M780.47,625.22a1.06,1.06,0,0,1,1,1v7.16a1,1,0,0,1-2.1,0v-5.49H779v16.35a1.12,1.12,0,0,1-1.06,1.11,1,1,0,0,1-1-1v-10h-.6v10a1,1,0,0,1-1,1,1.12,1.12,0,0,1-1.06-1.11V627.94h-.44v5.49a1.05,1.05,0,0,1-2.1,0v-7.16a1,1,0,0,1,1-1Z"/><path class="cls-18" d="M774.38,621.83a2.23,2.23,0,1,1,2.23,2.22,2.22,2.22,0,0,1-2.23-2.22"/><line class="cls-27" x1="786.05" y1="621.51" x2="786.05" y2="644.43"/><line class="cls-27" x1="795.43" y1="682.25" x2="795.43" y2="705.17"/><path class="cls-18" d="M805.9,683.37h1.5c.55,0,1,.84,1,1.49h-7.21c0-.65.45-1.49,1-1.49h1.75v-3h1.95v3Z"/><path class="cls-18" d="M802.81,685.62a.43.43,0,0,1-.86,0,.43.43,0,0,1,.86,0"/><path class="cls-28" d="M802.81,685.62a.43.43,0,0,1-.86,0,.43.43,0,0,1,.86,0Z"/><path class="cls-18" d="M804,685.62a.42.42,0,0,1-.42.43.44.44,0,0,1-.44-.43.44.44,0,0,1,.44-.43.43.43,0,0,1,.42.43"/><path class="cls-28" d="M804,685.62a.42.42,0,0,1-.42.43.44.44,0,0,1-.44-.43.44.44,0,0,1,.44-.43A.43.43,0,0,1,804,685.62Z"/><path class="cls-18" d="M805.44,685.62a.44.44,0,0,1-.87,0,.44.44,0,0,1,.87,0"/><path class="cls-28" d="M805.44,685.62a.44.44,0,0,1-.87,0,.44.44,0,0,1,.87,0Z"/><path class="cls-18" d="M806.71,685.62a.43.43,0,0,1-.43.43.44.44,0,0,1-.44-.43.44.44,0,0,1,.44-.43.43.43,0,0,1,.43.43"/><path class="cls-28" d="M806.71,685.62a.43.43,0,0,1-.43.43.44.44,0,0,1-.44-.43.44.44,0,0,1,.44-.43A.43.43,0,0,1,806.71,685.62Z"/><path class="cls-18" d="M808.11,685.62a.43.43,0,0,1-.43.43.43.43,0,0,1-.43-.43.44.44,0,0,1,.43-.43.43.43,0,0,1,.43.43"/><path class="cls-28" d="M808.11,685.62a.43.43,0,0,1-.43.43.43.43,0,0,1-.43-.43.44.44,0,0,1,.43-.43A.43.43,0,0,1,808.11,685.62Z"/><path class="cls-18" d="M802.27,687.16a.43.43,0,1,1-.43-.42.43.43,0,0,1,.43.42"/><path class="cls-28" d="M802.27,687.16a.43.43,0,1,1-.43-.42A.43.43,0,0,1,802.27,687.16Z"/><path class="cls-18" d="M803.74,687.16a.43.43,0,0,1-.43.43.43.43,0,1,1,0-.85.43.43,0,0,1,.43.42"/><path class="cls-28" d="M803.74,687.16a.43.43,0,0,1-.43.43.43.43,0,1,1,0-.85A.43.43,0,0,1,803.74,687.16Z"/><path class="cls-18" d="M805.44,687.16a.44.44,0,1,1-.44-.42.44.44,0,0,1,.44.42"/><path class="cls-28" d="M805.44,687.16a.44.44,0,1,1-.44-.42A.44.44,0,0,1,805.44,687.16Z"/><path class="cls-18" d="M807.09,687.16a.43.43,0,1,1-.43-.42.43.43,0,0,1,.43.42"/><path class="cls-28" d="M807.09,687.16a.43.43,0,1,1-.43-.42A.43.43,0,0,1,807.09,687.16Z"/><path class="cls-18" d="M808.69,687.16a.43.43,0,1,1-.43-.42.43.43,0,0,1,.43.42"/><path class="cls-28" d="M808.69,687.16a.43.43,0,1,1-.43-.42A.43.43,0,0,1,808.69,687.16Z"/><path class="cls-18" d="M801.69,688.63a.43.43,0,0,1-.43.43.43.43,0,0,1,0-.86.43.43,0,0,1,.43.43"/><path class="cls-28" d="M801.69,688.63a.43.43,0,0,1-.43.43.43.43,0,0,1,0-.86A.43.43,0,0,1,801.69,688.63Z"/><path class="cls-18" d="M803.35,688.63a.43.43,0,1,1-.43-.43.43.43,0,0,1,.43.43"/><path class="cls-28" d="M803.35,688.63a.43.43,0,1,1-.43-.43A.43.43,0,0,1,803.35,688.63Z"/><path class="cls-18" d="M805.44,688.63a.44.44,0,1,1-.44-.43.44.44,0,0,1,.44.43"/><path class="cls-28" d="M805.44,688.63a.44.44,0,1,1-.44-.43A.44.44,0,0,1,805.44,688.63Z"/><path class="cls-18" d="M807.48,688.63a.43.43,0,1,1-.43-.43.43.43,0,0,1,.43.43"/><path class="cls-28" d="M807.48,688.63a.43.43,0,1,1-.43-.43A.43.43,0,0,1,807.48,688.63Z"/><path class="cls-18" d="M809.33,688.63a.43.43,0,1,1-.43-.43.43.43,0,0,1,.43.43"/><path class="cls-28" d="M809.33,688.63a.43.43,0,1,1-.43-.43A.43.43,0,0,1,809.33,688.63Z"/><path class="cls-18" d="M801.21,690.17a.43.43,0,1,1-.43-.43.43.43,0,0,1,.43.43"/><path class="cls-28" d="M801.21,690.17a.43.43,0,1,1-.43-.43A.43.43,0,0,1,801.21,690.17Z"/><path class="cls-18" d="M802.93,690.17a.43.43,0,0,1-.43.43.43.43,0,1,1,0-.86.43.43,0,0,1,.43.43"/><path class="cls-28" d="M802.93,690.17a.43.43,0,0,1-.43.43.43.43,0,1,1,0-.86A.43.43,0,0,1,802.93,690.17Z"/><path class="cls-18" d="M807.87,690.17a.44.44,0,1,1-.44-.43.44.44,0,0,1,.44.43"/><path class="cls-28" d="M807.87,690.17a.44.44,0,1,1-.44-.43A.44.44,0,0,1,807.87,690.17Z"/><path class="cls-18" d="M809.79,690.17a.43.43,0,0,1-.43.43.43.43,0,1,1,0-.86.43.43,0,0,1,.43.43"/><path class="cls-28" d="M809.79,690.17a.43.43,0,0,1-.43.43.43.43,0,1,1,0-.86A.43.43,0,0,1,809.79,690.17Z"/><path class="cls-18" d="M800.63,691.73a.44.44,0,0,1-.43.44.44.44,0,0,1,0-.87.43.43,0,0,1,.43.43"/><path class="cls-28" d="M800.63,691.73a.44.44,0,0,1-.43.44.44.44,0,0,1,0-.87A.43.43,0,0,1,800.63,691.73Z"/><path class="cls-18" d="M802.54,691.73a.43.43,0,1,1-.43-.43.44.44,0,0,1,.43.43"/><path class="cls-28" d="M802.54,691.73a.43.43,0,1,1-.43-.43A.44.44,0,0,1,802.54,691.73Z"/><path class="cls-18" d="M808.25,691.73a.43.43,0,1,1-.43-.43.44.44,0,0,1,.43.43"/><path class="cls-28" d="M808.25,691.73a.43.43,0,1,1-.43-.43A.44.44,0,0,1,808.25,691.73Z"/><path class="cls-18" d="M810.39,691.73a.43.43,0,1,1-.43-.43.44.44,0,0,1,.43.43"/><path class="cls-28" d="M810.39,691.73a.43.43,0,1,1-.43-.43A.44.44,0,0,1,810.39,691.73Z"/><path class="cls-18" d="M799.82,693.59a.43.43,0,0,1-.43.43.44.44,0,0,1-.43-.43.43.43,0,0,1,.43-.43.43.43,0,0,1,.43.43"/><path class="cls-28" d="M799.82,693.59a.43.43,0,0,1-.43.43.44.44,0,0,1-.43-.43.43.43,0,0,1,.43-.43A.43.43,0,0,1,799.82,693.59Z"/><path class="cls-18" d="M811.36,693.59a.44.44,0,0,1-.87,0,.44.44,0,0,1,.87,0"/><path class="cls-28" d="M811.36,693.59a.44.44,0,0,1-.87,0,.44.44,0,0,1,.87,0Z"/><path class="cls-18" d="M799.05,695.49a.43.43,0,0,1-.86,0,.43.43,0,1,1,.86,0"/><path class="cls-28" d="M799.05,695.49a.43.43,0,0,1-.86,0,.43.43,0,1,1,.86,0Z"/><path class="cls-18" d="M811.93,695.49a.43.43,0,0,1-.43.43.43.43,0,0,1-.43-.43.44.44,0,0,1,.43-.43.43.43,0,0,1,.43.43"/><path class="cls-28" d="M811.93,695.49a.43.43,0,0,1-.43.43.43.43,0,0,1-.43-.43.44.44,0,0,1,.43-.43A.43.43,0,0,1,811.93,695.49Z"/><path class="cls-18" d="M798.32,697.61a.43.43,0,1,1-.43-.42.43.43,0,0,1,.43.42"/><path class="cls-28" d="M798.32,697.61a.43.43,0,1,1-.43-.42A.43.43,0,0,1,798.32,697.61Z"/><path class="cls-18" d="M812.61,697.61a.43.43,0,0,1-.43.43.43.43,0,1,1,0-.85.43.43,0,0,1,.43.42"/><path class="cls-28" d="M812.61,697.61a.43.43,0,0,1-.43.43.43.43,0,1,1,0-.85A.43.43,0,0,1,812.61,697.61Z"/><path class="cls-18" d="M797.55,622.72h1.5c.55,0,1,.84,1,1.49h-7.21c0-.65.44-1.49,1-1.49h1.75v-3h1.94v3Z"/><path class="cls-18" d="M794.46,625a.43.43,0,1,1-.86,0,.43.43,0,0,1,.86,0"/><path class="cls-28" d="M794.46,625a.43.43,0,1,1-.86,0,.43.43,0,0,1,.86,0Z"/><path class="cls-18" d="M795.69,625a.43.43,0,0,1-.42.44.44.44,0,0,1-.44-.44.43.43,0,0,1,.44-.42.42.42,0,0,1,.42.42"/><path class="cls-28" d="M795.69,625a.43.43,0,0,1-.42.44.44.44,0,0,1-.44-.44.43.43,0,0,1,.44-.42A.42.42,0,0,1,795.69,625Z"/><path class="cls-18" d="M797.08,625a.44.44,0,0,1-.43.44.44.44,0,0,1-.43-.44.43.43,0,0,1,.43-.42.42.42,0,0,1,.43.42"/><path class="cls-28" d="M797.08,625a.44.44,0,0,1-.43.44.44.44,0,0,1-.43-.44.43.43,0,0,1,.43-.42A.42.42,0,0,1,797.08,625Z"/><path class="cls-18" d="M798.36,625a.44.44,0,1,1-.87,0,.44.44,0,0,1,.87,0"/><path class="cls-28" d="M798.36,625a.44.44,0,1,1-.87,0,.44.44,0,0,1,.87,0Z"/><path class="cls-18" d="M799.76,625a.44.44,0,0,1-.43.44.44.44,0,0,1-.43-.44.43.43,0,0,1,.43-.42.42.42,0,0,1,.43.42"/><path class="cls-28" d="M799.76,625a.44.44,0,0,1-.43.44.44.44,0,0,1-.43-.44.43.43,0,0,1,.43-.42A.42.42,0,0,1,799.76,625Z"/><path class="cls-18" d="M793.92,626.51a.43.43,0,1,1-.43-.43.43.43,0,0,1,.43.43"/><path class="cls-28" d="M793.92,626.51a.43.43,0,1,1-.43-.43A.43.43,0,0,1,793.92,626.51Z"/><path class="cls-18" d="M795.39,626.51a.43.43,0,0,1-.43.43.43.43,0,0,1,0-.86.43.43,0,0,1,.43.43"/><path class="cls-28" d="M795.39,626.51a.43.43,0,0,1-.43.43.43.43,0,0,1,0-.86A.43.43,0,0,1,795.39,626.51Z"/><path class="cls-18" d="M797.08,626.51a.43.43,0,0,1-.43.43.43.43,0,1,1,0-.86.43.43,0,0,1,.43.43"/><path class="cls-28" d="M797.08,626.51a.43.43,0,0,1-.43.43.43.43,0,1,1,0-.86A.43.43,0,0,1,797.08,626.51Z"/><path class="cls-18" d="M798.74,626.51a.43.43,0,1,1-.43-.43.43.43,0,0,1,.43.43"/><path class="cls-28" d="M798.74,626.51a.43.43,0,1,1-.43-.43A.43.43,0,0,1,798.74,626.51Z"/><path class="cls-18" d="M800.34,626.51a.43.43,0,1,1-.43-.43.43.43,0,0,1,.43.43"/><path class="cls-28" d="M800.34,626.51a.43.43,0,1,1-.43-.43A.43.43,0,0,1,800.34,626.51Z"/><path class="cls-18" d="M793.34,628a.43.43,0,0,1-.86,0,.43.43,0,0,1,.86,0"/><path class="cls-28" d="M793.34,628a.43.43,0,0,1-.86,0,.43.43,0,0,1,.86,0Z"/><path class="cls-18" d="M795,628a.43.43,0,1,1-.86,0,.43.43,0,1,1,.86,0"/><path class="cls-28" d="M795,628a.43.43,0,1,1-.86,0,.43.43,0,1,1,.86,0Z"/><path class="cls-18" d="M797.08,628a.43.43,0,0,1-.43.43.43.43,0,0,1-.43-.43.44.44,0,0,1,.43-.43.43.43,0,0,1,.43.43"/><path class="cls-28" d="M797.08,628a.43.43,0,0,1-.43.43.43.43,0,0,1-.43-.43.44.44,0,0,1,.43-.43A.43.43,0,0,1,797.08,628Z"/><path class="cls-18" d="M799.13,628a.44.44,0,0,1-.44.43.42.42,0,0,1-.42-.43.43.43,0,0,1,.42-.43.44.44,0,0,1,.44.43"/><path class="cls-28" d="M799.13,628a.44.44,0,0,1-.44.43.42.42,0,0,1-.42-.43.43.43,0,0,1,.42-.43A.44.44,0,0,1,799.13,628Z"/><path class="cls-18" d="M801,628a.43.43,0,0,1-.86,0,.43.43,0,0,1,.86,0"/><path class="cls-28" d="M801,628a.43.43,0,0,1-.86,0,.43.43,0,0,1,.86,0Z"/><path class="cls-18" d="M792.86,629.52a.43.43,0,0,1-.86,0,.43.43,0,0,1,.86,0"/><path class="cls-28" d="M792.86,629.52a.43.43,0,0,1-.86,0,.43.43,0,0,1,.86,0Z"/><path class="cls-18" d="M794.58,629.52a.44.44,0,0,1-.43.43.43.43,0,0,1-.43-.43.43.43,0,0,1,.43-.43.43.43,0,0,1,.43.43"/><path class="cls-28" d="M794.58,629.52a.44.44,0,0,1-.43.43.43.43,0,0,1-.43-.43.43.43,0,0,1,.43-.43A.43.43,0,0,1,794.58,629.52Z"/><path class="cls-18" d="M799.51,629.52a.43.43,0,0,1-.43.43.44.44,0,0,1-.43-.43.43.43,0,0,1,.43-.43.43.43,0,0,1,.43.43"/><path class="cls-28" d="M799.51,629.52a.43.43,0,0,1-.43.43.44.44,0,0,1-.43-.43.43.43,0,0,1,.43-.43A.43.43,0,0,1,799.51,629.52Z"/><path class="cls-18" d="M801.44,629.52a.43.43,0,0,1-.86,0,.43.43,0,0,1,.86,0"/><path class="cls-28" d="M801.44,629.52a.43.43,0,0,1-.86,0,.43.43,0,0,1,.86,0Z"/><path class="cls-18" d="M792.28,631.08a.43.43,0,0,1-.43.43.43.43,0,0,1,0-.86.43.43,0,0,1,.43.43"/><path class="cls-28" d="M792.28,631.08a.43.43,0,0,1-.43.43.43.43,0,0,1,0-.86A.43.43,0,0,1,792.28,631.08Z"/><path class="cls-18" d="M794.19,631.08a.43.43,0,1,1-.43-.43.43.43,0,0,1,.43.43"/><path class="cls-28" d="M794.19,631.08a.43.43,0,1,1-.43-.43A.43.43,0,0,1,794.19,631.08Z"/><path class="cls-18" d="M799.9,631.08a.43.43,0,0,1-.43.43.43.43,0,0,1,0-.86.43.43,0,0,1,.43.43"/><path class="cls-28" d="M799.9,631.08a.43.43,0,0,1-.43.43.43.43,0,0,1,0-.86A.43.43,0,0,1,799.9,631.08Z"/><path class="cls-18" d="M802,631.08a.43.43,0,1,1-.43-.43.43.43,0,0,1,.43.43"/><path class="cls-28" d="M802,631.08a.43.43,0,1,1-.43-.43A.43.43,0,0,1,802,631.08Z"/><path class="cls-18" d="M791.47,632.93a.43.43,0,0,1-.43.43.43.43,0,1,1,0-.86.43.43,0,0,1,.43.43"/><path class="cls-28" d="M791.47,632.93a.43.43,0,0,1-.43.43.43.43,0,1,1,0-.86A.43.43,0,0,1,791.47,632.93Z"/><path class="cls-18" d="M803,632.93a.43.43,0,1,1-.43-.43.43.43,0,0,1,.43.43"/><path class="cls-28" d="M803,632.93a.43.43,0,1,1-.43-.43A.43.43,0,0,1,803,632.93Z"/><path class="cls-18" d="M790.7,634.84a.43.43,0,1,1-.43-.43.43.43,0,0,1,.43.43"/><path class="cls-28" d="M790.7,634.84a.43.43,0,1,1-.43-.43A.43.43,0,0,1,790.7,634.84Z"/><path class="cls-18" d="M803.58,634.84a.43.43,0,1,1-.43-.43.43.43,0,0,1,.43.43"/><path class="cls-28" d="M803.58,634.84a.43.43,0,1,1-.43-.43A.43.43,0,0,1,803.58,634.84Z"/><path class="cls-18" d="M790,637a.43.43,0,1,1-.43-.43.43.43,0,0,1,.43.43"/><path class="cls-28" d="M790,637a.43.43,0,1,1-.43-.43A.43.43,0,0,1,790,637Z"/><path class="cls-18" d="M804.25,637a.43.43,0,1,1-.43-.43.43.43,0,0,1,.43.43"/><path class="cls-28" d="M804.25,637a.43.43,0,1,1-.43-.43A.43.43,0,0,1,804.25,637Z"/><path class="cls-18" d="M1149,366.11a2.3,2.3,0,1,1,2.29,2.28,2.29,2.29,0,0,1-2.29-2.28"/><path class="cls-18" d="M1153.59,369.48a2.44,2.44,0,0,1,2.23,1.51l1.87,7.12a1.08,1.08,0,0,1-2.08.56l-1.47-5.45h-.55l2.41,9.23h-2.32v6a1.14,1.14,0,0,1-1.08,1.14,1.07,1.07,0,0,1-1.08-1.06v-6.1h-.61v6.1a1.07,1.07,0,0,1-1.08,1.06,1.14,1.14,0,0,1-1.08-1.14v-6h-2.39l2.41-9.23h-.55l-1.48,5.45a1.06,1.06,0,0,1-1.31.75,1.09,1.09,0,0,1-.77-1.31l1.88-7.12a2.44,2.44,0,0,1,2.23-1.51Z"/><path class="cls-18" d="M1129,404.7a1,1,0,0,1,1,1.05v7.16a1.05,1.05,0,0,1-2.1,0v-5.5h-.45v16.35a1.12,1.12,0,0,1-1.06,1.11,1,1,0,0,1-1-1v-9.95h-.59v9.95a1,1,0,0,1-1.06,1,1.11,1.11,0,0,1-1-1.11V407.41h-.45v5.5a1.05,1.05,0,0,1-2.1,0v-7.16a1,1,0,0,1,1-1.05Z"/><path class="cls-18" d="M1122.94,401.3a2.23,2.23,0,1,1,2.23,2.23,2.23,2.23,0,0,1-2.23-2.23"/><path class="cls-29" d="M856.21,426l-78.79-22.33-28.32-5.93c-14.23,48.56-35.51,92.1-73.71,126.57A254.59,254.59,0,0,1,631.22,556c-28.14,16-54.9,26.37-86.53,31.36-26.94,4.25-54.78,6.94-81.72,1.26-21.21-4.47-42-11.22-62.2-19-4.61-1.77-9.26-3.47-13.78-5.44l-37.83,73.32L136,555.56,77.61,709.13l201.36,79L247.34,956.56l165.71,33.11,1-4.78,140,5.16s5.86,24,17,42.67c20.87,35.26,62.51,51.47,101.9,49,11.27-.72,22.32-2.93,33.37-5.11,17.61-3.47,32.26-9.29,48.68-16.66,31.6-14.18,62.76-41.32,69.57-77.25,3.57-18.85,2.73-44.62-6.11-68.91l46.25-30.59,25.74,34.26,134.49-98.27L898,647.66l93.88-97.42-19.61-18.76,43.66-82.38L1067,476.27l-22,41.33L1185,592l256.71-482.8-140-74.42-21.53,40.52-6,11.36-156.84,295-74.78-39.76-33.22,62.48L981.86,456l-34-8.25L883,433.55l-11.76,7.12Z"/><text class="cls-30" transform="translate(1618.89 369.02)">201</text><text class="cls-30" transform="translate(1694.22 369.02)"> </text><text class="cls-30" transform="translate(1716.9 369.02)">Hacking Room F</text><text class="cls-30" transform="translate(1618.89 449.54)">208</text><text class="cls-30" transform="translate(1694.22 449.54)"> </text><text class="cls-30" transform="translate(1716.9 449.54)">Workshop Room</text><path class="cls-10" d="M100.12,298.67c24.88,0,45,21.54,45,46.42a45.05,45.05,0,0,1-90.1,0c0-24.88,20.17-46.42,45.05-46.42"/><text class="cls-31" transform="translate(80.12 371.04)">2</text><path class="cls-18" d="M200.36,365.12l-10-15.27v15.27h-6.13V334.67h6.13v14.19l11-14.19h6.43l-11.47,13.54,11.51,16.91Zm14.44-10.66v.44c0,4.31,2.81,6.94,7.08,6.94a10,10,0,0,0,4.7-1l1.16,3.32s-2.41,1.29-7.59,1.29c-6,0-11.47-2.5-11.47-11.34,0-4.14,1.55-11.51,10.52-11.51,4.36,0,6.64,1.59,8,4,1.21,2.15,1.34,5.08,1.34,7.5v.34Zm7.77-4c0-3.27-1.21-4.91-3.8-4.91-2.15,0-3.19,1.29-3.66,3.28a11.36,11.36,0,0,0-.26,2.58h7.72ZM242.44,369c-1.5,4.31-3.7,5.82-7.28,5.82a10.24,10.24,0,0,1-3.75-.56l.9-3.54a5.49,5.49,0,0,0,2.16.52c1.85,0,2.76-1,3.49-3.06l.73-2L229.85,343h6.56l4.35,14.31c.52,1.77.65,2.68.69,2.76,0-.08.39-1.46.74-2.67l4.05-14.4h5.35Zm32.13-3.92v-2s-1.64,2.29-5.65,2.29c-4.18,0-6.9-2.46-6.9-6.47a6.1,6.1,0,0,1,2.46-5.3c1.85-1.34,4.31-1.51,6.9-1.51,1.46,0,3.06.13,3.06.13v-1.43a8.64,8.64,0,0,0-.35-2.8c-.56-1.47-1.89-1.94-3.79-1.94a11,11,0,0,0-5,1.12l-1.21-3.41a20.64,20.64,0,0,1,7.76-1.25c5.74,0,7.33,2.42,7.94,4.1a19.33,19.33,0,0,1,.43,5.26v13.2Zm-.13-10.18s-.39,0-2,0a5,5,0,0,0-3.27.9,3.58,3.58,0,0,0-1.17,2.8c0,2.72,2,3.41,3.8,3.41a6.27,6.27,0,0,0,2.67-.47Zm24.19-6.86a6,6,0,0,0-3.58-1.08,6.15,6.15,0,0,0-3.23.78v17.34h-6V343h5.86V346a6.11,6.11,0,0,1,5.31-3.28,7.2,7.2,0,0,1,2.89.56Zm8.8,6.38v.44c0,4.31,2.8,6.94,7.07,6.94a9.9,9.9,0,0,0,4.7-1l1.16,3.32s-2.41,1.29-7.59,1.29c-6,0-11.47-2.5-11.47-11.34,0-4.14,1.56-11.51,10.53-11.51,4.35,0,6.64,1.59,8,4,1.2,2.15,1.33,5.08,1.33,7.5v.34Zm7.76-4c0-3.27-1.21-4.91-3.8-4.91-2.15,0-3.19,1.29-3.66,3.28a11.36,11.36,0,0,0-.26,2.58h7.72Zm21.52,14.67v-2s-1.64,2.29-5.65,2.29c-4.19,0-6.9-2.46-6.9-6.47a6.1,6.1,0,0,1,2.46-5.3c1.85-1.34,4.31-1.51,6.89-1.51,1.47,0,3.07.13,3.07.13v-1.43a8.64,8.64,0,0,0-.35-2.8c-.56-1.47-1.9-1.94-3.79-1.94a11,11,0,0,0-5,1.12l-1.2-3.41a20.64,20.64,0,0,1,7.76-1.25c5.73,0,7.33,2.42,7.93,4.1a19,19,0,0,1,.43,5.26v13.2Zm-.13-10.18s-.39,0-2,0a5,5,0,0,0-3.28.9,3.6,3.6,0,0,0-1.16,2.8c0,2.72,2,3.41,3.79,3.41a6.3,6.3,0,0,0,2.68-.47Zm16.81,10.52c-5.09,0-7.46-1.29-7.46-1.29l1.21-3.45a11.56,11.56,0,0,0,5.61,1.2c2.37,0,3.66-.81,3.66-2.45,0-1.3-.6-1.68-2.07-2.5l-3.23-1.77c-2.89-1.6-4.4-3.19-4.4-6.3,0-4.18,3-6.29,7.93-6.29a16.87,16.87,0,0,1,6.77,1.16l-1.2,3.45a10.56,10.56,0,0,0-4.79-1.16c-1.81,0-3.41.47-3.41,2.15,0,1.38.82,1.81,2.59,2.72l3.15,1.59c2.67,1.38,4.14,3.07,4.14,6C361.89,363.61,358,365.46,353.39,365.46Zm14.49,9.4H364l7-43.12h3.88Zm23.8-26.78a6,6,0,0,0-3.57-1.08,6.21,6.21,0,0,0-3.24.78v17.34h-6V343h5.87V346a6.08,6.08,0,0,1,5.3-3.28,7.2,7.2,0,0,1,2.89.56Zm13.37,17.55c-6.9,0-10.69-4.27-10.69-11.17,0-6.16,3.06-11.9,11.12-11.9,6.9,0,10.65,4.27,10.65,11.17C416.13,359.9,413.12,365.63,405.05,365.63Zm.17-19.53c-3.4,0-4.61,2.63-4.61,7.93,0,5.09,1.16,8.07,4.7,8.07s4.57-2.68,4.57-8C409.88,349,408.76,346.1,405.22,346.1Zm25,19.53c-6.9,0-10.69-4.27-10.69-11.17,0-6.16,3.06-11.9,11.12-11.9,6.9,0,10.65,4.27,10.65,11.17C441.27,359.9,438.25,365.63,430.19,365.63Zm.17-19.53c-3.4,0-4.61,2.63-4.61,7.93,0,5.09,1.16,8.07,4.7,8.07s4.57-2.68,4.57-8C435,349,433.9,346.1,430.36,346.1Zm42.48,19V352.39a15.34,15.34,0,0,0-.18-3c-.43-2.29-2.07-3-4.18-3a7.46,7.46,0,0,0-3.54.82,5.13,5.13,0,0,1,.31,1.25,25.86,25.86,0,0,1,.17,3.8v12.81h-6.08V352.39a16.23,16.23,0,0,0-.17-3c-.35-1.94-1.64-3-4.06-3a6.63,6.63,0,0,0-3.23.74v17.94h-6V343h5.87v2.24s1.85-2.72,6.42-2.72c4.74,0,6,2.85,6,2.85a9.93,9.93,0,0,1,7.24-2.89c1.43,0,6,.17,7.16,5a16.73,16.73,0,0,1,.35,4.14v13.5Zm17.11.34c-5.08,0-7.46-1.29-7.46-1.29l1.21-3.45a11.56,11.56,0,0,0,5.61,1.2c2.37,0,3.66-.81,3.66-2.45,0-1.3-.6-1.68-2.07-2.5l-3.23-1.77c-2.89-1.6-4.4-3.19-4.4-6.3,0-4.18,3-6.29,7.93-6.29a16.87,16.87,0,0,1,6.77,1.16l-1.2,3.45a10.56,10.56,0,0,0-4.79-1.16c-1.81,0-3.41.47-3.41,2.15,0,1.38.82,1.81,2.59,2.72l3.15,1.59c2.67,1.38,4.14,3.07,4.14,6C498.45,363.61,494.52,365.46,490,365.46Zm31.05.17c-6.9,0-10.69-4.27-10.69-11.17,0-6.16,3.06-11.9,11.12-11.9,6.9,0,10.65,4.27,10.65,11.17C532.08,359.9,529.06,365.63,521,365.63Zm.17-19.53c-3.4,0-4.61,2.63-4.61,7.93,0,5.09,1.16,8.07,4.7,8.07s4.57-2.68,4.57-8C525.83,349,524.71,346.1,521.17,346.1Zm29.15,19V352.48a17.21,17.21,0,0,0-.17-3.1c-.43-2.07-1.9-2.94-4.14-2.94a7.66,7.66,0,0,0-3.32.74v17.94h-6V343h5.87v2.24s1.89-2.72,6.59-2.72,6.43,2.68,6.95,4.92a21,21,0,0,1,.34,4.31v13.33Zm28.2.25c-3.58,0-5.78-.81-6.72-3.57a16.43,16.43,0,0,1-.44-4.49V346.36h-2.75V343.6l.6-.22a6.52,6.52,0,0,0,4.22-5.09l.05-.38h3.92v5.17h6.51v3.28H577.4V357.7c0,2.2.26,4,3.11,4a6,6,0,0,0,2.58-.6l1,3.32A16.17,16.17,0,0,1,578.52,365.37Zm22.3-.25V352.48a16.27,16.27,0,0,0-.18-3.1c-.43-2.07-1.89-2.94-4.14-2.94a7.66,7.66,0,0,0-3.32.74v17.94h-6V331.74h6v13.54s1.81-2.72,6.47-2.72,6.38,2.68,6.9,4.92a20.38,20.38,0,0,1,.35,4.31v13.33Zm16.55-10.66v.44c0,4.31,2.81,6.94,7.08,6.94a10,10,0,0,0,4.7-1l1.16,3.32s-2.41,1.29-7.59,1.29c-6,0-11.47-2.5-11.47-11.34,0-4.14,1.55-11.51,10.52-11.51,4.36,0,6.64,1.59,8,4,1.21,2.15,1.34,5.08,1.34,7.5v.34Zm7.77-4c0-3.27-1.21-4.91-3.8-4.91-2.15,0-3.19,1.29-3.66,3.28a11.36,11.36,0,0,0-.26,2.58h7.72Zm24.92,15c-5.09,0-7.46-1.29-7.46-1.29l1.21-3.45a11.54,11.54,0,0,0,5.6,1.2c2.37,0,3.67-.81,3.67-2.45,0-1.3-.61-1.68-2.07-2.5l-3.24-1.77c-2.89-1.6-4.39-3.19-4.39-6.3,0-4.18,3-6.29,7.93-6.29a16.87,16.87,0,0,1,6.77,1.16l-1.21,3.45a10.49,10.49,0,0,0-4.78-1.16c-1.81,0-3.41.47-3.41,2.15,0,1.38.82,1.81,2.59,2.72l3.14,1.59c2.68,1.38,4.14,3.07,4.14,6C658.55,363.61,654.63,365.46,650.06,365.46Zm17.42-11v.44c0,4.31,2.8,6.94,7.07,6.94a9.9,9.9,0,0,0,4.7-1l1.17,3.32s-2.42,1.29-7.59,1.29c-6,0-11.47-2.5-11.47-11.34,0-4.14,1.55-11.51,10.52-11.51,4.35,0,6.64,1.59,8,4,1.21,2.15,1.34,5.08,1.34,7.5v.34Zm7.76-4c0-3.27-1.21-4.91-3.79-4.91-2.16,0-3.19,1.29-3.67,3.28a11.36,11.36,0,0,0-.26,2.58h7.72Zm25.66-3.23a7.15,7.15,0,0,0-4-1c-4.44,0-6.29,2.63-6.29,7.8,0,3.54,1.25,7.85,6.25,7.85a9.11,9.11,0,0,0,4.05-1l1.12,3.32s-2.11,1.29-6.85,1.29c-7.29,0-10.78-4.66-10.78-10.95a13.31,13.31,0,0,1,1.89-7.16c1.77-2.76,4.88-4.74,9.84-4.74a14.23,14.23,0,0,1,6,1.16Zm14.31,18.41c-6.89,0-10.69-4.27-10.69-11.17,0-6.16,3.06-11.9,11.13-11.9,6.9,0,10.65,4.27,10.65,11.17C726.3,359.9,723.28,365.63,715.21,365.63Zm.18-19.53c-3.41,0-4.62,2.63-4.62,7.93,0,5.09,1.17,8.07,4.7,8.07s4.57-2.68,4.57-8C720,349,718.92,346.1,715.39,346.1Zm29.15,19V352.48a16.27,16.27,0,0,0-.18-3.1c-.43-2.07-1.89-2.94-4.14-2.94a7.66,7.66,0,0,0-3.32.74v17.94h-6V343h5.86v2.24s1.9-2.72,6.6-2.72,6.42,2.68,6.94,4.92a20.38,20.38,0,0,1,.35,4.31v13.33Zm25.57,0v-2.25s-1.6,2.55-6.08,2.55c-5.48,0-9.06-3.75-9.06-10.91,0-7.33,4.49-11.82,10.39-11.82,3.28,0,4.57.95,4.57.95v-11.9h6v33.38Zm-.18-18.89a8,8,0,0,0-2.32-.3c-4.88,0-6.39,3.49-6.39,8.15s1.86,7.5,5.61,7.5a6.81,6.81,0,0,0,3.1-.65Zm34.15,18.89V335a5.66,5.66,0,0,0-1.85-.13c-2.76,0-4.1,1.25-4.66,2.94a10.1,10.1,0,0,0-.34,3.19v2.11h4.53v3.23h-4.53v18.81h-6V346.31h-2.71v-3.23h2.71V342a11.84,11.84,0,0,1,1.47-6.08c1.68-2.85,4.53-4.14,8.88-4.14a20.89,20.89,0,0,1,3.71.34l4.83-.43v33.47Zm21.35.51c-6.9,0-10.69-4.27-10.69-11.17,0-6.16,3.06-11.9,11.12-11.9,6.9,0,10.65,4.27,10.65,11.17C836.51,359.9,833.49,365.63,825.43,365.63Zm.17-19.53c-3.4,0-4.61,2.63-4.61,7.93,0,5.09,1.16,8.07,4.7,8.07s4.57-2.68,4.57-8C830.26,349,829.14,346.1,825.6,346.1Zm25,19.53c-6.9,0-10.7-4.27-10.7-11.17,0-6.16,3.07-11.9,11.13-11.9,6.9,0,10.65,4.27,10.65,11.17C861.65,359.9,858.63,365.63,850.57,365.63Zm.17-19.53c-3.41,0-4.61,2.63-4.61,7.93,0,5.09,1.16,8.07,4.7,8.07s4.57-2.68,4.57-8C855.4,349,854.28,346.1,850.74,346.1Zm28.33,2a6.06,6.06,0,0,0-3.58-1.08,6.15,6.15,0,0,0-3.23.78v17.34h-6V343h5.86V346a6.11,6.11,0,0,1,5.31-3.28,7.2,7.2,0,0,1,2.89.56Z"/><text class="cls-32" transform="translate(1716.67 276.43)"><tspan class="cls-33">o</tspan><tspan x="33" y="0">n </tspan><tspan class="cls-34" x="79.14" y="0">t</tspan><tspan class="cls-35" x="99.84" y="0">h</tspan><tspan x="132.36" y="0">e </tspan><tspan class="cls-36" x="175.68" y="0">s</tspan><tspan class="cls-37" x="198.72" y="0">e</tspan><tspan class="cls-38" x="228.66" y="0">c</tspan><tspan class="cls-39" x="254.82" y="0">o</tspan><tspan class="cls-35" x="287.81" y="0">n</tspan><tspan class="cls-40" x="320.21" y="0">d </tspan><tspan class="cls-41" x="366.89" y="0">fl</tspan><tspan class="cls-42" x="397.49" y="0">o</tspan><tspan class="cls-33" x="430.79" y="0">o</tspan><tspan x="463.79" y="0">r</tspan></text><text class="cls-43" transform="translate(285.29 925.47)">Workshop<tspan x="26.45" y="28.8">(208)</tspan></text><text class="cls-43" transform="translate(873.78 535.78)">Room F<tspan x="10.43" y="28.8">(201)</tspan></text></svg>