<svg id="logo" xmlns="http://www.w3.org/2000/svg" viewBox="0 0 354.21 443.23"><defs><style>.cls-1{fill:#ea5837;}.cls-1,.cls-2{fill-rule:evenodd;}.cls-2,.cls-3,.cls-4,.cls-5{fill:none;stroke-linecap:round;stroke-linejoin:round;}.cls-2,.cls-3{stroke:#11b8d8;}.cls-2,.cls-3,.cls-4{stroke-width:8px;}.cls-4,.cls-5{stroke:#ea5837;}.cls-5{stroke-width:10px;}</style></defs><title>RUHLogoFinal03</title><path class="cls-1" d="M254.07,339.52c6.7,9.78,17.88,11.71,32.13,8.27l15.83-9C278.28,345.93,266.4,315.85,254.07,339.52Z" transform="translate(-139.96 -226.47)"/><path class="cls-1" d="M280.53,451.15c0-7.5,14.13-13.59,31.54-13.59V389.34a82.88,82.88,0,0,1-27.28-4.7c-5.37,10.18,3.39,19.67,23.86,28.59.81,15.08-10.73,21.93-30.71,23.15-13-10.31-16.69-24.56-17.72-39.92-46.74-26.12-36.87-57-19.83-85l17.31-26L248.3,271l1.27,14.7-17.13,22.06,0,0-.08.1c-11.32-32.65,4.87-55.25,29.66-52,13.28,7.47,32.89,26.53,45.57,30.22.17.23.34.43.51.68-.17-.24-.34-.45-.51-.68a14.42,14.42,0,0,0,3.89.68c.19,0,.42-.06.62-.08V247.44c-11.87-2.35-16.63-23.35-50.76-20.74-36.05,2.75-62.72,48.37-62.72,48.37s15.14-12,31.75-18.56c-7.26,4.91-14.23,12.09-20.84,21.42h0c-48.42,30.6-64,51.35-69.53,85.29,18.31-19.5,36.62-36.23,54.93-43.09-60.15,49.4-63,105.75-39.78,165.26l6.22-12.16c5.64,47.86,37.63,89.08,90.38,122-20.84-41.33-27.94-82.09-18.47-122.17-4.14,53.63,17.87,106.74,78.13,159.1l.7-.66V464.73C294.66,464.73,280.53,458.65,280.53,451.15Z" transform="translate(-139.96 -226.47)"/><path class="cls-2" d="M320.91,251.17c4.92-4.38,14.57-15.44,32.49-15.66s29,3.64,43.91,15.61a125.75,125.75,0,0,1,24.58,27.22" transform="translate(-139.96 -226.47)"/><path class="cls-2" d="M321.6,624.79c15.75-15,58.54-59.09,64.33-101.58" transform="translate(-139.96 -226.47)"/><path class="cls-2" d="M371.47,601.53s76-46.11,85.68-99.6" transform="translate(-139.96 -226.47)"/><path class="cls-2" d="M474.83,468a115.9,115.9,0,0,0,3.31-37.31c-3.46-47.61-30.23-73.61-30.23-73.61" transform="translate(-139.96 -226.47)"/><path class="cls-2" d="M440.72,307.87S472.5,315,481.64,358" transform="translate(-139.96 -226.47)"/><circle class="cls-3" cx="285.35" cy="61.26" r="7.55"/><circle class="cls-3" cx="342.66" cy="139.99" r="7.55"/><circle class="cls-3" cx="317.2" cy="266.96" r="7.55"/><circle class="cls-3" cx="247.03" cy="287.33" r="7.55"/><circle class="cls-3" cx="303.77" cy="124.01" r="7.55"/><line class="cls-4" x1="222.57" y1="36.72" x2="237.33" y2="36.72"/><line class="cls-3" x1="201.43" y1="50.51" x2="250.53" y2="50.51"/><line class="cls-3" x1="178.83" y1="64.31" x2="223.45" y2="64.31"/><line class="cls-3" x1="178.86" y1="78.1" x2="238.35" y2="78.1"/><line class="cls-3" x1="179.02" y1="91.89" x2="247.51" y2="91.89"/><line class="cls-3" x1="179.03" y1="105.68" x2="255.65" y2="105.68"/><line class="cls-4" x1="234.86" y1="119.47" x2="260.81" y2="119.47"/><line class="cls-3" x1="178.87" y1="133.26" x2="263.17" y2="133.26"/><line class="cls-3" x1="178.87" y1="147.05" x2="260.08" y2="147.05"/><line class="cls-3" x1="178.79" y1="160.84" x2="249.31" y2="160.84"/><line class="cls-4" x1="199.19" y1="174.63" x2="221.82" y2="174.63"/><line class="cls-3" x1="184.13" y1="188.42" x2="219.44" y2="188.42"/><line class="cls-3" x1="180.94" y1="202.21" x2="218.77" y2="202.21"/><line class="cls-4" x1="196.52" y1="216" x2="208.9" y2="216"/><line class="cls-3" x1="179.11" y1="229.79" x2="210.41" y2="229.79"/><line class="cls-4" x1="178.71" y1="243.59" x2="191.69" y2="243.59"/><line class="cls-4" x1="234.97" y1="64.31" x2="256.85" y2="64.31"/><line class="cls-4" x1="249.33" y1="78.1" x2="259.03" y2="78.1"/><line class="cls-4" x1="178.53" y1="119.47" x2="189.87" y2="119.47"/><path class="cls-5" d="M398.59,614c-23.81,23.78-52.14,41.62-83.55,50.69C283.63,655.64,255.3,637.8,231.5,614" transform="translate(-139.96 -226.47)"/><polyline class="cls-5" points="296.3 16.59 335.64 16.57 335.64 71.73"/><polyline class="cls-5" points="14.56 71.73 14.58 16.66 55.16 16.64"/></svg>